G04 #@! TF.GenerationSoftware,KiCad,Pcbnew,(5.1.4)-1*
G04 #@! TF.CreationDate,2021-04-18T18:25:46+02:00*
G04 #@! TF.ProjectId,KUPS-DIM-6CVLED,4b555053-2d44-4494-9d2d-3643564c4544,V00.03*
G04 #@! TF.SameCoordinates,Original*
G04 #@! TF.FileFunction,Soldermask,Bot*
G04 #@! TF.FilePolarity,Negative*
%FSLAX46Y46*%
G04 Gerber Fmt 4.6, Leading zero omitted, Abs format (unit mm)*
G04 Created by KiCad (PCBNEW (5.1.4)-1) date 2021-04-18 18:25:46*
%MOMM*%
%LPD*%
G04 APERTURE LIST*
%ADD10C,0.100000*%
G04 APERTURE END LIST*
D10*
G36*
X100936428Y-135862761D02*
G01*
X101037827Y-135893520D01*
X101115696Y-135917141D01*
X101280904Y-136005447D01*
X101425712Y-136124288D01*
X101544553Y-136269096D01*
X101632859Y-136434303D01*
X101687239Y-136613572D01*
X101701000Y-136753288D01*
X101701000Y-138646712D01*
X101687239Y-138786428D01*
X101632859Y-138965697D01*
X101544553Y-139130904D01*
X101425712Y-139275712D01*
X101280904Y-139394553D01*
X101115697Y-139482859D01*
X101041668Y-139505315D01*
X100936429Y-139537239D01*
X100750000Y-139555601D01*
X100563572Y-139537239D01*
X100458333Y-139505315D01*
X100384304Y-139482859D01*
X100219097Y-139394553D01*
X100074289Y-139275712D01*
X99955448Y-139130904D01*
X99867142Y-138965697D01*
X99812762Y-138786428D01*
X99799001Y-138646712D01*
X99799000Y-136753289D01*
X99812761Y-136613573D01*
X99812762Y-136613571D01*
X99867140Y-136434308D01*
X99867141Y-136434304D01*
X99955447Y-136269096D01*
X100074288Y-136124288D01*
X100219096Y-136005447D01*
X100384303Y-135917141D01*
X100462172Y-135893520D01*
X100563571Y-135862761D01*
X100750000Y-135844399D01*
X100936428Y-135862761D01*
X100936428Y-135862761D01*
G37*
G36*
X121936428Y-135862761D02*
G01*
X122037827Y-135893520D01*
X122115696Y-135917141D01*
X122280904Y-136005447D01*
X122425712Y-136124288D01*
X122544553Y-136269096D01*
X122632859Y-136434303D01*
X122687239Y-136613572D01*
X122701000Y-136753288D01*
X122701000Y-138646712D01*
X122687239Y-138786428D01*
X122632859Y-138965697D01*
X122544553Y-139130904D01*
X122425712Y-139275712D01*
X122280904Y-139394553D01*
X122115697Y-139482859D01*
X122041668Y-139505315D01*
X121936429Y-139537239D01*
X121750000Y-139555601D01*
X121563572Y-139537239D01*
X121458333Y-139505315D01*
X121384304Y-139482859D01*
X121219097Y-139394553D01*
X121074289Y-139275712D01*
X120955448Y-139130904D01*
X120867142Y-138965697D01*
X120812762Y-138786428D01*
X120799001Y-138646712D01*
X120799000Y-136753289D01*
X120812761Y-136613573D01*
X120812762Y-136613571D01*
X120867140Y-136434308D01*
X120867141Y-136434304D01*
X120955447Y-136269096D01*
X121074288Y-136124288D01*
X121219096Y-136005447D01*
X121384303Y-135917141D01*
X121462172Y-135893520D01*
X121563571Y-135862761D01*
X121750000Y-135844399D01*
X121936428Y-135862761D01*
X121936428Y-135862761D01*
G37*
G36*
X118436428Y-135862761D02*
G01*
X118537827Y-135893520D01*
X118615696Y-135917141D01*
X118780904Y-136005447D01*
X118925712Y-136124288D01*
X119044553Y-136269096D01*
X119132859Y-136434303D01*
X119187239Y-136613572D01*
X119201000Y-136753288D01*
X119201000Y-138646712D01*
X119187239Y-138786428D01*
X119132859Y-138965697D01*
X119044553Y-139130904D01*
X118925712Y-139275712D01*
X118780904Y-139394553D01*
X118615697Y-139482859D01*
X118541668Y-139505315D01*
X118436429Y-139537239D01*
X118250000Y-139555601D01*
X118063572Y-139537239D01*
X117958333Y-139505315D01*
X117884304Y-139482859D01*
X117719097Y-139394553D01*
X117574289Y-139275712D01*
X117455448Y-139130904D01*
X117367142Y-138965697D01*
X117312762Y-138786428D01*
X117299001Y-138646712D01*
X117299000Y-136753289D01*
X117312761Y-136613573D01*
X117312762Y-136613571D01*
X117367140Y-136434308D01*
X117367141Y-136434304D01*
X117455447Y-136269096D01*
X117574288Y-136124288D01*
X117719096Y-136005447D01*
X117884303Y-135917141D01*
X117962172Y-135893520D01*
X118063571Y-135862761D01*
X118250000Y-135844399D01*
X118436428Y-135862761D01*
X118436428Y-135862761D01*
G37*
G36*
X114936428Y-135862761D02*
G01*
X115037827Y-135893520D01*
X115115696Y-135917141D01*
X115280904Y-136005447D01*
X115425712Y-136124288D01*
X115544553Y-136269096D01*
X115632859Y-136434303D01*
X115687239Y-136613572D01*
X115701000Y-136753288D01*
X115701000Y-138646712D01*
X115687239Y-138786428D01*
X115632859Y-138965697D01*
X115544553Y-139130904D01*
X115425712Y-139275712D01*
X115280904Y-139394553D01*
X115115697Y-139482859D01*
X115041668Y-139505315D01*
X114936429Y-139537239D01*
X114750000Y-139555601D01*
X114563572Y-139537239D01*
X114458333Y-139505315D01*
X114384304Y-139482859D01*
X114219097Y-139394553D01*
X114074289Y-139275712D01*
X113955448Y-139130904D01*
X113867142Y-138965697D01*
X113812762Y-138786428D01*
X113799001Y-138646712D01*
X113799000Y-136753289D01*
X113812761Y-136613573D01*
X113812762Y-136613571D01*
X113867140Y-136434308D01*
X113867141Y-136434304D01*
X113955447Y-136269096D01*
X114074288Y-136124288D01*
X114219096Y-136005447D01*
X114384303Y-135917141D01*
X114462172Y-135893520D01*
X114563571Y-135862761D01*
X114750000Y-135844399D01*
X114936428Y-135862761D01*
X114936428Y-135862761D01*
G37*
G36*
X111436428Y-135862761D02*
G01*
X111537827Y-135893520D01*
X111615696Y-135917141D01*
X111780904Y-136005447D01*
X111925712Y-136124288D01*
X112044553Y-136269096D01*
X112132859Y-136434303D01*
X112187239Y-136613572D01*
X112201000Y-136753288D01*
X112201000Y-138646712D01*
X112187239Y-138786428D01*
X112132859Y-138965697D01*
X112044553Y-139130904D01*
X111925712Y-139275712D01*
X111780904Y-139394553D01*
X111615697Y-139482859D01*
X111541668Y-139505315D01*
X111436429Y-139537239D01*
X111250000Y-139555601D01*
X111063572Y-139537239D01*
X110958333Y-139505315D01*
X110884304Y-139482859D01*
X110719097Y-139394553D01*
X110574289Y-139275712D01*
X110455448Y-139130904D01*
X110367142Y-138965697D01*
X110312762Y-138786428D01*
X110299001Y-138646712D01*
X110299000Y-136753289D01*
X110312761Y-136613573D01*
X110312762Y-136613571D01*
X110367140Y-136434308D01*
X110367141Y-136434304D01*
X110455447Y-136269096D01*
X110574288Y-136124288D01*
X110719096Y-136005447D01*
X110884303Y-135917141D01*
X110962172Y-135893520D01*
X111063571Y-135862761D01*
X111250000Y-135844399D01*
X111436428Y-135862761D01*
X111436428Y-135862761D01*
G37*
G36*
X107936428Y-135862761D02*
G01*
X108037827Y-135893520D01*
X108115696Y-135917141D01*
X108280904Y-136005447D01*
X108425712Y-136124288D01*
X108544553Y-136269096D01*
X108632859Y-136434303D01*
X108687239Y-136613572D01*
X108701000Y-136753288D01*
X108701000Y-138646712D01*
X108687239Y-138786428D01*
X108632859Y-138965697D01*
X108544553Y-139130904D01*
X108425712Y-139275712D01*
X108280904Y-139394553D01*
X108115697Y-139482859D01*
X108041668Y-139505315D01*
X107936429Y-139537239D01*
X107750000Y-139555601D01*
X107563572Y-139537239D01*
X107458333Y-139505315D01*
X107384304Y-139482859D01*
X107219097Y-139394553D01*
X107074289Y-139275712D01*
X106955448Y-139130904D01*
X106867142Y-138965697D01*
X106812762Y-138786428D01*
X106799001Y-138646712D01*
X106799000Y-136753289D01*
X106812761Y-136613573D01*
X106812762Y-136613571D01*
X106867140Y-136434308D01*
X106867141Y-136434304D01*
X106955447Y-136269096D01*
X107074288Y-136124288D01*
X107219096Y-136005447D01*
X107384303Y-135917141D01*
X107462172Y-135893520D01*
X107563571Y-135862761D01*
X107750000Y-135844399D01*
X107936428Y-135862761D01*
X107936428Y-135862761D01*
G37*
G36*
X104436428Y-135862761D02*
G01*
X104537827Y-135893520D01*
X104615696Y-135917141D01*
X104780904Y-136005447D01*
X104925712Y-136124288D01*
X105044553Y-136269096D01*
X105132859Y-136434303D01*
X105187239Y-136613572D01*
X105201000Y-136753288D01*
X105201000Y-138646712D01*
X105187239Y-138786428D01*
X105132859Y-138965697D01*
X105044553Y-139130904D01*
X104925712Y-139275712D01*
X104780904Y-139394553D01*
X104615697Y-139482859D01*
X104541668Y-139505315D01*
X104436429Y-139537239D01*
X104250000Y-139555601D01*
X104063572Y-139537239D01*
X103958333Y-139505315D01*
X103884304Y-139482859D01*
X103719097Y-139394553D01*
X103574289Y-139275712D01*
X103455448Y-139130904D01*
X103367142Y-138965697D01*
X103312762Y-138786428D01*
X103299001Y-138646712D01*
X103299000Y-136753289D01*
X103312761Y-136613573D01*
X103312762Y-136613571D01*
X103367140Y-136434308D01*
X103367141Y-136434304D01*
X103455447Y-136269096D01*
X103574288Y-136124288D01*
X103719096Y-136005447D01*
X103884303Y-135917141D01*
X103962172Y-135893520D01*
X104063571Y-135862761D01*
X104250000Y-135844399D01*
X104436428Y-135862761D01*
X104436428Y-135862761D01*
G37*
G36*
X98002878Y-135853848D02*
G01*
X98049029Y-135867847D01*
X98091554Y-135890578D01*
X98128830Y-135921170D01*
X98159422Y-135958446D01*
X98182153Y-136000971D01*
X98196152Y-136047122D01*
X98201000Y-136096344D01*
X98201000Y-139303656D01*
X98196152Y-139352878D01*
X98182153Y-139399029D01*
X98159422Y-139441554D01*
X98128830Y-139478830D01*
X98091554Y-139509422D01*
X98049029Y-139532153D01*
X98002878Y-139546152D01*
X97953656Y-139551000D01*
X96546344Y-139551000D01*
X96497122Y-139546152D01*
X96450971Y-139532153D01*
X96408446Y-139509422D01*
X96371170Y-139478830D01*
X96340578Y-139441554D01*
X96317847Y-139399029D01*
X96303848Y-139352878D01*
X96299000Y-139303656D01*
X96299000Y-136096344D01*
X96303848Y-136047122D01*
X96317847Y-136000971D01*
X96340578Y-135958446D01*
X96371170Y-135921170D01*
X96408446Y-135890578D01*
X96450971Y-135867847D01*
X96497122Y-135853848D01*
X96546344Y-135849000D01*
X97953656Y-135849000D01*
X98002878Y-135853848D01*
X98002878Y-135853848D01*
G37*
G36*
X122219592Y-131183414D02*
G01*
X122360923Y-131226287D01*
X122391084Y-131235436D01*
X122540087Y-131315080D01*
X122549125Y-131319911D01*
X122687652Y-131433598D01*
X122801339Y-131572125D01*
X122801340Y-131572127D01*
X122885814Y-131730166D01*
X122885815Y-131730170D01*
X122937836Y-131901658D01*
X122955401Y-132080000D01*
X122937836Y-132258342D01*
X122902760Y-132373969D01*
X122885814Y-132429834D01*
X122806170Y-132578837D01*
X122801339Y-132587875D01*
X122687652Y-132726402D01*
X122549125Y-132840089D01*
X122549123Y-132840090D01*
X122391084Y-132924564D01*
X122360923Y-132933713D01*
X122219592Y-132976586D01*
X122085934Y-132989750D01*
X121914066Y-132989750D01*
X121780408Y-132976586D01*
X121639077Y-132933713D01*
X121608916Y-132924564D01*
X121450877Y-132840090D01*
X121450875Y-132840089D01*
X121312348Y-132726402D01*
X121198661Y-132587875D01*
X121193830Y-132578837D01*
X121114186Y-132429834D01*
X121097240Y-132373969D01*
X121062164Y-132258342D01*
X121044599Y-132080000D01*
X121062164Y-131901658D01*
X121114185Y-131730170D01*
X121114186Y-131730166D01*
X121198660Y-131572127D01*
X121198661Y-131572125D01*
X121312348Y-131433598D01*
X121450875Y-131319911D01*
X121459913Y-131315080D01*
X121608916Y-131235436D01*
X121639077Y-131226287D01*
X121780408Y-131183414D01*
X121914066Y-131170250D01*
X122085934Y-131170250D01*
X122219592Y-131183414D01*
X122219592Y-131183414D01*
G37*
G36*
X127219592Y-131183414D02*
G01*
X127360923Y-131226287D01*
X127391084Y-131235436D01*
X127540087Y-131315080D01*
X127549125Y-131319911D01*
X127687652Y-131433598D01*
X127801339Y-131572125D01*
X127801340Y-131572127D01*
X127885814Y-131730166D01*
X127885815Y-131730170D01*
X127937836Y-131901658D01*
X127955401Y-132080000D01*
X127937836Y-132258342D01*
X127902760Y-132373969D01*
X127885814Y-132429834D01*
X127806170Y-132578837D01*
X127801339Y-132587875D01*
X127687652Y-132726402D01*
X127549125Y-132840089D01*
X127549123Y-132840090D01*
X127391084Y-132924564D01*
X127360923Y-132933713D01*
X127219592Y-132976586D01*
X127085934Y-132989750D01*
X126914066Y-132989750D01*
X126780408Y-132976586D01*
X126639077Y-132933713D01*
X126608916Y-132924564D01*
X126450877Y-132840090D01*
X126450875Y-132840089D01*
X126312348Y-132726402D01*
X126198661Y-132587875D01*
X126193830Y-132578837D01*
X126114186Y-132429834D01*
X126097240Y-132373969D01*
X126062164Y-132258342D01*
X126044599Y-132080000D01*
X126062164Y-131901658D01*
X126114185Y-131730170D01*
X126114186Y-131730166D01*
X126198660Y-131572127D01*
X126198661Y-131572125D01*
X126312348Y-131433598D01*
X126450875Y-131319911D01*
X126459913Y-131315080D01*
X126608916Y-131235436D01*
X126639077Y-131226287D01*
X126780408Y-131183414D01*
X126914066Y-131170250D01*
X127085934Y-131170250D01*
X127219592Y-131183414D01*
X127219592Y-131183414D01*
G37*
G36*
X107219592Y-131183414D02*
G01*
X107360923Y-131226287D01*
X107391084Y-131235436D01*
X107540087Y-131315080D01*
X107549125Y-131319911D01*
X107687652Y-131433598D01*
X107801339Y-131572125D01*
X107801340Y-131572127D01*
X107885814Y-131730166D01*
X107885815Y-131730170D01*
X107937836Y-131901658D01*
X107955401Y-132080000D01*
X107937836Y-132258342D01*
X107902760Y-132373969D01*
X107885814Y-132429834D01*
X107806170Y-132578837D01*
X107801339Y-132587875D01*
X107687652Y-132726402D01*
X107549125Y-132840089D01*
X107549123Y-132840090D01*
X107391084Y-132924564D01*
X107360923Y-132933713D01*
X107219592Y-132976586D01*
X107085934Y-132989750D01*
X106914066Y-132989750D01*
X106780408Y-132976586D01*
X106639077Y-132933713D01*
X106608916Y-132924564D01*
X106450877Y-132840090D01*
X106450875Y-132840089D01*
X106312348Y-132726402D01*
X106198661Y-132587875D01*
X106193830Y-132578837D01*
X106114186Y-132429834D01*
X106097240Y-132373969D01*
X106062164Y-132258342D01*
X106044599Y-132080000D01*
X106062164Y-131901658D01*
X106114185Y-131730170D01*
X106114186Y-131730166D01*
X106198660Y-131572127D01*
X106198661Y-131572125D01*
X106312348Y-131433598D01*
X106450875Y-131319911D01*
X106459913Y-131315080D01*
X106608916Y-131235436D01*
X106639077Y-131226287D01*
X106780408Y-131183414D01*
X106914066Y-131170250D01*
X107085934Y-131170250D01*
X107219592Y-131183414D01*
X107219592Y-131183414D01*
G37*
G36*
X112219592Y-131183414D02*
G01*
X112360923Y-131226287D01*
X112391084Y-131235436D01*
X112540087Y-131315080D01*
X112549125Y-131319911D01*
X112687652Y-131433598D01*
X112801339Y-131572125D01*
X112801340Y-131572127D01*
X112885814Y-131730166D01*
X112885815Y-131730170D01*
X112937836Y-131901658D01*
X112955401Y-132080000D01*
X112937836Y-132258342D01*
X112902760Y-132373969D01*
X112885814Y-132429834D01*
X112806170Y-132578837D01*
X112801339Y-132587875D01*
X112687652Y-132726402D01*
X112549125Y-132840089D01*
X112549123Y-132840090D01*
X112391084Y-132924564D01*
X112360923Y-132933713D01*
X112219592Y-132976586D01*
X112085934Y-132989750D01*
X111914066Y-132989750D01*
X111780408Y-132976586D01*
X111639077Y-132933713D01*
X111608916Y-132924564D01*
X111450877Y-132840090D01*
X111450875Y-132840089D01*
X111312348Y-132726402D01*
X111198661Y-132587875D01*
X111193830Y-132578837D01*
X111114186Y-132429834D01*
X111097240Y-132373969D01*
X111062164Y-132258342D01*
X111044599Y-132080000D01*
X111062164Y-131901658D01*
X111114185Y-131730170D01*
X111114186Y-131730166D01*
X111198660Y-131572127D01*
X111198661Y-131572125D01*
X111312348Y-131433598D01*
X111450875Y-131319911D01*
X111459913Y-131315080D01*
X111608916Y-131235436D01*
X111639077Y-131226287D01*
X111780408Y-131183414D01*
X111914066Y-131170250D01*
X112085934Y-131170250D01*
X112219592Y-131183414D01*
X112219592Y-131183414D01*
G37*
G36*
X117219592Y-131183414D02*
G01*
X117360923Y-131226287D01*
X117391084Y-131235436D01*
X117540087Y-131315080D01*
X117549125Y-131319911D01*
X117687652Y-131433598D01*
X117801339Y-131572125D01*
X117801340Y-131572127D01*
X117885814Y-131730166D01*
X117885815Y-131730170D01*
X117937836Y-131901658D01*
X117955401Y-132080000D01*
X117937836Y-132258342D01*
X117902760Y-132373969D01*
X117885814Y-132429834D01*
X117806170Y-132578837D01*
X117801339Y-132587875D01*
X117687652Y-132726402D01*
X117549125Y-132840089D01*
X117549123Y-132840090D01*
X117391084Y-132924564D01*
X117360923Y-132933713D01*
X117219592Y-132976586D01*
X117085934Y-132989750D01*
X116914066Y-132989750D01*
X116780408Y-132976586D01*
X116639077Y-132933713D01*
X116608916Y-132924564D01*
X116450877Y-132840090D01*
X116450875Y-132840089D01*
X116312348Y-132726402D01*
X116198661Y-132587875D01*
X116193830Y-132578837D01*
X116114186Y-132429834D01*
X116097240Y-132373969D01*
X116062164Y-132258342D01*
X116044599Y-132080000D01*
X116062164Y-131901658D01*
X116114185Y-131730170D01*
X116114186Y-131730166D01*
X116198660Y-131572127D01*
X116198661Y-131572125D01*
X116312348Y-131433598D01*
X116450875Y-131319911D01*
X116459913Y-131315080D01*
X116608916Y-131235436D01*
X116639077Y-131226287D01*
X116780408Y-131183414D01*
X116914066Y-131170250D01*
X117085934Y-131170250D01*
X117219592Y-131183414D01*
X117219592Y-131183414D01*
G37*
G36*
X102219592Y-131103414D02*
G01*
X102360923Y-131146287D01*
X102391084Y-131155436D01*
X102540087Y-131235080D01*
X102549125Y-131239911D01*
X102687652Y-131353598D01*
X102801339Y-131492125D01*
X102801340Y-131492127D01*
X102885814Y-131650166D01*
X102885815Y-131650170D01*
X102937836Y-131821658D01*
X102955401Y-132000000D01*
X102937836Y-132178342D01*
X102913568Y-132258342D01*
X102885814Y-132349834D01*
X102834440Y-132445947D01*
X102801339Y-132507875D01*
X102687652Y-132646402D01*
X102549125Y-132760089D01*
X102549123Y-132760090D01*
X102391084Y-132844564D01*
X102360923Y-132853713D01*
X102219592Y-132896586D01*
X102085934Y-132909750D01*
X101914066Y-132909750D01*
X101780408Y-132896586D01*
X101639077Y-132853713D01*
X101608916Y-132844564D01*
X101450877Y-132760090D01*
X101450875Y-132760089D01*
X101312348Y-132646402D01*
X101198661Y-132507875D01*
X101165560Y-132445947D01*
X101114186Y-132349834D01*
X101086432Y-132258342D01*
X101062164Y-132178342D01*
X101044599Y-132000000D01*
X101062164Y-131821658D01*
X101114185Y-131650170D01*
X101114186Y-131650166D01*
X101198660Y-131492127D01*
X101198661Y-131492125D01*
X101312348Y-131353598D01*
X101450875Y-131239911D01*
X101459913Y-131235080D01*
X101608916Y-131155436D01*
X101639077Y-131146287D01*
X101780408Y-131103414D01*
X101914066Y-131090250D01*
X102085934Y-131090250D01*
X102219592Y-131103414D01*
X102219592Y-131103414D01*
G37*
G36*
X120224346Y-131303933D02*
G01*
X120271318Y-131318181D01*
X120314606Y-131341319D01*
X120352545Y-131372455D01*
X120383681Y-131410394D01*
X120406819Y-131453682D01*
X120421067Y-131500654D01*
X120426000Y-131550733D01*
X120426000Y-132199267D01*
X120421067Y-132249346D01*
X120406819Y-132296318D01*
X120383681Y-132339606D01*
X120352545Y-132377545D01*
X120314606Y-132408681D01*
X120271318Y-132431819D01*
X120224346Y-132446067D01*
X120174267Y-132451000D01*
X119625733Y-132451000D01*
X119575654Y-132446067D01*
X119528682Y-132431819D01*
X119485394Y-132408681D01*
X119447455Y-132377545D01*
X119416319Y-132339606D01*
X119393181Y-132296318D01*
X119378933Y-132249346D01*
X119374000Y-132199267D01*
X119374000Y-131550733D01*
X119378933Y-131500654D01*
X119393181Y-131453682D01*
X119416319Y-131410394D01*
X119447455Y-131372455D01*
X119485394Y-131341319D01*
X119528682Y-131318181D01*
X119575654Y-131303933D01*
X119625733Y-131299000D01*
X120174267Y-131299000D01*
X120224346Y-131303933D01*
X120224346Y-131303933D01*
G37*
G36*
X115224346Y-131303933D02*
G01*
X115271318Y-131318181D01*
X115314606Y-131341319D01*
X115352545Y-131372455D01*
X115383681Y-131410394D01*
X115406819Y-131453682D01*
X115421067Y-131500654D01*
X115426000Y-131550733D01*
X115426000Y-132199267D01*
X115421067Y-132249346D01*
X115406819Y-132296318D01*
X115383681Y-132339606D01*
X115352545Y-132377545D01*
X115314606Y-132408681D01*
X115271318Y-132431819D01*
X115224346Y-132446067D01*
X115174267Y-132451000D01*
X114625733Y-132451000D01*
X114575654Y-132446067D01*
X114528682Y-132431819D01*
X114485394Y-132408681D01*
X114447455Y-132377545D01*
X114416319Y-132339606D01*
X114393181Y-132296318D01*
X114378933Y-132249346D01*
X114374000Y-132199267D01*
X114374000Y-131550733D01*
X114378933Y-131500654D01*
X114393181Y-131453682D01*
X114416319Y-131410394D01*
X114447455Y-131372455D01*
X114485394Y-131341319D01*
X114528682Y-131318181D01*
X114575654Y-131303933D01*
X114625733Y-131299000D01*
X115174267Y-131299000D01*
X115224346Y-131303933D01*
X115224346Y-131303933D01*
G37*
G36*
X110224346Y-131303933D02*
G01*
X110271318Y-131318181D01*
X110314606Y-131341319D01*
X110352545Y-131372455D01*
X110383681Y-131410394D01*
X110406819Y-131453682D01*
X110421067Y-131500654D01*
X110426000Y-131550733D01*
X110426000Y-132199267D01*
X110421067Y-132249346D01*
X110406819Y-132296318D01*
X110383681Y-132339606D01*
X110352545Y-132377545D01*
X110314606Y-132408681D01*
X110271318Y-132431819D01*
X110224346Y-132446067D01*
X110174267Y-132451000D01*
X109625733Y-132451000D01*
X109575654Y-132446067D01*
X109528682Y-132431819D01*
X109485394Y-132408681D01*
X109447455Y-132377545D01*
X109416319Y-132339606D01*
X109393181Y-132296318D01*
X109378933Y-132249346D01*
X109374000Y-132199267D01*
X109374000Y-131550733D01*
X109378933Y-131500654D01*
X109393181Y-131453682D01*
X109416319Y-131410394D01*
X109447455Y-131372455D01*
X109485394Y-131341319D01*
X109528682Y-131318181D01*
X109575654Y-131303933D01*
X109625733Y-131299000D01*
X110174267Y-131299000D01*
X110224346Y-131303933D01*
X110224346Y-131303933D01*
G37*
G36*
X105224346Y-131303933D02*
G01*
X105271318Y-131318181D01*
X105314606Y-131341319D01*
X105352545Y-131372455D01*
X105383681Y-131410394D01*
X105406819Y-131453682D01*
X105421067Y-131500654D01*
X105426000Y-131550733D01*
X105426000Y-132199267D01*
X105421067Y-132249346D01*
X105406819Y-132296318D01*
X105383681Y-132339606D01*
X105352545Y-132377545D01*
X105314606Y-132408681D01*
X105271318Y-132431819D01*
X105224346Y-132446067D01*
X105174267Y-132451000D01*
X104625733Y-132451000D01*
X104575654Y-132446067D01*
X104528682Y-132431819D01*
X104485394Y-132408681D01*
X104447455Y-132377545D01*
X104416319Y-132339606D01*
X104393181Y-132296318D01*
X104378933Y-132249346D01*
X104374000Y-132199267D01*
X104374000Y-131550733D01*
X104378933Y-131500654D01*
X104393181Y-131453682D01*
X104416319Y-131410394D01*
X104447455Y-131372455D01*
X104485394Y-131341319D01*
X104528682Y-131318181D01*
X104575654Y-131303933D01*
X104625733Y-131299000D01*
X105174267Y-131299000D01*
X105224346Y-131303933D01*
X105224346Y-131303933D01*
G37*
G36*
X100224346Y-131303933D02*
G01*
X100271318Y-131318181D01*
X100314606Y-131341319D01*
X100352545Y-131372455D01*
X100383681Y-131410394D01*
X100406819Y-131453682D01*
X100421067Y-131500654D01*
X100426000Y-131550733D01*
X100426000Y-132199267D01*
X100421067Y-132249346D01*
X100406819Y-132296318D01*
X100383681Y-132339606D01*
X100352545Y-132377545D01*
X100314606Y-132408681D01*
X100271318Y-132431819D01*
X100224346Y-132446067D01*
X100174267Y-132451000D01*
X99625733Y-132451000D01*
X99575654Y-132446067D01*
X99528682Y-132431819D01*
X99485394Y-132408681D01*
X99447455Y-132377545D01*
X99416319Y-132339606D01*
X99393181Y-132296318D01*
X99378933Y-132249346D01*
X99374000Y-132199267D01*
X99374000Y-131550733D01*
X99378933Y-131500654D01*
X99393181Y-131453682D01*
X99416319Y-131410394D01*
X99447455Y-131372455D01*
X99485394Y-131341319D01*
X99528682Y-131318181D01*
X99575654Y-131303933D01*
X99625733Y-131299000D01*
X100174267Y-131299000D01*
X100224346Y-131303933D01*
X100224346Y-131303933D01*
G37*
G36*
X124724346Y-131303933D02*
G01*
X124771318Y-131318181D01*
X124814606Y-131341319D01*
X124852545Y-131372455D01*
X124883681Y-131410394D01*
X124906819Y-131453682D01*
X124921067Y-131500654D01*
X124926000Y-131550733D01*
X124926000Y-132199267D01*
X124921067Y-132249346D01*
X124906819Y-132296318D01*
X124883681Y-132339606D01*
X124852545Y-132377545D01*
X124814606Y-132408681D01*
X124771318Y-132431819D01*
X124724346Y-132446067D01*
X124674267Y-132451000D01*
X124125733Y-132451000D01*
X124075654Y-132446067D01*
X124028682Y-132431819D01*
X123985394Y-132408681D01*
X123947455Y-132377545D01*
X123916319Y-132339606D01*
X123893181Y-132296318D01*
X123878933Y-132249346D01*
X123874000Y-132199267D01*
X123874000Y-131550733D01*
X123878933Y-131500654D01*
X123893181Y-131453682D01*
X123916319Y-131410394D01*
X123947455Y-131372455D01*
X123985394Y-131341319D01*
X124028682Y-131318181D01*
X124075654Y-131303933D01*
X124125733Y-131299000D01*
X124674267Y-131299000D01*
X124724346Y-131303933D01*
X124724346Y-131303933D01*
G37*
G36*
X115224346Y-129553933D02*
G01*
X115271318Y-129568181D01*
X115314606Y-129591319D01*
X115352545Y-129622455D01*
X115383681Y-129660394D01*
X115406819Y-129703682D01*
X115421067Y-129750654D01*
X115426000Y-129800733D01*
X115426000Y-130449267D01*
X115421067Y-130499346D01*
X115406819Y-130546318D01*
X115383681Y-130589606D01*
X115352545Y-130627545D01*
X115314606Y-130658681D01*
X115271318Y-130681819D01*
X115224346Y-130696067D01*
X115174267Y-130701000D01*
X114625733Y-130701000D01*
X114575654Y-130696067D01*
X114528682Y-130681819D01*
X114485394Y-130658681D01*
X114447455Y-130627545D01*
X114416319Y-130589606D01*
X114393181Y-130546318D01*
X114378933Y-130499346D01*
X114374000Y-130449267D01*
X114374000Y-129800733D01*
X114378933Y-129750654D01*
X114393181Y-129703682D01*
X114416319Y-129660394D01*
X114447455Y-129622455D01*
X114485394Y-129591319D01*
X114528682Y-129568181D01*
X114575654Y-129553933D01*
X114625733Y-129549000D01*
X115174267Y-129549000D01*
X115224346Y-129553933D01*
X115224346Y-129553933D01*
G37*
G36*
X110224346Y-129553933D02*
G01*
X110271318Y-129568181D01*
X110314606Y-129591319D01*
X110352545Y-129622455D01*
X110383681Y-129660394D01*
X110406819Y-129703682D01*
X110421067Y-129750654D01*
X110426000Y-129800733D01*
X110426000Y-130449267D01*
X110421067Y-130499346D01*
X110406819Y-130546318D01*
X110383681Y-130589606D01*
X110352545Y-130627545D01*
X110314606Y-130658681D01*
X110271318Y-130681819D01*
X110224346Y-130696067D01*
X110174267Y-130701000D01*
X109625733Y-130701000D01*
X109575654Y-130696067D01*
X109528682Y-130681819D01*
X109485394Y-130658681D01*
X109447455Y-130627545D01*
X109416319Y-130589606D01*
X109393181Y-130546318D01*
X109378933Y-130499346D01*
X109374000Y-130449267D01*
X109374000Y-129800733D01*
X109378933Y-129750654D01*
X109393181Y-129703682D01*
X109416319Y-129660394D01*
X109447455Y-129622455D01*
X109485394Y-129591319D01*
X109528682Y-129568181D01*
X109575654Y-129553933D01*
X109625733Y-129549000D01*
X110174267Y-129549000D01*
X110224346Y-129553933D01*
X110224346Y-129553933D01*
G37*
G36*
X120224346Y-129553933D02*
G01*
X120271318Y-129568181D01*
X120314606Y-129591319D01*
X120352545Y-129622455D01*
X120383681Y-129660394D01*
X120406819Y-129703682D01*
X120421067Y-129750654D01*
X120426000Y-129800733D01*
X120426000Y-130449267D01*
X120421067Y-130499346D01*
X120406819Y-130546318D01*
X120383681Y-130589606D01*
X120352545Y-130627545D01*
X120314606Y-130658681D01*
X120271318Y-130681819D01*
X120224346Y-130696067D01*
X120174267Y-130701000D01*
X119625733Y-130701000D01*
X119575654Y-130696067D01*
X119528682Y-130681819D01*
X119485394Y-130658681D01*
X119447455Y-130627545D01*
X119416319Y-130589606D01*
X119393181Y-130546318D01*
X119378933Y-130499346D01*
X119374000Y-130449267D01*
X119374000Y-129800733D01*
X119378933Y-129750654D01*
X119393181Y-129703682D01*
X119416319Y-129660394D01*
X119447455Y-129622455D01*
X119485394Y-129591319D01*
X119528682Y-129568181D01*
X119575654Y-129553933D01*
X119625733Y-129549000D01*
X120174267Y-129549000D01*
X120224346Y-129553933D01*
X120224346Y-129553933D01*
G37*
G36*
X124724346Y-129553933D02*
G01*
X124771318Y-129568181D01*
X124814606Y-129591319D01*
X124852545Y-129622455D01*
X124883681Y-129660394D01*
X124906819Y-129703682D01*
X124921067Y-129750654D01*
X124926000Y-129800733D01*
X124926000Y-130449267D01*
X124921067Y-130499346D01*
X124906819Y-130546318D01*
X124883681Y-130589606D01*
X124852545Y-130627545D01*
X124814606Y-130658681D01*
X124771318Y-130681819D01*
X124724346Y-130696067D01*
X124674267Y-130701000D01*
X124125733Y-130701000D01*
X124075654Y-130696067D01*
X124028682Y-130681819D01*
X123985394Y-130658681D01*
X123947455Y-130627545D01*
X123916319Y-130589606D01*
X123893181Y-130546318D01*
X123878933Y-130499346D01*
X123874000Y-130449267D01*
X123874000Y-129800733D01*
X123878933Y-129750654D01*
X123893181Y-129703682D01*
X123916319Y-129660394D01*
X123947455Y-129622455D01*
X123985394Y-129591319D01*
X124028682Y-129568181D01*
X124075654Y-129553933D01*
X124125733Y-129549000D01*
X124674267Y-129549000D01*
X124724346Y-129553933D01*
X124724346Y-129553933D01*
G37*
G36*
X100224346Y-129553933D02*
G01*
X100271318Y-129568181D01*
X100314606Y-129591319D01*
X100352545Y-129622455D01*
X100383681Y-129660394D01*
X100406819Y-129703682D01*
X100421067Y-129750654D01*
X100426000Y-129800733D01*
X100426000Y-130449267D01*
X100421067Y-130499346D01*
X100406819Y-130546318D01*
X100383681Y-130589606D01*
X100352545Y-130627545D01*
X100314606Y-130658681D01*
X100271318Y-130681819D01*
X100224346Y-130696067D01*
X100174267Y-130701000D01*
X99625733Y-130701000D01*
X99575654Y-130696067D01*
X99528682Y-130681819D01*
X99485394Y-130658681D01*
X99447455Y-130627545D01*
X99416319Y-130589606D01*
X99393181Y-130546318D01*
X99378933Y-130499346D01*
X99374000Y-130449267D01*
X99374000Y-129800733D01*
X99378933Y-129750654D01*
X99393181Y-129703682D01*
X99416319Y-129660394D01*
X99447455Y-129622455D01*
X99485394Y-129591319D01*
X99528682Y-129568181D01*
X99575654Y-129553933D01*
X99625733Y-129549000D01*
X100174267Y-129549000D01*
X100224346Y-129553933D01*
X100224346Y-129553933D01*
G37*
G36*
X105224346Y-129553933D02*
G01*
X105271318Y-129568181D01*
X105314606Y-129591319D01*
X105352545Y-129622455D01*
X105383681Y-129660394D01*
X105406819Y-129703682D01*
X105421067Y-129750654D01*
X105426000Y-129800733D01*
X105426000Y-130449267D01*
X105421067Y-130499346D01*
X105406819Y-130546318D01*
X105383681Y-130589606D01*
X105352545Y-130627545D01*
X105314606Y-130658681D01*
X105271318Y-130681819D01*
X105224346Y-130696067D01*
X105174267Y-130701000D01*
X104625733Y-130701000D01*
X104575654Y-130696067D01*
X104528682Y-130681819D01*
X104485394Y-130658681D01*
X104447455Y-130627545D01*
X104416319Y-130589606D01*
X104393181Y-130546318D01*
X104378933Y-130499346D01*
X104374000Y-130449267D01*
X104374000Y-129800733D01*
X104378933Y-129750654D01*
X104393181Y-129703682D01*
X104416319Y-129660394D01*
X104447455Y-129622455D01*
X104485394Y-129591319D01*
X104528682Y-129568181D01*
X104575654Y-129553933D01*
X104625733Y-129549000D01*
X105174267Y-129549000D01*
X105224346Y-129553933D01*
X105224346Y-129553933D01*
G37*
G36*
X107219592Y-128893414D02*
G01*
X107360923Y-128936287D01*
X107391084Y-128945436D01*
X107540087Y-129025080D01*
X107549125Y-129029911D01*
X107687652Y-129143598D01*
X107801339Y-129282125D01*
X107801340Y-129282127D01*
X107885814Y-129440166D01*
X107885815Y-129440170D01*
X107937836Y-129611658D01*
X107955401Y-129790000D01*
X107937836Y-129968342D01*
X107894963Y-130109673D01*
X107885814Y-130139834D01*
X107806170Y-130288837D01*
X107801339Y-130297875D01*
X107687652Y-130436402D01*
X107549125Y-130550089D01*
X107549123Y-130550090D01*
X107391084Y-130634564D01*
X107360923Y-130643713D01*
X107219592Y-130686586D01*
X107085934Y-130699750D01*
X106914066Y-130699750D01*
X106780408Y-130686586D01*
X106639077Y-130643713D01*
X106608916Y-130634564D01*
X106450877Y-130550090D01*
X106450875Y-130550089D01*
X106312348Y-130436402D01*
X106198661Y-130297875D01*
X106193830Y-130288837D01*
X106114186Y-130139834D01*
X106105037Y-130109673D01*
X106062164Y-129968342D01*
X106044599Y-129790000D01*
X106062164Y-129611658D01*
X106114185Y-129440170D01*
X106114186Y-129440166D01*
X106198660Y-129282127D01*
X106198661Y-129282125D01*
X106312348Y-129143598D01*
X106450875Y-129029911D01*
X106459913Y-129025080D01*
X106608916Y-128945436D01*
X106639077Y-128936287D01*
X106780408Y-128893414D01*
X106914066Y-128880250D01*
X107085934Y-128880250D01*
X107219592Y-128893414D01*
X107219592Y-128893414D01*
G37*
G36*
X112219592Y-128893414D02*
G01*
X112360923Y-128936287D01*
X112391084Y-128945436D01*
X112540087Y-129025080D01*
X112549125Y-129029911D01*
X112687652Y-129143598D01*
X112801339Y-129282125D01*
X112801340Y-129282127D01*
X112885814Y-129440166D01*
X112885815Y-129440170D01*
X112937836Y-129611658D01*
X112955401Y-129790000D01*
X112937836Y-129968342D01*
X112894963Y-130109673D01*
X112885814Y-130139834D01*
X112806170Y-130288837D01*
X112801339Y-130297875D01*
X112687652Y-130436402D01*
X112549125Y-130550089D01*
X112549123Y-130550090D01*
X112391084Y-130634564D01*
X112360923Y-130643713D01*
X112219592Y-130686586D01*
X112085934Y-130699750D01*
X111914066Y-130699750D01*
X111780408Y-130686586D01*
X111639077Y-130643713D01*
X111608916Y-130634564D01*
X111450877Y-130550090D01*
X111450875Y-130550089D01*
X111312348Y-130436402D01*
X111198661Y-130297875D01*
X111193830Y-130288837D01*
X111114186Y-130139834D01*
X111105037Y-130109673D01*
X111062164Y-129968342D01*
X111044599Y-129790000D01*
X111062164Y-129611658D01*
X111114185Y-129440170D01*
X111114186Y-129440166D01*
X111198660Y-129282127D01*
X111198661Y-129282125D01*
X111312348Y-129143598D01*
X111450875Y-129029911D01*
X111459913Y-129025080D01*
X111608916Y-128945436D01*
X111639077Y-128936287D01*
X111780408Y-128893414D01*
X111914066Y-128880250D01*
X112085934Y-128880250D01*
X112219592Y-128893414D01*
X112219592Y-128893414D01*
G37*
G36*
X117219592Y-128893414D02*
G01*
X117360923Y-128936287D01*
X117391084Y-128945436D01*
X117540087Y-129025080D01*
X117549125Y-129029911D01*
X117687652Y-129143598D01*
X117801339Y-129282125D01*
X117801340Y-129282127D01*
X117885814Y-129440166D01*
X117885815Y-129440170D01*
X117937836Y-129611658D01*
X117955401Y-129790000D01*
X117937836Y-129968342D01*
X117894963Y-130109673D01*
X117885814Y-130139834D01*
X117806170Y-130288837D01*
X117801339Y-130297875D01*
X117687652Y-130436402D01*
X117549125Y-130550089D01*
X117549123Y-130550090D01*
X117391084Y-130634564D01*
X117360923Y-130643713D01*
X117219592Y-130686586D01*
X117085934Y-130699750D01*
X116914066Y-130699750D01*
X116780408Y-130686586D01*
X116639077Y-130643713D01*
X116608916Y-130634564D01*
X116450877Y-130550090D01*
X116450875Y-130550089D01*
X116312348Y-130436402D01*
X116198661Y-130297875D01*
X116193830Y-130288837D01*
X116114186Y-130139834D01*
X116105037Y-130109673D01*
X116062164Y-129968342D01*
X116044599Y-129790000D01*
X116062164Y-129611658D01*
X116114185Y-129440170D01*
X116114186Y-129440166D01*
X116198660Y-129282127D01*
X116198661Y-129282125D01*
X116312348Y-129143598D01*
X116450875Y-129029911D01*
X116459913Y-129025080D01*
X116608916Y-128945436D01*
X116639077Y-128936287D01*
X116780408Y-128893414D01*
X116914066Y-128880250D01*
X117085934Y-128880250D01*
X117219592Y-128893414D01*
X117219592Y-128893414D01*
G37*
G36*
X127219592Y-128893414D02*
G01*
X127360923Y-128936287D01*
X127391084Y-128945436D01*
X127540087Y-129025080D01*
X127549125Y-129029911D01*
X127687652Y-129143598D01*
X127801339Y-129282125D01*
X127801340Y-129282127D01*
X127885814Y-129440166D01*
X127885815Y-129440170D01*
X127937836Y-129611658D01*
X127955401Y-129790000D01*
X127937836Y-129968342D01*
X127894963Y-130109673D01*
X127885814Y-130139834D01*
X127806170Y-130288837D01*
X127801339Y-130297875D01*
X127687652Y-130436402D01*
X127549125Y-130550089D01*
X127549123Y-130550090D01*
X127391084Y-130634564D01*
X127360923Y-130643713D01*
X127219592Y-130686586D01*
X127085934Y-130699750D01*
X126914066Y-130699750D01*
X126780408Y-130686586D01*
X126639077Y-130643713D01*
X126608916Y-130634564D01*
X126450877Y-130550090D01*
X126450875Y-130550089D01*
X126312348Y-130436402D01*
X126198661Y-130297875D01*
X126193830Y-130288837D01*
X126114186Y-130139834D01*
X126105037Y-130109673D01*
X126062164Y-129968342D01*
X126044599Y-129790000D01*
X126062164Y-129611658D01*
X126114185Y-129440170D01*
X126114186Y-129440166D01*
X126198660Y-129282127D01*
X126198661Y-129282125D01*
X126312348Y-129143598D01*
X126450875Y-129029911D01*
X126459913Y-129025080D01*
X126608916Y-128945436D01*
X126639077Y-128936287D01*
X126780408Y-128893414D01*
X126914066Y-128880250D01*
X127085934Y-128880250D01*
X127219592Y-128893414D01*
X127219592Y-128893414D01*
G37*
G36*
X122219592Y-128893414D02*
G01*
X122360923Y-128936287D01*
X122391084Y-128945436D01*
X122540087Y-129025080D01*
X122549125Y-129029911D01*
X122687652Y-129143598D01*
X122801339Y-129282125D01*
X122801340Y-129282127D01*
X122885814Y-129440166D01*
X122885815Y-129440170D01*
X122937836Y-129611658D01*
X122955401Y-129790000D01*
X122937836Y-129968342D01*
X122894963Y-130109673D01*
X122885814Y-130139834D01*
X122806170Y-130288837D01*
X122801339Y-130297875D01*
X122687652Y-130436402D01*
X122549125Y-130550089D01*
X122549123Y-130550090D01*
X122391084Y-130634564D01*
X122360923Y-130643713D01*
X122219592Y-130686586D01*
X122085934Y-130699750D01*
X121914066Y-130699750D01*
X121780408Y-130686586D01*
X121639077Y-130643713D01*
X121608916Y-130634564D01*
X121450877Y-130550090D01*
X121450875Y-130550089D01*
X121312348Y-130436402D01*
X121198661Y-130297875D01*
X121193830Y-130288837D01*
X121114186Y-130139834D01*
X121105037Y-130109673D01*
X121062164Y-129968342D01*
X121044599Y-129790000D01*
X121062164Y-129611658D01*
X121114185Y-129440170D01*
X121114186Y-129440166D01*
X121198660Y-129282127D01*
X121198661Y-129282125D01*
X121312348Y-129143598D01*
X121450875Y-129029911D01*
X121459913Y-129025080D01*
X121608916Y-128945436D01*
X121639077Y-128936287D01*
X121780408Y-128893414D01*
X121914066Y-128880250D01*
X122085934Y-128880250D01*
X122219592Y-128893414D01*
X122219592Y-128893414D01*
G37*
G36*
X102219592Y-128813414D02*
G01*
X102360923Y-128856287D01*
X102391084Y-128865436D01*
X102515277Y-128931819D01*
X102549125Y-128949911D01*
X102687652Y-129063598D01*
X102801339Y-129202125D01*
X102801340Y-129202127D01*
X102885814Y-129360166D01*
X102885815Y-129360170D01*
X102937836Y-129531658D01*
X102955401Y-129710000D01*
X102937836Y-129888342D01*
X102913568Y-129968342D01*
X102885814Y-130059834D01*
X102806170Y-130208837D01*
X102801339Y-130217875D01*
X102687652Y-130356402D01*
X102549125Y-130470089D01*
X102549123Y-130470090D01*
X102391084Y-130554564D01*
X102360923Y-130563713D01*
X102219592Y-130606586D01*
X102085934Y-130619750D01*
X101914066Y-130619750D01*
X101780408Y-130606586D01*
X101639077Y-130563713D01*
X101608916Y-130554564D01*
X101450877Y-130470090D01*
X101450875Y-130470089D01*
X101312348Y-130356402D01*
X101198661Y-130217875D01*
X101193830Y-130208837D01*
X101114186Y-130059834D01*
X101086432Y-129968342D01*
X101062164Y-129888342D01*
X101044599Y-129710000D01*
X101062164Y-129531658D01*
X101114185Y-129360170D01*
X101114186Y-129360166D01*
X101198660Y-129202127D01*
X101198661Y-129202125D01*
X101312348Y-129063598D01*
X101450875Y-128949911D01*
X101484723Y-128931819D01*
X101608916Y-128865436D01*
X101639077Y-128856287D01*
X101780408Y-128813414D01*
X101914066Y-128800250D01*
X102085934Y-128800250D01*
X102219592Y-128813414D01*
X102219592Y-128813414D01*
G37*
G36*
X93376000Y-129471000D02*
G01*
X92624000Y-129471000D01*
X92624000Y-128149000D01*
X93376000Y-128149000D01*
X93376000Y-129471000D01*
X93376000Y-129471000D01*
G37*
G36*
X115224346Y-127803933D02*
G01*
X115271318Y-127818181D01*
X115314606Y-127841319D01*
X115352545Y-127872455D01*
X115383681Y-127910394D01*
X115406819Y-127953682D01*
X115421067Y-128000654D01*
X115426000Y-128050733D01*
X115426000Y-128699267D01*
X115421067Y-128749346D01*
X115406819Y-128796318D01*
X115383681Y-128839606D01*
X115352545Y-128877545D01*
X115314606Y-128908681D01*
X115271318Y-128931819D01*
X115224346Y-128946067D01*
X115174267Y-128951000D01*
X114625733Y-128951000D01*
X114575654Y-128946067D01*
X114528682Y-128931819D01*
X114485394Y-128908681D01*
X114447455Y-128877545D01*
X114416319Y-128839606D01*
X114393181Y-128796318D01*
X114378933Y-128749346D01*
X114374000Y-128699267D01*
X114374000Y-128050733D01*
X114378933Y-128000654D01*
X114393181Y-127953682D01*
X114416319Y-127910394D01*
X114447455Y-127872455D01*
X114485394Y-127841319D01*
X114528682Y-127818181D01*
X114575654Y-127803933D01*
X114625733Y-127799000D01*
X115174267Y-127799000D01*
X115224346Y-127803933D01*
X115224346Y-127803933D01*
G37*
G36*
X124724346Y-127803933D02*
G01*
X124771318Y-127818181D01*
X124814606Y-127841319D01*
X124852545Y-127872455D01*
X124883681Y-127910394D01*
X124906819Y-127953682D01*
X124921067Y-128000654D01*
X124926000Y-128050733D01*
X124926000Y-128699267D01*
X124921067Y-128749346D01*
X124906819Y-128796318D01*
X124883681Y-128839606D01*
X124852545Y-128877545D01*
X124814606Y-128908681D01*
X124771318Y-128931819D01*
X124724346Y-128946067D01*
X124674267Y-128951000D01*
X124125733Y-128951000D01*
X124075654Y-128946067D01*
X124028682Y-128931819D01*
X123985394Y-128908681D01*
X123947455Y-128877545D01*
X123916319Y-128839606D01*
X123893181Y-128796318D01*
X123878933Y-128749346D01*
X123874000Y-128699267D01*
X123874000Y-128050733D01*
X123878933Y-128000654D01*
X123893181Y-127953682D01*
X123916319Y-127910394D01*
X123947455Y-127872455D01*
X123985394Y-127841319D01*
X124028682Y-127818181D01*
X124075654Y-127803933D01*
X124125733Y-127799000D01*
X124674267Y-127799000D01*
X124724346Y-127803933D01*
X124724346Y-127803933D01*
G37*
G36*
X120224346Y-127803933D02*
G01*
X120271318Y-127818181D01*
X120314606Y-127841319D01*
X120352545Y-127872455D01*
X120383681Y-127910394D01*
X120406819Y-127953682D01*
X120421067Y-128000654D01*
X120426000Y-128050733D01*
X120426000Y-128699267D01*
X120421067Y-128749346D01*
X120406819Y-128796318D01*
X120383681Y-128839606D01*
X120352545Y-128877545D01*
X120314606Y-128908681D01*
X120271318Y-128931819D01*
X120224346Y-128946067D01*
X120174267Y-128951000D01*
X119625733Y-128951000D01*
X119575654Y-128946067D01*
X119528682Y-128931819D01*
X119485394Y-128908681D01*
X119447455Y-128877545D01*
X119416319Y-128839606D01*
X119393181Y-128796318D01*
X119378933Y-128749346D01*
X119374000Y-128699267D01*
X119374000Y-128050733D01*
X119378933Y-128000654D01*
X119393181Y-127953682D01*
X119416319Y-127910394D01*
X119447455Y-127872455D01*
X119485394Y-127841319D01*
X119528682Y-127818181D01*
X119575654Y-127803933D01*
X119625733Y-127799000D01*
X120174267Y-127799000D01*
X120224346Y-127803933D01*
X120224346Y-127803933D01*
G37*
G36*
X110224346Y-127803933D02*
G01*
X110271318Y-127818181D01*
X110314606Y-127841319D01*
X110352545Y-127872455D01*
X110383681Y-127910394D01*
X110406819Y-127953682D01*
X110421067Y-128000654D01*
X110426000Y-128050733D01*
X110426000Y-128699267D01*
X110421067Y-128749346D01*
X110406819Y-128796318D01*
X110383681Y-128839606D01*
X110352545Y-128877545D01*
X110314606Y-128908681D01*
X110271318Y-128931819D01*
X110224346Y-128946067D01*
X110174267Y-128951000D01*
X109625733Y-128951000D01*
X109575654Y-128946067D01*
X109528682Y-128931819D01*
X109485394Y-128908681D01*
X109447455Y-128877545D01*
X109416319Y-128839606D01*
X109393181Y-128796318D01*
X109378933Y-128749346D01*
X109374000Y-128699267D01*
X109374000Y-128050733D01*
X109378933Y-128000654D01*
X109393181Y-127953682D01*
X109416319Y-127910394D01*
X109447455Y-127872455D01*
X109485394Y-127841319D01*
X109528682Y-127818181D01*
X109575654Y-127803933D01*
X109625733Y-127799000D01*
X110174267Y-127799000D01*
X110224346Y-127803933D01*
X110224346Y-127803933D01*
G37*
G36*
X100224346Y-127803933D02*
G01*
X100271318Y-127818181D01*
X100314606Y-127841319D01*
X100352545Y-127872455D01*
X100383681Y-127910394D01*
X100406819Y-127953682D01*
X100421067Y-128000654D01*
X100426000Y-128050733D01*
X100426000Y-128699267D01*
X100421067Y-128749346D01*
X100406819Y-128796318D01*
X100383681Y-128839606D01*
X100352545Y-128877545D01*
X100314606Y-128908681D01*
X100271318Y-128931819D01*
X100224346Y-128946067D01*
X100174267Y-128951000D01*
X99625733Y-128951000D01*
X99575654Y-128946067D01*
X99528682Y-128931819D01*
X99485394Y-128908681D01*
X99447455Y-128877545D01*
X99416319Y-128839606D01*
X99393181Y-128796318D01*
X99378933Y-128749346D01*
X99374000Y-128699267D01*
X99374000Y-128050733D01*
X99378933Y-128000654D01*
X99393181Y-127953682D01*
X99416319Y-127910394D01*
X99447455Y-127872455D01*
X99485394Y-127841319D01*
X99528682Y-127818181D01*
X99575654Y-127803933D01*
X99625733Y-127799000D01*
X100174267Y-127799000D01*
X100224346Y-127803933D01*
X100224346Y-127803933D01*
G37*
G36*
X105224346Y-127803933D02*
G01*
X105271318Y-127818181D01*
X105314606Y-127841319D01*
X105352545Y-127872455D01*
X105383681Y-127910394D01*
X105406819Y-127953682D01*
X105421067Y-128000654D01*
X105426000Y-128050733D01*
X105426000Y-128699267D01*
X105421067Y-128749346D01*
X105406819Y-128796318D01*
X105383681Y-128839606D01*
X105352545Y-128877545D01*
X105314606Y-128908681D01*
X105271318Y-128931819D01*
X105224346Y-128946067D01*
X105174267Y-128951000D01*
X104625733Y-128951000D01*
X104575654Y-128946067D01*
X104528682Y-128931819D01*
X104485394Y-128908681D01*
X104447455Y-128877545D01*
X104416319Y-128839606D01*
X104393181Y-128796318D01*
X104378933Y-128749346D01*
X104374000Y-128699267D01*
X104374000Y-128050733D01*
X104378933Y-128000654D01*
X104393181Y-127953682D01*
X104416319Y-127910394D01*
X104447455Y-127872455D01*
X104485394Y-127841319D01*
X104528682Y-127818181D01*
X104575654Y-127803933D01*
X104625733Y-127799000D01*
X105174267Y-127799000D01*
X105224346Y-127803933D01*
X105224346Y-127803933D01*
G37*
G36*
X96824346Y-127428933D02*
G01*
X96871318Y-127443181D01*
X96914606Y-127466319D01*
X96952545Y-127497455D01*
X96983681Y-127535394D01*
X97006819Y-127578682D01*
X97021067Y-127625654D01*
X97026000Y-127675733D01*
X97026000Y-128324267D01*
X97021067Y-128374346D01*
X97006819Y-128421318D01*
X96983681Y-128464606D01*
X96952545Y-128502545D01*
X96914606Y-128533681D01*
X96871318Y-128556819D01*
X96824346Y-128571067D01*
X96774267Y-128576000D01*
X96225733Y-128576000D01*
X96175654Y-128571067D01*
X96128682Y-128556819D01*
X96085394Y-128533681D01*
X96047455Y-128502545D01*
X96016319Y-128464606D01*
X95993181Y-128421318D01*
X95978933Y-128374346D01*
X95974000Y-128324267D01*
X95974000Y-127675733D01*
X95978933Y-127625654D01*
X95993181Y-127578682D01*
X96016319Y-127535394D01*
X96047455Y-127497455D01*
X96085394Y-127466319D01*
X96128682Y-127443181D01*
X96175654Y-127428933D01*
X96225733Y-127424000D01*
X96774267Y-127424000D01*
X96824346Y-127428933D01*
X96824346Y-127428933D01*
G37*
G36*
X127951000Y-128409750D02*
G01*
X126049000Y-128409750D01*
X126049000Y-126590250D01*
X127951000Y-126590250D01*
X127951000Y-128409750D01*
X127951000Y-128409750D01*
G37*
G36*
X122951000Y-128409750D02*
G01*
X121049000Y-128409750D01*
X121049000Y-126590250D01*
X122951000Y-126590250D01*
X122951000Y-128409750D01*
X122951000Y-128409750D01*
G37*
G36*
X117951000Y-128409750D02*
G01*
X116049000Y-128409750D01*
X116049000Y-126590250D01*
X117951000Y-126590250D01*
X117951000Y-128409750D01*
X117951000Y-128409750D01*
G37*
G36*
X112951000Y-128409750D02*
G01*
X111049000Y-128409750D01*
X111049000Y-126590250D01*
X112951000Y-126590250D01*
X112951000Y-128409750D01*
X112951000Y-128409750D01*
G37*
G36*
X107951000Y-128409750D02*
G01*
X106049000Y-128409750D01*
X106049000Y-126590250D01*
X107951000Y-126590250D01*
X107951000Y-128409750D01*
X107951000Y-128409750D01*
G37*
G36*
X102951000Y-128329750D02*
G01*
X101049000Y-128329750D01*
X101049000Y-126510250D01*
X102951000Y-126510250D01*
X102951000Y-128329750D01*
X102951000Y-128329750D01*
G37*
G36*
X105224346Y-126053933D02*
G01*
X105271318Y-126068181D01*
X105314606Y-126091319D01*
X105352545Y-126122455D01*
X105383681Y-126160394D01*
X105406819Y-126203682D01*
X105421067Y-126250654D01*
X105426000Y-126300733D01*
X105426000Y-126949267D01*
X105421067Y-126999346D01*
X105406819Y-127046318D01*
X105383681Y-127089606D01*
X105352545Y-127127545D01*
X105314606Y-127158681D01*
X105271318Y-127181819D01*
X105224346Y-127196067D01*
X105174267Y-127201000D01*
X104625733Y-127201000D01*
X104575654Y-127196067D01*
X104528682Y-127181819D01*
X104485394Y-127158681D01*
X104447455Y-127127545D01*
X104416319Y-127089606D01*
X104393181Y-127046318D01*
X104378933Y-126999346D01*
X104374000Y-126949267D01*
X104374000Y-126300733D01*
X104378933Y-126250654D01*
X104393181Y-126203682D01*
X104416319Y-126160394D01*
X104447455Y-126122455D01*
X104485394Y-126091319D01*
X104528682Y-126068181D01*
X104575654Y-126053933D01*
X104625733Y-126049000D01*
X105174267Y-126049000D01*
X105224346Y-126053933D01*
X105224346Y-126053933D01*
G37*
G36*
X120224346Y-126053933D02*
G01*
X120271318Y-126068181D01*
X120314606Y-126091319D01*
X120352545Y-126122455D01*
X120383681Y-126160394D01*
X120406819Y-126203682D01*
X120421067Y-126250654D01*
X120426000Y-126300733D01*
X120426000Y-126949267D01*
X120421067Y-126999346D01*
X120406819Y-127046318D01*
X120383681Y-127089606D01*
X120352545Y-127127545D01*
X120314606Y-127158681D01*
X120271318Y-127181819D01*
X120224346Y-127196067D01*
X120174267Y-127201000D01*
X119625733Y-127201000D01*
X119575654Y-127196067D01*
X119528682Y-127181819D01*
X119485394Y-127158681D01*
X119447455Y-127127545D01*
X119416319Y-127089606D01*
X119393181Y-127046318D01*
X119378933Y-126999346D01*
X119374000Y-126949267D01*
X119374000Y-126300733D01*
X119378933Y-126250654D01*
X119393181Y-126203682D01*
X119416319Y-126160394D01*
X119447455Y-126122455D01*
X119485394Y-126091319D01*
X119528682Y-126068181D01*
X119575654Y-126053933D01*
X119625733Y-126049000D01*
X120174267Y-126049000D01*
X120224346Y-126053933D01*
X120224346Y-126053933D01*
G37*
G36*
X100224346Y-126053933D02*
G01*
X100271318Y-126068181D01*
X100314606Y-126091319D01*
X100352545Y-126122455D01*
X100383681Y-126160394D01*
X100406819Y-126203682D01*
X100421067Y-126250654D01*
X100426000Y-126300733D01*
X100426000Y-126949267D01*
X100421067Y-126999346D01*
X100406819Y-127046318D01*
X100383681Y-127089606D01*
X100352545Y-127127545D01*
X100314606Y-127158681D01*
X100271318Y-127181819D01*
X100224346Y-127196067D01*
X100174267Y-127201000D01*
X99625733Y-127201000D01*
X99575654Y-127196067D01*
X99528682Y-127181819D01*
X99485394Y-127158681D01*
X99447455Y-127127545D01*
X99416319Y-127089606D01*
X99393181Y-127046318D01*
X99378933Y-126999346D01*
X99374000Y-126949267D01*
X99374000Y-126300733D01*
X99378933Y-126250654D01*
X99393181Y-126203682D01*
X99416319Y-126160394D01*
X99447455Y-126122455D01*
X99485394Y-126091319D01*
X99528682Y-126068181D01*
X99575654Y-126053933D01*
X99625733Y-126049000D01*
X100174267Y-126049000D01*
X100224346Y-126053933D01*
X100224346Y-126053933D01*
G37*
G36*
X110224346Y-126053933D02*
G01*
X110271318Y-126068181D01*
X110314606Y-126091319D01*
X110352545Y-126122455D01*
X110383681Y-126160394D01*
X110406819Y-126203682D01*
X110421067Y-126250654D01*
X110426000Y-126300733D01*
X110426000Y-126949267D01*
X110421067Y-126999346D01*
X110406819Y-127046318D01*
X110383681Y-127089606D01*
X110352545Y-127127545D01*
X110314606Y-127158681D01*
X110271318Y-127181819D01*
X110224346Y-127196067D01*
X110174267Y-127201000D01*
X109625733Y-127201000D01*
X109575654Y-127196067D01*
X109528682Y-127181819D01*
X109485394Y-127158681D01*
X109447455Y-127127545D01*
X109416319Y-127089606D01*
X109393181Y-127046318D01*
X109378933Y-126999346D01*
X109374000Y-126949267D01*
X109374000Y-126300733D01*
X109378933Y-126250654D01*
X109393181Y-126203682D01*
X109416319Y-126160394D01*
X109447455Y-126122455D01*
X109485394Y-126091319D01*
X109528682Y-126068181D01*
X109575654Y-126053933D01*
X109625733Y-126049000D01*
X110174267Y-126049000D01*
X110224346Y-126053933D01*
X110224346Y-126053933D01*
G37*
G36*
X115224346Y-126053933D02*
G01*
X115271318Y-126068181D01*
X115314606Y-126091319D01*
X115352545Y-126122455D01*
X115383681Y-126160394D01*
X115406819Y-126203682D01*
X115421067Y-126250654D01*
X115426000Y-126300733D01*
X115426000Y-126949267D01*
X115421067Y-126999346D01*
X115406819Y-127046318D01*
X115383681Y-127089606D01*
X115352545Y-127127545D01*
X115314606Y-127158681D01*
X115271318Y-127181819D01*
X115224346Y-127196067D01*
X115174267Y-127201000D01*
X114625733Y-127201000D01*
X114575654Y-127196067D01*
X114528682Y-127181819D01*
X114485394Y-127158681D01*
X114447455Y-127127545D01*
X114416319Y-127089606D01*
X114393181Y-127046318D01*
X114378933Y-126999346D01*
X114374000Y-126949267D01*
X114374000Y-126300733D01*
X114378933Y-126250654D01*
X114393181Y-126203682D01*
X114416319Y-126160394D01*
X114447455Y-126122455D01*
X114485394Y-126091319D01*
X114528682Y-126068181D01*
X114575654Y-126053933D01*
X114625733Y-126049000D01*
X115174267Y-126049000D01*
X115224346Y-126053933D01*
X115224346Y-126053933D01*
G37*
G36*
X124724346Y-126053933D02*
G01*
X124771318Y-126068181D01*
X124814606Y-126091319D01*
X124852545Y-126122455D01*
X124883681Y-126160394D01*
X124906819Y-126203682D01*
X124921067Y-126250654D01*
X124926000Y-126300733D01*
X124926000Y-126949267D01*
X124921067Y-126999346D01*
X124906819Y-127046318D01*
X124883681Y-127089606D01*
X124852545Y-127127545D01*
X124814606Y-127158681D01*
X124771318Y-127181819D01*
X124724346Y-127196067D01*
X124674267Y-127201000D01*
X124125733Y-127201000D01*
X124075654Y-127196067D01*
X124028682Y-127181819D01*
X123985394Y-127158681D01*
X123947455Y-127127545D01*
X123916319Y-127089606D01*
X123893181Y-127046318D01*
X123878933Y-126999346D01*
X123874000Y-126949267D01*
X123874000Y-126300733D01*
X123878933Y-126250654D01*
X123893181Y-126203682D01*
X123916319Y-126160394D01*
X123947455Y-126122455D01*
X123985394Y-126091319D01*
X124028682Y-126068181D01*
X124075654Y-126053933D01*
X124125733Y-126049000D01*
X124674267Y-126049000D01*
X124724346Y-126053933D01*
X124724346Y-126053933D01*
G37*
G36*
X94326000Y-126851000D02*
G01*
X93574000Y-126851000D01*
X93574000Y-125529000D01*
X94326000Y-125529000D01*
X94326000Y-126851000D01*
X94326000Y-126851000D01*
G37*
G36*
X92426000Y-126851000D02*
G01*
X91674000Y-126851000D01*
X91674000Y-125529000D01*
X92426000Y-125529000D01*
X92426000Y-126851000D01*
X92426000Y-126851000D01*
G37*
G36*
X96824346Y-125678933D02*
G01*
X96871318Y-125693181D01*
X96914606Y-125716319D01*
X96952545Y-125747455D01*
X96983681Y-125785394D01*
X97006819Y-125828682D01*
X97021067Y-125875654D01*
X97026000Y-125925733D01*
X97026000Y-126574267D01*
X97021067Y-126624346D01*
X97006819Y-126671318D01*
X96983681Y-126714606D01*
X96952545Y-126752545D01*
X96914606Y-126783681D01*
X96871318Y-126806819D01*
X96824346Y-126821067D01*
X96774267Y-126826000D01*
X96225733Y-126826000D01*
X96175654Y-126821067D01*
X96128682Y-126806819D01*
X96085394Y-126783681D01*
X96047455Y-126752545D01*
X96016319Y-126714606D01*
X95993181Y-126671318D01*
X95978933Y-126624346D01*
X95974000Y-126574267D01*
X95974000Y-125925733D01*
X95978933Y-125875654D01*
X95993181Y-125828682D01*
X96016319Y-125785394D01*
X96047455Y-125747455D01*
X96085394Y-125716319D01*
X96128682Y-125693181D01*
X96175654Y-125678933D01*
X96225733Y-125674000D01*
X96774267Y-125674000D01*
X96824346Y-125678933D01*
X96824346Y-125678933D01*
G37*
G36*
X95686329Y-119356819D02*
G01*
X95860869Y-119391537D01*
X96097634Y-119489608D01*
X96097635Y-119489609D01*
X96310719Y-119631987D01*
X96491933Y-119813201D01*
X96528107Y-119867339D01*
X96634312Y-120026286D01*
X96732383Y-120263051D01*
X96782380Y-120514404D01*
X96782380Y-120770676D01*
X96732383Y-121022029D01*
X96634312Y-121258794D01*
X96491932Y-121471880D01*
X96310720Y-121653092D01*
X96097634Y-121795472D01*
X95860869Y-121893543D01*
X95735193Y-121918541D01*
X95609517Y-121943540D01*
X95353243Y-121943540D01*
X95227567Y-121918541D01*
X95101891Y-121893543D01*
X94865126Y-121795472D01*
X94652040Y-121653092D01*
X94470828Y-121471880D01*
X94328448Y-121258794D01*
X94230377Y-121022029D01*
X94180380Y-120770676D01*
X94180380Y-120514404D01*
X94230377Y-120263051D01*
X94328448Y-120026286D01*
X94434653Y-119867339D01*
X94470827Y-119813201D01*
X94652041Y-119631987D01*
X94865125Y-119489609D01*
X94865126Y-119489608D01*
X95101891Y-119391537D01*
X95276431Y-119356819D01*
X95353243Y-119341540D01*
X95609517Y-119341540D01*
X95686329Y-119356819D01*
X95686329Y-119356819D01*
G37*
G36*
X99326000Y-121287000D02*
G01*
X98824000Y-121287000D01*
X98824000Y-119485000D01*
X99326000Y-119485000D01*
X99326000Y-121287000D01*
X99326000Y-121287000D01*
G37*
G36*
X100626000Y-121287000D02*
G01*
X100124000Y-121287000D01*
X100124000Y-119485000D01*
X100626000Y-119485000D01*
X100626000Y-121287000D01*
X100626000Y-121287000D01*
G37*
G36*
X101926000Y-121287000D02*
G01*
X101424000Y-121287000D01*
X101424000Y-119485000D01*
X101926000Y-119485000D01*
X101926000Y-121287000D01*
X101926000Y-121287000D01*
G37*
G36*
X102576000Y-121287000D02*
G01*
X102074000Y-121287000D01*
X102074000Y-119485000D01*
X102576000Y-119485000D01*
X102576000Y-121287000D01*
X102576000Y-121287000D01*
G37*
G36*
X103226000Y-121287000D02*
G01*
X102724000Y-121287000D01*
X102724000Y-119485000D01*
X103226000Y-119485000D01*
X103226000Y-121287000D01*
X103226000Y-121287000D01*
G37*
G36*
X103876000Y-121287000D02*
G01*
X103374000Y-121287000D01*
X103374000Y-119485000D01*
X103876000Y-119485000D01*
X103876000Y-121287000D01*
X103876000Y-121287000D01*
G37*
G36*
X104526000Y-121287000D02*
G01*
X104024000Y-121287000D01*
X104024000Y-119485000D01*
X104526000Y-119485000D01*
X104526000Y-121287000D01*
X104526000Y-121287000D01*
G37*
G36*
X105176000Y-121287000D02*
G01*
X104674000Y-121287000D01*
X104674000Y-119485000D01*
X105176000Y-119485000D01*
X105176000Y-121287000D01*
X105176000Y-121287000D01*
G37*
G36*
X105826000Y-121287000D02*
G01*
X105324000Y-121287000D01*
X105324000Y-119485000D01*
X105826000Y-119485000D01*
X105826000Y-121287000D01*
X105826000Y-121287000D01*
G37*
G36*
X106476000Y-121287000D02*
G01*
X105974000Y-121287000D01*
X105974000Y-119485000D01*
X106476000Y-119485000D01*
X106476000Y-121287000D01*
X106476000Y-121287000D01*
G37*
G36*
X107126000Y-121287000D02*
G01*
X106624000Y-121287000D01*
X106624000Y-119485000D01*
X107126000Y-119485000D01*
X107126000Y-121287000D01*
X107126000Y-121287000D01*
G37*
G36*
X107776000Y-121287000D02*
G01*
X107274000Y-121287000D01*
X107274000Y-119485000D01*
X107776000Y-119485000D01*
X107776000Y-121287000D01*
X107776000Y-121287000D01*
G37*
G36*
X99976000Y-121287000D02*
G01*
X99474000Y-121287000D01*
X99474000Y-119485000D01*
X99976000Y-119485000D01*
X99976000Y-121287000D01*
X99976000Y-121287000D01*
G37*
G36*
X101276000Y-121287000D02*
G01*
X100774000Y-121287000D01*
X100774000Y-119485000D01*
X101276000Y-119485000D01*
X101276000Y-121287000D01*
X101276000Y-121287000D01*
G37*
G36*
X116494780Y-119762251D02*
G01*
X116525330Y-119771519D01*
X116553492Y-119786572D01*
X116578173Y-119806827D01*
X116598428Y-119831508D01*
X116613481Y-119859670D01*
X116622749Y-119890220D01*
X116626000Y-119923231D01*
X116626000Y-120296769D01*
X116622749Y-120329780D01*
X116613481Y-120360330D01*
X116598428Y-120388492D01*
X116578173Y-120413173D01*
X116553492Y-120433428D01*
X116525330Y-120448481D01*
X116494780Y-120457749D01*
X116461769Y-120461000D01*
X115138231Y-120461000D01*
X115105220Y-120457749D01*
X115074670Y-120448481D01*
X115046508Y-120433428D01*
X115021827Y-120413173D01*
X115001572Y-120388492D01*
X114986519Y-120360330D01*
X114977251Y-120329780D01*
X114974000Y-120296769D01*
X114974000Y-119923231D01*
X114977251Y-119890220D01*
X114986519Y-119859670D01*
X115001572Y-119831508D01*
X115021827Y-119806827D01*
X115046508Y-119786572D01*
X115074670Y-119771519D01*
X115105220Y-119762251D01*
X115138231Y-119759000D01*
X116461769Y-119759000D01*
X116494780Y-119762251D01*
X116494780Y-119762251D01*
G37*
G36*
X121844780Y-119762251D02*
G01*
X121875330Y-119771519D01*
X121903492Y-119786572D01*
X121928173Y-119806827D01*
X121948428Y-119831508D01*
X121963481Y-119859670D01*
X121972749Y-119890220D01*
X121976000Y-119923231D01*
X121976000Y-120296769D01*
X121972749Y-120329780D01*
X121963481Y-120360330D01*
X121948428Y-120388492D01*
X121928173Y-120413173D01*
X121903492Y-120433428D01*
X121875330Y-120448481D01*
X121844780Y-120457749D01*
X121811769Y-120461000D01*
X120488231Y-120461000D01*
X120455220Y-120457749D01*
X120424670Y-120448481D01*
X120396508Y-120433428D01*
X120371827Y-120413173D01*
X120351572Y-120388492D01*
X120336519Y-120360330D01*
X120327251Y-120329780D01*
X120324000Y-120296769D01*
X120324000Y-119923231D01*
X120327251Y-119890220D01*
X120336519Y-119859670D01*
X120351572Y-119831508D01*
X120371827Y-119806827D01*
X120396508Y-119786572D01*
X120424670Y-119771519D01*
X120455220Y-119762251D01*
X120488231Y-119759000D01*
X121811769Y-119759000D01*
X121844780Y-119762251D01*
X121844780Y-119762251D01*
G37*
G36*
X123843275Y-118579078D02*
G01*
X123891663Y-118593756D01*
X123936252Y-118617589D01*
X123975336Y-118649664D01*
X124007411Y-118688748D01*
X124031244Y-118733337D01*
X124045922Y-118781725D01*
X124051000Y-118833276D01*
X124051000Y-119566724D01*
X124045922Y-119618275D01*
X124031244Y-119666663D01*
X124007411Y-119711252D01*
X123975336Y-119750336D01*
X123936252Y-119782411D01*
X123891663Y-119806244D01*
X123843275Y-119820922D01*
X123791724Y-119826000D01*
X122808276Y-119826000D01*
X122756725Y-119820922D01*
X122708337Y-119806244D01*
X122663748Y-119782411D01*
X122624664Y-119750336D01*
X122592589Y-119711252D01*
X122568756Y-119666663D01*
X122554078Y-119618275D01*
X122549000Y-119566724D01*
X122549000Y-118833276D01*
X122554078Y-118781725D01*
X122568756Y-118733337D01*
X122592589Y-118688748D01*
X122624664Y-118649664D01*
X122663748Y-118617589D01*
X122708337Y-118593756D01*
X122756725Y-118579078D01*
X122808276Y-118574000D01*
X123791724Y-118574000D01*
X123843275Y-118579078D01*
X123843275Y-118579078D01*
G37*
G36*
X114143275Y-118529078D02*
G01*
X114191663Y-118543756D01*
X114236252Y-118567589D01*
X114275336Y-118599664D01*
X114307411Y-118638748D01*
X114331244Y-118683337D01*
X114345922Y-118731725D01*
X114351000Y-118783276D01*
X114351000Y-119516724D01*
X114345922Y-119568275D01*
X114331244Y-119616663D01*
X114307411Y-119661252D01*
X114275336Y-119700336D01*
X114236252Y-119732411D01*
X114191663Y-119756244D01*
X114143275Y-119770922D01*
X114091724Y-119776000D01*
X113108276Y-119776000D01*
X113056725Y-119770922D01*
X113008337Y-119756244D01*
X112963748Y-119732411D01*
X112924664Y-119700336D01*
X112892589Y-119661252D01*
X112868756Y-119616663D01*
X112854078Y-119568275D01*
X112849000Y-119516724D01*
X112849000Y-118783276D01*
X112854078Y-118731725D01*
X112868756Y-118683337D01*
X112892589Y-118638748D01*
X112924664Y-118599664D01*
X112963748Y-118567589D01*
X113008337Y-118543756D01*
X113056725Y-118529078D01*
X113108276Y-118524000D01*
X114091724Y-118524000D01*
X114143275Y-118529078D01*
X114143275Y-118529078D01*
G37*
G36*
X127224346Y-118528933D02*
G01*
X127271318Y-118543181D01*
X127314606Y-118566319D01*
X127352545Y-118597455D01*
X127383681Y-118635394D01*
X127406819Y-118678682D01*
X127421067Y-118725654D01*
X127426000Y-118775733D01*
X127426000Y-119424267D01*
X127421067Y-119474346D01*
X127406819Y-119521318D01*
X127383681Y-119564606D01*
X127352545Y-119602545D01*
X127314606Y-119633681D01*
X127271318Y-119656819D01*
X127224346Y-119671067D01*
X127174267Y-119676000D01*
X126625733Y-119676000D01*
X126575654Y-119671067D01*
X126528682Y-119656819D01*
X126485394Y-119633681D01*
X126447455Y-119602545D01*
X126416319Y-119564606D01*
X126393181Y-119521318D01*
X126378933Y-119474346D01*
X126374000Y-119424267D01*
X126374000Y-118775733D01*
X126378933Y-118725654D01*
X126393181Y-118678682D01*
X126416319Y-118635394D01*
X126447455Y-118597455D01*
X126485394Y-118566319D01*
X126528682Y-118543181D01*
X126575654Y-118528933D01*
X126625733Y-118524000D01*
X127174267Y-118524000D01*
X127224346Y-118528933D01*
X127224346Y-118528933D01*
G37*
G36*
X125524346Y-118528933D02*
G01*
X125571318Y-118543181D01*
X125614606Y-118566319D01*
X125652545Y-118597455D01*
X125683681Y-118635394D01*
X125706819Y-118678682D01*
X125721067Y-118725654D01*
X125726000Y-118775733D01*
X125726000Y-119424267D01*
X125721067Y-119474346D01*
X125706819Y-119521318D01*
X125683681Y-119564606D01*
X125652545Y-119602545D01*
X125614606Y-119633681D01*
X125571318Y-119656819D01*
X125524346Y-119671067D01*
X125474267Y-119676000D01*
X124925733Y-119676000D01*
X124875654Y-119671067D01*
X124828682Y-119656819D01*
X124785394Y-119633681D01*
X124747455Y-119602545D01*
X124716319Y-119564606D01*
X124693181Y-119521318D01*
X124678933Y-119474346D01*
X124674000Y-119424267D01*
X124674000Y-118775733D01*
X124678933Y-118725654D01*
X124693181Y-118678682D01*
X124716319Y-118635394D01*
X124747455Y-118597455D01*
X124785394Y-118566319D01*
X124828682Y-118543181D01*
X124875654Y-118528933D01*
X124925733Y-118524000D01*
X125474267Y-118524000D01*
X125524346Y-118528933D01*
X125524346Y-118528933D01*
G37*
G36*
X111824346Y-118228933D02*
G01*
X111871318Y-118243181D01*
X111914606Y-118266319D01*
X111952545Y-118297455D01*
X111983681Y-118335394D01*
X112006819Y-118378682D01*
X112021067Y-118425654D01*
X112026000Y-118475733D01*
X112026000Y-119124267D01*
X112021067Y-119174346D01*
X112006819Y-119221318D01*
X111983681Y-119264606D01*
X111952545Y-119302545D01*
X111914606Y-119333681D01*
X111871318Y-119356819D01*
X111824346Y-119371067D01*
X111774267Y-119376000D01*
X111225733Y-119376000D01*
X111175654Y-119371067D01*
X111128682Y-119356819D01*
X111085394Y-119333681D01*
X111047455Y-119302545D01*
X111016319Y-119264606D01*
X110993181Y-119221318D01*
X110978933Y-119174346D01*
X110974000Y-119124267D01*
X110974000Y-118475733D01*
X110978933Y-118425654D01*
X110993181Y-118378682D01*
X111016319Y-118335394D01*
X111047455Y-118297455D01*
X111085394Y-118266319D01*
X111128682Y-118243181D01*
X111175654Y-118228933D01*
X111225733Y-118224000D01*
X111774267Y-118224000D01*
X111824346Y-118228933D01*
X111824346Y-118228933D01*
G37*
G36*
X110124346Y-118228933D02*
G01*
X110171318Y-118243181D01*
X110214606Y-118266319D01*
X110252545Y-118297455D01*
X110283681Y-118335394D01*
X110306819Y-118378682D01*
X110321067Y-118425654D01*
X110326000Y-118475733D01*
X110326000Y-119124267D01*
X110321067Y-119174346D01*
X110306819Y-119221318D01*
X110283681Y-119264606D01*
X110252545Y-119302545D01*
X110214606Y-119333681D01*
X110171318Y-119356819D01*
X110124346Y-119371067D01*
X110074267Y-119376000D01*
X109525733Y-119376000D01*
X109475654Y-119371067D01*
X109428682Y-119356819D01*
X109385394Y-119333681D01*
X109347455Y-119302545D01*
X109316319Y-119264606D01*
X109293181Y-119221318D01*
X109278933Y-119174346D01*
X109274000Y-119124267D01*
X109274000Y-118475733D01*
X109278933Y-118425654D01*
X109293181Y-118378682D01*
X109316319Y-118335394D01*
X109347455Y-118297455D01*
X109385394Y-118266319D01*
X109428682Y-118243181D01*
X109475654Y-118228933D01*
X109525733Y-118224000D01*
X110074267Y-118224000D01*
X110124346Y-118228933D01*
X110124346Y-118228933D01*
G37*
G36*
X121844780Y-118492251D02*
G01*
X121875330Y-118501519D01*
X121903492Y-118516572D01*
X121928173Y-118536827D01*
X121948428Y-118561508D01*
X121963481Y-118589670D01*
X121972749Y-118620220D01*
X121976000Y-118653231D01*
X121976000Y-119026769D01*
X121972749Y-119059780D01*
X121963481Y-119090330D01*
X121948428Y-119118492D01*
X121928173Y-119143173D01*
X121903492Y-119163428D01*
X121875330Y-119178481D01*
X121844780Y-119187749D01*
X121811769Y-119191000D01*
X120488231Y-119191000D01*
X120455220Y-119187749D01*
X120424670Y-119178481D01*
X120396508Y-119163428D01*
X120371827Y-119143173D01*
X120351572Y-119118492D01*
X120336519Y-119090330D01*
X120327251Y-119059780D01*
X120324000Y-119026769D01*
X120324000Y-118653231D01*
X120327251Y-118620220D01*
X120336519Y-118589670D01*
X120351572Y-118561508D01*
X120371827Y-118536827D01*
X120396508Y-118516572D01*
X120424670Y-118501519D01*
X120455220Y-118492251D01*
X120488231Y-118489000D01*
X121811769Y-118489000D01*
X121844780Y-118492251D01*
X121844780Y-118492251D01*
G37*
G36*
X116494780Y-118492251D02*
G01*
X116525330Y-118501519D01*
X116553492Y-118516572D01*
X116578173Y-118536827D01*
X116598428Y-118561508D01*
X116613481Y-118589670D01*
X116622749Y-118620220D01*
X116626000Y-118653231D01*
X116626000Y-119026769D01*
X116622749Y-119059780D01*
X116613481Y-119090330D01*
X116598428Y-119118492D01*
X116578173Y-119143173D01*
X116553492Y-119163428D01*
X116525330Y-119178481D01*
X116494780Y-119187749D01*
X116461769Y-119191000D01*
X115138231Y-119191000D01*
X115105220Y-119187749D01*
X115074670Y-119178481D01*
X115046508Y-119163428D01*
X115021827Y-119143173D01*
X115001572Y-119118492D01*
X114986519Y-119090330D01*
X114977251Y-119059780D01*
X114974000Y-119026769D01*
X114974000Y-118653231D01*
X114977251Y-118620220D01*
X114986519Y-118589670D01*
X115001572Y-118561508D01*
X115021827Y-118536827D01*
X115046508Y-118516572D01*
X115074670Y-118501519D01*
X115105220Y-118492251D01*
X115138231Y-118489000D01*
X116461769Y-118489000D01*
X116494780Y-118492251D01*
X116494780Y-118492251D01*
G37*
G36*
X127224346Y-116778933D02*
G01*
X127271318Y-116793181D01*
X127314606Y-116816319D01*
X127352545Y-116847455D01*
X127383681Y-116885394D01*
X127406819Y-116928682D01*
X127421067Y-116975654D01*
X127426000Y-117025733D01*
X127426000Y-117674267D01*
X127421067Y-117724346D01*
X127406819Y-117771318D01*
X127383681Y-117814606D01*
X127352545Y-117852545D01*
X127314606Y-117883681D01*
X127271318Y-117906819D01*
X127224346Y-117921067D01*
X127174267Y-117926000D01*
X126625733Y-117926000D01*
X126575654Y-117921067D01*
X126528682Y-117906819D01*
X126485394Y-117883681D01*
X126447455Y-117852545D01*
X126416319Y-117814606D01*
X126393181Y-117771318D01*
X126378933Y-117724346D01*
X126374000Y-117674267D01*
X126374000Y-117025733D01*
X126378933Y-116975654D01*
X126393181Y-116928682D01*
X126416319Y-116885394D01*
X126447455Y-116847455D01*
X126485394Y-116816319D01*
X126528682Y-116793181D01*
X126575654Y-116778933D01*
X126625733Y-116774000D01*
X127174267Y-116774000D01*
X127224346Y-116778933D01*
X127224346Y-116778933D01*
G37*
G36*
X125524346Y-116778933D02*
G01*
X125571318Y-116793181D01*
X125614606Y-116816319D01*
X125652545Y-116847455D01*
X125683681Y-116885394D01*
X125706819Y-116928682D01*
X125721067Y-116975654D01*
X125726000Y-117025733D01*
X125726000Y-117674267D01*
X125721067Y-117724346D01*
X125706819Y-117771318D01*
X125683681Y-117814606D01*
X125652545Y-117852545D01*
X125614606Y-117883681D01*
X125571318Y-117906819D01*
X125524346Y-117921067D01*
X125474267Y-117926000D01*
X124925733Y-117926000D01*
X124875654Y-117921067D01*
X124828682Y-117906819D01*
X124785394Y-117883681D01*
X124747455Y-117852545D01*
X124716319Y-117814606D01*
X124693181Y-117771318D01*
X124678933Y-117724346D01*
X124674000Y-117674267D01*
X124674000Y-117025733D01*
X124678933Y-116975654D01*
X124693181Y-116928682D01*
X124716319Y-116885394D01*
X124747455Y-116847455D01*
X124785394Y-116816319D01*
X124828682Y-116793181D01*
X124875654Y-116778933D01*
X124925733Y-116774000D01*
X125474267Y-116774000D01*
X125524346Y-116778933D01*
X125524346Y-116778933D01*
G37*
G36*
X116494780Y-117222251D02*
G01*
X116525330Y-117231519D01*
X116553492Y-117246572D01*
X116578173Y-117266827D01*
X116598428Y-117291508D01*
X116613481Y-117319670D01*
X116622749Y-117350220D01*
X116626000Y-117383231D01*
X116626000Y-117756769D01*
X116622749Y-117789780D01*
X116613481Y-117820330D01*
X116598428Y-117848492D01*
X116578173Y-117873173D01*
X116553492Y-117893428D01*
X116525330Y-117908481D01*
X116494780Y-117917749D01*
X116461769Y-117921000D01*
X115138231Y-117921000D01*
X115105220Y-117917749D01*
X115074670Y-117908481D01*
X115046508Y-117893428D01*
X115021827Y-117873173D01*
X115001572Y-117848492D01*
X114986519Y-117820330D01*
X114977251Y-117789780D01*
X114974000Y-117756769D01*
X114974000Y-117383231D01*
X114977251Y-117350220D01*
X114986519Y-117319670D01*
X115001572Y-117291508D01*
X115021827Y-117266827D01*
X115046508Y-117246572D01*
X115074670Y-117231519D01*
X115105220Y-117222251D01*
X115138231Y-117219000D01*
X116461769Y-117219000D01*
X116494780Y-117222251D01*
X116494780Y-117222251D01*
G37*
G36*
X121844780Y-117222251D02*
G01*
X121875330Y-117231519D01*
X121903492Y-117246572D01*
X121928173Y-117266827D01*
X121948428Y-117291508D01*
X121963481Y-117319670D01*
X121972749Y-117350220D01*
X121976000Y-117383231D01*
X121976000Y-117756769D01*
X121972749Y-117789780D01*
X121963481Y-117820330D01*
X121948428Y-117848492D01*
X121928173Y-117873173D01*
X121903492Y-117893428D01*
X121875330Y-117908481D01*
X121844780Y-117917749D01*
X121811769Y-117921000D01*
X120488231Y-117921000D01*
X120455220Y-117917749D01*
X120424670Y-117908481D01*
X120396508Y-117893428D01*
X120371827Y-117873173D01*
X120351572Y-117848492D01*
X120336519Y-117820330D01*
X120327251Y-117789780D01*
X120324000Y-117756769D01*
X120324000Y-117383231D01*
X120327251Y-117350220D01*
X120336519Y-117319670D01*
X120351572Y-117291508D01*
X120371827Y-117266827D01*
X120396508Y-117246572D01*
X120424670Y-117231519D01*
X120455220Y-117222251D01*
X120488231Y-117219000D01*
X121811769Y-117219000D01*
X121844780Y-117222251D01*
X121844780Y-117222251D01*
G37*
G36*
X123843275Y-116529078D02*
G01*
X123891663Y-116543756D01*
X123936252Y-116567589D01*
X123975336Y-116599664D01*
X124007411Y-116638748D01*
X124031244Y-116683337D01*
X124045922Y-116731725D01*
X124051000Y-116783276D01*
X124051000Y-117516724D01*
X124045922Y-117568275D01*
X124031244Y-117616663D01*
X124007411Y-117661252D01*
X123975336Y-117700336D01*
X123936252Y-117732411D01*
X123891663Y-117756244D01*
X123843275Y-117770922D01*
X123791724Y-117776000D01*
X122808276Y-117776000D01*
X122756725Y-117770922D01*
X122708337Y-117756244D01*
X122663748Y-117732411D01*
X122624664Y-117700336D01*
X122592589Y-117661252D01*
X122568756Y-117616663D01*
X122554078Y-117568275D01*
X122549000Y-117516724D01*
X122549000Y-116783276D01*
X122554078Y-116731725D01*
X122568756Y-116683337D01*
X122592589Y-116638748D01*
X122624664Y-116599664D01*
X122663748Y-116567589D01*
X122708337Y-116543756D01*
X122756725Y-116529078D01*
X122808276Y-116524000D01*
X123791724Y-116524000D01*
X123843275Y-116529078D01*
X123843275Y-116529078D01*
G37*
G36*
X114143275Y-116479078D02*
G01*
X114191663Y-116493756D01*
X114236252Y-116517589D01*
X114275336Y-116549664D01*
X114307411Y-116588748D01*
X114331244Y-116633337D01*
X114345922Y-116681725D01*
X114351000Y-116733276D01*
X114351000Y-117466724D01*
X114345922Y-117518275D01*
X114331244Y-117566663D01*
X114307411Y-117611252D01*
X114275336Y-117650336D01*
X114236252Y-117682411D01*
X114191663Y-117706244D01*
X114143275Y-117720922D01*
X114091724Y-117726000D01*
X113108276Y-117726000D01*
X113056725Y-117720922D01*
X113008337Y-117706244D01*
X112963748Y-117682411D01*
X112924664Y-117650336D01*
X112892589Y-117611252D01*
X112868756Y-117566663D01*
X112854078Y-117518275D01*
X112849000Y-117466724D01*
X112849000Y-116733276D01*
X112854078Y-116681725D01*
X112868756Y-116633337D01*
X112892589Y-116588748D01*
X112924664Y-116549664D01*
X112963748Y-116517589D01*
X113008337Y-116493756D01*
X113056725Y-116479078D01*
X113108276Y-116474000D01*
X114091724Y-116474000D01*
X114143275Y-116479078D01*
X114143275Y-116479078D01*
G37*
G36*
X111824346Y-116478933D02*
G01*
X111871318Y-116493181D01*
X111914606Y-116516319D01*
X111952545Y-116547455D01*
X111983681Y-116585394D01*
X112006819Y-116628682D01*
X112021067Y-116675654D01*
X112026000Y-116725733D01*
X112026000Y-117374267D01*
X112021067Y-117424346D01*
X112006819Y-117471318D01*
X111983681Y-117514606D01*
X111952545Y-117552545D01*
X111914606Y-117583681D01*
X111871318Y-117606819D01*
X111824346Y-117621067D01*
X111774267Y-117626000D01*
X111225733Y-117626000D01*
X111175654Y-117621067D01*
X111128682Y-117606819D01*
X111085394Y-117583681D01*
X111047455Y-117552545D01*
X111016319Y-117514606D01*
X110993181Y-117471318D01*
X110978933Y-117424346D01*
X110974000Y-117374267D01*
X110974000Y-116725733D01*
X110978933Y-116675654D01*
X110993181Y-116628682D01*
X111016319Y-116585394D01*
X111047455Y-116547455D01*
X111085394Y-116516319D01*
X111128682Y-116493181D01*
X111175654Y-116478933D01*
X111225733Y-116474000D01*
X111774267Y-116474000D01*
X111824346Y-116478933D01*
X111824346Y-116478933D01*
G37*
G36*
X110124346Y-116478933D02*
G01*
X110171318Y-116493181D01*
X110214606Y-116516319D01*
X110252545Y-116547455D01*
X110283681Y-116585394D01*
X110306819Y-116628682D01*
X110321067Y-116675654D01*
X110326000Y-116725733D01*
X110326000Y-117374267D01*
X110321067Y-117424346D01*
X110306819Y-117471318D01*
X110283681Y-117514606D01*
X110252545Y-117552545D01*
X110214606Y-117583681D01*
X110171318Y-117606819D01*
X110124346Y-117621067D01*
X110074267Y-117626000D01*
X109525733Y-117626000D01*
X109475654Y-117621067D01*
X109428682Y-117606819D01*
X109385394Y-117583681D01*
X109347455Y-117552545D01*
X109316319Y-117514606D01*
X109293181Y-117471318D01*
X109278933Y-117424346D01*
X109274000Y-117374267D01*
X109274000Y-116725733D01*
X109278933Y-116675654D01*
X109293181Y-116628682D01*
X109316319Y-116585394D01*
X109347455Y-116547455D01*
X109385394Y-116516319D01*
X109428682Y-116493181D01*
X109475654Y-116478933D01*
X109525733Y-116474000D01*
X110074267Y-116474000D01*
X110124346Y-116478933D01*
X110124346Y-116478933D01*
G37*
G36*
X121844780Y-115952251D02*
G01*
X121875330Y-115961519D01*
X121903492Y-115976572D01*
X121928173Y-115996827D01*
X121948428Y-116021508D01*
X121963481Y-116049670D01*
X121972749Y-116080220D01*
X121976000Y-116113231D01*
X121976000Y-116486769D01*
X121972749Y-116519780D01*
X121963481Y-116550330D01*
X121948428Y-116578492D01*
X121928173Y-116603173D01*
X121903492Y-116623428D01*
X121875330Y-116638481D01*
X121844780Y-116647749D01*
X121811769Y-116651000D01*
X120488231Y-116651000D01*
X120455220Y-116647749D01*
X120424670Y-116638481D01*
X120396508Y-116623428D01*
X120371827Y-116603173D01*
X120351572Y-116578492D01*
X120336519Y-116550330D01*
X120327251Y-116519780D01*
X120324000Y-116486769D01*
X120324000Y-116113231D01*
X120327251Y-116080220D01*
X120336519Y-116049670D01*
X120351572Y-116021508D01*
X120371827Y-115996827D01*
X120396508Y-115976572D01*
X120424670Y-115961519D01*
X120455220Y-115952251D01*
X120488231Y-115949000D01*
X121811769Y-115949000D01*
X121844780Y-115952251D01*
X121844780Y-115952251D01*
G37*
G36*
X116494780Y-115952251D02*
G01*
X116525330Y-115961519D01*
X116553492Y-115976572D01*
X116578173Y-115996827D01*
X116598428Y-116021508D01*
X116613481Y-116049670D01*
X116622749Y-116080220D01*
X116626000Y-116113231D01*
X116626000Y-116486769D01*
X116622749Y-116519780D01*
X116613481Y-116550330D01*
X116598428Y-116578492D01*
X116578173Y-116603173D01*
X116553492Y-116623428D01*
X116525330Y-116638481D01*
X116494780Y-116647749D01*
X116461769Y-116651000D01*
X115138231Y-116651000D01*
X115105220Y-116647749D01*
X115074670Y-116638481D01*
X115046508Y-116623428D01*
X115021827Y-116603173D01*
X115001572Y-116578492D01*
X114986519Y-116550330D01*
X114977251Y-116519780D01*
X114974000Y-116486769D01*
X114974000Y-116113231D01*
X114977251Y-116080220D01*
X114986519Y-116049670D01*
X115001572Y-116021508D01*
X115021827Y-115996827D01*
X115046508Y-115976572D01*
X115074670Y-115961519D01*
X115105220Y-115952251D01*
X115138231Y-115949000D01*
X116461769Y-115949000D01*
X116494780Y-115952251D01*
X116494780Y-115952251D01*
G37*
G36*
X95733491Y-113616200D02*
G01*
X95860869Y-113641537D01*
X96097634Y-113739608D01*
X96097635Y-113739609D01*
X96310719Y-113881987D01*
X96491933Y-114063201D01*
X96557628Y-114161520D01*
X96634312Y-114276286D01*
X96710261Y-114459644D01*
X96732383Y-114513052D01*
X96771185Y-114708120D01*
X96782380Y-114764404D01*
X96782380Y-115020676D01*
X96732383Y-115272029D01*
X96634312Y-115508794D01*
X96491932Y-115721880D01*
X96310720Y-115903092D01*
X96097634Y-116045472D01*
X95860869Y-116143543D01*
X95735192Y-116168542D01*
X95609517Y-116193540D01*
X95353243Y-116193540D01*
X95227568Y-116168542D01*
X95101891Y-116143543D01*
X94865126Y-116045472D01*
X94652040Y-115903092D01*
X94470828Y-115721880D01*
X94328448Y-115508794D01*
X94230377Y-115272029D01*
X94180380Y-115020676D01*
X94180380Y-114764404D01*
X94191576Y-114708120D01*
X94230377Y-114513052D01*
X94252499Y-114459644D01*
X94328448Y-114276286D01*
X94405132Y-114161520D01*
X94470827Y-114063201D01*
X94652041Y-113881987D01*
X94865125Y-113739609D01*
X94865126Y-113739608D01*
X95101891Y-113641537D01*
X95229269Y-113616200D01*
X95353243Y-113591540D01*
X95609517Y-113591540D01*
X95733491Y-113616200D01*
X95733491Y-113616200D01*
G37*
G36*
X126418015Y-114376973D02*
G01*
X126521879Y-114408479D01*
X126569740Y-114434062D01*
X126617599Y-114459643D01*
X126617601Y-114459644D01*
X126617600Y-114459644D01*
X126701501Y-114528499D01*
X126770356Y-114612400D01*
X126821521Y-114708121D01*
X126853027Y-114811985D01*
X126863666Y-114920000D01*
X126853027Y-115028015D01*
X126821521Y-115131879D01*
X126821520Y-115131880D01*
X126770357Y-115227599D01*
X126701501Y-115311501D01*
X126617599Y-115380357D01*
X126569740Y-115405938D01*
X126521879Y-115431521D01*
X126418015Y-115463027D01*
X126337067Y-115471000D01*
X126282933Y-115471000D01*
X126201985Y-115463027D01*
X126098121Y-115431521D01*
X126050260Y-115405938D01*
X126002401Y-115380357D01*
X125918499Y-115311501D01*
X125849643Y-115227599D01*
X125798480Y-115131880D01*
X125798479Y-115131879D01*
X125766973Y-115028015D01*
X125756334Y-114920000D01*
X125766973Y-114811985D01*
X125798479Y-114708121D01*
X125849644Y-114612400D01*
X125918499Y-114528499D01*
X126002400Y-114459644D01*
X126002399Y-114459644D01*
X126002401Y-114459643D01*
X126098121Y-114408479D01*
X126201985Y-114376973D01*
X126282933Y-114369000D01*
X126337067Y-114369000D01*
X126418015Y-114376973D01*
X126418015Y-114376973D01*
G37*
G36*
X99326000Y-115087000D02*
G01*
X98824000Y-115087000D01*
X98824000Y-113285000D01*
X99326000Y-113285000D01*
X99326000Y-115087000D01*
X99326000Y-115087000D01*
G37*
G36*
X106476000Y-115087000D02*
G01*
X105974000Y-115087000D01*
X105974000Y-113285000D01*
X106476000Y-113285000D01*
X106476000Y-115087000D01*
X106476000Y-115087000D01*
G37*
G36*
X99976000Y-115087000D02*
G01*
X99474000Y-115087000D01*
X99474000Y-113285000D01*
X99976000Y-113285000D01*
X99976000Y-115087000D01*
X99976000Y-115087000D01*
G37*
G36*
X105176000Y-115087000D02*
G01*
X104674000Y-115087000D01*
X104674000Y-113285000D01*
X105176000Y-113285000D01*
X105176000Y-115087000D01*
X105176000Y-115087000D01*
G37*
G36*
X104526000Y-115087000D02*
G01*
X104024000Y-115087000D01*
X104024000Y-113285000D01*
X104526000Y-113285000D01*
X104526000Y-115087000D01*
X104526000Y-115087000D01*
G37*
G36*
X105826000Y-115087000D02*
G01*
X105324000Y-115087000D01*
X105324000Y-113285000D01*
X105826000Y-113285000D01*
X105826000Y-115087000D01*
X105826000Y-115087000D01*
G37*
G36*
X103226000Y-115087000D02*
G01*
X102724000Y-115087000D01*
X102724000Y-113285000D01*
X103226000Y-113285000D01*
X103226000Y-115087000D01*
X103226000Y-115087000D01*
G37*
G36*
X101926000Y-115087000D02*
G01*
X101424000Y-115087000D01*
X101424000Y-113285000D01*
X101926000Y-113285000D01*
X101926000Y-115087000D01*
X101926000Y-115087000D01*
G37*
G36*
X102576000Y-115087000D02*
G01*
X102074000Y-115087000D01*
X102074000Y-113285000D01*
X102576000Y-113285000D01*
X102576000Y-115087000D01*
X102576000Y-115087000D01*
G37*
G36*
X103876000Y-115087000D02*
G01*
X103374000Y-115087000D01*
X103374000Y-113285000D01*
X103876000Y-113285000D01*
X103876000Y-115087000D01*
X103876000Y-115087000D01*
G37*
G36*
X107126000Y-115087000D02*
G01*
X106624000Y-115087000D01*
X106624000Y-113285000D01*
X107126000Y-113285000D01*
X107126000Y-115087000D01*
X107126000Y-115087000D01*
G37*
G36*
X100626000Y-115087000D02*
G01*
X100124000Y-115087000D01*
X100124000Y-113285000D01*
X100626000Y-113285000D01*
X100626000Y-115087000D01*
X100626000Y-115087000D01*
G37*
G36*
X101276000Y-115087000D02*
G01*
X100774000Y-115087000D01*
X100774000Y-113285000D01*
X101276000Y-113285000D01*
X101276000Y-115087000D01*
X101276000Y-115087000D01*
G37*
G36*
X107776000Y-115087000D02*
G01*
X107274000Y-115087000D01*
X107274000Y-113285000D01*
X107776000Y-113285000D01*
X107776000Y-115087000D01*
X107776000Y-115087000D01*
G37*
G36*
X126418015Y-113106973D02*
G01*
X126521879Y-113138479D01*
X126617599Y-113189643D01*
X126617601Y-113189644D01*
X126617600Y-113189644D01*
X126701501Y-113258499D01*
X126770356Y-113342400D01*
X126821521Y-113438121D01*
X126853027Y-113541985D01*
X126863666Y-113650000D01*
X126853027Y-113758015D01*
X126821521Y-113861879D01*
X126821520Y-113861880D01*
X126770357Y-113957599D01*
X126701501Y-114041501D01*
X126617599Y-114110357D01*
X126569740Y-114135938D01*
X126521879Y-114161521D01*
X126418015Y-114193027D01*
X126337067Y-114201000D01*
X126282933Y-114201000D01*
X126201985Y-114193027D01*
X126098121Y-114161521D01*
X126002401Y-114110357D01*
X125918499Y-114041501D01*
X125849643Y-113957599D01*
X125798480Y-113861880D01*
X125798479Y-113861879D01*
X125766973Y-113758015D01*
X125756334Y-113650000D01*
X125766973Y-113541985D01*
X125798479Y-113438121D01*
X125849644Y-113342400D01*
X125918499Y-113258499D01*
X126002400Y-113189644D01*
X126002399Y-113189644D01*
X126002401Y-113189643D01*
X126098121Y-113138479D01*
X126201985Y-113106973D01*
X126282933Y-113099000D01*
X126337067Y-113099000D01*
X126418015Y-113106973D01*
X126418015Y-113106973D01*
G37*
G36*
X115808578Y-112719552D02*
G01*
X115852035Y-112732734D01*
X115892074Y-112754136D01*
X115927176Y-112782944D01*
X115955984Y-112818046D01*
X115977386Y-112858085D01*
X115990568Y-112901542D01*
X115995140Y-112947962D01*
X115995140Y-113533998D01*
X115990568Y-113580418D01*
X115977386Y-113623875D01*
X115955984Y-113663914D01*
X115927176Y-113699016D01*
X115892074Y-113727824D01*
X115852035Y-113749226D01*
X115808578Y-113762408D01*
X115762158Y-113766980D01*
X115251122Y-113766980D01*
X115204702Y-113762408D01*
X115161245Y-113749226D01*
X115121206Y-113727824D01*
X115086104Y-113699016D01*
X115057296Y-113663914D01*
X115035894Y-113623875D01*
X115022712Y-113580418D01*
X115018140Y-113533998D01*
X115018140Y-112947962D01*
X115022712Y-112901542D01*
X115035894Y-112858085D01*
X115057296Y-112818046D01*
X115086104Y-112782944D01*
X115121206Y-112754136D01*
X115161245Y-112732734D01*
X115204702Y-112719552D01*
X115251122Y-112714980D01*
X115762158Y-112714980D01*
X115808578Y-112719552D01*
X115808578Y-112719552D01*
G37*
G36*
X117383578Y-112719552D02*
G01*
X117427035Y-112732734D01*
X117467074Y-112754136D01*
X117502176Y-112782944D01*
X117530984Y-112818046D01*
X117552386Y-112858085D01*
X117565568Y-112901542D01*
X117570140Y-112947962D01*
X117570140Y-113533998D01*
X117565568Y-113580418D01*
X117552386Y-113623875D01*
X117530984Y-113663914D01*
X117502176Y-113699016D01*
X117467074Y-113727824D01*
X117427035Y-113749226D01*
X117383578Y-113762408D01*
X117337158Y-113766980D01*
X116826122Y-113766980D01*
X116779702Y-113762408D01*
X116736245Y-113749226D01*
X116696206Y-113727824D01*
X116661104Y-113699016D01*
X116632296Y-113663914D01*
X116610894Y-113623875D01*
X116597712Y-113580418D01*
X116593140Y-113533998D01*
X116593140Y-112947962D01*
X116597712Y-112901542D01*
X116610894Y-112858085D01*
X116632296Y-112818046D01*
X116661104Y-112782944D01*
X116696206Y-112754136D01*
X116736245Y-112732734D01*
X116779702Y-112719552D01*
X116826122Y-112714980D01*
X117337158Y-112714980D01*
X117383578Y-112719552D01*
X117383578Y-112719552D01*
G37*
G36*
X126418015Y-111836973D02*
G01*
X126521879Y-111868479D01*
X126558555Y-111888083D01*
X126617599Y-111919643D01*
X126701501Y-111988499D01*
X126760616Y-112060531D01*
X126770356Y-112072400D01*
X126821521Y-112168121D01*
X126853027Y-112271985D01*
X126863666Y-112380000D01*
X126853027Y-112488015D01*
X126821521Y-112591879D01*
X126821520Y-112591880D01*
X126770357Y-112687599D01*
X126701501Y-112771501D01*
X126617599Y-112840357D01*
X126570073Y-112865760D01*
X126521879Y-112891521D01*
X126418015Y-112923027D01*
X126337067Y-112931000D01*
X126282933Y-112931000D01*
X126201985Y-112923027D01*
X126098121Y-112891521D01*
X126049927Y-112865760D01*
X126002401Y-112840357D01*
X125918499Y-112771501D01*
X125849643Y-112687599D01*
X125798480Y-112591880D01*
X125798479Y-112591879D01*
X125766973Y-112488015D01*
X125756334Y-112380000D01*
X125766973Y-112271985D01*
X125798479Y-112168121D01*
X125849644Y-112072400D01*
X125859385Y-112060531D01*
X125918499Y-111988499D01*
X126002401Y-111919643D01*
X126061445Y-111888083D01*
X126098121Y-111868479D01*
X126201985Y-111836973D01*
X126282933Y-111829000D01*
X126337067Y-111829000D01*
X126418015Y-111836973D01*
X126418015Y-111836973D01*
G37*
G36*
X104948926Y-111853773D02*
G01*
X104995898Y-111868021D01*
X105039186Y-111891159D01*
X105077125Y-111922295D01*
X105108261Y-111960234D01*
X105131399Y-112003522D01*
X105145647Y-112050494D01*
X105150580Y-112100573D01*
X105150580Y-112649107D01*
X105145647Y-112699186D01*
X105131399Y-112746158D01*
X105108261Y-112789446D01*
X105077125Y-112827385D01*
X105039186Y-112858521D01*
X104995898Y-112881659D01*
X104948926Y-112895907D01*
X104898847Y-112900840D01*
X104250313Y-112900840D01*
X104200234Y-112895907D01*
X104153262Y-112881659D01*
X104109974Y-112858521D01*
X104072035Y-112827385D01*
X104040899Y-112789446D01*
X104017761Y-112746158D01*
X104003513Y-112699186D01*
X103998580Y-112649107D01*
X103998580Y-112100573D01*
X104003513Y-112050494D01*
X104017761Y-112003522D01*
X104040899Y-111960234D01*
X104072035Y-111922295D01*
X104109974Y-111891159D01*
X104153262Y-111868021D01*
X104200234Y-111853773D01*
X104250313Y-111848840D01*
X104898847Y-111848840D01*
X104948926Y-111853773D01*
X104948926Y-111853773D01*
G37*
G36*
X103198926Y-111853773D02*
G01*
X103245898Y-111868021D01*
X103289186Y-111891159D01*
X103327125Y-111922295D01*
X103358261Y-111960234D01*
X103381399Y-112003522D01*
X103395647Y-112050494D01*
X103400580Y-112100573D01*
X103400580Y-112649107D01*
X103395647Y-112699186D01*
X103381399Y-112746158D01*
X103358261Y-112789446D01*
X103327125Y-112827385D01*
X103289186Y-112858521D01*
X103245898Y-112881659D01*
X103198926Y-112895907D01*
X103148847Y-112900840D01*
X102500313Y-112900840D01*
X102450234Y-112895907D01*
X102403262Y-112881659D01*
X102359974Y-112858521D01*
X102322035Y-112827385D01*
X102290899Y-112789446D01*
X102267761Y-112746158D01*
X102253513Y-112699186D01*
X102248580Y-112649107D01*
X102248580Y-112100573D01*
X102253513Y-112050494D01*
X102267761Y-112003522D01*
X102290899Y-111960234D01*
X102322035Y-111922295D01*
X102359974Y-111891159D01*
X102403262Y-111868021D01*
X102450234Y-111853773D01*
X102500313Y-111848840D01*
X103148847Y-111848840D01*
X103198926Y-111853773D01*
X103198926Y-111853773D01*
G37*
G36*
X106554206Y-111848693D02*
G01*
X106601178Y-111862941D01*
X106644466Y-111886079D01*
X106682405Y-111917215D01*
X106713541Y-111955154D01*
X106736679Y-111998442D01*
X106750927Y-112045414D01*
X106755860Y-112095493D01*
X106755860Y-112644027D01*
X106750927Y-112694106D01*
X106736679Y-112741078D01*
X106713541Y-112784366D01*
X106682405Y-112822305D01*
X106644466Y-112853441D01*
X106601178Y-112876579D01*
X106554206Y-112890827D01*
X106504127Y-112895760D01*
X105855593Y-112895760D01*
X105805514Y-112890827D01*
X105758542Y-112876579D01*
X105715254Y-112853441D01*
X105677315Y-112822305D01*
X105646179Y-112784366D01*
X105623041Y-112741078D01*
X105608793Y-112694106D01*
X105603860Y-112644027D01*
X105603860Y-112095493D01*
X105608793Y-112045414D01*
X105623041Y-111998442D01*
X105646179Y-111955154D01*
X105677315Y-111917215D01*
X105715254Y-111886079D01*
X105758542Y-111862941D01*
X105805514Y-111848693D01*
X105855593Y-111843760D01*
X106504127Y-111843760D01*
X106554206Y-111848693D01*
X106554206Y-111848693D01*
G37*
G36*
X108304206Y-111848693D02*
G01*
X108351178Y-111862941D01*
X108394466Y-111886079D01*
X108432405Y-111917215D01*
X108463541Y-111955154D01*
X108486679Y-111998442D01*
X108500927Y-112045414D01*
X108505860Y-112095493D01*
X108505860Y-112644027D01*
X108500927Y-112694106D01*
X108486679Y-112741078D01*
X108463541Y-112784366D01*
X108432405Y-112822305D01*
X108394466Y-112853441D01*
X108351178Y-112876579D01*
X108304206Y-112890827D01*
X108254127Y-112895760D01*
X107605593Y-112895760D01*
X107555514Y-112890827D01*
X107508542Y-112876579D01*
X107465254Y-112853441D01*
X107427315Y-112822305D01*
X107396179Y-112784366D01*
X107373041Y-112741078D01*
X107358793Y-112694106D01*
X107353860Y-112644027D01*
X107353860Y-112095493D01*
X107358793Y-112045414D01*
X107373041Y-111998442D01*
X107396179Y-111955154D01*
X107427315Y-111917215D01*
X107465254Y-111886079D01*
X107508542Y-111862941D01*
X107555514Y-111848693D01*
X107605593Y-111843760D01*
X108254127Y-111843760D01*
X108304206Y-111848693D01*
X108304206Y-111848693D01*
G37*
G36*
X114082600Y-112099460D02*
G01*
X113730600Y-112099460D01*
X113730600Y-110697460D01*
X114082600Y-110697460D01*
X114082600Y-112099460D01*
X114082600Y-112099460D01*
G37*
G36*
X115082600Y-112099460D02*
G01*
X114730600Y-112099460D01*
X114730600Y-110697460D01*
X115082600Y-110697460D01*
X115082600Y-112099460D01*
X115082600Y-112099460D01*
G37*
G36*
X114582600Y-112099460D02*
G01*
X114230600Y-112099460D01*
X114230600Y-110697460D01*
X114582600Y-110697460D01*
X114582600Y-112099460D01*
X114582600Y-112099460D01*
G37*
G36*
X113582600Y-112099460D02*
G01*
X113230600Y-112099460D01*
X113230600Y-110697460D01*
X113582600Y-110697460D01*
X113582600Y-112099460D01*
X113582600Y-112099460D01*
G37*
G36*
X113082600Y-112099460D02*
G01*
X112730600Y-112099460D01*
X112730600Y-110697460D01*
X113082600Y-110697460D01*
X113082600Y-112099460D01*
X113082600Y-112099460D01*
G37*
G36*
X116082600Y-112099460D02*
G01*
X115730600Y-112099460D01*
X115730600Y-110697460D01*
X116082600Y-110697460D01*
X116082600Y-112099460D01*
X116082600Y-112099460D01*
G37*
G36*
X118082600Y-112099460D02*
G01*
X117730600Y-112099460D01*
X117730600Y-110697460D01*
X118082600Y-110697460D01*
X118082600Y-112099460D01*
X118082600Y-112099460D01*
G37*
G36*
X116582600Y-112099460D02*
G01*
X116230600Y-112099460D01*
X116230600Y-110697460D01*
X116582600Y-110697460D01*
X116582600Y-112099460D01*
X116582600Y-112099460D01*
G37*
G36*
X117082600Y-112099460D02*
G01*
X116730600Y-112099460D01*
X116730600Y-110697460D01*
X117082600Y-110697460D01*
X117082600Y-112099460D01*
X117082600Y-112099460D01*
G37*
G36*
X115582600Y-112099460D02*
G01*
X115230600Y-112099460D01*
X115230600Y-110697460D01*
X115582600Y-110697460D01*
X115582600Y-112099460D01*
X115582600Y-112099460D01*
G37*
G36*
X117582600Y-112099460D02*
G01*
X117230600Y-112099460D01*
X117230600Y-110697460D01*
X117582600Y-110697460D01*
X117582600Y-112099460D01*
X117582600Y-112099460D01*
G37*
G36*
X118582600Y-112099460D02*
G01*
X118230600Y-112099460D01*
X118230600Y-110697460D01*
X118582600Y-110697460D01*
X118582600Y-112099460D01*
X118582600Y-112099460D01*
G37*
G36*
X126418015Y-110566973D02*
G01*
X126521879Y-110598479D01*
X126569740Y-110624062D01*
X126617599Y-110649643D01*
X126617601Y-110649644D01*
X126617600Y-110649644D01*
X126701501Y-110718499D01*
X126770356Y-110802400D01*
X126821521Y-110898121D01*
X126853027Y-111001985D01*
X126863666Y-111110000D01*
X126853027Y-111218015D01*
X126821521Y-111321879D01*
X126821520Y-111321880D01*
X126770357Y-111417599D01*
X126701501Y-111501501D01*
X126617599Y-111570357D01*
X126569740Y-111595938D01*
X126521879Y-111621521D01*
X126418015Y-111653027D01*
X126337067Y-111661000D01*
X126282933Y-111661000D01*
X126201985Y-111653027D01*
X126098121Y-111621521D01*
X126050260Y-111595938D01*
X126002401Y-111570357D01*
X125918499Y-111501501D01*
X125849643Y-111417599D01*
X125798480Y-111321880D01*
X125798479Y-111321879D01*
X125766973Y-111218015D01*
X125756334Y-111110000D01*
X125766973Y-111001985D01*
X125798479Y-110898121D01*
X125849644Y-110802400D01*
X125918499Y-110718499D01*
X126002400Y-110649644D01*
X126002399Y-110649644D01*
X126002401Y-110649643D01*
X126098121Y-110598479D01*
X126201985Y-110566973D01*
X126282933Y-110559000D01*
X126337067Y-110559000D01*
X126418015Y-110566973D01*
X126418015Y-110566973D01*
G37*
G36*
X126418015Y-109296973D02*
G01*
X126521879Y-109328479D01*
X126562556Y-109350222D01*
X126617599Y-109379643D01*
X126701501Y-109448499D01*
X126770357Y-109532401D01*
X126792735Y-109574267D01*
X126821521Y-109628121D01*
X126853027Y-109731985D01*
X126863666Y-109840000D01*
X126853027Y-109948015D01*
X126821521Y-110051879D01*
X126810394Y-110072696D01*
X126770357Y-110147599D01*
X126701501Y-110231501D01*
X126617599Y-110300357D01*
X126599150Y-110310218D01*
X126521879Y-110351521D01*
X126418015Y-110383027D01*
X126337067Y-110391000D01*
X126282933Y-110391000D01*
X126201985Y-110383027D01*
X126098121Y-110351521D01*
X126020850Y-110310218D01*
X126002401Y-110300357D01*
X125918499Y-110231501D01*
X125849643Y-110147599D01*
X125809606Y-110072696D01*
X125798479Y-110051879D01*
X125766973Y-109948015D01*
X125756334Y-109840000D01*
X125766973Y-109731985D01*
X125798479Y-109628121D01*
X125827265Y-109574267D01*
X125849643Y-109532401D01*
X125918499Y-109448499D01*
X126002401Y-109379643D01*
X126057444Y-109350222D01*
X126098121Y-109328479D01*
X126201985Y-109296973D01*
X126282933Y-109289000D01*
X126337067Y-109289000D01*
X126418015Y-109296973D01*
X126418015Y-109296973D01*
G37*
G36*
X96142059Y-108759521D02*
G01*
X96193644Y-108769782D01*
X96266529Y-108799972D01*
X96339416Y-108830163D01*
X96470608Y-108917822D01*
X96582178Y-109029392D01*
X96669837Y-109160584D01*
X96669837Y-109160585D01*
X96713803Y-109266726D01*
X96730218Y-109306357D01*
X96744796Y-109379643D01*
X96761000Y-109461110D01*
X96761000Y-109618890D01*
X96730218Y-109773644D01*
X96708531Y-109826000D01*
X96669837Y-109919416D01*
X96582178Y-110050608D01*
X96470608Y-110162178D01*
X96339416Y-110249837D01*
X96266530Y-110280027D01*
X96193644Y-110310218D01*
X96142059Y-110320479D01*
X96038892Y-110341000D01*
X95881108Y-110341000D01*
X95777941Y-110320479D01*
X95726356Y-110310218D01*
X95653470Y-110280027D01*
X95580584Y-110249837D01*
X95449392Y-110162178D01*
X95337822Y-110050608D01*
X95250163Y-109919416D01*
X95211469Y-109826000D01*
X95189782Y-109773644D01*
X95159000Y-109618890D01*
X95159000Y-109461110D01*
X95175205Y-109379643D01*
X95189782Y-109306357D01*
X95206198Y-109266726D01*
X95250163Y-109160585D01*
X95250163Y-109160584D01*
X95337822Y-109029392D01*
X95449392Y-108917822D01*
X95580584Y-108830163D01*
X95653471Y-108799972D01*
X95726356Y-108769782D01*
X95777941Y-108759521D01*
X95881108Y-108739000D01*
X96038892Y-108739000D01*
X96142059Y-108759521D01*
X96142059Y-108759521D01*
G37*
G36*
X123776058Y-109168232D02*
G01*
X123819515Y-109181414D01*
X123859554Y-109202816D01*
X123894656Y-109231624D01*
X123923464Y-109266726D01*
X123944866Y-109306765D01*
X123958048Y-109350222D01*
X123962620Y-109396642D01*
X123962620Y-109907678D01*
X123958048Y-109954098D01*
X123944866Y-109997555D01*
X123923464Y-110037594D01*
X123894656Y-110072696D01*
X123859554Y-110101504D01*
X123819515Y-110122906D01*
X123776058Y-110136088D01*
X123729638Y-110140660D01*
X123143602Y-110140660D01*
X123097182Y-110136088D01*
X123053725Y-110122906D01*
X123013686Y-110101504D01*
X122978584Y-110072696D01*
X122949776Y-110037594D01*
X122928374Y-109997555D01*
X122915192Y-109954098D01*
X122910620Y-109907678D01*
X122910620Y-109396642D01*
X122915192Y-109350222D01*
X122928374Y-109306765D01*
X122949776Y-109266726D01*
X122978584Y-109231624D01*
X123013686Y-109202816D01*
X123053725Y-109181414D01*
X123097182Y-109168232D01*
X123143602Y-109163660D01*
X123729638Y-109163660D01*
X123776058Y-109168232D01*
X123776058Y-109168232D01*
G37*
G36*
X112007600Y-109974460D02*
G01*
X110605600Y-109974460D01*
X110605600Y-109622460D01*
X112007600Y-109622460D01*
X112007600Y-109974460D01*
X112007600Y-109974460D01*
G37*
G36*
X120707600Y-109974460D02*
G01*
X119305600Y-109974460D01*
X119305600Y-109622460D01*
X120707600Y-109622460D01*
X120707600Y-109974460D01*
X120707600Y-109974460D01*
G37*
G36*
X103824346Y-108678933D02*
G01*
X103871318Y-108693181D01*
X103914606Y-108716319D01*
X103952545Y-108747455D01*
X103983681Y-108785394D01*
X104006819Y-108828682D01*
X104021067Y-108875654D01*
X104026000Y-108925733D01*
X104026000Y-109574267D01*
X104021067Y-109624346D01*
X104006819Y-109671318D01*
X103983681Y-109714606D01*
X103952545Y-109752545D01*
X103914606Y-109783681D01*
X103871318Y-109806819D01*
X103824346Y-109821067D01*
X103774267Y-109826000D01*
X103225733Y-109826000D01*
X103175654Y-109821067D01*
X103128682Y-109806819D01*
X103085394Y-109783681D01*
X103047455Y-109752545D01*
X103016319Y-109714606D01*
X102993181Y-109671318D01*
X102978933Y-109624346D01*
X102974000Y-109574267D01*
X102974000Y-108925733D01*
X102978933Y-108875654D01*
X102993181Y-108828682D01*
X103016319Y-108785394D01*
X103047455Y-108747455D01*
X103085394Y-108716319D01*
X103128682Y-108693181D01*
X103175654Y-108678933D01*
X103225733Y-108674000D01*
X103774267Y-108674000D01*
X103824346Y-108678933D01*
X103824346Y-108678933D01*
G37*
G36*
X112007600Y-109474460D02*
G01*
X110605600Y-109474460D01*
X110605600Y-109122460D01*
X112007600Y-109122460D01*
X112007600Y-109474460D01*
X112007600Y-109474460D01*
G37*
G36*
X120707600Y-109474460D02*
G01*
X119305600Y-109474460D01*
X119305600Y-109122460D01*
X120707600Y-109122460D01*
X120707600Y-109474460D01*
X120707600Y-109474460D01*
G37*
G36*
X126418015Y-108026973D02*
G01*
X126521879Y-108058479D01*
X126545429Y-108071067D01*
X126617599Y-108109643D01*
X126617601Y-108109644D01*
X126617600Y-108109644D01*
X126701501Y-108178499D01*
X126770356Y-108262400D01*
X126821521Y-108358121D01*
X126853027Y-108461985D01*
X126863666Y-108570000D01*
X126853027Y-108678015D01*
X126821521Y-108781879D01*
X126821520Y-108781880D01*
X126770357Y-108877599D01*
X126701501Y-108961501D01*
X126617599Y-109030357D01*
X126569740Y-109055938D01*
X126521879Y-109081521D01*
X126418015Y-109113027D01*
X126337067Y-109121000D01*
X126282933Y-109121000D01*
X126201985Y-109113027D01*
X126098121Y-109081521D01*
X126050260Y-109055938D01*
X126002401Y-109030357D01*
X125918499Y-108961501D01*
X125849643Y-108877599D01*
X125798480Y-108781880D01*
X125798479Y-108781879D01*
X125766973Y-108678015D01*
X125756334Y-108570000D01*
X125766973Y-108461985D01*
X125798479Y-108358121D01*
X125849644Y-108262400D01*
X125918499Y-108178499D01*
X126002400Y-108109644D01*
X126002399Y-108109644D01*
X126002401Y-108109643D01*
X126074571Y-108071067D01*
X126098121Y-108058479D01*
X126201985Y-108026973D01*
X126282933Y-108019000D01*
X126337067Y-108019000D01*
X126418015Y-108026973D01*
X126418015Y-108026973D01*
G37*
G36*
X120707600Y-108974460D02*
G01*
X119305600Y-108974460D01*
X119305600Y-108622460D01*
X120707600Y-108622460D01*
X120707600Y-108974460D01*
X120707600Y-108974460D01*
G37*
G36*
X112007600Y-108974460D02*
G01*
X110605600Y-108974460D01*
X110605600Y-108622460D01*
X112007600Y-108622460D01*
X112007600Y-108974460D01*
X112007600Y-108974460D01*
G37*
G36*
X109247258Y-107773672D02*
G01*
X109290715Y-107786854D01*
X109330754Y-107808256D01*
X109365856Y-107837064D01*
X109394664Y-107872166D01*
X109416066Y-107912205D01*
X109429248Y-107955662D01*
X109433820Y-108002082D01*
X109433820Y-108513118D01*
X109429248Y-108559538D01*
X109416066Y-108602995D01*
X109394664Y-108643034D01*
X109365856Y-108678136D01*
X109330754Y-108706944D01*
X109290715Y-108728346D01*
X109247258Y-108741528D01*
X109200838Y-108746100D01*
X108614802Y-108746100D01*
X108568382Y-108741528D01*
X108524925Y-108728346D01*
X108484886Y-108706944D01*
X108449784Y-108678136D01*
X108420976Y-108643034D01*
X108399574Y-108602995D01*
X108386392Y-108559538D01*
X108381820Y-108513118D01*
X108381820Y-108002082D01*
X108386392Y-107955662D01*
X108399574Y-107912205D01*
X108420976Y-107872166D01*
X108449784Y-107837064D01*
X108484886Y-107808256D01*
X108524925Y-107786854D01*
X108568382Y-107773672D01*
X108614802Y-107769100D01*
X109200838Y-107769100D01*
X109247258Y-107773672D01*
X109247258Y-107773672D01*
G37*
G36*
X123776058Y-107593232D02*
G01*
X123819515Y-107606414D01*
X123859554Y-107627816D01*
X123894656Y-107656624D01*
X123923464Y-107691726D01*
X123944866Y-107731765D01*
X123958048Y-107775222D01*
X123962620Y-107821642D01*
X123962620Y-108332678D01*
X123958048Y-108379098D01*
X123944866Y-108422555D01*
X123923464Y-108462594D01*
X123894656Y-108497696D01*
X123859554Y-108526504D01*
X123819515Y-108547906D01*
X123776058Y-108561088D01*
X123729638Y-108565660D01*
X123143602Y-108565660D01*
X123097182Y-108561088D01*
X123053725Y-108547906D01*
X123013686Y-108526504D01*
X122978584Y-108497696D01*
X122949776Y-108462594D01*
X122928374Y-108422555D01*
X122915192Y-108379098D01*
X122910620Y-108332678D01*
X122910620Y-107821642D01*
X122915192Y-107775222D01*
X122928374Y-107731765D01*
X122949776Y-107691726D01*
X122978584Y-107656624D01*
X123013686Y-107627816D01*
X123053725Y-107606414D01*
X123097182Y-107593232D01*
X123143602Y-107588660D01*
X123729638Y-107588660D01*
X123776058Y-107593232D01*
X123776058Y-107593232D01*
G37*
G36*
X112007600Y-108474460D02*
G01*
X110605600Y-108474460D01*
X110605600Y-108122460D01*
X112007600Y-108122460D01*
X112007600Y-108474460D01*
X112007600Y-108474460D01*
G37*
G36*
X120707600Y-108474460D02*
G01*
X119305600Y-108474460D01*
X119305600Y-108122460D01*
X120707600Y-108122460D01*
X120707600Y-108474460D01*
X120707600Y-108474460D01*
G37*
G36*
X103824346Y-106928933D02*
G01*
X103871318Y-106943181D01*
X103914606Y-106966319D01*
X103952545Y-106997455D01*
X103983681Y-107035394D01*
X104006819Y-107078682D01*
X104021067Y-107125654D01*
X104026000Y-107175733D01*
X104026000Y-107824267D01*
X104021067Y-107874346D01*
X104006819Y-107921318D01*
X103983681Y-107964606D01*
X103952545Y-108002545D01*
X103914606Y-108033681D01*
X103871318Y-108056819D01*
X103824346Y-108071067D01*
X103774267Y-108076000D01*
X103225733Y-108076000D01*
X103175654Y-108071067D01*
X103128682Y-108056819D01*
X103085394Y-108033681D01*
X103047455Y-108002545D01*
X103016319Y-107964606D01*
X102993181Y-107921318D01*
X102978933Y-107874346D01*
X102974000Y-107824267D01*
X102974000Y-107175733D01*
X102978933Y-107125654D01*
X102993181Y-107078682D01*
X103016319Y-107035394D01*
X103047455Y-106997455D01*
X103085394Y-106966319D01*
X103128682Y-106943181D01*
X103175654Y-106928933D01*
X103225733Y-106924000D01*
X103774267Y-106924000D01*
X103824346Y-106928933D01*
X103824346Y-106928933D01*
G37*
G36*
X112007600Y-107974460D02*
G01*
X110605600Y-107974460D01*
X110605600Y-107622460D01*
X112007600Y-107622460D01*
X112007600Y-107974460D01*
X112007600Y-107974460D01*
G37*
G36*
X120707600Y-107974460D02*
G01*
X119305600Y-107974460D01*
X119305600Y-107622460D01*
X120707600Y-107622460D01*
X120707600Y-107974460D01*
X120707600Y-107974460D01*
G37*
G36*
X126861000Y-107851000D02*
G01*
X125759000Y-107851000D01*
X125759000Y-106749000D01*
X126861000Y-106749000D01*
X126861000Y-107851000D01*
X126861000Y-107851000D01*
G37*
G36*
X93602059Y-106219521D02*
G01*
X93653644Y-106229782D01*
X93718933Y-106256826D01*
X93799416Y-106290163D01*
X93930608Y-106377822D01*
X94042178Y-106489392D01*
X94129837Y-106620584D01*
X94190218Y-106766357D01*
X94221000Y-106921108D01*
X94221000Y-107078892D01*
X94190218Y-107233643D01*
X94129837Y-107379416D01*
X94042178Y-107510608D01*
X93930608Y-107622178D01*
X93799416Y-107709837D01*
X93746477Y-107731765D01*
X93653644Y-107770218D01*
X93602059Y-107780479D01*
X93498892Y-107801000D01*
X93341108Y-107801000D01*
X93237941Y-107780479D01*
X93186356Y-107770218D01*
X93093523Y-107731765D01*
X93040584Y-107709837D01*
X92909392Y-107622178D01*
X92797822Y-107510608D01*
X92710163Y-107379416D01*
X92649782Y-107233643D01*
X92619000Y-107078892D01*
X92619000Y-106921108D01*
X92649782Y-106766357D01*
X92710163Y-106620584D01*
X92797822Y-106489392D01*
X92909392Y-106377822D01*
X93040584Y-106290163D01*
X93121067Y-106256826D01*
X93186356Y-106229782D01*
X93237941Y-106219521D01*
X93341108Y-106199000D01*
X93498892Y-106199000D01*
X93602059Y-106219521D01*
X93602059Y-106219521D01*
G37*
G36*
X99301000Y-107801000D02*
G01*
X97699000Y-107801000D01*
X97699000Y-106199000D01*
X99301000Y-106199000D01*
X99301000Y-107801000D01*
X99301000Y-107801000D01*
G37*
G36*
X120707600Y-107474460D02*
G01*
X119305600Y-107474460D01*
X119305600Y-107122460D01*
X120707600Y-107122460D01*
X120707600Y-107474460D01*
X120707600Y-107474460D01*
G37*
G36*
X112007600Y-107474460D02*
G01*
X110605600Y-107474460D01*
X110605600Y-107122460D01*
X112007600Y-107122460D01*
X112007600Y-107474460D01*
X112007600Y-107474460D01*
G37*
G36*
X109247258Y-106198672D02*
G01*
X109290715Y-106211854D01*
X109330754Y-106233256D01*
X109365856Y-106262064D01*
X109394664Y-106297166D01*
X109416066Y-106337205D01*
X109429248Y-106380662D01*
X109433820Y-106427082D01*
X109433820Y-106938118D01*
X109429248Y-106984538D01*
X109416066Y-107027995D01*
X109394664Y-107068034D01*
X109365856Y-107103136D01*
X109330754Y-107131944D01*
X109290715Y-107153346D01*
X109247258Y-107166528D01*
X109200838Y-107171100D01*
X108614802Y-107171100D01*
X108568382Y-107166528D01*
X108524925Y-107153346D01*
X108484886Y-107131944D01*
X108449784Y-107103136D01*
X108420976Y-107068034D01*
X108399574Y-107027995D01*
X108386392Y-106984538D01*
X108381820Y-106938118D01*
X108381820Y-106427082D01*
X108386392Y-106380662D01*
X108399574Y-106337205D01*
X108420976Y-106297166D01*
X108449784Y-106262064D01*
X108484886Y-106233256D01*
X108524925Y-106211854D01*
X108568382Y-106198672D01*
X108614802Y-106194100D01*
X109200838Y-106194100D01*
X109247258Y-106198672D01*
X109247258Y-106198672D01*
G37*
G36*
X123776058Y-106158332D02*
G01*
X123819515Y-106171514D01*
X123859554Y-106192916D01*
X123894656Y-106221724D01*
X123923464Y-106256826D01*
X123944866Y-106296865D01*
X123958048Y-106340322D01*
X123962620Y-106386742D01*
X123962620Y-106897778D01*
X123958048Y-106944198D01*
X123944866Y-106987655D01*
X123923464Y-107027694D01*
X123894656Y-107062796D01*
X123859554Y-107091604D01*
X123819515Y-107113006D01*
X123776058Y-107126188D01*
X123729638Y-107130760D01*
X123143602Y-107130760D01*
X123097182Y-107126188D01*
X123053725Y-107113006D01*
X123013686Y-107091604D01*
X122978584Y-107062796D01*
X122949776Y-107027694D01*
X122928374Y-106987655D01*
X122915192Y-106944198D01*
X122910620Y-106897778D01*
X122910620Y-106386742D01*
X122915192Y-106340322D01*
X122928374Y-106296865D01*
X122949776Y-106256826D01*
X122978584Y-106221724D01*
X123013686Y-106192916D01*
X123053725Y-106171514D01*
X123097182Y-106158332D01*
X123143602Y-106153760D01*
X123729638Y-106153760D01*
X123776058Y-106158332D01*
X123776058Y-106158332D01*
G37*
G36*
X120707600Y-106974460D02*
G01*
X119305600Y-106974460D01*
X119305600Y-106622460D01*
X120707600Y-106622460D01*
X120707600Y-106974460D01*
X120707600Y-106974460D01*
G37*
G36*
X112007600Y-106974460D02*
G01*
X110605600Y-106974460D01*
X110605600Y-106622460D01*
X112007600Y-106622460D01*
X112007600Y-106974460D01*
X112007600Y-106974460D01*
G37*
G36*
X112007600Y-106474460D02*
G01*
X110605600Y-106474460D01*
X110605600Y-106122460D01*
X112007600Y-106122460D01*
X112007600Y-106474460D01*
X112007600Y-106474460D01*
G37*
G36*
X120707600Y-106474460D02*
G01*
X119305600Y-106474460D01*
X119305600Y-106122460D01*
X120707600Y-106122460D01*
X120707600Y-106474460D01*
X120707600Y-106474460D01*
G37*
G36*
X120707600Y-105974460D02*
G01*
X119305600Y-105974460D01*
X119305600Y-105622460D01*
X120707600Y-105622460D01*
X120707600Y-105974460D01*
X120707600Y-105974460D01*
G37*
G36*
X112007600Y-105974460D02*
G01*
X110605600Y-105974460D01*
X110605600Y-105622460D01*
X112007600Y-105622460D01*
X112007600Y-105974460D01*
X112007600Y-105974460D01*
G37*
G36*
X123776058Y-104583332D02*
G01*
X123819515Y-104596514D01*
X123859554Y-104617916D01*
X123894656Y-104646724D01*
X123923464Y-104681826D01*
X123944866Y-104721865D01*
X123958048Y-104765322D01*
X123962620Y-104811742D01*
X123962620Y-105322778D01*
X123958048Y-105369198D01*
X123944866Y-105412655D01*
X123923464Y-105452694D01*
X123894656Y-105487796D01*
X123859554Y-105516604D01*
X123819515Y-105538006D01*
X123776058Y-105551188D01*
X123729638Y-105555760D01*
X123143602Y-105555760D01*
X123097182Y-105551188D01*
X123053725Y-105538006D01*
X123013686Y-105516604D01*
X122978584Y-105487796D01*
X122949776Y-105452694D01*
X122928374Y-105412655D01*
X122915192Y-105369198D01*
X122910620Y-105322778D01*
X122910620Y-104811742D01*
X122915192Y-104765322D01*
X122928374Y-104721865D01*
X122949776Y-104681826D01*
X122978584Y-104646724D01*
X123013686Y-104617916D01*
X123053725Y-104596514D01*
X123097182Y-104583332D01*
X123143602Y-104578760D01*
X123729638Y-104578760D01*
X123776058Y-104583332D01*
X123776058Y-104583332D01*
G37*
G36*
X112007600Y-105474460D02*
G01*
X110605600Y-105474460D01*
X110605600Y-105122460D01*
X112007600Y-105122460D01*
X112007600Y-105474460D01*
X112007600Y-105474460D01*
G37*
G36*
X120707600Y-105474460D02*
G01*
X119305600Y-105474460D01*
X119305600Y-105122460D01*
X120707600Y-105122460D01*
X120707600Y-105474460D01*
X120707600Y-105474460D01*
G37*
G36*
X100501000Y-105301000D02*
G01*
X98799000Y-105301000D01*
X98799000Y-104149000D01*
X100501000Y-104149000D01*
X100501000Y-105301000D01*
X100501000Y-105301000D01*
G37*
G36*
X95801000Y-105301000D02*
G01*
X94099000Y-105301000D01*
X94099000Y-104149000D01*
X95801000Y-104149000D01*
X95801000Y-105301000D01*
X95801000Y-105301000D01*
G37*
G36*
X112007600Y-104974460D02*
G01*
X110605600Y-104974460D01*
X110605600Y-104622460D01*
X112007600Y-104622460D01*
X112007600Y-104974460D01*
X112007600Y-104974460D01*
G37*
G36*
X120707600Y-104974460D02*
G01*
X119305600Y-104974460D01*
X119305600Y-104622460D01*
X120707600Y-104622460D01*
X120707600Y-104974460D01*
X120707600Y-104974460D01*
G37*
G36*
X103941346Y-103812933D02*
G01*
X103988318Y-103827181D01*
X104031606Y-103850319D01*
X104069545Y-103881455D01*
X104100681Y-103919394D01*
X104123819Y-103962682D01*
X104138067Y-104009654D01*
X104143000Y-104059733D01*
X104143000Y-104708267D01*
X104138067Y-104758346D01*
X104123819Y-104805318D01*
X104100681Y-104848606D01*
X104069545Y-104886545D01*
X104031606Y-104917681D01*
X103988318Y-104940819D01*
X103941346Y-104955067D01*
X103891267Y-104960000D01*
X103342733Y-104960000D01*
X103292654Y-104955067D01*
X103245682Y-104940819D01*
X103202394Y-104917681D01*
X103164455Y-104886545D01*
X103133319Y-104848606D01*
X103110181Y-104805318D01*
X103095933Y-104758346D01*
X103091000Y-104708267D01*
X103091000Y-104059733D01*
X103095933Y-104009654D01*
X103110181Y-103962682D01*
X103133319Y-103919394D01*
X103164455Y-103881455D01*
X103202394Y-103850319D01*
X103245682Y-103827181D01*
X103292654Y-103812933D01*
X103342733Y-103808000D01*
X103891267Y-103808000D01*
X103941346Y-103812933D01*
X103941346Y-103812933D01*
G37*
G36*
X102051438Y-103773072D02*
G01*
X102094895Y-103786254D01*
X102134934Y-103807656D01*
X102170036Y-103836464D01*
X102198844Y-103871566D01*
X102220246Y-103911605D01*
X102233428Y-103955062D01*
X102238000Y-104001482D01*
X102238000Y-104512518D01*
X102233428Y-104558938D01*
X102220246Y-104602395D01*
X102198844Y-104642434D01*
X102170036Y-104677536D01*
X102134934Y-104706344D01*
X102094895Y-104727746D01*
X102051438Y-104740928D01*
X102005018Y-104745500D01*
X101418982Y-104745500D01*
X101372562Y-104740928D01*
X101329105Y-104727746D01*
X101289066Y-104706344D01*
X101253964Y-104677536D01*
X101225156Y-104642434D01*
X101203754Y-104602395D01*
X101190572Y-104558938D01*
X101186000Y-104512518D01*
X101186000Y-104001482D01*
X101190572Y-103955062D01*
X101203754Y-103911605D01*
X101225156Y-103871566D01*
X101253964Y-103836464D01*
X101289066Y-103807656D01*
X101329105Y-103786254D01*
X101372562Y-103773072D01*
X101418982Y-103768500D01*
X102005018Y-103768500D01*
X102051438Y-103773072D01*
X102051438Y-103773072D01*
G37*
G36*
X120707600Y-104474460D02*
G01*
X119305600Y-104474460D01*
X119305600Y-104122460D01*
X120707600Y-104122460D01*
X120707600Y-104474460D01*
X120707600Y-104474460D01*
G37*
G36*
X112007600Y-104474460D02*
G01*
X110605600Y-104474460D01*
X110605600Y-104122460D01*
X112007600Y-104122460D01*
X112007600Y-104474460D01*
X112007600Y-104474460D01*
G37*
G36*
X117082600Y-103399460D02*
G01*
X116730600Y-103399460D01*
X116730600Y-101997460D01*
X117082600Y-101997460D01*
X117082600Y-103399460D01*
X117082600Y-103399460D01*
G37*
G36*
X115082600Y-103399460D02*
G01*
X114730600Y-103399460D01*
X114730600Y-101997460D01*
X115082600Y-101997460D01*
X115082600Y-103399460D01*
X115082600Y-103399460D01*
G37*
G36*
X115582600Y-103399460D02*
G01*
X115230600Y-103399460D01*
X115230600Y-101997460D01*
X115582600Y-101997460D01*
X115582600Y-103399460D01*
X115582600Y-103399460D01*
G37*
G36*
X116082600Y-103399460D02*
G01*
X115730600Y-103399460D01*
X115730600Y-101997460D01*
X116082600Y-101997460D01*
X116082600Y-103399460D01*
X116082600Y-103399460D01*
G37*
G36*
X116582600Y-103399460D02*
G01*
X116230600Y-103399460D01*
X116230600Y-101997460D01*
X116582600Y-101997460D01*
X116582600Y-103399460D01*
X116582600Y-103399460D01*
G37*
G36*
X117582600Y-103399460D02*
G01*
X117230600Y-103399460D01*
X117230600Y-101997460D01*
X117582600Y-101997460D01*
X117582600Y-103399460D01*
X117582600Y-103399460D01*
G37*
G36*
X118082600Y-103399460D02*
G01*
X117730600Y-103399460D01*
X117730600Y-101997460D01*
X118082600Y-101997460D01*
X118082600Y-103399460D01*
X118082600Y-103399460D01*
G37*
G36*
X118582600Y-103399460D02*
G01*
X118230600Y-103399460D01*
X118230600Y-101997460D01*
X118582600Y-101997460D01*
X118582600Y-103399460D01*
X118582600Y-103399460D01*
G37*
G36*
X113582600Y-103399460D02*
G01*
X113230600Y-103399460D01*
X113230600Y-101997460D01*
X113582600Y-101997460D01*
X113582600Y-103399460D01*
X113582600Y-103399460D01*
G37*
G36*
X113082600Y-103399460D02*
G01*
X112730600Y-103399460D01*
X112730600Y-101997460D01*
X113082600Y-101997460D01*
X113082600Y-103399460D01*
X113082600Y-103399460D01*
G37*
G36*
X114082600Y-103399460D02*
G01*
X113730600Y-103399460D01*
X113730600Y-101997460D01*
X114082600Y-101997460D01*
X114082600Y-103399460D01*
X114082600Y-103399460D01*
G37*
G36*
X114582600Y-103399460D02*
G01*
X114230600Y-103399460D01*
X114230600Y-101997460D01*
X114582600Y-101997460D01*
X114582600Y-103399460D01*
X114582600Y-103399460D01*
G37*
G36*
X103941346Y-102062933D02*
G01*
X103988318Y-102077181D01*
X104031606Y-102100319D01*
X104069545Y-102131455D01*
X104100681Y-102169394D01*
X104123819Y-102212682D01*
X104138067Y-102259654D01*
X104143000Y-102309733D01*
X104143000Y-102958267D01*
X104138067Y-103008346D01*
X104123819Y-103055318D01*
X104100681Y-103098606D01*
X104069545Y-103136545D01*
X104031606Y-103167681D01*
X103988318Y-103190819D01*
X103941346Y-103205067D01*
X103891267Y-103210000D01*
X103342733Y-103210000D01*
X103292654Y-103205067D01*
X103245682Y-103190819D01*
X103202394Y-103167681D01*
X103164455Y-103136545D01*
X103133319Y-103098606D01*
X103110181Y-103055318D01*
X103095933Y-103008346D01*
X103091000Y-102958267D01*
X103091000Y-102309733D01*
X103095933Y-102259654D01*
X103110181Y-102212682D01*
X103133319Y-102169394D01*
X103164455Y-102131455D01*
X103202394Y-102100319D01*
X103245682Y-102077181D01*
X103292654Y-102062933D01*
X103342733Y-102058000D01*
X103891267Y-102058000D01*
X103941346Y-102062933D01*
X103941346Y-102062933D01*
G37*
G36*
X102051438Y-102198072D02*
G01*
X102094895Y-102211254D01*
X102134934Y-102232656D01*
X102170036Y-102261464D01*
X102198844Y-102296566D01*
X102220246Y-102336605D01*
X102233428Y-102380062D01*
X102238000Y-102426482D01*
X102238000Y-102937518D01*
X102233428Y-102983938D01*
X102220246Y-103027395D01*
X102198844Y-103067434D01*
X102170036Y-103102536D01*
X102134934Y-103131344D01*
X102094895Y-103152746D01*
X102051438Y-103165928D01*
X102005018Y-103170500D01*
X101418982Y-103170500D01*
X101372562Y-103165928D01*
X101329105Y-103152746D01*
X101289066Y-103131344D01*
X101253964Y-103102536D01*
X101225156Y-103067434D01*
X101203754Y-103027395D01*
X101190572Y-102983938D01*
X101186000Y-102937518D01*
X101186000Y-102426482D01*
X101190572Y-102380062D01*
X101203754Y-102336605D01*
X101225156Y-102296566D01*
X101253964Y-102261464D01*
X101289066Y-102232656D01*
X101329105Y-102211254D01*
X101372562Y-102198072D01*
X101418982Y-102193500D01*
X102005018Y-102193500D01*
X102051438Y-102198072D01*
X102051438Y-102198072D01*
G37*
G36*
X100501000Y-103151000D02*
G01*
X98799000Y-103151000D01*
X98799000Y-101999000D01*
X100501000Y-101999000D01*
X100501000Y-103151000D01*
X100501000Y-103151000D01*
G37*
G36*
X95801000Y-103151000D02*
G01*
X94099000Y-103151000D01*
X94099000Y-101999000D01*
X95801000Y-101999000D01*
X95801000Y-103151000D01*
X95801000Y-103151000D01*
G37*
G36*
X121094218Y-101439412D02*
G01*
X121137675Y-101452594D01*
X121177714Y-101473996D01*
X121212816Y-101502804D01*
X121241624Y-101537906D01*
X121263026Y-101577945D01*
X121276208Y-101621402D01*
X121280780Y-101667822D01*
X121280780Y-102253858D01*
X121276208Y-102300278D01*
X121263026Y-102343735D01*
X121241624Y-102383774D01*
X121212816Y-102418876D01*
X121177714Y-102447684D01*
X121137675Y-102469086D01*
X121094218Y-102482268D01*
X121047798Y-102486840D01*
X120536762Y-102486840D01*
X120490342Y-102482268D01*
X120446885Y-102469086D01*
X120406846Y-102447684D01*
X120371744Y-102418876D01*
X120342936Y-102383774D01*
X120321534Y-102343735D01*
X120308352Y-102300278D01*
X120303780Y-102253858D01*
X120303780Y-101667822D01*
X120308352Y-101621402D01*
X120321534Y-101577945D01*
X120342936Y-101537906D01*
X120371744Y-101502804D01*
X120406846Y-101473996D01*
X120446885Y-101452594D01*
X120490342Y-101439412D01*
X120536762Y-101434840D01*
X121047798Y-101434840D01*
X121094218Y-101439412D01*
X121094218Y-101439412D01*
G37*
G36*
X122669218Y-101439412D02*
G01*
X122712675Y-101452594D01*
X122752714Y-101473996D01*
X122787816Y-101502804D01*
X122816624Y-101537906D01*
X122838026Y-101577945D01*
X122851208Y-101621402D01*
X122855780Y-101667822D01*
X122855780Y-102253858D01*
X122851208Y-102300278D01*
X122838026Y-102343735D01*
X122816624Y-102383774D01*
X122787816Y-102418876D01*
X122752714Y-102447684D01*
X122712675Y-102469086D01*
X122669218Y-102482268D01*
X122622798Y-102486840D01*
X122111762Y-102486840D01*
X122065342Y-102482268D01*
X122021885Y-102469086D01*
X121981846Y-102447684D01*
X121946744Y-102418876D01*
X121917936Y-102383774D01*
X121896534Y-102343735D01*
X121883352Y-102300278D01*
X121878780Y-102253858D01*
X121878780Y-101667822D01*
X121883352Y-101621402D01*
X121896534Y-101577945D01*
X121917936Y-101537906D01*
X121946744Y-101502804D01*
X121981846Y-101473996D01*
X122021885Y-101452594D01*
X122065342Y-101439412D01*
X122111762Y-101434840D01*
X122622798Y-101434840D01*
X122669218Y-101439412D01*
X122669218Y-101439412D01*
G37*
M02*
