G04 #@! TF.GenerationSoftware,KiCad,Pcbnew,(5.1.4)-1*
G04 #@! TF.CreationDate,2021-04-18T18:25:46+02:00*
G04 #@! TF.ProjectId,KUPS-DIM-6CVLED,4b555053-2d44-4494-9d2d-3643564c4544,V00.03*
G04 #@! TF.SameCoordinates,Original*
G04 #@! TF.FileFunction,Soldermask,Top*
G04 #@! TF.FilePolarity,Negative*
%FSLAX46Y46*%
G04 Gerber Fmt 4.6, Leading zero omitted, Abs format (unit mm)*
G04 Created by KiCad (PCBNEW (5.1.4)-1) date 2021-04-18 18:25:46*
%MOMM*%
%LPD*%
G04 APERTURE LIST*
%ADD10C,0.100000*%
G04 APERTURE END LIST*
D10*
G36*
X104436428Y-135862761D02*
G01*
X104537827Y-135893520D01*
X104615696Y-135917141D01*
X104780904Y-136005447D01*
X104925712Y-136124288D01*
X105044553Y-136269096D01*
X105132859Y-136434303D01*
X105187239Y-136613572D01*
X105201000Y-136753288D01*
X105201000Y-138646712D01*
X105187239Y-138786428D01*
X105132859Y-138965697D01*
X105044553Y-139130904D01*
X104925712Y-139275712D01*
X104780904Y-139394553D01*
X104615697Y-139482859D01*
X104541668Y-139505315D01*
X104436429Y-139537239D01*
X104250000Y-139555601D01*
X104063572Y-139537239D01*
X103958333Y-139505315D01*
X103884304Y-139482859D01*
X103719097Y-139394553D01*
X103574289Y-139275712D01*
X103455448Y-139130904D01*
X103367142Y-138965697D01*
X103312762Y-138786428D01*
X103299001Y-138646712D01*
X103299000Y-136753289D01*
X103312761Y-136613573D01*
X103312762Y-136613571D01*
X103367140Y-136434308D01*
X103367141Y-136434304D01*
X103455447Y-136269096D01*
X103574288Y-136124288D01*
X103719096Y-136005447D01*
X103884303Y-135917141D01*
X103962172Y-135893520D01*
X104063571Y-135862761D01*
X104250000Y-135844399D01*
X104436428Y-135862761D01*
X104436428Y-135862761D01*
G37*
G36*
X100936428Y-135862761D02*
G01*
X101037827Y-135893520D01*
X101115696Y-135917141D01*
X101280904Y-136005447D01*
X101425712Y-136124288D01*
X101544553Y-136269096D01*
X101632859Y-136434303D01*
X101687239Y-136613572D01*
X101701000Y-136753288D01*
X101701000Y-138646712D01*
X101687239Y-138786428D01*
X101632859Y-138965697D01*
X101544553Y-139130904D01*
X101425712Y-139275712D01*
X101280904Y-139394553D01*
X101115697Y-139482859D01*
X101041668Y-139505315D01*
X100936429Y-139537239D01*
X100750000Y-139555601D01*
X100563572Y-139537239D01*
X100458333Y-139505315D01*
X100384304Y-139482859D01*
X100219097Y-139394553D01*
X100074289Y-139275712D01*
X99955448Y-139130904D01*
X99867142Y-138965697D01*
X99812762Y-138786428D01*
X99799001Y-138646712D01*
X99799000Y-136753289D01*
X99812761Y-136613573D01*
X99812762Y-136613571D01*
X99867140Y-136434308D01*
X99867141Y-136434304D01*
X99955447Y-136269096D01*
X100074288Y-136124288D01*
X100219096Y-136005447D01*
X100384303Y-135917141D01*
X100462172Y-135893520D01*
X100563571Y-135862761D01*
X100750000Y-135844399D01*
X100936428Y-135862761D01*
X100936428Y-135862761D01*
G37*
G36*
X121936428Y-135862761D02*
G01*
X122037827Y-135893520D01*
X122115696Y-135917141D01*
X122280904Y-136005447D01*
X122425712Y-136124288D01*
X122544553Y-136269096D01*
X122632859Y-136434303D01*
X122687239Y-136613572D01*
X122701000Y-136753288D01*
X122701000Y-138646712D01*
X122687239Y-138786428D01*
X122632859Y-138965697D01*
X122544553Y-139130904D01*
X122425712Y-139275712D01*
X122280904Y-139394553D01*
X122115697Y-139482859D01*
X122041668Y-139505315D01*
X121936429Y-139537239D01*
X121750000Y-139555601D01*
X121563572Y-139537239D01*
X121458333Y-139505315D01*
X121384304Y-139482859D01*
X121219097Y-139394553D01*
X121074289Y-139275712D01*
X120955448Y-139130904D01*
X120867142Y-138965697D01*
X120812762Y-138786428D01*
X120799001Y-138646712D01*
X120799000Y-136753289D01*
X120812761Y-136613573D01*
X120812762Y-136613571D01*
X120867140Y-136434308D01*
X120867141Y-136434304D01*
X120955447Y-136269096D01*
X121074288Y-136124288D01*
X121219096Y-136005447D01*
X121384303Y-135917141D01*
X121462172Y-135893520D01*
X121563571Y-135862761D01*
X121750000Y-135844399D01*
X121936428Y-135862761D01*
X121936428Y-135862761D01*
G37*
G36*
X118436428Y-135862761D02*
G01*
X118537827Y-135893520D01*
X118615696Y-135917141D01*
X118780904Y-136005447D01*
X118925712Y-136124288D01*
X119044553Y-136269096D01*
X119132859Y-136434303D01*
X119187239Y-136613572D01*
X119201000Y-136753288D01*
X119201000Y-138646712D01*
X119187239Y-138786428D01*
X119132859Y-138965697D01*
X119044553Y-139130904D01*
X118925712Y-139275712D01*
X118780904Y-139394553D01*
X118615697Y-139482859D01*
X118541668Y-139505315D01*
X118436429Y-139537239D01*
X118250000Y-139555601D01*
X118063572Y-139537239D01*
X117958333Y-139505315D01*
X117884304Y-139482859D01*
X117719097Y-139394553D01*
X117574289Y-139275712D01*
X117455448Y-139130904D01*
X117367142Y-138965697D01*
X117312762Y-138786428D01*
X117299001Y-138646712D01*
X117299000Y-136753289D01*
X117312761Y-136613573D01*
X117312762Y-136613571D01*
X117367140Y-136434308D01*
X117367141Y-136434304D01*
X117455447Y-136269096D01*
X117574288Y-136124288D01*
X117719096Y-136005447D01*
X117884303Y-135917141D01*
X117962172Y-135893520D01*
X118063571Y-135862761D01*
X118250000Y-135844399D01*
X118436428Y-135862761D01*
X118436428Y-135862761D01*
G37*
G36*
X111436428Y-135862761D02*
G01*
X111537827Y-135893520D01*
X111615696Y-135917141D01*
X111780904Y-136005447D01*
X111925712Y-136124288D01*
X112044553Y-136269096D01*
X112132859Y-136434303D01*
X112187239Y-136613572D01*
X112201000Y-136753288D01*
X112201000Y-138646712D01*
X112187239Y-138786428D01*
X112132859Y-138965697D01*
X112044553Y-139130904D01*
X111925712Y-139275712D01*
X111780904Y-139394553D01*
X111615697Y-139482859D01*
X111541668Y-139505315D01*
X111436429Y-139537239D01*
X111250000Y-139555601D01*
X111063572Y-139537239D01*
X110958333Y-139505315D01*
X110884304Y-139482859D01*
X110719097Y-139394553D01*
X110574289Y-139275712D01*
X110455448Y-139130904D01*
X110367142Y-138965697D01*
X110312762Y-138786428D01*
X110299001Y-138646712D01*
X110299000Y-136753289D01*
X110312761Y-136613573D01*
X110312762Y-136613571D01*
X110367140Y-136434308D01*
X110367141Y-136434304D01*
X110455447Y-136269096D01*
X110574288Y-136124288D01*
X110719096Y-136005447D01*
X110884303Y-135917141D01*
X110962172Y-135893520D01*
X111063571Y-135862761D01*
X111250000Y-135844399D01*
X111436428Y-135862761D01*
X111436428Y-135862761D01*
G37*
G36*
X107936428Y-135862761D02*
G01*
X108037827Y-135893520D01*
X108115696Y-135917141D01*
X108280904Y-136005447D01*
X108425712Y-136124288D01*
X108544553Y-136269096D01*
X108632859Y-136434303D01*
X108687239Y-136613572D01*
X108701000Y-136753288D01*
X108701000Y-138646712D01*
X108687239Y-138786428D01*
X108632859Y-138965697D01*
X108544553Y-139130904D01*
X108425712Y-139275712D01*
X108280904Y-139394553D01*
X108115697Y-139482859D01*
X108041668Y-139505315D01*
X107936429Y-139537239D01*
X107750000Y-139555601D01*
X107563572Y-139537239D01*
X107458333Y-139505315D01*
X107384304Y-139482859D01*
X107219097Y-139394553D01*
X107074289Y-139275712D01*
X106955448Y-139130904D01*
X106867142Y-138965697D01*
X106812762Y-138786428D01*
X106799001Y-138646712D01*
X106799000Y-136753289D01*
X106812761Y-136613573D01*
X106812762Y-136613571D01*
X106867140Y-136434308D01*
X106867141Y-136434304D01*
X106955447Y-136269096D01*
X107074288Y-136124288D01*
X107219096Y-136005447D01*
X107384303Y-135917141D01*
X107462172Y-135893520D01*
X107563571Y-135862761D01*
X107750000Y-135844399D01*
X107936428Y-135862761D01*
X107936428Y-135862761D01*
G37*
G36*
X114936428Y-135862761D02*
G01*
X115037827Y-135893520D01*
X115115696Y-135917141D01*
X115280904Y-136005447D01*
X115425712Y-136124288D01*
X115544553Y-136269096D01*
X115632859Y-136434303D01*
X115687239Y-136613572D01*
X115701000Y-136753288D01*
X115701000Y-138646712D01*
X115687239Y-138786428D01*
X115632859Y-138965697D01*
X115544553Y-139130904D01*
X115425712Y-139275712D01*
X115280904Y-139394553D01*
X115115697Y-139482859D01*
X115041668Y-139505315D01*
X114936429Y-139537239D01*
X114750000Y-139555601D01*
X114563572Y-139537239D01*
X114458333Y-139505315D01*
X114384304Y-139482859D01*
X114219097Y-139394553D01*
X114074289Y-139275712D01*
X113955448Y-139130904D01*
X113867142Y-138965697D01*
X113812762Y-138786428D01*
X113799001Y-138646712D01*
X113799000Y-136753289D01*
X113812761Y-136613573D01*
X113812762Y-136613571D01*
X113867140Y-136434308D01*
X113867141Y-136434304D01*
X113955447Y-136269096D01*
X114074288Y-136124288D01*
X114219096Y-136005447D01*
X114384303Y-135917141D01*
X114462172Y-135893520D01*
X114563571Y-135862761D01*
X114750000Y-135844399D01*
X114936428Y-135862761D01*
X114936428Y-135862761D01*
G37*
G36*
X98002878Y-135853848D02*
G01*
X98049029Y-135867847D01*
X98091554Y-135890578D01*
X98128830Y-135921170D01*
X98159422Y-135958446D01*
X98182153Y-136000971D01*
X98196152Y-136047122D01*
X98201000Y-136096344D01*
X98201000Y-139303656D01*
X98196152Y-139352878D01*
X98182153Y-139399029D01*
X98159422Y-139441554D01*
X98128830Y-139478830D01*
X98091554Y-139509422D01*
X98049029Y-139532153D01*
X98002878Y-139546152D01*
X97953656Y-139551000D01*
X96546344Y-139551000D01*
X96497122Y-139546152D01*
X96450971Y-139532153D01*
X96408446Y-139509422D01*
X96371170Y-139478830D01*
X96340578Y-139441554D01*
X96317847Y-139399029D01*
X96303848Y-139352878D01*
X96299000Y-139303656D01*
X96299000Y-136096344D01*
X96303848Y-136047122D01*
X96317847Y-136000971D01*
X96340578Y-135958446D01*
X96371170Y-135921170D01*
X96408446Y-135890578D01*
X96450971Y-135867847D01*
X96497122Y-135853848D01*
X96546344Y-135849000D01*
X97953656Y-135849000D01*
X98002878Y-135853848D01*
X98002878Y-135853848D01*
G37*
G36*
X127219592Y-131183414D02*
G01*
X127360923Y-131226287D01*
X127391084Y-131235436D01*
X127540087Y-131315080D01*
X127549125Y-131319911D01*
X127687652Y-131433598D01*
X127801339Y-131572125D01*
X127801340Y-131572127D01*
X127885814Y-131730166D01*
X127885815Y-131730170D01*
X127937836Y-131901658D01*
X127955401Y-132080000D01*
X127937836Y-132258342D01*
X127894963Y-132399673D01*
X127885814Y-132429834D01*
X127806170Y-132578837D01*
X127801339Y-132587875D01*
X127687652Y-132726402D01*
X127549125Y-132840089D01*
X127549123Y-132840090D01*
X127391084Y-132924564D01*
X127360923Y-132933713D01*
X127219592Y-132976586D01*
X127085934Y-132989750D01*
X126914066Y-132989750D01*
X126780408Y-132976586D01*
X126639077Y-132933713D01*
X126608916Y-132924564D01*
X126450877Y-132840090D01*
X126450875Y-132840089D01*
X126312348Y-132726402D01*
X126198661Y-132587875D01*
X126193830Y-132578837D01*
X126114186Y-132429834D01*
X126105037Y-132399673D01*
X126062164Y-132258342D01*
X126044599Y-132080000D01*
X126062164Y-131901658D01*
X126114185Y-131730170D01*
X126114186Y-131730166D01*
X126198660Y-131572127D01*
X126198661Y-131572125D01*
X126312348Y-131433598D01*
X126450875Y-131319911D01*
X126459913Y-131315080D01*
X126608916Y-131235436D01*
X126639077Y-131226287D01*
X126780408Y-131183414D01*
X126914066Y-131170250D01*
X127085934Y-131170250D01*
X127219592Y-131183414D01*
X127219592Y-131183414D01*
G37*
G36*
X122219592Y-131183414D02*
G01*
X122360923Y-131226287D01*
X122391084Y-131235436D01*
X122540087Y-131315080D01*
X122549125Y-131319911D01*
X122687652Y-131433598D01*
X122801339Y-131572125D01*
X122801340Y-131572127D01*
X122885814Y-131730166D01*
X122885815Y-131730170D01*
X122937836Y-131901658D01*
X122955401Y-132080000D01*
X122937836Y-132258342D01*
X122894963Y-132399673D01*
X122885814Y-132429834D01*
X122806170Y-132578837D01*
X122801339Y-132587875D01*
X122687652Y-132726402D01*
X122549125Y-132840089D01*
X122549123Y-132840090D01*
X122391084Y-132924564D01*
X122360923Y-132933713D01*
X122219592Y-132976586D01*
X122085934Y-132989750D01*
X121914066Y-132989750D01*
X121780408Y-132976586D01*
X121639077Y-132933713D01*
X121608916Y-132924564D01*
X121450877Y-132840090D01*
X121450875Y-132840089D01*
X121312348Y-132726402D01*
X121198661Y-132587875D01*
X121193830Y-132578837D01*
X121114186Y-132429834D01*
X121105037Y-132399673D01*
X121062164Y-132258342D01*
X121044599Y-132080000D01*
X121062164Y-131901658D01*
X121114185Y-131730170D01*
X121114186Y-131730166D01*
X121198660Y-131572127D01*
X121198661Y-131572125D01*
X121312348Y-131433598D01*
X121450875Y-131319911D01*
X121459913Y-131315080D01*
X121608916Y-131235436D01*
X121639077Y-131226287D01*
X121780408Y-131183414D01*
X121914066Y-131170250D01*
X122085934Y-131170250D01*
X122219592Y-131183414D01*
X122219592Y-131183414D01*
G37*
G36*
X117219592Y-131183414D02*
G01*
X117360923Y-131226287D01*
X117391084Y-131235436D01*
X117540087Y-131315080D01*
X117549125Y-131319911D01*
X117687652Y-131433598D01*
X117801339Y-131572125D01*
X117801340Y-131572127D01*
X117885814Y-131730166D01*
X117885815Y-131730170D01*
X117937836Y-131901658D01*
X117955401Y-132080000D01*
X117937836Y-132258342D01*
X117894963Y-132399673D01*
X117885814Y-132429834D01*
X117806170Y-132578837D01*
X117801339Y-132587875D01*
X117687652Y-132726402D01*
X117549125Y-132840089D01*
X117549123Y-132840090D01*
X117391084Y-132924564D01*
X117360923Y-132933713D01*
X117219592Y-132976586D01*
X117085934Y-132989750D01*
X116914066Y-132989750D01*
X116780408Y-132976586D01*
X116639077Y-132933713D01*
X116608916Y-132924564D01*
X116450877Y-132840090D01*
X116450875Y-132840089D01*
X116312348Y-132726402D01*
X116198661Y-132587875D01*
X116193830Y-132578837D01*
X116114186Y-132429834D01*
X116105037Y-132399673D01*
X116062164Y-132258342D01*
X116044599Y-132080000D01*
X116062164Y-131901658D01*
X116114185Y-131730170D01*
X116114186Y-131730166D01*
X116198660Y-131572127D01*
X116198661Y-131572125D01*
X116312348Y-131433598D01*
X116450875Y-131319911D01*
X116459913Y-131315080D01*
X116608916Y-131235436D01*
X116639077Y-131226287D01*
X116780408Y-131183414D01*
X116914066Y-131170250D01*
X117085934Y-131170250D01*
X117219592Y-131183414D01*
X117219592Y-131183414D01*
G37*
G36*
X107219592Y-131183414D02*
G01*
X107360923Y-131226287D01*
X107391084Y-131235436D01*
X107540087Y-131315080D01*
X107549125Y-131319911D01*
X107687652Y-131433598D01*
X107801339Y-131572125D01*
X107801340Y-131572127D01*
X107885814Y-131730166D01*
X107885815Y-131730170D01*
X107937836Y-131901658D01*
X107955401Y-132080000D01*
X107937836Y-132258342D01*
X107894963Y-132399673D01*
X107885814Y-132429834D01*
X107806170Y-132578837D01*
X107801339Y-132587875D01*
X107687652Y-132726402D01*
X107549125Y-132840089D01*
X107549123Y-132840090D01*
X107391084Y-132924564D01*
X107360923Y-132933713D01*
X107219592Y-132976586D01*
X107085934Y-132989750D01*
X106914066Y-132989750D01*
X106780408Y-132976586D01*
X106639077Y-132933713D01*
X106608916Y-132924564D01*
X106450877Y-132840090D01*
X106450875Y-132840089D01*
X106312348Y-132726402D01*
X106198661Y-132587875D01*
X106193830Y-132578837D01*
X106114186Y-132429834D01*
X106105037Y-132399673D01*
X106062164Y-132258342D01*
X106044599Y-132080000D01*
X106062164Y-131901658D01*
X106114185Y-131730170D01*
X106114186Y-131730166D01*
X106198660Y-131572127D01*
X106198661Y-131572125D01*
X106312348Y-131433598D01*
X106450875Y-131319911D01*
X106459913Y-131315080D01*
X106608916Y-131235436D01*
X106639077Y-131226287D01*
X106780408Y-131183414D01*
X106914066Y-131170250D01*
X107085934Y-131170250D01*
X107219592Y-131183414D01*
X107219592Y-131183414D01*
G37*
G36*
X112219592Y-131183414D02*
G01*
X112360923Y-131226287D01*
X112391084Y-131235436D01*
X112540087Y-131315080D01*
X112549125Y-131319911D01*
X112687652Y-131433598D01*
X112801339Y-131572125D01*
X112801340Y-131572127D01*
X112885814Y-131730166D01*
X112885815Y-131730170D01*
X112937836Y-131901658D01*
X112955401Y-132080000D01*
X112937836Y-132258342D01*
X112894963Y-132399673D01*
X112885814Y-132429834D01*
X112806170Y-132578837D01*
X112801339Y-132587875D01*
X112687652Y-132726402D01*
X112549125Y-132840089D01*
X112549123Y-132840090D01*
X112391084Y-132924564D01*
X112360923Y-132933713D01*
X112219592Y-132976586D01*
X112085934Y-132989750D01*
X111914066Y-132989750D01*
X111780408Y-132976586D01*
X111639077Y-132933713D01*
X111608916Y-132924564D01*
X111450877Y-132840090D01*
X111450875Y-132840089D01*
X111312348Y-132726402D01*
X111198661Y-132587875D01*
X111193830Y-132578837D01*
X111114186Y-132429834D01*
X111105037Y-132399673D01*
X111062164Y-132258342D01*
X111044599Y-132080000D01*
X111062164Y-131901658D01*
X111114185Y-131730170D01*
X111114186Y-131730166D01*
X111198660Y-131572127D01*
X111198661Y-131572125D01*
X111312348Y-131433598D01*
X111450875Y-131319911D01*
X111459913Y-131315080D01*
X111608916Y-131235436D01*
X111639077Y-131226287D01*
X111780408Y-131183414D01*
X111914066Y-131170250D01*
X112085934Y-131170250D01*
X112219592Y-131183414D01*
X112219592Y-131183414D01*
G37*
G36*
X102219592Y-131103414D02*
G01*
X102360923Y-131146287D01*
X102391084Y-131155436D01*
X102540087Y-131235080D01*
X102549125Y-131239911D01*
X102687652Y-131353598D01*
X102801339Y-131492125D01*
X102801340Y-131492127D01*
X102885814Y-131650166D01*
X102885815Y-131650170D01*
X102937836Y-131821658D01*
X102955401Y-132000000D01*
X102937836Y-132178342D01*
X102913568Y-132258342D01*
X102885814Y-132349834D01*
X102806170Y-132498837D01*
X102801339Y-132507875D01*
X102687652Y-132646402D01*
X102549125Y-132760089D01*
X102549123Y-132760090D01*
X102391084Y-132844564D01*
X102360923Y-132853713D01*
X102219592Y-132896586D01*
X102085934Y-132909750D01*
X101914066Y-132909750D01*
X101780408Y-132896586D01*
X101639077Y-132853713D01*
X101608916Y-132844564D01*
X101450877Y-132760090D01*
X101450875Y-132760089D01*
X101312348Y-132646402D01*
X101198661Y-132507875D01*
X101193830Y-132498837D01*
X101114186Y-132349834D01*
X101086432Y-132258342D01*
X101062164Y-132178342D01*
X101044599Y-132000000D01*
X101062164Y-131821658D01*
X101114185Y-131650170D01*
X101114186Y-131650166D01*
X101198660Y-131492127D01*
X101198661Y-131492125D01*
X101312348Y-131353598D01*
X101450875Y-131239911D01*
X101459913Y-131235080D01*
X101608916Y-131155436D01*
X101639077Y-131146287D01*
X101780408Y-131103414D01*
X101914066Y-131090250D01*
X102085934Y-131090250D01*
X102219592Y-131103414D01*
X102219592Y-131103414D01*
G37*
G36*
X127219592Y-128893414D02*
G01*
X127360923Y-128936287D01*
X127391084Y-128945436D01*
X127540087Y-129025080D01*
X127549125Y-129029911D01*
X127687652Y-129143598D01*
X127801339Y-129282125D01*
X127801340Y-129282127D01*
X127885814Y-129440166D01*
X127885815Y-129440170D01*
X127937836Y-129611658D01*
X127955401Y-129790000D01*
X127937836Y-129968342D01*
X127897589Y-130101018D01*
X127885814Y-130139834D01*
X127836117Y-130232810D01*
X127801339Y-130297875D01*
X127687652Y-130436402D01*
X127549125Y-130550089D01*
X127549123Y-130550090D01*
X127391084Y-130634564D01*
X127360923Y-130643713D01*
X127219592Y-130686586D01*
X127085934Y-130699750D01*
X126914066Y-130699750D01*
X126780408Y-130686586D01*
X126639077Y-130643713D01*
X126608916Y-130634564D01*
X126450877Y-130550090D01*
X126450875Y-130550089D01*
X126312348Y-130436402D01*
X126198661Y-130297875D01*
X126163883Y-130232810D01*
X126114186Y-130139834D01*
X126102411Y-130101018D01*
X126062164Y-129968342D01*
X126044599Y-129790000D01*
X126062164Y-129611658D01*
X126114185Y-129440170D01*
X126114186Y-129440166D01*
X126198660Y-129282127D01*
X126198661Y-129282125D01*
X126312348Y-129143598D01*
X126450875Y-129029911D01*
X126459913Y-129025080D01*
X126608916Y-128945436D01*
X126639077Y-128936287D01*
X126780408Y-128893414D01*
X126914066Y-128880250D01*
X127085934Y-128880250D01*
X127219592Y-128893414D01*
X127219592Y-128893414D01*
G37*
G36*
X122219592Y-128893414D02*
G01*
X122360923Y-128936287D01*
X122391084Y-128945436D01*
X122540087Y-129025080D01*
X122549125Y-129029911D01*
X122687652Y-129143598D01*
X122801339Y-129282125D01*
X122801340Y-129282127D01*
X122885814Y-129440166D01*
X122885815Y-129440170D01*
X122937836Y-129611658D01*
X122955401Y-129790000D01*
X122937836Y-129968342D01*
X122897589Y-130101018D01*
X122885814Y-130139834D01*
X122836117Y-130232810D01*
X122801339Y-130297875D01*
X122687652Y-130436402D01*
X122549125Y-130550089D01*
X122549123Y-130550090D01*
X122391084Y-130634564D01*
X122360923Y-130643713D01*
X122219592Y-130686586D01*
X122085934Y-130699750D01*
X121914066Y-130699750D01*
X121780408Y-130686586D01*
X121639077Y-130643713D01*
X121608916Y-130634564D01*
X121450877Y-130550090D01*
X121450875Y-130550089D01*
X121312348Y-130436402D01*
X121198661Y-130297875D01*
X121163883Y-130232810D01*
X121114186Y-130139834D01*
X121102411Y-130101018D01*
X121062164Y-129968342D01*
X121044599Y-129790000D01*
X121062164Y-129611658D01*
X121114185Y-129440170D01*
X121114186Y-129440166D01*
X121198660Y-129282127D01*
X121198661Y-129282125D01*
X121312348Y-129143598D01*
X121450875Y-129029911D01*
X121459913Y-129025080D01*
X121608916Y-128945436D01*
X121639077Y-128936287D01*
X121780408Y-128893414D01*
X121914066Y-128880250D01*
X122085934Y-128880250D01*
X122219592Y-128893414D01*
X122219592Y-128893414D01*
G37*
G36*
X117219592Y-128893414D02*
G01*
X117360923Y-128936287D01*
X117391084Y-128945436D01*
X117540087Y-129025080D01*
X117549125Y-129029911D01*
X117687652Y-129143598D01*
X117801339Y-129282125D01*
X117801340Y-129282127D01*
X117885814Y-129440166D01*
X117885815Y-129440170D01*
X117937836Y-129611658D01*
X117955401Y-129790000D01*
X117937836Y-129968342D01*
X117897589Y-130101018D01*
X117885814Y-130139834D01*
X117836117Y-130232810D01*
X117801339Y-130297875D01*
X117687652Y-130436402D01*
X117549125Y-130550089D01*
X117549123Y-130550090D01*
X117391084Y-130634564D01*
X117360923Y-130643713D01*
X117219592Y-130686586D01*
X117085934Y-130699750D01*
X116914066Y-130699750D01*
X116780408Y-130686586D01*
X116639077Y-130643713D01*
X116608916Y-130634564D01*
X116450877Y-130550090D01*
X116450875Y-130550089D01*
X116312348Y-130436402D01*
X116198661Y-130297875D01*
X116163883Y-130232810D01*
X116114186Y-130139834D01*
X116102411Y-130101018D01*
X116062164Y-129968342D01*
X116044599Y-129790000D01*
X116062164Y-129611658D01*
X116114185Y-129440170D01*
X116114186Y-129440166D01*
X116198660Y-129282127D01*
X116198661Y-129282125D01*
X116312348Y-129143598D01*
X116450875Y-129029911D01*
X116459913Y-129025080D01*
X116608916Y-128945436D01*
X116639077Y-128936287D01*
X116780408Y-128893414D01*
X116914066Y-128880250D01*
X117085934Y-128880250D01*
X117219592Y-128893414D01*
X117219592Y-128893414D01*
G37*
G36*
X107219592Y-128893414D02*
G01*
X107360923Y-128936287D01*
X107391084Y-128945436D01*
X107540087Y-129025080D01*
X107549125Y-129029911D01*
X107687652Y-129143598D01*
X107801339Y-129282125D01*
X107801340Y-129282127D01*
X107885814Y-129440166D01*
X107885815Y-129440170D01*
X107937836Y-129611658D01*
X107955401Y-129790000D01*
X107937836Y-129968342D01*
X107897589Y-130101018D01*
X107885814Y-130139834D01*
X107836117Y-130232810D01*
X107801339Y-130297875D01*
X107687652Y-130436402D01*
X107549125Y-130550089D01*
X107549123Y-130550090D01*
X107391084Y-130634564D01*
X107360923Y-130643713D01*
X107219592Y-130686586D01*
X107085934Y-130699750D01*
X106914066Y-130699750D01*
X106780408Y-130686586D01*
X106639077Y-130643713D01*
X106608916Y-130634564D01*
X106450877Y-130550090D01*
X106450875Y-130550089D01*
X106312348Y-130436402D01*
X106198661Y-130297875D01*
X106163883Y-130232810D01*
X106114186Y-130139834D01*
X106102411Y-130101018D01*
X106062164Y-129968342D01*
X106044599Y-129790000D01*
X106062164Y-129611658D01*
X106114185Y-129440170D01*
X106114186Y-129440166D01*
X106198660Y-129282127D01*
X106198661Y-129282125D01*
X106312348Y-129143598D01*
X106450875Y-129029911D01*
X106459913Y-129025080D01*
X106608916Y-128945436D01*
X106639077Y-128936287D01*
X106780408Y-128893414D01*
X106914066Y-128880250D01*
X107085934Y-128880250D01*
X107219592Y-128893414D01*
X107219592Y-128893414D01*
G37*
G36*
X112219592Y-128893414D02*
G01*
X112360923Y-128936287D01*
X112391084Y-128945436D01*
X112540087Y-129025080D01*
X112549125Y-129029911D01*
X112687652Y-129143598D01*
X112801339Y-129282125D01*
X112801340Y-129282127D01*
X112885814Y-129440166D01*
X112885815Y-129440170D01*
X112937836Y-129611658D01*
X112955401Y-129790000D01*
X112937836Y-129968342D01*
X112897589Y-130101018D01*
X112885814Y-130139834D01*
X112836117Y-130232810D01*
X112801339Y-130297875D01*
X112687652Y-130436402D01*
X112549125Y-130550089D01*
X112549123Y-130550090D01*
X112391084Y-130634564D01*
X112360923Y-130643713D01*
X112219592Y-130686586D01*
X112085934Y-130699750D01*
X111914066Y-130699750D01*
X111780408Y-130686586D01*
X111639077Y-130643713D01*
X111608916Y-130634564D01*
X111450877Y-130550090D01*
X111450875Y-130550089D01*
X111312348Y-130436402D01*
X111198661Y-130297875D01*
X111163883Y-130232810D01*
X111114186Y-130139834D01*
X111102411Y-130101018D01*
X111062164Y-129968342D01*
X111044599Y-129790000D01*
X111062164Y-129611658D01*
X111114185Y-129440170D01*
X111114186Y-129440166D01*
X111198660Y-129282127D01*
X111198661Y-129282125D01*
X111312348Y-129143598D01*
X111450875Y-129029911D01*
X111459913Y-129025080D01*
X111608916Y-128945436D01*
X111639077Y-128936287D01*
X111780408Y-128893414D01*
X111914066Y-128880250D01*
X112085934Y-128880250D01*
X112219592Y-128893414D01*
X112219592Y-128893414D01*
G37*
G36*
X102219592Y-128813414D02*
G01*
X102337709Y-128849245D01*
X102391084Y-128865436D01*
X102483693Y-128914937D01*
X102549125Y-128949911D01*
X102687652Y-129063598D01*
X102801339Y-129202125D01*
X102801340Y-129202127D01*
X102885814Y-129360166D01*
X102885815Y-129360170D01*
X102937836Y-129531658D01*
X102955401Y-129710000D01*
X102937836Y-129888342D01*
X102913568Y-129968342D01*
X102885814Y-130059834D01*
X102837215Y-130150755D01*
X102801339Y-130217875D01*
X102687652Y-130356402D01*
X102549125Y-130470089D01*
X102549123Y-130470090D01*
X102391084Y-130554564D01*
X102360923Y-130563713D01*
X102219592Y-130606586D01*
X102085934Y-130619750D01*
X101914066Y-130619750D01*
X101780408Y-130606586D01*
X101639077Y-130563713D01*
X101608916Y-130554564D01*
X101450877Y-130470090D01*
X101450875Y-130470089D01*
X101312348Y-130356402D01*
X101198661Y-130217875D01*
X101162785Y-130150755D01*
X101114186Y-130059834D01*
X101086432Y-129968342D01*
X101062164Y-129888342D01*
X101044599Y-129710000D01*
X101062164Y-129531658D01*
X101114185Y-129360170D01*
X101114186Y-129360166D01*
X101198660Y-129202127D01*
X101198661Y-129202125D01*
X101312348Y-129063598D01*
X101450875Y-128949911D01*
X101516307Y-128914937D01*
X101608916Y-128865436D01*
X101662291Y-128849245D01*
X101780408Y-128813414D01*
X101914066Y-128800250D01*
X102085934Y-128800250D01*
X102219592Y-128813414D01*
X102219592Y-128813414D01*
G37*
G36*
X97950755Y-128653899D02*
G01*
X97997400Y-128668048D01*
X98040379Y-128691021D01*
X98078057Y-128721943D01*
X98108979Y-128759621D01*
X98131952Y-128802600D01*
X98146101Y-128849245D01*
X98151000Y-128898982D01*
X98151000Y-130101018D01*
X98146101Y-130150755D01*
X98131952Y-130197400D01*
X98108979Y-130240379D01*
X98078057Y-130278057D01*
X98040379Y-130308979D01*
X97997400Y-130331952D01*
X97950755Y-130346101D01*
X97901018Y-130351000D01*
X95298982Y-130351000D01*
X95249245Y-130346101D01*
X95202600Y-130331952D01*
X95159621Y-130308979D01*
X95121943Y-130278057D01*
X95091021Y-130240379D01*
X95068048Y-130197400D01*
X95053899Y-130150755D01*
X95049000Y-130101018D01*
X95049000Y-128898982D01*
X95053899Y-128849245D01*
X95068048Y-128802600D01*
X95091021Y-128759621D01*
X95121943Y-128721943D01*
X95159621Y-128691021D01*
X95202600Y-128668048D01*
X95249245Y-128653899D01*
X95298982Y-128649000D01*
X97901018Y-128649000D01*
X97950755Y-128653899D01*
X97950755Y-128653899D01*
G37*
G36*
X93550755Y-128653899D02*
G01*
X93597400Y-128668048D01*
X93640379Y-128691021D01*
X93678057Y-128721943D01*
X93708979Y-128759621D01*
X93731952Y-128802600D01*
X93746101Y-128849245D01*
X93751000Y-128898982D01*
X93751000Y-130101018D01*
X93746101Y-130150755D01*
X93731952Y-130197400D01*
X93708979Y-130240379D01*
X93678057Y-130278057D01*
X93640379Y-130308979D01*
X93597400Y-130331952D01*
X93550755Y-130346101D01*
X93501018Y-130351000D01*
X90898982Y-130351000D01*
X90849245Y-130346101D01*
X90802600Y-130331952D01*
X90759621Y-130308979D01*
X90721943Y-130278057D01*
X90691021Y-130240379D01*
X90668048Y-130197400D01*
X90653899Y-130150755D01*
X90649000Y-130101018D01*
X90649000Y-128898982D01*
X90653899Y-128849245D01*
X90668048Y-128802600D01*
X90691021Y-128759621D01*
X90721943Y-128721943D01*
X90759621Y-128691021D01*
X90802600Y-128668048D01*
X90849245Y-128653899D01*
X90898982Y-128649000D01*
X93501018Y-128649000D01*
X93550755Y-128653899D01*
X93550755Y-128653899D01*
G37*
G36*
X117951000Y-128409750D02*
G01*
X116049000Y-128409750D01*
X116049000Y-126590250D01*
X117951000Y-126590250D01*
X117951000Y-128409750D01*
X117951000Y-128409750D01*
G37*
G36*
X107951000Y-128409750D02*
G01*
X106049000Y-128409750D01*
X106049000Y-126590250D01*
X107951000Y-126590250D01*
X107951000Y-128409750D01*
X107951000Y-128409750D01*
G37*
G36*
X112951000Y-128409750D02*
G01*
X111049000Y-128409750D01*
X111049000Y-126590250D01*
X112951000Y-126590250D01*
X112951000Y-128409750D01*
X112951000Y-128409750D01*
G37*
G36*
X122951000Y-128409750D02*
G01*
X121049000Y-128409750D01*
X121049000Y-126590250D01*
X122951000Y-126590250D01*
X122951000Y-128409750D01*
X122951000Y-128409750D01*
G37*
G36*
X127951000Y-128409750D02*
G01*
X126049000Y-128409750D01*
X126049000Y-126590250D01*
X127951000Y-126590250D01*
X127951000Y-128409750D01*
X127951000Y-128409750D01*
G37*
G36*
X102951000Y-128329750D02*
G01*
X101049000Y-128329750D01*
X101049000Y-126510250D01*
X102951000Y-126510250D01*
X102951000Y-128329750D01*
X102951000Y-128329750D01*
G37*
G36*
X95735192Y-119366538D02*
G01*
X95860869Y-119391537D01*
X96097634Y-119489608D01*
X96310720Y-119631988D01*
X96491932Y-119813200D01*
X96634312Y-120026286D01*
X96732383Y-120263051D01*
X96782380Y-120514404D01*
X96782380Y-120770676D01*
X96732383Y-121022029D01*
X96634312Y-121258794D01*
X96491932Y-121471880D01*
X96310720Y-121653092D01*
X96097634Y-121795472D01*
X95860869Y-121893543D01*
X95735193Y-121918541D01*
X95609517Y-121943540D01*
X95353243Y-121943540D01*
X95227567Y-121918541D01*
X95101891Y-121893543D01*
X94865126Y-121795472D01*
X94652040Y-121653092D01*
X94470828Y-121471880D01*
X94328448Y-121258794D01*
X94230377Y-121022029D01*
X94180380Y-120770676D01*
X94180380Y-120514404D01*
X94230377Y-120263051D01*
X94328448Y-120026286D01*
X94470828Y-119813200D01*
X94652040Y-119631988D01*
X94865126Y-119489608D01*
X95101891Y-119391537D01*
X95227568Y-119366538D01*
X95353243Y-119341540D01*
X95609517Y-119341540D01*
X95735192Y-119366538D01*
X95735192Y-119366538D01*
G37*
G36*
X128925000Y-120151000D02*
G01*
X127223000Y-120151000D01*
X127223000Y-118999000D01*
X128925000Y-118999000D01*
X128925000Y-120151000D01*
X128925000Y-120151000D01*
G37*
G36*
X124225000Y-120151000D02*
G01*
X122523000Y-120151000D01*
X122523000Y-118999000D01*
X124225000Y-118999000D01*
X124225000Y-120151000D01*
X124225000Y-120151000D01*
G37*
G36*
X109876000Y-118651000D02*
G01*
X107264000Y-118651000D01*
X107264000Y-117549000D01*
X109876000Y-117549000D01*
X109876000Y-118651000D01*
X109876000Y-118651000D01*
G37*
G36*
X102451000Y-118301000D02*
G01*
X100549000Y-118301000D01*
X100549000Y-115699000D01*
X102451000Y-115699000D01*
X102451000Y-118301000D01*
X102451000Y-118301000D01*
G37*
G36*
X124225000Y-118001000D02*
G01*
X122523000Y-118001000D01*
X122523000Y-116849000D01*
X124225000Y-116849000D01*
X124225000Y-118001000D01*
X124225000Y-118001000D01*
G37*
G36*
X128925000Y-118001000D02*
G01*
X127223000Y-118001000D01*
X127223000Y-116849000D01*
X128925000Y-116849000D01*
X128925000Y-118001000D01*
X128925000Y-118001000D01*
G37*
G36*
X122089438Y-116158712D02*
G01*
X122132895Y-116171894D01*
X122172934Y-116193296D01*
X122208036Y-116222104D01*
X122236844Y-116257206D01*
X122258246Y-116297245D01*
X122271428Y-116340702D01*
X122276000Y-116387122D01*
X122276000Y-116973158D01*
X122271428Y-117019578D01*
X122258246Y-117063035D01*
X122236844Y-117103074D01*
X122208036Y-117138176D01*
X122172934Y-117166984D01*
X122132895Y-117188386D01*
X122089438Y-117201568D01*
X122043018Y-117206140D01*
X121531982Y-117206140D01*
X121485562Y-117201568D01*
X121442105Y-117188386D01*
X121402066Y-117166984D01*
X121366964Y-117138176D01*
X121338156Y-117103074D01*
X121316754Y-117063035D01*
X121303572Y-117019578D01*
X121299000Y-116973158D01*
X121299000Y-116387122D01*
X121303572Y-116340702D01*
X121316754Y-116297245D01*
X121338156Y-116257206D01*
X121366964Y-116222104D01*
X121402066Y-116193296D01*
X121442105Y-116171894D01*
X121485562Y-116158712D01*
X121531982Y-116154140D01*
X122043018Y-116154140D01*
X122089438Y-116158712D01*
X122089438Y-116158712D01*
G37*
G36*
X120514438Y-116158712D02*
G01*
X120557895Y-116171894D01*
X120597934Y-116193296D01*
X120633036Y-116222104D01*
X120661844Y-116257206D01*
X120683246Y-116297245D01*
X120696428Y-116340702D01*
X120701000Y-116387122D01*
X120701000Y-116973158D01*
X120696428Y-117019578D01*
X120683246Y-117063035D01*
X120661844Y-117103074D01*
X120633036Y-117138176D01*
X120597934Y-117166984D01*
X120557895Y-117188386D01*
X120514438Y-117201568D01*
X120468018Y-117206140D01*
X119956982Y-117206140D01*
X119910562Y-117201568D01*
X119867105Y-117188386D01*
X119827066Y-117166984D01*
X119791964Y-117138176D01*
X119763156Y-117103074D01*
X119741754Y-117063035D01*
X119728572Y-117019578D01*
X119724000Y-116973158D01*
X119724000Y-116387122D01*
X119728572Y-116340702D01*
X119741754Y-116297245D01*
X119763156Y-116257206D01*
X119791964Y-116222104D01*
X119827066Y-116193296D01*
X119867105Y-116171894D01*
X119910562Y-116158712D01*
X119956982Y-116154140D01*
X120468018Y-116154140D01*
X120514438Y-116158712D01*
X120514438Y-116158712D01*
G37*
G36*
X95735192Y-113616538D02*
G01*
X95860869Y-113641537D01*
X96097634Y-113739608D01*
X96097635Y-113739609D01*
X96310719Y-113881987D01*
X96491933Y-114063201D01*
X96557628Y-114161520D01*
X96634312Y-114276286D01*
X96710261Y-114459644D01*
X96732383Y-114513052D01*
X96771185Y-114708120D01*
X96782380Y-114764404D01*
X96782380Y-115020676D01*
X96732383Y-115272029D01*
X96634312Y-115508794D01*
X96491932Y-115721880D01*
X96310720Y-115903092D01*
X96097634Y-116045472D01*
X95860869Y-116143543D01*
X95735192Y-116168542D01*
X95609517Y-116193540D01*
X95353243Y-116193540D01*
X95227568Y-116168542D01*
X95101891Y-116143543D01*
X94865126Y-116045472D01*
X94652040Y-115903092D01*
X94470828Y-115721880D01*
X94328448Y-115508794D01*
X94230377Y-115272029D01*
X94180380Y-115020676D01*
X94180380Y-114764404D01*
X94191576Y-114708120D01*
X94230377Y-114513052D01*
X94252499Y-114459644D01*
X94328448Y-114276286D01*
X94405132Y-114161520D01*
X94470827Y-114063201D01*
X94652041Y-113881987D01*
X94865125Y-113739609D01*
X94865126Y-113739608D01*
X95101891Y-113641537D01*
X95227568Y-113616538D01*
X95353243Y-113591540D01*
X95609517Y-113591540D01*
X95735192Y-113616538D01*
X95735192Y-113616538D01*
G37*
G36*
X106566000Y-116111000D02*
G01*
X103954000Y-116111000D01*
X103954000Y-115009000D01*
X106566000Y-115009000D01*
X106566000Y-116111000D01*
X106566000Y-116111000D01*
G37*
G36*
X123559880Y-113858791D02*
G01*
X123590430Y-113868059D01*
X123618592Y-113883112D01*
X123643273Y-113903367D01*
X123663528Y-113928048D01*
X123678581Y-113956210D01*
X123687849Y-113986760D01*
X123691100Y-114019771D01*
X123691100Y-115343309D01*
X123687849Y-115376320D01*
X123678581Y-115406870D01*
X123663528Y-115435032D01*
X123643273Y-115459713D01*
X123618592Y-115479968D01*
X123590430Y-115495021D01*
X123559880Y-115504289D01*
X123526869Y-115507540D01*
X123153331Y-115507540D01*
X123120320Y-115504289D01*
X123089770Y-115495021D01*
X123061608Y-115479968D01*
X123036927Y-115459713D01*
X123016672Y-115435032D01*
X123001619Y-115406870D01*
X122992351Y-115376320D01*
X122989100Y-115343309D01*
X122989100Y-114019771D01*
X122992351Y-113986760D01*
X123001619Y-113956210D01*
X123016672Y-113928048D01*
X123036927Y-113903367D01*
X123061608Y-113883112D01*
X123089770Y-113868059D01*
X123120320Y-113858791D01*
X123153331Y-113855540D01*
X123526869Y-113855540D01*
X123559880Y-113858791D01*
X123559880Y-113858791D01*
G37*
G36*
X122289880Y-113858791D02*
G01*
X122320430Y-113868059D01*
X122348592Y-113883112D01*
X122373273Y-113903367D01*
X122393528Y-113928048D01*
X122408581Y-113956210D01*
X122417849Y-113986760D01*
X122421100Y-114019771D01*
X122421100Y-115343309D01*
X122417849Y-115376320D01*
X122408581Y-115406870D01*
X122393528Y-115435032D01*
X122373273Y-115459713D01*
X122348592Y-115479968D01*
X122320430Y-115495021D01*
X122289880Y-115504289D01*
X122256869Y-115507540D01*
X121883331Y-115507540D01*
X121850320Y-115504289D01*
X121819770Y-115495021D01*
X121791608Y-115479968D01*
X121766927Y-115459713D01*
X121746672Y-115435032D01*
X121731619Y-115406870D01*
X121722351Y-115376320D01*
X121719100Y-115343309D01*
X121719100Y-114019771D01*
X121722351Y-113986760D01*
X121731619Y-113956210D01*
X121746672Y-113928048D01*
X121766927Y-113903367D01*
X121791608Y-113883112D01*
X121819770Y-113868059D01*
X121850320Y-113858791D01*
X121883331Y-113855540D01*
X122256869Y-113855540D01*
X122289880Y-113858791D01*
X122289880Y-113858791D01*
G37*
G36*
X121019880Y-113858791D02*
G01*
X121050430Y-113868059D01*
X121078592Y-113883112D01*
X121103273Y-113903367D01*
X121123528Y-113928048D01*
X121138581Y-113956210D01*
X121147849Y-113986760D01*
X121151100Y-114019771D01*
X121151100Y-115343309D01*
X121147849Y-115376320D01*
X121138581Y-115406870D01*
X121123528Y-115435032D01*
X121103273Y-115459713D01*
X121078592Y-115479968D01*
X121050430Y-115495021D01*
X121019880Y-115504289D01*
X120986869Y-115507540D01*
X120613331Y-115507540D01*
X120580320Y-115504289D01*
X120549770Y-115495021D01*
X120521608Y-115479968D01*
X120496927Y-115459713D01*
X120476672Y-115435032D01*
X120461619Y-115406870D01*
X120452351Y-115376320D01*
X120449100Y-115343309D01*
X120449100Y-114019771D01*
X120452351Y-113986760D01*
X120461619Y-113956210D01*
X120476672Y-113928048D01*
X120496927Y-113903367D01*
X120521608Y-113883112D01*
X120549770Y-113868059D01*
X120580320Y-113858791D01*
X120613331Y-113855540D01*
X120986869Y-113855540D01*
X121019880Y-113858791D01*
X121019880Y-113858791D01*
G37*
G36*
X119749880Y-113858791D02*
G01*
X119780430Y-113868059D01*
X119808592Y-113883112D01*
X119833273Y-113903367D01*
X119853528Y-113928048D01*
X119868581Y-113956210D01*
X119877849Y-113986760D01*
X119881100Y-114019771D01*
X119881100Y-115343309D01*
X119877849Y-115376320D01*
X119868581Y-115406870D01*
X119853528Y-115435032D01*
X119833273Y-115459713D01*
X119808592Y-115479968D01*
X119780430Y-115495021D01*
X119749880Y-115504289D01*
X119716869Y-115507540D01*
X119343331Y-115507540D01*
X119310320Y-115504289D01*
X119279770Y-115495021D01*
X119251608Y-115479968D01*
X119226927Y-115459713D01*
X119206672Y-115435032D01*
X119191619Y-115406870D01*
X119182351Y-115376320D01*
X119179100Y-115343309D01*
X119179100Y-114019771D01*
X119182351Y-113986760D01*
X119191619Y-113956210D01*
X119206672Y-113928048D01*
X119226927Y-113903367D01*
X119251608Y-113883112D01*
X119279770Y-113868059D01*
X119310320Y-113858791D01*
X119343331Y-113855540D01*
X119716869Y-113855540D01*
X119749880Y-113858791D01*
X119749880Y-113858791D01*
G37*
G36*
X126418015Y-114376973D02*
G01*
X126521879Y-114408479D01*
X126569740Y-114434062D01*
X126617599Y-114459643D01*
X126617601Y-114459644D01*
X126617600Y-114459644D01*
X126701501Y-114528499D01*
X126770356Y-114612400D01*
X126821521Y-114708121D01*
X126853027Y-114811985D01*
X126863666Y-114920000D01*
X126853027Y-115028015D01*
X126821521Y-115131879D01*
X126821520Y-115131880D01*
X126770357Y-115227599D01*
X126701501Y-115311501D01*
X126617599Y-115380357D01*
X126582344Y-115399201D01*
X126521879Y-115431521D01*
X126418015Y-115463027D01*
X126337067Y-115471000D01*
X126282933Y-115471000D01*
X126201985Y-115463027D01*
X126098121Y-115431521D01*
X126037656Y-115399201D01*
X126002401Y-115380357D01*
X125918499Y-115311501D01*
X125849643Y-115227599D01*
X125798480Y-115131880D01*
X125798479Y-115131879D01*
X125766973Y-115028015D01*
X125756334Y-114920000D01*
X125766973Y-114811985D01*
X125798479Y-114708121D01*
X125849644Y-114612400D01*
X125918499Y-114528499D01*
X126002400Y-114459644D01*
X126002399Y-114459644D01*
X126002401Y-114459643D01*
X126098121Y-114408479D01*
X126201985Y-114376973D01*
X126282933Y-114369000D01*
X126337067Y-114369000D01*
X126418015Y-114376973D01*
X126418015Y-114376973D01*
G37*
G36*
X102451000Y-114301000D02*
G01*
X100549000Y-114301000D01*
X100549000Y-111699000D01*
X102451000Y-111699000D01*
X102451000Y-114301000D01*
X102451000Y-114301000D01*
G37*
G36*
X126418015Y-113106973D02*
G01*
X126521879Y-113138479D01*
X126617599Y-113189643D01*
X126617601Y-113189644D01*
X126617600Y-113189644D01*
X126701501Y-113258499D01*
X126770356Y-113342400D01*
X126821521Y-113438121D01*
X126853027Y-113541985D01*
X126863666Y-113650000D01*
X126853027Y-113758015D01*
X126821521Y-113861879D01*
X126810773Y-113881987D01*
X126770357Y-113957599D01*
X126701501Y-114041501D01*
X126617599Y-114110357D01*
X126569740Y-114135938D01*
X126521879Y-114161521D01*
X126418015Y-114193027D01*
X126337067Y-114201000D01*
X126282933Y-114201000D01*
X126201985Y-114193027D01*
X126098121Y-114161521D01*
X126002401Y-114110357D01*
X125918499Y-114041501D01*
X125849643Y-113957599D01*
X125809227Y-113881987D01*
X125798479Y-113861879D01*
X125766973Y-113758015D01*
X125756334Y-113650000D01*
X125766973Y-113541985D01*
X125798479Y-113438121D01*
X125849644Y-113342400D01*
X125918499Y-113258499D01*
X126002400Y-113189644D01*
X126002399Y-113189644D01*
X126002401Y-113189643D01*
X126098121Y-113138479D01*
X126201985Y-113106973D01*
X126282933Y-113099000D01*
X126337067Y-113099000D01*
X126418015Y-113106973D01*
X126418015Y-113106973D01*
G37*
G36*
X109876000Y-113611000D02*
G01*
X107264000Y-113611000D01*
X107264000Y-112509000D01*
X109876000Y-112509000D01*
X109876000Y-113611000D01*
X109876000Y-113611000D01*
G37*
G36*
X126418015Y-111836973D02*
G01*
X126521879Y-111868479D01*
X126569740Y-111894062D01*
X126617599Y-111919643D01*
X126617601Y-111919644D01*
X126617600Y-111919644D01*
X126701501Y-111988499D01*
X126770356Y-112072400D01*
X126821521Y-112168121D01*
X126853027Y-112271985D01*
X126863666Y-112380000D01*
X126853027Y-112488015D01*
X126821521Y-112591879D01*
X126821520Y-112591880D01*
X126770357Y-112687599D01*
X126701501Y-112771501D01*
X126617599Y-112840357D01*
X126521879Y-112891521D01*
X126418015Y-112923027D01*
X126337067Y-112931000D01*
X126282933Y-112931000D01*
X126201985Y-112923027D01*
X126098121Y-112891521D01*
X126002401Y-112840357D01*
X125918499Y-112771501D01*
X125849643Y-112687599D01*
X125798480Y-112591880D01*
X125798479Y-112591879D01*
X125766973Y-112488015D01*
X125756334Y-112380000D01*
X125766973Y-112271985D01*
X125798479Y-112168121D01*
X125849644Y-112072400D01*
X125918499Y-111988499D01*
X126002400Y-111919644D01*
X126002399Y-111919644D01*
X126002401Y-111919643D01*
X126050260Y-111894062D01*
X126098121Y-111868479D01*
X126201985Y-111836973D01*
X126282933Y-111829000D01*
X126337067Y-111829000D01*
X126418015Y-111836973D01*
X126418015Y-111836973D01*
G37*
G36*
X126418015Y-110566973D02*
G01*
X126521879Y-110598479D01*
X126569740Y-110624062D01*
X126617599Y-110649643D01*
X126617601Y-110649644D01*
X126617600Y-110649644D01*
X126701501Y-110718499D01*
X126770356Y-110802400D01*
X126821521Y-110898121D01*
X126853027Y-111001985D01*
X126863666Y-111110000D01*
X126853027Y-111218015D01*
X126821521Y-111321879D01*
X126821520Y-111321880D01*
X126770357Y-111417599D01*
X126701501Y-111501501D01*
X126617599Y-111570357D01*
X126569740Y-111595938D01*
X126521879Y-111621521D01*
X126418015Y-111653027D01*
X126337067Y-111661000D01*
X126282933Y-111661000D01*
X126201985Y-111653027D01*
X126098121Y-111621521D01*
X126050260Y-111595938D01*
X126002401Y-111570357D01*
X125918499Y-111501501D01*
X125849643Y-111417599D01*
X125798480Y-111321880D01*
X125798479Y-111321879D01*
X125766973Y-111218015D01*
X125756334Y-111110000D01*
X125766973Y-111001985D01*
X125798479Y-110898121D01*
X125849644Y-110802400D01*
X125918499Y-110718499D01*
X126002400Y-110649644D01*
X126002399Y-110649644D01*
X126002401Y-110649643D01*
X126098121Y-110598479D01*
X126201985Y-110566973D01*
X126282933Y-110559000D01*
X126337067Y-110559000D01*
X126418015Y-110566973D01*
X126418015Y-110566973D01*
G37*
G36*
X106566000Y-111031000D02*
G01*
X103954000Y-111031000D01*
X103954000Y-109929000D01*
X106566000Y-109929000D01*
X106566000Y-111031000D01*
X106566000Y-111031000D01*
G37*
G36*
X126418015Y-109296973D02*
G01*
X126521879Y-109328479D01*
X126569740Y-109354062D01*
X126617599Y-109379643D01*
X126617601Y-109379644D01*
X126617600Y-109379644D01*
X126701501Y-109448499D01*
X126770356Y-109532400D01*
X126821521Y-109628121D01*
X126853027Y-109731985D01*
X126863666Y-109840000D01*
X126853027Y-109948015D01*
X126821521Y-110051879D01*
X126821520Y-110051880D01*
X126770357Y-110147599D01*
X126701501Y-110231501D01*
X126617599Y-110300357D01*
X126599150Y-110310218D01*
X126521879Y-110351521D01*
X126418015Y-110383027D01*
X126337067Y-110391000D01*
X126282933Y-110391000D01*
X126201985Y-110383027D01*
X126098121Y-110351521D01*
X126020850Y-110310218D01*
X126002401Y-110300357D01*
X125918499Y-110231501D01*
X125849643Y-110147599D01*
X125798480Y-110051880D01*
X125798479Y-110051879D01*
X125766973Y-109948015D01*
X125756334Y-109840000D01*
X125766973Y-109731985D01*
X125798479Y-109628121D01*
X125849644Y-109532400D01*
X125918499Y-109448499D01*
X126002400Y-109379644D01*
X126002399Y-109379644D01*
X126002401Y-109379643D01*
X126098121Y-109328479D01*
X126201985Y-109296973D01*
X126282933Y-109289000D01*
X126337067Y-109289000D01*
X126418015Y-109296973D01*
X126418015Y-109296973D01*
G37*
G36*
X96142059Y-108759521D02*
G01*
X96193644Y-108769782D01*
X96266529Y-108799972D01*
X96339416Y-108830163D01*
X96470608Y-108917822D01*
X96582178Y-109029392D01*
X96669837Y-109160584D01*
X96730218Y-109306357D01*
X96761000Y-109461108D01*
X96761000Y-109618892D01*
X96730218Y-109773643D01*
X96669837Y-109919416D01*
X96582178Y-110050608D01*
X96470608Y-110162178D01*
X96339416Y-110249837D01*
X96266530Y-110280027D01*
X96193644Y-110310218D01*
X96142059Y-110320479D01*
X96038892Y-110341000D01*
X95881108Y-110341000D01*
X95777941Y-110320479D01*
X95726356Y-110310218D01*
X95653470Y-110280027D01*
X95580584Y-110249837D01*
X95449392Y-110162178D01*
X95337822Y-110050608D01*
X95250163Y-109919416D01*
X95189782Y-109773643D01*
X95159000Y-109618892D01*
X95159000Y-109461108D01*
X95189782Y-109306357D01*
X95250163Y-109160584D01*
X95337822Y-109029392D01*
X95449392Y-108917822D01*
X95580584Y-108830163D01*
X95653471Y-108799972D01*
X95726356Y-108769782D01*
X95777941Y-108759521D01*
X95881108Y-108739000D01*
X96038892Y-108739000D01*
X96142059Y-108759521D01*
X96142059Y-108759521D01*
G37*
G36*
X122289880Y-108508791D02*
G01*
X122320430Y-108518059D01*
X122348592Y-108533112D01*
X122373273Y-108553367D01*
X122393528Y-108578048D01*
X122408581Y-108606210D01*
X122417849Y-108636760D01*
X122421100Y-108669771D01*
X122421100Y-109993309D01*
X122417849Y-110026320D01*
X122408581Y-110056870D01*
X122393528Y-110085032D01*
X122373273Y-110109713D01*
X122348592Y-110129968D01*
X122320430Y-110145021D01*
X122289880Y-110154289D01*
X122256869Y-110157540D01*
X121883331Y-110157540D01*
X121850320Y-110154289D01*
X121819770Y-110145021D01*
X121791608Y-110129968D01*
X121766927Y-110109713D01*
X121746672Y-110085032D01*
X121731619Y-110056870D01*
X121722351Y-110026320D01*
X121719100Y-109993309D01*
X121719100Y-108669771D01*
X121722351Y-108636760D01*
X121731619Y-108606210D01*
X121746672Y-108578048D01*
X121766927Y-108553367D01*
X121791608Y-108533112D01*
X121819770Y-108518059D01*
X121850320Y-108508791D01*
X121883331Y-108505540D01*
X122256869Y-108505540D01*
X122289880Y-108508791D01*
X122289880Y-108508791D01*
G37*
G36*
X121019880Y-108508791D02*
G01*
X121050430Y-108518059D01*
X121078592Y-108533112D01*
X121103273Y-108553367D01*
X121123528Y-108578048D01*
X121138581Y-108606210D01*
X121147849Y-108636760D01*
X121151100Y-108669771D01*
X121151100Y-109993309D01*
X121147849Y-110026320D01*
X121138581Y-110056870D01*
X121123528Y-110085032D01*
X121103273Y-110109713D01*
X121078592Y-110129968D01*
X121050430Y-110145021D01*
X121019880Y-110154289D01*
X120986869Y-110157540D01*
X120613331Y-110157540D01*
X120580320Y-110154289D01*
X120549770Y-110145021D01*
X120521608Y-110129968D01*
X120496927Y-110109713D01*
X120476672Y-110085032D01*
X120461619Y-110056870D01*
X120452351Y-110026320D01*
X120449100Y-109993309D01*
X120449100Y-108669771D01*
X120452351Y-108636760D01*
X120461619Y-108606210D01*
X120476672Y-108578048D01*
X120496927Y-108553367D01*
X120521608Y-108533112D01*
X120549770Y-108518059D01*
X120580320Y-108508791D01*
X120613331Y-108505540D01*
X120986869Y-108505540D01*
X121019880Y-108508791D01*
X121019880Y-108508791D01*
G37*
G36*
X119749880Y-108508791D02*
G01*
X119780430Y-108518059D01*
X119808592Y-108533112D01*
X119833273Y-108553367D01*
X119853528Y-108578048D01*
X119868581Y-108606210D01*
X119877849Y-108636760D01*
X119881100Y-108669771D01*
X119881100Y-109993309D01*
X119877849Y-110026320D01*
X119868581Y-110056870D01*
X119853528Y-110085032D01*
X119833273Y-110109713D01*
X119808592Y-110129968D01*
X119780430Y-110145021D01*
X119749880Y-110154289D01*
X119716869Y-110157540D01*
X119343331Y-110157540D01*
X119310320Y-110154289D01*
X119279770Y-110145021D01*
X119251608Y-110129968D01*
X119226927Y-110109713D01*
X119206672Y-110085032D01*
X119191619Y-110056870D01*
X119182351Y-110026320D01*
X119179100Y-109993309D01*
X119179100Y-108669771D01*
X119182351Y-108636760D01*
X119191619Y-108606210D01*
X119206672Y-108578048D01*
X119226927Y-108553367D01*
X119251608Y-108533112D01*
X119279770Y-108518059D01*
X119310320Y-108508791D01*
X119343331Y-108505540D01*
X119716869Y-108505540D01*
X119749880Y-108508791D01*
X119749880Y-108508791D01*
G37*
G36*
X123559880Y-108508791D02*
G01*
X123590430Y-108518059D01*
X123618592Y-108533112D01*
X123643273Y-108553367D01*
X123663528Y-108578048D01*
X123678581Y-108606210D01*
X123687849Y-108636760D01*
X123691100Y-108669771D01*
X123691100Y-109993309D01*
X123687849Y-110026320D01*
X123678581Y-110056870D01*
X123663528Y-110085032D01*
X123643273Y-110109713D01*
X123618592Y-110129968D01*
X123590430Y-110145021D01*
X123559880Y-110154289D01*
X123526869Y-110157540D01*
X123153331Y-110157540D01*
X123120320Y-110154289D01*
X123089770Y-110145021D01*
X123061608Y-110129968D01*
X123036927Y-110109713D01*
X123016672Y-110085032D01*
X123001619Y-110056870D01*
X122992351Y-110026320D01*
X122989100Y-109993309D01*
X122989100Y-108669771D01*
X122992351Y-108636760D01*
X123001619Y-108606210D01*
X123016672Y-108578048D01*
X123036927Y-108553367D01*
X123061608Y-108533112D01*
X123089770Y-108518059D01*
X123120320Y-108508791D01*
X123153331Y-108505540D01*
X123526869Y-108505540D01*
X123559880Y-108508791D01*
X123559880Y-108508791D01*
G37*
G36*
X126418015Y-108026973D02*
G01*
X126521879Y-108058479D01*
X126569740Y-108084062D01*
X126617599Y-108109643D01*
X126617601Y-108109644D01*
X126617600Y-108109644D01*
X126701501Y-108178499D01*
X126770356Y-108262400D01*
X126821521Y-108358121D01*
X126853027Y-108461985D01*
X126863666Y-108570000D01*
X126853027Y-108678015D01*
X126821521Y-108781879D01*
X126821520Y-108781880D01*
X126770357Y-108877599D01*
X126701501Y-108961501D01*
X126617599Y-109030357D01*
X126569740Y-109055938D01*
X126521879Y-109081521D01*
X126418015Y-109113027D01*
X126337067Y-109121000D01*
X126282933Y-109121000D01*
X126201985Y-109113027D01*
X126098121Y-109081521D01*
X126050260Y-109055938D01*
X126002401Y-109030357D01*
X125918499Y-108961501D01*
X125849643Y-108877599D01*
X125798480Y-108781880D01*
X125798479Y-108781879D01*
X125766973Y-108678015D01*
X125756334Y-108570000D01*
X125766973Y-108461985D01*
X125798479Y-108358121D01*
X125849644Y-108262400D01*
X125918499Y-108178499D01*
X126002400Y-108109644D01*
X126002399Y-108109644D01*
X126002401Y-108109643D01*
X126050260Y-108084062D01*
X126098121Y-108058479D01*
X126201985Y-108026973D01*
X126282933Y-108019000D01*
X126337067Y-108019000D01*
X126418015Y-108026973D01*
X126418015Y-108026973D01*
G37*
G36*
X109876000Y-108491000D02*
G01*
X107264000Y-108491000D01*
X107264000Y-107389000D01*
X109876000Y-107389000D01*
X109876000Y-108491000D01*
X109876000Y-108491000D01*
G37*
G36*
X126861000Y-107851000D02*
G01*
X125759000Y-107851000D01*
X125759000Y-106749000D01*
X126861000Y-106749000D01*
X126861000Y-107851000D01*
X126861000Y-107851000D01*
G37*
G36*
X99301000Y-107801000D02*
G01*
X97699000Y-107801000D01*
X97699000Y-106199000D01*
X99301000Y-106199000D01*
X99301000Y-107801000D01*
X99301000Y-107801000D01*
G37*
G36*
X93602059Y-106219521D02*
G01*
X93653644Y-106229782D01*
X93726529Y-106259972D01*
X93799416Y-106290163D01*
X93930608Y-106377822D01*
X94042178Y-106489392D01*
X94129837Y-106620584D01*
X94190218Y-106766357D01*
X94221000Y-106921108D01*
X94221000Y-107078892D01*
X94190218Y-107233643D01*
X94129837Y-107379416D01*
X94042178Y-107510608D01*
X93930608Y-107622178D01*
X93799416Y-107709837D01*
X93726530Y-107740027D01*
X93653644Y-107770218D01*
X93602059Y-107780479D01*
X93498892Y-107801000D01*
X93341108Y-107801000D01*
X93237941Y-107780479D01*
X93186356Y-107770218D01*
X93113470Y-107740027D01*
X93040584Y-107709837D01*
X92909392Y-107622178D01*
X92797822Y-107510608D01*
X92710163Y-107379416D01*
X92649782Y-107233643D01*
X92619000Y-107078892D01*
X92619000Y-106921108D01*
X92649782Y-106766357D01*
X92710163Y-106620584D01*
X92797822Y-106489392D01*
X92909392Y-106377822D01*
X93040584Y-106290163D01*
X93113471Y-106259972D01*
X93186356Y-106229782D01*
X93237941Y-106219521D01*
X93341108Y-106199000D01*
X93498892Y-106199000D01*
X93602059Y-106219521D01*
X93602059Y-106219521D01*
G37*
G36*
X106566000Y-105951000D02*
G01*
X103954000Y-105951000D01*
X103954000Y-104849000D01*
X106566000Y-104849000D01*
X106566000Y-105951000D01*
X106566000Y-105951000D01*
G37*
G36*
X109876000Y-103411000D02*
G01*
X107264000Y-103411000D01*
X107264000Y-102309000D01*
X109876000Y-102309000D01*
X109876000Y-103411000D01*
X109876000Y-103411000D01*
G37*
M02*
