M48
; DRILL file {KiCad (5.1.4)-1} date 18/04/2021 18:25:51
; FORMAT={-:-/ absolute / inch / decimal}
; #@! TF.CreationDate,2021-04-18T18:25:51+02:00
; #@! TF.GenerationSoftware,Kicad,Pcbnew,(5.1.4)-1
; #@! TF.FileFunction,Plated,1,2,PTH
FMAT,2
INCH
T1C0.0118
T2C0.0256
T3C0.0315
T4C0.0433
T5C0.0472
%
G90
G05
T1
X3.5827Y-5.2362
X3.622Y-4.9016
X3.622Y-5.0984
X3.65Y-4.1331
X3.6811Y-4.311
X3.7402Y-5.2559
X3.7402Y-5.4528
X3.7992Y-4.9213
X3.8387Y-4.0722
X4.1339Y-4.0157
X4.1535Y-4.1496
X4.1829Y-4.2858
X4.1933Y-4.1951
X4.2224Y-4.8622
X4.2294Y-4.1496
X4.2344Y-4.2496
X4.2844Y-4.1096
X4.311Y-5.4724
X4.3156Y-4.3196
X4.3813Y-4.4082
X4.3891Y-4.0483
X4.4644Y-4.4546
X4.4846Y-4.2692
X4.5055Y-4.1167
X4.5606Y-4.1737
X4.5625Y-4.1131
X4.6063Y-4.8819
X4.6139Y-3.9946
X4.6346Y-4.1263
X4.6584Y-4.1584
X4.6676Y-4.1065
X4.7047Y-4.6287
X4.7047Y-4.6787
X4.7094Y-4.0196
X4.7212Y-4.3732
X4.7244Y-5.4724
X4.8048Y-4.3821
X4.8062Y-4.4398
X4.8524Y-4.439
X4.8544Y-4.0796
X4.9213Y-4.8819
X4.9244Y-4.5626
X4.9606Y-5.3543
X4.989Y-4.1815
X5.0357Y-4.4966
X5.0433Y-4.626
T2
X4.9728Y-4.2244
X4.9728Y-4.2744
X4.9728Y-4.3244
X4.9728Y-4.3744
X4.9728Y-4.4244
X4.9728Y-4.4744
X4.9728Y-4.5244
T3
X3.678Y-4.2126
X3.778Y-4.3126
X3.878Y-4.2126
T4
X5.0Y-5.0197
X5.0Y-5.1098
X5.0Y-5.2
X4.4094Y-5.0197
X4.4094Y-5.1098
X4.4094Y-5.2
X4.0157Y-5.0165
X4.0157Y-5.1067
X4.0157Y-5.1969
X4.8031Y-5.0197
X4.8031Y-5.1098
X4.8031Y-5.2
X4.2126Y-5.0197
X4.2126Y-5.1098
X4.2126Y-5.2
X3.7591Y-4.5233
X3.7591Y-4.7497
X4.6063Y-5.0197
X4.6063Y-5.1098
X4.6063Y-5.2
T5
X3.8287Y-5.4213
X3.9665Y-5.4213
X4.1043Y-5.4213
X4.2421Y-5.4213
X4.3799Y-5.4213
X4.5177Y-5.4213
X4.6555Y-5.4213
X4.7933Y-5.4213
T0
M30
