G04 #@! TF.GenerationSoftware,KiCad,Pcbnew,(5.1.4)-1*
G04 #@! TF.CreationDate,2021-04-18T18:25:46+02:00*
G04 #@! TF.ProjectId,KUPS-DIM-6CVLED,4b555053-2d44-4494-9d2d-3643564c4544,V00.03*
G04 #@! TF.SameCoordinates,Original*
G04 #@! TF.FileFunction,Copper,L1,Top*
G04 #@! TF.FilePolarity,Positive*
%FSLAX46Y46*%
G04 Gerber Fmt 4.6, Leading zero omitted, Abs format (unit mm)*
G04 Created by KiCad (PCBNEW (5.1.4)-1) date 2021-04-18 18:25:46*
%MOMM*%
%LPD*%
G04 APERTURE LIST*
%ADD10O,1.000000X1.000000*%
%ADD11R,1.000000X1.000000*%
%ADD12R,2.510000X1.000000*%
%ADD13R,1.500000X1.500000*%
%ADD14C,1.500000*%
%ADD15O,1.800000X1.717500*%
%ADD16R,1.800000X1.717500*%
%ADD17R,1.600000X1.050000*%
%ADD18C,0.100000*%
%ADD19C,0.600000*%
%ADD20C,1.600000*%
%ADD21O,1.800000X3.600000*%
%ADD22C,1.800000*%
%ADD23C,2.500000*%
%ADD24R,1.800000X2.500000*%
%ADD25C,0.875000*%
%ADD26C,0.300000*%
%ADD27C,0.250000*%
%ADD28C,0.400000*%
%ADD29C,1.500000*%
%ADD30C,0.500000*%
%ADD31C,0.200000*%
%ADD32C,2.000000*%
%ADD33C,0.254000*%
G04 APERTURE END LIST*
D10*
X126310000Y-114920000D03*
X126310000Y-113650000D03*
X126310000Y-112380000D03*
X126310000Y-111110000D03*
X126310000Y-109840000D03*
X126310000Y-108570000D03*
D11*
X126310000Y-107300000D03*
D12*
X105260000Y-105400000D03*
X105260000Y-110480000D03*
X105260000Y-115560000D03*
X108570000Y-102860000D03*
X108570000Y-107940000D03*
X108570000Y-113060000D03*
X108570000Y-118100000D03*
D13*
X98500000Y-107000000D03*
D14*
X93420000Y-107000000D03*
X95960000Y-109540000D03*
D15*
X127000000Y-132080000D03*
X127000000Y-129790000D03*
D16*
X127000000Y-127500000D03*
D15*
X122000000Y-132080000D03*
X122000000Y-129790000D03*
D16*
X122000000Y-127500000D03*
D15*
X117000000Y-132080000D03*
X117000000Y-129790000D03*
D16*
X117000000Y-127500000D03*
D15*
X112000000Y-132080000D03*
X112000000Y-129790000D03*
D16*
X112000000Y-127500000D03*
D15*
X107000000Y-132080000D03*
X107000000Y-129790000D03*
D16*
X107000000Y-127500000D03*
D15*
X102000000Y-132000000D03*
X102000000Y-129710000D03*
D16*
X102000000Y-127420000D03*
D17*
X123374000Y-119575000D03*
X123374000Y-117425000D03*
X128074000Y-119575000D03*
X128074000Y-117425000D03*
D18*
G36*
X119694803Y-108557262D02*
G01*
X119709364Y-108559422D01*
X119723643Y-108562999D01*
X119737503Y-108567958D01*
X119750810Y-108574252D01*
X119763436Y-108581820D01*
X119775259Y-108590588D01*
X119786166Y-108600474D01*
X119796052Y-108611381D01*
X119804820Y-108623204D01*
X119812388Y-108635830D01*
X119818682Y-108649137D01*
X119823641Y-108662997D01*
X119827218Y-108677276D01*
X119829378Y-108691837D01*
X119830100Y-108706540D01*
X119830100Y-109956540D01*
X119829378Y-109971243D01*
X119827218Y-109985804D01*
X119823641Y-110000083D01*
X119818682Y-110013943D01*
X119812388Y-110027250D01*
X119804820Y-110039876D01*
X119796052Y-110051699D01*
X119786166Y-110062606D01*
X119775259Y-110072492D01*
X119763436Y-110081260D01*
X119750810Y-110088828D01*
X119737503Y-110095122D01*
X119723643Y-110100081D01*
X119709364Y-110103658D01*
X119694803Y-110105818D01*
X119680100Y-110106540D01*
X119380100Y-110106540D01*
X119365397Y-110105818D01*
X119350836Y-110103658D01*
X119336557Y-110100081D01*
X119322697Y-110095122D01*
X119309390Y-110088828D01*
X119296764Y-110081260D01*
X119284941Y-110072492D01*
X119274034Y-110062606D01*
X119264148Y-110051699D01*
X119255380Y-110039876D01*
X119247812Y-110027250D01*
X119241518Y-110013943D01*
X119236559Y-110000083D01*
X119232982Y-109985804D01*
X119230822Y-109971243D01*
X119230100Y-109956540D01*
X119230100Y-108706540D01*
X119230822Y-108691837D01*
X119232982Y-108677276D01*
X119236559Y-108662997D01*
X119241518Y-108649137D01*
X119247812Y-108635830D01*
X119255380Y-108623204D01*
X119264148Y-108611381D01*
X119274034Y-108600474D01*
X119284941Y-108590588D01*
X119296764Y-108581820D01*
X119309390Y-108574252D01*
X119322697Y-108567958D01*
X119336557Y-108562999D01*
X119350836Y-108559422D01*
X119365397Y-108557262D01*
X119380100Y-108556540D01*
X119680100Y-108556540D01*
X119694803Y-108557262D01*
X119694803Y-108557262D01*
G37*
D19*
X119530100Y-109331540D03*
D18*
G36*
X120964803Y-108557262D02*
G01*
X120979364Y-108559422D01*
X120993643Y-108562999D01*
X121007503Y-108567958D01*
X121020810Y-108574252D01*
X121033436Y-108581820D01*
X121045259Y-108590588D01*
X121056166Y-108600474D01*
X121066052Y-108611381D01*
X121074820Y-108623204D01*
X121082388Y-108635830D01*
X121088682Y-108649137D01*
X121093641Y-108662997D01*
X121097218Y-108677276D01*
X121099378Y-108691837D01*
X121100100Y-108706540D01*
X121100100Y-109956540D01*
X121099378Y-109971243D01*
X121097218Y-109985804D01*
X121093641Y-110000083D01*
X121088682Y-110013943D01*
X121082388Y-110027250D01*
X121074820Y-110039876D01*
X121066052Y-110051699D01*
X121056166Y-110062606D01*
X121045259Y-110072492D01*
X121033436Y-110081260D01*
X121020810Y-110088828D01*
X121007503Y-110095122D01*
X120993643Y-110100081D01*
X120979364Y-110103658D01*
X120964803Y-110105818D01*
X120950100Y-110106540D01*
X120650100Y-110106540D01*
X120635397Y-110105818D01*
X120620836Y-110103658D01*
X120606557Y-110100081D01*
X120592697Y-110095122D01*
X120579390Y-110088828D01*
X120566764Y-110081260D01*
X120554941Y-110072492D01*
X120544034Y-110062606D01*
X120534148Y-110051699D01*
X120525380Y-110039876D01*
X120517812Y-110027250D01*
X120511518Y-110013943D01*
X120506559Y-110000083D01*
X120502982Y-109985804D01*
X120500822Y-109971243D01*
X120500100Y-109956540D01*
X120500100Y-108706540D01*
X120500822Y-108691837D01*
X120502982Y-108677276D01*
X120506559Y-108662997D01*
X120511518Y-108649137D01*
X120517812Y-108635830D01*
X120525380Y-108623204D01*
X120534148Y-108611381D01*
X120544034Y-108600474D01*
X120554941Y-108590588D01*
X120566764Y-108581820D01*
X120579390Y-108574252D01*
X120592697Y-108567958D01*
X120606557Y-108562999D01*
X120620836Y-108559422D01*
X120635397Y-108557262D01*
X120650100Y-108556540D01*
X120950100Y-108556540D01*
X120964803Y-108557262D01*
X120964803Y-108557262D01*
G37*
D19*
X120800100Y-109331540D03*
D18*
G36*
X122234803Y-108557262D02*
G01*
X122249364Y-108559422D01*
X122263643Y-108562999D01*
X122277503Y-108567958D01*
X122290810Y-108574252D01*
X122303436Y-108581820D01*
X122315259Y-108590588D01*
X122326166Y-108600474D01*
X122336052Y-108611381D01*
X122344820Y-108623204D01*
X122352388Y-108635830D01*
X122358682Y-108649137D01*
X122363641Y-108662997D01*
X122367218Y-108677276D01*
X122369378Y-108691837D01*
X122370100Y-108706540D01*
X122370100Y-109956540D01*
X122369378Y-109971243D01*
X122367218Y-109985804D01*
X122363641Y-110000083D01*
X122358682Y-110013943D01*
X122352388Y-110027250D01*
X122344820Y-110039876D01*
X122336052Y-110051699D01*
X122326166Y-110062606D01*
X122315259Y-110072492D01*
X122303436Y-110081260D01*
X122290810Y-110088828D01*
X122277503Y-110095122D01*
X122263643Y-110100081D01*
X122249364Y-110103658D01*
X122234803Y-110105818D01*
X122220100Y-110106540D01*
X121920100Y-110106540D01*
X121905397Y-110105818D01*
X121890836Y-110103658D01*
X121876557Y-110100081D01*
X121862697Y-110095122D01*
X121849390Y-110088828D01*
X121836764Y-110081260D01*
X121824941Y-110072492D01*
X121814034Y-110062606D01*
X121804148Y-110051699D01*
X121795380Y-110039876D01*
X121787812Y-110027250D01*
X121781518Y-110013943D01*
X121776559Y-110000083D01*
X121772982Y-109985804D01*
X121770822Y-109971243D01*
X121770100Y-109956540D01*
X121770100Y-108706540D01*
X121770822Y-108691837D01*
X121772982Y-108677276D01*
X121776559Y-108662997D01*
X121781518Y-108649137D01*
X121787812Y-108635830D01*
X121795380Y-108623204D01*
X121804148Y-108611381D01*
X121814034Y-108600474D01*
X121824941Y-108590588D01*
X121836764Y-108581820D01*
X121849390Y-108574252D01*
X121862697Y-108567958D01*
X121876557Y-108562999D01*
X121890836Y-108559422D01*
X121905397Y-108557262D01*
X121920100Y-108556540D01*
X122220100Y-108556540D01*
X122234803Y-108557262D01*
X122234803Y-108557262D01*
G37*
D19*
X122070100Y-109331540D03*
D18*
G36*
X123504803Y-108557262D02*
G01*
X123519364Y-108559422D01*
X123533643Y-108562999D01*
X123547503Y-108567958D01*
X123560810Y-108574252D01*
X123573436Y-108581820D01*
X123585259Y-108590588D01*
X123596166Y-108600474D01*
X123606052Y-108611381D01*
X123614820Y-108623204D01*
X123622388Y-108635830D01*
X123628682Y-108649137D01*
X123633641Y-108662997D01*
X123637218Y-108677276D01*
X123639378Y-108691837D01*
X123640100Y-108706540D01*
X123640100Y-109956540D01*
X123639378Y-109971243D01*
X123637218Y-109985804D01*
X123633641Y-110000083D01*
X123628682Y-110013943D01*
X123622388Y-110027250D01*
X123614820Y-110039876D01*
X123606052Y-110051699D01*
X123596166Y-110062606D01*
X123585259Y-110072492D01*
X123573436Y-110081260D01*
X123560810Y-110088828D01*
X123547503Y-110095122D01*
X123533643Y-110100081D01*
X123519364Y-110103658D01*
X123504803Y-110105818D01*
X123490100Y-110106540D01*
X123190100Y-110106540D01*
X123175397Y-110105818D01*
X123160836Y-110103658D01*
X123146557Y-110100081D01*
X123132697Y-110095122D01*
X123119390Y-110088828D01*
X123106764Y-110081260D01*
X123094941Y-110072492D01*
X123084034Y-110062606D01*
X123074148Y-110051699D01*
X123065380Y-110039876D01*
X123057812Y-110027250D01*
X123051518Y-110013943D01*
X123046559Y-110000083D01*
X123042982Y-109985804D01*
X123040822Y-109971243D01*
X123040100Y-109956540D01*
X123040100Y-108706540D01*
X123040822Y-108691837D01*
X123042982Y-108677276D01*
X123046559Y-108662997D01*
X123051518Y-108649137D01*
X123057812Y-108635830D01*
X123065380Y-108623204D01*
X123074148Y-108611381D01*
X123084034Y-108600474D01*
X123094941Y-108590588D01*
X123106764Y-108581820D01*
X123119390Y-108574252D01*
X123132697Y-108567958D01*
X123146557Y-108562999D01*
X123160836Y-108559422D01*
X123175397Y-108557262D01*
X123190100Y-108556540D01*
X123490100Y-108556540D01*
X123504803Y-108557262D01*
X123504803Y-108557262D01*
G37*
D19*
X123340100Y-109331540D03*
D18*
G36*
X123504803Y-113907262D02*
G01*
X123519364Y-113909422D01*
X123533643Y-113912999D01*
X123547503Y-113917958D01*
X123560810Y-113924252D01*
X123573436Y-113931820D01*
X123585259Y-113940588D01*
X123596166Y-113950474D01*
X123606052Y-113961381D01*
X123614820Y-113973204D01*
X123622388Y-113985830D01*
X123628682Y-113999137D01*
X123633641Y-114012997D01*
X123637218Y-114027276D01*
X123639378Y-114041837D01*
X123640100Y-114056540D01*
X123640100Y-115306540D01*
X123639378Y-115321243D01*
X123637218Y-115335804D01*
X123633641Y-115350083D01*
X123628682Y-115363943D01*
X123622388Y-115377250D01*
X123614820Y-115389876D01*
X123606052Y-115401699D01*
X123596166Y-115412606D01*
X123585259Y-115422492D01*
X123573436Y-115431260D01*
X123560810Y-115438828D01*
X123547503Y-115445122D01*
X123533643Y-115450081D01*
X123519364Y-115453658D01*
X123504803Y-115455818D01*
X123490100Y-115456540D01*
X123190100Y-115456540D01*
X123175397Y-115455818D01*
X123160836Y-115453658D01*
X123146557Y-115450081D01*
X123132697Y-115445122D01*
X123119390Y-115438828D01*
X123106764Y-115431260D01*
X123094941Y-115422492D01*
X123084034Y-115412606D01*
X123074148Y-115401699D01*
X123065380Y-115389876D01*
X123057812Y-115377250D01*
X123051518Y-115363943D01*
X123046559Y-115350083D01*
X123042982Y-115335804D01*
X123040822Y-115321243D01*
X123040100Y-115306540D01*
X123040100Y-114056540D01*
X123040822Y-114041837D01*
X123042982Y-114027276D01*
X123046559Y-114012997D01*
X123051518Y-113999137D01*
X123057812Y-113985830D01*
X123065380Y-113973204D01*
X123074148Y-113961381D01*
X123084034Y-113950474D01*
X123094941Y-113940588D01*
X123106764Y-113931820D01*
X123119390Y-113924252D01*
X123132697Y-113917958D01*
X123146557Y-113912999D01*
X123160836Y-113909422D01*
X123175397Y-113907262D01*
X123190100Y-113906540D01*
X123490100Y-113906540D01*
X123504803Y-113907262D01*
X123504803Y-113907262D01*
G37*
D19*
X123340100Y-114681540D03*
D18*
G36*
X122234803Y-113907262D02*
G01*
X122249364Y-113909422D01*
X122263643Y-113912999D01*
X122277503Y-113917958D01*
X122290810Y-113924252D01*
X122303436Y-113931820D01*
X122315259Y-113940588D01*
X122326166Y-113950474D01*
X122336052Y-113961381D01*
X122344820Y-113973204D01*
X122352388Y-113985830D01*
X122358682Y-113999137D01*
X122363641Y-114012997D01*
X122367218Y-114027276D01*
X122369378Y-114041837D01*
X122370100Y-114056540D01*
X122370100Y-115306540D01*
X122369378Y-115321243D01*
X122367218Y-115335804D01*
X122363641Y-115350083D01*
X122358682Y-115363943D01*
X122352388Y-115377250D01*
X122344820Y-115389876D01*
X122336052Y-115401699D01*
X122326166Y-115412606D01*
X122315259Y-115422492D01*
X122303436Y-115431260D01*
X122290810Y-115438828D01*
X122277503Y-115445122D01*
X122263643Y-115450081D01*
X122249364Y-115453658D01*
X122234803Y-115455818D01*
X122220100Y-115456540D01*
X121920100Y-115456540D01*
X121905397Y-115455818D01*
X121890836Y-115453658D01*
X121876557Y-115450081D01*
X121862697Y-115445122D01*
X121849390Y-115438828D01*
X121836764Y-115431260D01*
X121824941Y-115422492D01*
X121814034Y-115412606D01*
X121804148Y-115401699D01*
X121795380Y-115389876D01*
X121787812Y-115377250D01*
X121781518Y-115363943D01*
X121776559Y-115350083D01*
X121772982Y-115335804D01*
X121770822Y-115321243D01*
X121770100Y-115306540D01*
X121770100Y-114056540D01*
X121770822Y-114041837D01*
X121772982Y-114027276D01*
X121776559Y-114012997D01*
X121781518Y-113999137D01*
X121787812Y-113985830D01*
X121795380Y-113973204D01*
X121804148Y-113961381D01*
X121814034Y-113950474D01*
X121824941Y-113940588D01*
X121836764Y-113931820D01*
X121849390Y-113924252D01*
X121862697Y-113917958D01*
X121876557Y-113912999D01*
X121890836Y-113909422D01*
X121905397Y-113907262D01*
X121920100Y-113906540D01*
X122220100Y-113906540D01*
X122234803Y-113907262D01*
X122234803Y-113907262D01*
G37*
D19*
X122070100Y-114681540D03*
D18*
G36*
X120964803Y-113907262D02*
G01*
X120979364Y-113909422D01*
X120993643Y-113912999D01*
X121007503Y-113917958D01*
X121020810Y-113924252D01*
X121033436Y-113931820D01*
X121045259Y-113940588D01*
X121056166Y-113950474D01*
X121066052Y-113961381D01*
X121074820Y-113973204D01*
X121082388Y-113985830D01*
X121088682Y-113999137D01*
X121093641Y-114012997D01*
X121097218Y-114027276D01*
X121099378Y-114041837D01*
X121100100Y-114056540D01*
X121100100Y-115306540D01*
X121099378Y-115321243D01*
X121097218Y-115335804D01*
X121093641Y-115350083D01*
X121088682Y-115363943D01*
X121082388Y-115377250D01*
X121074820Y-115389876D01*
X121066052Y-115401699D01*
X121056166Y-115412606D01*
X121045259Y-115422492D01*
X121033436Y-115431260D01*
X121020810Y-115438828D01*
X121007503Y-115445122D01*
X120993643Y-115450081D01*
X120979364Y-115453658D01*
X120964803Y-115455818D01*
X120950100Y-115456540D01*
X120650100Y-115456540D01*
X120635397Y-115455818D01*
X120620836Y-115453658D01*
X120606557Y-115450081D01*
X120592697Y-115445122D01*
X120579390Y-115438828D01*
X120566764Y-115431260D01*
X120554941Y-115422492D01*
X120544034Y-115412606D01*
X120534148Y-115401699D01*
X120525380Y-115389876D01*
X120517812Y-115377250D01*
X120511518Y-115363943D01*
X120506559Y-115350083D01*
X120502982Y-115335804D01*
X120500822Y-115321243D01*
X120500100Y-115306540D01*
X120500100Y-114056540D01*
X120500822Y-114041837D01*
X120502982Y-114027276D01*
X120506559Y-114012997D01*
X120511518Y-113999137D01*
X120517812Y-113985830D01*
X120525380Y-113973204D01*
X120534148Y-113961381D01*
X120544034Y-113950474D01*
X120554941Y-113940588D01*
X120566764Y-113931820D01*
X120579390Y-113924252D01*
X120592697Y-113917958D01*
X120606557Y-113912999D01*
X120620836Y-113909422D01*
X120635397Y-113907262D01*
X120650100Y-113906540D01*
X120950100Y-113906540D01*
X120964803Y-113907262D01*
X120964803Y-113907262D01*
G37*
D19*
X120800100Y-114681540D03*
D18*
G36*
X119694803Y-113907262D02*
G01*
X119709364Y-113909422D01*
X119723643Y-113912999D01*
X119737503Y-113917958D01*
X119750810Y-113924252D01*
X119763436Y-113931820D01*
X119775259Y-113940588D01*
X119786166Y-113950474D01*
X119796052Y-113961381D01*
X119804820Y-113973204D01*
X119812388Y-113985830D01*
X119818682Y-113999137D01*
X119823641Y-114012997D01*
X119827218Y-114027276D01*
X119829378Y-114041837D01*
X119830100Y-114056540D01*
X119830100Y-115306540D01*
X119829378Y-115321243D01*
X119827218Y-115335804D01*
X119823641Y-115350083D01*
X119818682Y-115363943D01*
X119812388Y-115377250D01*
X119804820Y-115389876D01*
X119796052Y-115401699D01*
X119786166Y-115412606D01*
X119775259Y-115422492D01*
X119763436Y-115431260D01*
X119750810Y-115438828D01*
X119737503Y-115445122D01*
X119723643Y-115450081D01*
X119709364Y-115453658D01*
X119694803Y-115455818D01*
X119680100Y-115456540D01*
X119380100Y-115456540D01*
X119365397Y-115455818D01*
X119350836Y-115453658D01*
X119336557Y-115450081D01*
X119322697Y-115445122D01*
X119309390Y-115438828D01*
X119296764Y-115431260D01*
X119284941Y-115422492D01*
X119274034Y-115412606D01*
X119264148Y-115401699D01*
X119255380Y-115389876D01*
X119247812Y-115377250D01*
X119241518Y-115363943D01*
X119236559Y-115350083D01*
X119232982Y-115335804D01*
X119230822Y-115321243D01*
X119230100Y-115306540D01*
X119230100Y-114056540D01*
X119230822Y-114041837D01*
X119232982Y-114027276D01*
X119236559Y-114012997D01*
X119241518Y-113999137D01*
X119247812Y-113985830D01*
X119255380Y-113973204D01*
X119264148Y-113961381D01*
X119274034Y-113950474D01*
X119284941Y-113940588D01*
X119296764Y-113931820D01*
X119309390Y-113924252D01*
X119322697Y-113917958D01*
X119336557Y-113912999D01*
X119350836Y-113909422D01*
X119365397Y-113907262D01*
X119380100Y-113906540D01*
X119680100Y-113906540D01*
X119694803Y-113907262D01*
X119694803Y-113907262D01*
G37*
D19*
X119530100Y-114681540D03*
D18*
G36*
X97874504Y-128701204D02*
G01*
X97898773Y-128704804D01*
X97922571Y-128710765D01*
X97945671Y-128719030D01*
X97967849Y-128729520D01*
X97988893Y-128742133D01*
X98008598Y-128756747D01*
X98026777Y-128773223D01*
X98043253Y-128791402D01*
X98057867Y-128811107D01*
X98070480Y-128832151D01*
X98080970Y-128854329D01*
X98089235Y-128877429D01*
X98095196Y-128901227D01*
X98098796Y-128925496D01*
X98100000Y-128950000D01*
X98100000Y-130050000D01*
X98098796Y-130074504D01*
X98095196Y-130098773D01*
X98089235Y-130122571D01*
X98080970Y-130145671D01*
X98070480Y-130167849D01*
X98057867Y-130188893D01*
X98043253Y-130208598D01*
X98026777Y-130226777D01*
X98008598Y-130243253D01*
X97988893Y-130257867D01*
X97967849Y-130270480D01*
X97945671Y-130280970D01*
X97922571Y-130289235D01*
X97898773Y-130295196D01*
X97874504Y-130298796D01*
X97850000Y-130300000D01*
X95350000Y-130300000D01*
X95325496Y-130298796D01*
X95301227Y-130295196D01*
X95277429Y-130289235D01*
X95254329Y-130280970D01*
X95232151Y-130270480D01*
X95211107Y-130257867D01*
X95191402Y-130243253D01*
X95173223Y-130226777D01*
X95156747Y-130208598D01*
X95142133Y-130188893D01*
X95129520Y-130167849D01*
X95119030Y-130145671D01*
X95110765Y-130122571D01*
X95104804Y-130098773D01*
X95101204Y-130074504D01*
X95100000Y-130050000D01*
X95100000Y-128950000D01*
X95101204Y-128925496D01*
X95104804Y-128901227D01*
X95110765Y-128877429D01*
X95119030Y-128854329D01*
X95129520Y-128832151D01*
X95142133Y-128811107D01*
X95156747Y-128791402D01*
X95173223Y-128773223D01*
X95191402Y-128756747D01*
X95211107Y-128742133D01*
X95232151Y-128729520D01*
X95254329Y-128719030D01*
X95277429Y-128710765D01*
X95301227Y-128704804D01*
X95325496Y-128701204D01*
X95350000Y-128700000D01*
X97850000Y-128700000D01*
X97874504Y-128701204D01*
X97874504Y-128701204D01*
G37*
D20*
X96600000Y-129500000D03*
D18*
G36*
X93474504Y-128701204D02*
G01*
X93498773Y-128704804D01*
X93522571Y-128710765D01*
X93545671Y-128719030D01*
X93567849Y-128729520D01*
X93588893Y-128742133D01*
X93608598Y-128756747D01*
X93626777Y-128773223D01*
X93643253Y-128791402D01*
X93657867Y-128811107D01*
X93670480Y-128832151D01*
X93680970Y-128854329D01*
X93689235Y-128877429D01*
X93695196Y-128901227D01*
X93698796Y-128925496D01*
X93700000Y-128950000D01*
X93700000Y-130050000D01*
X93698796Y-130074504D01*
X93695196Y-130098773D01*
X93689235Y-130122571D01*
X93680970Y-130145671D01*
X93670480Y-130167849D01*
X93657867Y-130188893D01*
X93643253Y-130208598D01*
X93626777Y-130226777D01*
X93608598Y-130243253D01*
X93588893Y-130257867D01*
X93567849Y-130270480D01*
X93545671Y-130280970D01*
X93522571Y-130289235D01*
X93498773Y-130295196D01*
X93474504Y-130298796D01*
X93450000Y-130300000D01*
X90950000Y-130300000D01*
X90925496Y-130298796D01*
X90901227Y-130295196D01*
X90877429Y-130289235D01*
X90854329Y-130280970D01*
X90832151Y-130270480D01*
X90811107Y-130257867D01*
X90791402Y-130243253D01*
X90773223Y-130226777D01*
X90756747Y-130208598D01*
X90742133Y-130188893D01*
X90729520Y-130167849D01*
X90719030Y-130145671D01*
X90710765Y-130122571D01*
X90704804Y-130098773D01*
X90701204Y-130074504D01*
X90700000Y-130050000D01*
X90700000Y-128950000D01*
X90701204Y-128925496D01*
X90704804Y-128901227D01*
X90710765Y-128877429D01*
X90719030Y-128854329D01*
X90729520Y-128832151D01*
X90742133Y-128811107D01*
X90756747Y-128791402D01*
X90773223Y-128773223D01*
X90791402Y-128756747D01*
X90811107Y-128742133D01*
X90832151Y-128729520D01*
X90854329Y-128719030D01*
X90877429Y-128710765D01*
X90901227Y-128704804D01*
X90925496Y-128701204D01*
X90950000Y-128700000D01*
X93450000Y-128700000D01*
X93474504Y-128701204D01*
X93474504Y-128701204D01*
G37*
D20*
X92200000Y-129500000D03*
D21*
X121750000Y-137700000D03*
X118250000Y-137700000D03*
X114750000Y-137700000D03*
X111250000Y-137700000D03*
X107750000Y-137700000D03*
X104250000Y-137700000D03*
X100750000Y-137700000D03*
D18*
G36*
X97924504Y-135901204D02*
G01*
X97948773Y-135904804D01*
X97972571Y-135910765D01*
X97995671Y-135919030D01*
X98017849Y-135929520D01*
X98038893Y-135942133D01*
X98058598Y-135956747D01*
X98076777Y-135973223D01*
X98093253Y-135991402D01*
X98107867Y-136011107D01*
X98120480Y-136032151D01*
X98130970Y-136054329D01*
X98139235Y-136077429D01*
X98145196Y-136101227D01*
X98148796Y-136125496D01*
X98150000Y-136150000D01*
X98150000Y-139250000D01*
X98148796Y-139274504D01*
X98145196Y-139298773D01*
X98139235Y-139322571D01*
X98130970Y-139345671D01*
X98120480Y-139367849D01*
X98107867Y-139388893D01*
X98093253Y-139408598D01*
X98076777Y-139426777D01*
X98058598Y-139443253D01*
X98038893Y-139457867D01*
X98017849Y-139470480D01*
X97995671Y-139480970D01*
X97972571Y-139489235D01*
X97948773Y-139495196D01*
X97924504Y-139498796D01*
X97900000Y-139500000D01*
X96600000Y-139500000D01*
X96575496Y-139498796D01*
X96551227Y-139495196D01*
X96527429Y-139489235D01*
X96504329Y-139480970D01*
X96482151Y-139470480D01*
X96461107Y-139457867D01*
X96441402Y-139443253D01*
X96423223Y-139426777D01*
X96406747Y-139408598D01*
X96392133Y-139388893D01*
X96379520Y-139367849D01*
X96369030Y-139345671D01*
X96360765Y-139322571D01*
X96354804Y-139298773D01*
X96351204Y-139274504D01*
X96350000Y-139250000D01*
X96350000Y-136150000D01*
X96351204Y-136125496D01*
X96354804Y-136101227D01*
X96360765Y-136077429D01*
X96369030Y-136054329D01*
X96379520Y-136032151D01*
X96392133Y-136011107D01*
X96406747Y-135991402D01*
X96423223Y-135973223D01*
X96441402Y-135956747D01*
X96461107Y-135942133D01*
X96482151Y-135929520D01*
X96504329Y-135919030D01*
X96527429Y-135910765D01*
X96551227Y-135904804D01*
X96575496Y-135901204D01*
X96600000Y-135900000D01*
X97900000Y-135900000D01*
X97924504Y-135901204D01*
X97924504Y-135901204D01*
G37*
D22*
X97250000Y-137700000D03*
D23*
X95481380Y-114892540D03*
X95481380Y-120642540D03*
D24*
X101500000Y-117000000D03*
X101500000Y-113000000D03*
D18*
G36*
X122027691Y-116206193D02*
G01*
X122048926Y-116209343D01*
X122069750Y-116214559D01*
X122089962Y-116221791D01*
X122109368Y-116230970D01*
X122127781Y-116242006D01*
X122145024Y-116254794D01*
X122160930Y-116269210D01*
X122175346Y-116285116D01*
X122188134Y-116302359D01*
X122199170Y-116320772D01*
X122208349Y-116340178D01*
X122215581Y-116360390D01*
X122220797Y-116381214D01*
X122223947Y-116402449D01*
X122225000Y-116423890D01*
X122225000Y-116936390D01*
X122223947Y-116957831D01*
X122220797Y-116979066D01*
X122215581Y-116999890D01*
X122208349Y-117020102D01*
X122199170Y-117039508D01*
X122188134Y-117057921D01*
X122175346Y-117075164D01*
X122160930Y-117091070D01*
X122145024Y-117105486D01*
X122127781Y-117118274D01*
X122109368Y-117129310D01*
X122089962Y-117138489D01*
X122069750Y-117145721D01*
X122048926Y-117150937D01*
X122027691Y-117154087D01*
X122006250Y-117155140D01*
X121568750Y-117155140D01*
X121547309Y-117154087D01*
X121526074Y-117150937D01*
X121505250Y-117145721D01*
X121485038Y-117138489D01*
X121465632Y-117129310D01*
X121447219Y-117118274D01*
X121429976Y-117105486D01*
X121414070Y-117091070D01*
X121399654Y-117075164D01*
X121386866Y-117057921D01*
X121375830Y-117039508D01*
X121366651Y-117020102D01*
X121359419Y-116999890D01*
X121354203Y-116979066D01*
X121351053Y-116957831D01*
X121350000Y-116936390D01*
X121350000Y-116423890D01*
X121351053Y-116402449D01*
X121354203Y-116381214D01*
X121359419Y-116360390D01*
X121366651Y-116340178D01*
X121375830Y-116320772D01*
X121386866Y-116302359D01*
X121399654Y-116285116D01*
X121414070Y-116269210D01*
X121429976Y-116254794D01*
X121447219Y-116242006D01*
X121465632Y-116230970D01*
X121485038Y-116221791D01*
X121505250Y-116214559D01*
X121526074Y-116209343D01*
X121547309Y-116206193D01*
X121568750Y-116205140D01*
X122006250Y-116205140D01*
X122027691Y-116206193D01*
X122027691Y-116206193D01*
G37*
D25*
X121787500Y-116680140D03*
D18*
G36*
X120452691Y-116206193D02*
G01*
X120473926Y-116209343D01*
X120494750Y-116214559D01*
X120514962Y-116221791D01*
X120534368Y-116230970D01*
X120552781Y-116242006D01*
X120570024Y-116254794D01*
X120585930Y-116269210D01*
X120600346Y-116285116D01*
X120613134Y-116302359D01*
X120624170Y-116320772D01*
X120633349Y-116340178D01*
X120640581Y-116360390D01*
X120645797Y-116381214D01*
X120648947Y-116402449D01*
X120650000Y-116423890D01*
X120650000Y-116936390D01*
X120648947Y-116957831D01*
X120645797Y-116979066D01*
X120640581Y-116999890D01*
X120633349Y-117020102D01*
X120624170Y-117039508D01*
X120613134Y-117057921D01*
X120600346Y-117075164D01*
X120585930Y-117091070D01*
X120570024Y-117105486D01*
X120552781Y-117118274D01*
X120534368Y-117129310D01*
X120514962Y-117138489D01*
X120494750Y-117145721D01*
X120473926Y-117150937D01*
X120452691Y-117154087D01*
X120431250Y-117155140D01*
X119993750Y-117155140D01*
X119972309Y-117154087D01*
X119951074Y-117150937D01*
X119930250Y-117145721D01*
X119910038Y-117138489D01*
X119890632Y-117129310D01*
X119872219Y-117118274D01*
X119854976Y-117105486D01*
X119839070Y-117091070D01*
X119824654Y-117075164D01*
X119811866Y-117057921D01*
X119800830Y-117039508D01*
X119791651Y-117020102D01*
X119784419Y-116999890D01*
X119779203Y-116979066D01*
X119776053Y-116957831D01*
X119775000Y-116936390D01*
X119775000Y-116423890D01*
X119776053Y-116402449D01*
X119779203Y-116381214D01*
X119784419Y-116360390D01*
X119791651Y-116340178D01*
X119800830Y-116320772D01*
X119811866Y-116302359D01*
X119824654Y-116285116D01*
X119839070Y-116269210D01*
X119854976Y-116254794D01*
X119872219Y-116242006D01*
X119890632Y-116230970D01*
X119910038Y-116221791D01*
X119930250Y-116214559D01*
X119951074Y-116209343D01*
X119972309Y-116206193D01*
X119993750Y-116205140D01*
X120431250Y-116205140D01*
X120452691Y-116206193D01*
X120452691Y-116206193D01*
G37*
D25*
X120212500Y-116680140D03*
D19*
X119619000Y-102098000D03*
X108824000Y-104384000D03*
X114439940Y-104564340D03*
X97503220Y-103434040D03*
X92710240Y-104980900D03*
X111483380Y-102826980D03*
X113909080Y-108437840D03*
X111285260Y-111968440D03*
X127907020Y-114213800D03*
X128100000Y-117500000D03*
X106245900Y-108859480D03*
X106510060Y-106555700D03*
X105000000Y-102000000D03*
X93500000Y-109500000D03*
X123250000Y-112750000D03*
X125080000Y-115890000D03*
X122077720Y-112771080D03*
X105500000Y-105400000D03*
X107427000Y-105400000D03*
X113396000Y-113147000D03*
X119919569Y-111080431D03*
X126720000Y-106210000D03*
X117192060Y-101463000D03*
X123302000Y-103622000D03*
X117719080Y-104808180D03*
X118557280Y-104305260D03*
X122042160Y-111305500D03*
X118323600Y-105623520D03*
X119500000Y-118840000D03*
X115887740Y-104472900D03*
X119500000Y-117570000D03*
X115839480Y-106012140D03*
X109616480Y-109718000D03*
X107554000Y-107940000D03*
X91000000Y-133000000D03*
X95000000Y-138500000D03*
X95000000Y-133500000D03*
X92000000Y-124500000D03*
X96500000Y-125000000D03*
X109500000Y-139000000D03*
X120000000Y-139000000D03*
X126000000Y-136000000D03*
X125000000Y-124000000D03*
X107250000Y-123500000D03*
X117000000Y-124000000D03*
X92000000Y-129500000D03*
D26*
X108824000Y-104384000D02*
X108824000Y-104384000D01*
X121140000Y-103622000D02*
X119365000Y-103622000D01*
X119319001Y-103576001D02*
X119365000Y-103622000D01*
X119319001Y-102397999D02*
X119319001Y-103576001D01*
X119619000Y-102098000D02*
X119319001Y-102397999D01*
X118984000Y-102733000D02*
X119619000Y-102098000D01*
D27*
X121140000Y-103622000D02*
X121140000Y-104892000D01*
D26*
X114439940Y-104564340D02*
X114439940Y-102763480D01*
X114409460Y-102733000D02*
X118984000Y-102733000D01*
D28*
X101500000Y-113000000D02*
X104500000Y-113000000D01*
X105260000Y-113760000D02*
X105260000Y-115560000D01*
X104500000Y-113000000D02*
X105260000Y-113760000D01*
X109004340Y-104564340D02*
X108824000Y-104384000D01*
X114439940Y-104564340D02*
X109004340Y-104564340D01*
D29*
X95481380Y-114892540D02*
X97437740Y-112936180D01*
X97501560Y-113000000D02*
X101500000Y-113000000D01*
X97437740Y-112936180D02*
X97501560Y-113000000D01*
D27*
X123574000Y-117025000D02*
X123849000Y-117025000D01*
D28*
X128260000Y-113860820D02*
X127907020Y-114213800D01*
X128260000Y-106370000D02*
X128260000Y-113860820D01*
X126310000Y-107300000D02*
X126310000Y-106776802D01*
X126310000Y-106776802D02*
X125740000Y-106206802D01*
X125740000Y-106206802D02*
X125740000Y-105690000D01*
X125740000Y-105690000D02*
X126320000Y-105110000D01*
X126320000Y-105110000D02*
X127000000Y-105110000D01*
X127000000Y-105110000D02*
X128260000Y-106370000D01*
D27*
X122077720Y-114473920D02*
X122070100Y-114481540D01*
D30*
X105260000Y-105400000D02*
X107427000Y-105400000D01*
D28*
X107851264Y-105400000D02*
X107427000Y-105400000D01*
X108379002Y-105400000D02*
X107851264Y-105400000D01*
X113396000Y-110416998D02*
X108379002Y-105400000D01*
X113396000Y-113147000D02*
X113396000Y-110416998D01*
X113396000Y-115158680D02*
X118107700Y-119870380D01*
X113396000Y-113147000D02*
X113396000Y-115158680D01*
X120353060Y-119217600D02*
X119700280Y-119870380D01*
X120353060Y-117257580D02*
X120353060Y-119217600D01*
X120355500Y-117255140D02*
X120353060Y-117257580D01*
X120355500Y-116680140D02*
X120355500Y-117255140D01*
X118107700Y-119870380D02*
X119700280Y-119870380D01*
X122070100Y-114965540D02*
X122070100Y-114681540D01*
X120355500Y-116680140D02*
X122070100Y-114965540D01*
X122077720Y-114673920D02*
X122070100Y-114681540D01*
X122077720Y-112771080D02*
X122077720Y-114673920D01*
X119530100Y-109331540D02*
X120800100Y-109331540D01*
X119530100Y-110690962D02*
X119919569Y-111080431D01*
X119530100Y-109331540D02*
X119530100Y-110690962D01*
X101500000Y-117000000D02*
X104700000Y-117000000D01*
X105800000Y-118100000D02*
X108570000Y-118100000D01*
X104700000Y-117000000D02*
X105800000Y-118100000D01*
D29*
X96731379Y-119392541D02*
X96736459Y-119392541D01*
X95481380Y-120642540D02*
X96731379Y-119392541D01*
X99100000Y-117000000D02*
X101500000Y-117000000D01*
X96736459Y-119363541D02*
X99100000Y-117000000D01*
X96736459Y-119392541D02*
X96736459Y-119363541D01*
D31*
X127400000Y-110020000D02*
X126310000Y-111110000D01*
X126720000Y-106210000D02*
X127400000Y-106890000D01*
X127400000Y-106890000D02*
X127400000Y-110020000D01*
D26*
X123683000Y-101463000D02*
X117192060Y-101463000D01*
X125207000Y-102987000D02*
X123683000Y-101463000D01*
D27*
X125207000Y-108737000D02*
X125207000Y-104763000D01*
X126310000Y-109840000D02*
X125207000Y-108737000D01*
D26*
X125207000Y-104763000D02*
X125207000Y-102987000D01*
D27*
X124696460Y-105016460D02*
X123302000Y-103622000D01*
X124696460Y-114668460D02*
X124696460Y-105016460D01*
D26*
X124474000Y-119575000D02*
X128074000Y-119575000D01*
X123374000Y-119575000D02*
X124474000Y-119575000D01*
D31*
X124948000Y-114920000D02*
X126310000Y-114920000D01*
X124696460Y-114668460D02*
X124948000Y-114920000D01*
X127799000Y-119575000D02*
X128074000Y-119575000D01*
X126310000Y-118086000D02*
X127799000Y-119575000D01*
X126310000Y-114920000D02*
X126310000Y-118086000D01*
D27*
X118143344Y-104808180D02*
X117719080Y-104808180D01*
X118335164Y-105000000D02*
X118143344Y-104808180D01*
X119315520Y-105000000D02*
X118335164Y-105000000D01*
X122070100Y-107754580D02*
X119315520Y-105000000D01*
X122070100Y-109331540D02*
X122070100Y-107754580D01*
X123340100Y-107919125D02*
X123340100Y-109331540D01*
X118557280Y-104305260D02*
X119726235Y-104305260D01*
X119726235Y-104305260D02*
X123340100Y-107919125D01*
X122070100Y-111277560D02*
X122042160Y-111305500D01*
X120800100Y-112547560D02*
X122042160Y-111305500D01*
X120800100Y-114681540D02*
X120800100Y-112547560D01*
X119530100Y-111927800D02*
X119530100Y-114681540D01*
X116992640Y-109390340D02*
X119530100Y-111927800D01*
X118323600Y-105623520D02*
X116992640Y-106954480D01*
X116992640Y-106954480D02*
X116992640Y-109390340D01*
X115284479Y-114624479D02*
X116042440Y-115382440D01*
X119500000Y-118840000D02*
X116042440Y-115382440D01*
X116042440Y-115382440D02*
X115661680Y-115001680D01*
X115397182Y-104472900D02*
X115118120Y-104751962D01*
X115887740Y-104472900D02*
X115397182Y-104472900D01*
X115118120Y-114458120D02*
X115284479Y-114624479D01*
X115118120Y-104751962D02*
X115118120Y-114458120D01*
X115839480Y-113909480D02*
X119500000Y-117570000D01*
X115839480Y-106012140D02*
X115839480Y-113909480D01*
D26*
X108854480Y-110480000D02*
X105260000Y-110480000D01*
X109616480Y-109718000D02*
X108854480Y-110480000D01*
D28*
X97250000Y-136700000D02*
X94200000Y-136700000D01*
X92200000Y-130400000D02*
X92199700Y-130400300D01*
X92200000Y-129500000D02*
X92200000Y-130400000D01*
X92199700Y-134699700D02*
X94200000Y-136700000D01*
X92199700Y-130400300D02*
X92199700Y-134699700D01*
D32*
X114750000Y-133900000D02*
X114750000Y-137700000D01*
X114750000Y-131433793D02*
X114750000Y-133900000D01*
X116393793Y-129790000D02*
X114750000Y-131433793D01*
X117000000Y-129790000D02*
X116393793Y-129790000D01*
X109939990Y-136389990D02*
X111250000Y-137700000D01*
X109939990Y-131243803D02*
X109939990Y-136389990D01*
X111122553Y-130061240D02*
X109939990Y-131243803D01*
X111938760Y-130061240D02*
X111122553Y-130061240D01*
X112000000Y-130000000D02*
X111938760Y-130061240D01*
X112000000Y-129790000D02*
X112000000Y-130000000D01*
X107750000Y-136800000D02*
X107750000Y-137700000D01*
X104850000Y-133900000D02*
X107750000Y-136800000D01*
X104850000Y-131333793D02*
X104850000Y-133900000D01*
X106393793Y-129790000D02*
X104850000Y-131333793D01*
X107000000Y-129790000D02*
X106393793Y-129790000D01*
X104250000Y-137146207D02*
X104250000Y-137700000D01*
X99939990Y-132836197D02*
X104250000Y-137146207D01*
X99939990Y-131163803D02*
X99939990Y-132836197D01*
X101393793Y-129710000D02*
X99939990Y-131163803D01*
X102000000Y-129710000D02*
X101393793Y-129710000D01*
X122300000Y-137700000D02*
X121750000Y-137700000D01*
X124539999Y-135460001D02*
X122300000Y-137700000D01*
X124539999Y-131643794D02*
X124539999Y-135460001D01*
X127000000Y-129790000D02*
X126393793Y-129790000D01*
X126393793Y-129790000D02*
X124539999Y-131643794D01*
X118250000Y-133900000D02*
X118250000Y-137700000D01*
X119060010Y-133089990D02*
X118250000Y-133900000D01*
X119060010Y-132123783D02*
X119060010Y-133089990D01*
X121122553Y-130061240D02*
X119060010Y-132123783D01*
X121938760Y-130061240D02*
X121122553Y-130061240D01*
X122000000Y-130000000D02*
X121938760Y-130061240D01*
X122000000Y-129790000D02*
X122000000Y-130000000D01*
D33*
G36*
X116565060Y-101401246D02*
G01*
X116565060Y-101524754D01*
X116589155Y-101645889D01*
X116636420Y-101759996D01*
X116705037Y-101862689D01*
X116792371Y-101950023D01*
X116895064Y-102018640D01*
X117009171Y-102065905D01*
X117130306Y-102090000D01*
X117253814Y-102090000D01*
X117374949Y-102065905D01*
X117489056Y-102018640D01*
X117591749Y-101950023D01*
X117601772Y-101940000D01*
X123485421Y-101940000D01*
X124730001Y-103184581D01*
X124730000Y-104410776D01*
X123929000Y-103609777D01*
X123929000Y-103560246D01*
X123904905Y-103439111D01*
X123857640Y-103325004D01*
X123789023Y-103222311D01*
X123701689Y-103134977D01*
X123598996Y-103066360D01*
X123484889Y-103019095D01*
X123363754Y-102995000D01*
X123240246Y-102995000D01*
X123119111Y-103019095D01*
X123005004Y-103066360D01*
X122902311Y-103134977D01*
X122814977Y-103222311D01*
X122746360Y-103325004D01*
X122699095Y-103439111D01*
X122675000Y-103560246D01*
X122675000Y-103683754D01*
X122699095Y-103804889D01*
X122746360Y-103918996D01*
X122814977Y-104021689D01*
X122902311Y-104109023D01*
X123005004Y-104177640D01*
X123119111Y-104224905D01*
X123240246Y-104249000D01*
X123289777Y-104249000D01*
X124244461Y-105203686D01*
X124244460Y-113711341D01*
X124229602Y-113662360D01*
X124170637Y-113552046D01*
X124091285Y-113455355D01*
X123994594Y-113376003D01*
X123884280Y-113317038D01*
X123764582Y-113280728D01*
X123640100Y-113268468D01*
X123625850Y-113271540D01*
X123467100Y-113430290D01*
X123467100Y-114554540D01*
X123487100Y-114554540D01*
X123487100Y-114808540D01*
X123467100Y-114808540D01*
X123467100Y-115932790D01*
X123625850Y-116091540D01*
X123640100Y-116094612D01*
X123764582Y-116082352D01*
X123884280Y-116046042D01*
X123994594Y-115987077D01*
X124091285Y-115907725D01*
X124170637Y-115811034D01*
X124229602Y-115700720D01*
X124265912Y-115581022D01*
X124278172Y-115456540D01*
X124275100Y-114967290D01*
X124116352Y-114808542D01*
X124266615Y-114808542D01*
X124276846Y-114842269D01*
X124318817Y-114920792D01*
X124375301Y-114989619D01*
X124444127Y-115046103D01*
X124500213Y-115076081D01*
X124631236Y-115207105D01*
X124644605Y-115223395D01*
X124660895Y-115236764D01*
X124660899Y-115236768D01*
X124709623Y-115276755D01*
X124741573Y-115293832D01*
X124783804Y-115316405D01*
X124864293Y-115340822D01*
X124927022Y-115347000D01*
X124927034Y-115347000D01*
X124947999Y-115349065D01*
X124968964Y-115347000D01*
X125600512Y-115347000D01*
X125619048Y-115381679D01*
X125722394Y-115507606D01*
X125848321Y-115610952D01*
X125883000Y-115629489D01*
X125883001Y-118065023D01*
X125880935Y-118086000D01*
X125883001Y-118106977D01*
X125883001Y-118106978D01*
X125889179Y-118169707D01*
X125899373Y-118203310D01*
X125913596Y-118250196D01*
X125953245Y-118324376D01*
X125993232Y-118373100D01*
X125993237Y-118373105D01*
X126006606Y-118389395D01*
X126022895Y-118402764D01*
X126718132Y-119098000D01*
X124502582Y-119098000D01*
X124502582Y-119050000D01*
X124496268Y-118985897D01*
X124477570Y-118924257D01*
X124447206Y-118867450D01*
X124406343Y-118817657D01*
X124356550Y-118776794D01*
X124299743Y-118746430D01*
X124238103Y-118727732D01*
X124174000Y-118721418D01*
X122574000Y-118721418D01*
X122509897Y-118727732D01*
X122448257Y-118746430D01*
X122391450Y-118776794D01*
X122341657Y-118817657D01*
X122300794Y-118867450D01*
X122270430Y-118924257D01*
X122251732Y-118985897D01*
X122245418Y-119050000D01*
X122245418Y-120100000D01*
X122251732Y-120164103D01*
X122270430Y-120225743D01*
X122300794Y-120282550D01*
X122341657Y-120332343D01*
X122391199Y-120373000D01*
X119858820Y-120373000D01*
X119902930Y-120359619D01*
X119994482Y-120310684D01*
X120074728Y-120244828D01*
X120091235Y-120224714D01*
X120707399Y-119608551D01*
X120727508Y-119592048D01*
X120793364Y-119511802D01*
X120842299Y-119420250D01*
X120872434Y-119320910D01*
X120880060Y-119243481D01*
X120880060Y-119243479D01*
X120882609Y-119217601D01*
X120880060Y-119191723D01*
X120880060Y-117583472D01*
X120898815Y-117606325D01*
X120995506Y-117685677D01*
X121105820Y-117744642D01*
X121225518Y-117780952D01*
X121350000Y-117793212D01*
X121501750Y-117790140D01*
X121660500Y-117631390D01*
X121660500Y-116807140D01*
X121640500Y-116807140D01*
X121640500Y-116553140D01*
X121660500Y-116553140D01*
X121660500Y-116533140D01*
X121914500Y-116533140D01*
X121914500Y-116553140D01*
X121934500Y-116553140D01*
X121934500Y-116807140D01*
X121914500Y-116807140D01*
X121914500Y-117631390D01*
X121966430Y-117683320D01*
X121939000Y-117710750D01*
X121935928Y-117950000D01*
X121948188Y-118074482D01*
X121984498Y-118194180D01*
X122043463Y-118304494D01*
X122122815Y-118401185D01*
X122219506Y-118480537D01*
X122329820Y-118539502D01*
X122449518Y-118575812D01*
X122574000Y-118588072D01*
X123088250Y-118585000D01*
X123247000Y-118426250D01*
X123247000Y-117552000D01*
X123501000Y-117552000D01*
X123501000Y-118426250D01*
X123659750Y-118585000D01*
X124174000Y-118588072D01*
X124298482Y-118575812D01*
X124418180Y-118539502D01*
X124528494Y-118480537D01*
X124625185Y-118401185D01*
X124704537Y-118304494D01*
X124763502Y-118194180D01*
X124799812Y-118074482D01*
X124812072Y-117950000D01*
X124809000Y-117710750D01*
X124650250Y-117552000D01*
X123501000Y-117552000D01*
X123247000Y-117552000D01*
X123227000Y-117552000D01*
X123227000Y-117298000D01*
X123247000Y-117298000D01*
X123247000Y-116423750D01*
X123501000Y-116423750D01*
X123501000Y-117298000D01*
X124650250Y-117298000D01*
X124809000Y-117139250D01*
X124812072Y-116900000D01*
X124799812Y-116775518D01*
X124763502Y-116655820D01*
X124704537Y-116545506D01*
X124625185Y-116448815D01*
X124528494Y-116369463D01*
X124418180Y-116310498D01*
X124298482Y-116274188D01*
X124174000Y-116261928D01*
X123659750Y-116265000D01*
X123501000Y-116423750D01*
X123247000Y-116423750D01*
X123088250Y-116265000D01*
X122862122Y-116263649D01*
X122863072Y-116205140D01*
X122850812Y-116080658D01*
X122844810Y-116060873D01*
X122915618Y-116082352D01*
X123040100Y-116094612D01*
X123054350Y-116091540D01*
X123213100Y-115932790D01*
X123213100Y-114808540D01*
X123193100Y-114808540D01*
X123193100Y-114554540D01*
X123213100Y-114554540D01*
X123213100Y-113430290D01*
X123054350Y-113271540D01*
X123040100Y-113268468D01*
X122915618Y-113280728D01*
X122795920Y-113317038D01*
X122685606Y-113376003D01*
X122604720Y-113442384D01*
X122604720Y-113110939D01*
X122633360Y-113068076D01*
X122680625Y-112953969D01*
X122704720Y-112832834D01*
X122704720Y-112709326D01*
X122680625Y-112588191D01*
X122633360Y-112474084D01*
X122564743Y-112371391D01*
X122477409Y-112284057D01*
X122374716Y-112215440D01*
X122260609Y-112168175D01*
X122139474Y-112144080D01*
X122015966Y-112144080D01*
X121894831Y-112168175D01*
X121780724Y-112215440D01*
X121752757Y-112234127D01*
X122054384Y-111932500D01*
X122103914Y-111932500D01*
X122225049Y-111908405D01*
X122339156Y-111861140D01*
X122441849Y-111792523D01*
X122529183Y-111705189D01*
X122597800Y-111602496D01*
X122645065Y-111488389D01*
X122669160Y-111367254D01*
X122669160Y-111243746D01*
X122645065Y-111122611D01*
X122597800Y-111008504D01*
X122529183Y-110905811D01*
X122441849Y-110818477D01*
X122339156Y-110749860D01*
X122225049Y-110702595D01*
X122103914Y-110678500D01*
X121980406Y-110678500D01*
X121859271Y-110702595D01*
X121745164Y-110749860D01*
X121642471Y-110818477D01*
X121555137Y-110905811D01*
X121486520Y-111008504D01*
X121439255Y-111122611D01*
X121415160Y-111243746D01*
X121415160Y-111293276D01*
X120496196Y-112212241D01*
X120478942Y-112226401D01*
X120433444Y-112281841D01*
X120422458Y-112295227D01*
X120380486Y-112373751D01*
X120354640Y-112458953D01*
X120345913Y-112547560D01*
X120348101Y-112569775D01*
X120348100Y-113688251D01*
X120311691Y-113718131D01*
X120252174Y-113790654D01*
X120207948Y-113873395D01*
X120180714Y-113963173D01*
X120171518Y-114056540D01*
X120171518Y-115306540D01*
X120180714Y-115399907D01*
X120207948Y-115489685D01*
X120252174Y-115572426D01*
X120311691Y-115644949D01*
X120384214Y-115704466D01*
X120466955Y-115748692D01*
X120524272Y-115766079D01*
X120413792Y-115876558D01*
X119993750Y-115876558D01*
X119886971Y-115887075D01*
X119784295Y-115918221D01*
X119689669Y-115968800D01*
X119606728Y-116036868D01*
X119538660Y-116119809D01*
X119488081Y-116214435D01*
X119456935Y-116317111D01*
X119446418Y-116423890D01*
X119446418Y-116877194D01*
X116291480Y-113722257D01*
X116291480Y-106954480D01*
X116538453Y-106954480D01*
X116540640Y-106976685D01*
X116540641Y-109368125D01*
X116538453Y-109390340D01*
X116547180Y-109478947D01*
X116573026Y-109564149D01*
X116591750Y-109599179D01*
X116614998Y-109642673D01*
X116671482Y-109711499D01*
X116688736Y-109725659D01*
X119078100Y-112115025D01*
X119078101Y-113688251D01*
X119041691Y-113718131D01*
X118982174Y-113790654D01*
X118937948Y-113873395D01*
X118910714Y-113963173D01*
X118901518Y-114056540D01*
X118901518Y-115306540D01*
X118910714Y-115399907D01*
X118937948Y-115489685D01*
X118982174Y-115572426D01*
X119041691Y-115644949D01*
X119114214Y-115704466D01*
X119196955Y-115748692D01*
X119286733Y-115775926D01*
X119380100Y-115785122D01*
X119680100Y-115785122D01*
X119773467Y-115775926D01*
X119863245Y-115748692D01*
X119945986Y-115704466D01*
X120018509Y-115644949D01*
X120078026Y-115572426D01*
X120122252Y-115489685D01*
X120149486Y-115399907D01*
X120158682Y-115306540D01*
X120158682Y-114056540D01*
X120149486Y-113963173D01*
X120122252Y-113873395D01*
X120078026Y-113790654D01*
X120018509Y-113718131D01*
X119982100Y-113688251D01*
X119982100Y-111950004D01*
X119984287Y-111927799D01*
X119975560Y-111839192D01*
X119969544Y-111819362D01*
X119949714Y-111753990D01*
X119924828Y-111707431D01*
X119981323Y-111707431D01*
X120102458Y-111683336D01*
X120216565Y-111636071D01*
X120319258Y-111567454D01*
X120406592Y-111480120D01*
X120475209Y-111377427D01*
X120522474Y-111263320D01*
X120546569Y-111142185D01*
X120546569Y-111018677D01*
X120522474Y-110897542D01*
X120475209Y-110783435D01*
X120406592Y-110680742D01*
X120319258Y-110593408D01*
X120216565Y-110524791D01*
X120102458Y-110477526D01*
X120057100Y-110468504D01*
X120057100Y-110247925D01*
X120078026Y-110222426D01*
X120122252Y-110139685D01*
X120149486Y-110049907D01*
X120158682Y-109956540D01*
X120158682Y-109858540D01*
X120171518Y-109858540D01*
X120171518Y-109956540D01*
X120180714Y-110049907D01*
X120207948Y-110139685D01*
X120252174Y-110222426D01*
X120311691Y-110294949D01*
X120384214Y-110354466D01*
X120466955Y-110398692D01*
X120556733Y-110425926D01*
X120650100Y-110435122D01*
X120950100Y-110435122D01*
X121043467Y-110425926D01*
X121133245Y-110398692D01*
X121215986Y-110354466D01*
X121288509Y-110294949D01*
X121348026Y-110222426D01*
X121392252Y-110139685D01*
X121419486Y-110049907D01*
X121428682Y-109956540D01*
X121428682Y-108706540D01*
X121419486Y-108613173D01*
X121392252Y-108523395D01*
X121348026Y-108440654D01*
X121288509Y-108368131D01*
X121215986Y-108308614D01*
X121133245Y-108264388D01*
X121043467Y-108237154D01*
X120950100Y-108227958D01*
X120650100Y-108227958D01*
X120556733Y-108237154D01*
X120466955Y-108264388D01*
X120384214Y-108308614D01*
X120311691Y-108368131D01*
X120252174Y-108440654D01*
X120207948Y-108523395D01*
X120180714Y-108613173D01*
X120171518Y-108706540D01*
X120171518Y-108804540D01*
X120158682Y-108804540D01*
X120158682Y-108706540D01*
X120149486Y-108613173D01*
X120122252Y-108523395D01*
X120078026Y-108440654D01*
X120018509Y-108368131D01*
X119945986Y-108308614D01*
X119863245Y-108264388D01*
X119773467Y-108237154D01*
X119680100Y-108227958D01*
X119380100Y-108227958D01*
X119286733Y-108237154D01*
X119196955Y-108264388D01*
X119114214Y-108308614D01*
X119041691Y-108368131D01*
X118982174Y-108440654D01*
X118937948Y-108523395D01*
X118910714Y-108613173D01*
X118901518Y-108706540D01*
X118901518Y-109956540D01*
X118910714Y-110049907D01*
X118937948Y-110139685D01*
X118982174Y-110222426D01*
X119003101Y-110247926D01*
X119003101Y-110665072D01*
X119000551Y-110690962D01*
X119007987Y-110766463D01*
X117444640Y-109203117D01*
X117444640Y-107141703D01*
X118335824Y-106250520D01*
X118385354Y-106250520D01*
X118506489Y-106226425D01*
X118620596Y-106179160D01*
X118723289Y-106110543D01*
X118810623Y-106023209D01*
X118879240Y-105920516D01*
X118926505Y-105806409D01*
X118950600Y-105685274D01*
X118950600Y-105561766D01*
X118928766Y-105452000D01*
X119128297Y-105452000D01*
X121618101Y-107941806D01*
X121618101Y-108338251D01*
X121581691Y-108368131D01*
X121522174Y-108440654D01*
X121477948Y-108523395D01*
X121450714Y-108613173D01*
X121441518Y-108706540D01*
X121441518Y-109956540D01*
X121450714Y-110049907D01*
X121477948Y-110139685D01*
X121522174Y-110222426D01*
X121581691Y-110294949D01*
X121654214Y-110354466D01*
X121736955Y-110398692D01*
X121826733Y-110425926D01*
X121920100Y-110435122D01*
X122220100Y-110435122D01*
X122313467Y-110425926D01*
X122403245Y-110398692D01*
X122485986Y-110354466D01*
X122558509Y-110294949D01*
X122618026Y-110222426D01*
X122662252Y-110139685D01*
X122689486Y-110049907D01*
X122698682Y-109956540D01*
X122698682Y-108706540D01*
X122689486Y-108613173D01*
X122662252Y-108523395D01*
X122618026Y-108440654D01*
X122558509Y-108368131D01*
X122522100Y-108338251D01*
X122522100Y-107776784D01*
X122524287Y-107754579D01*
X122522971Y-107741220D01*
X122888100Y-108106349D01*
X122888100Y-108338251D01*
X122851691Y-108368131D01*
X122792174Y-108440654D01*
X122747948Y-108523395D01*
X122720714Y-108613173D01*
X122711518Y-108706540D01*
X122711518Y-109956540D01*
X122720714Y-110049907D01*
X122747948Y-110139685D01*
X122792174Y-110222426D01*
X122851691Y-110294949D01*
X122924214Y-110354466D01*
X123006955Y-110398692D01*
X123096733Y-110425926D01*
X123190100Y-110435122D01*
X123490100Y-110435122D01*
X123583467Y-110425926D01*
X123673245Y-110398692D01*
X123755986Y-110354466D01*
X123828509Y-110294949D01*
X123888026Y-110222426D01*
X123932252Y-110139685D01*
X123959486Y-110049907D01*
X123968682Y-109956540D01*
X123968682Y-108706540D01*
X123959486Y-108613173D01*
X123932252Y-108523395D01*
X123888026Y-108440654D01*
X123828509Y-108368131D01*
X123792100Y-108338251D01*
X123792100Y-107941330D01*
X123794287Y-107919125D01*
X123785560Y-107830517D01*
X123759714Y-107745315D01*
X123728302Y-107686547D01*
X123717743Y-107666792D01*
X123661259Y-107597966D01*
X123644006Y-107583807D01*
X120061558Y-104001360D01*
X120047394Y-103984101D01*
X119978568Y-103927617D01*
X119900045Y-103885646D01*
X119814842Y-103859800D01*
X119748440Y-103853260D01*
X119726235Y-103851073D01*
X119704030Y-103853260D01*
X118991992Y-103853260D01*
X118956969Y-103818237D01*
X118854276Y-103749620D01*
X118740169Y-103702355D01*
X118619034Y-103678260D01*
X118495526Y-103678260D01*
X118374391Y-103702355D01*
X118260284Y-103749620D01*
X118157591Y-103818237D01*
X118070257Y-103905571D01*
X118001640Y-104008264D01*
X117954375Y-104122371D01*
X117935151Y-104219019D01*
X117901969Y-104205275D01*
X117780834Y-104181180D01*
X117657326Y-104181180D01*
X117536191Y-104205275D01*
X117422084Y-104252540D01*
X117319391Y-104321157D01*
X117232057Y-104408491D01*
X117163440Y-104511184D01*
X117116175Y-104625291D01*
X117092080Y-104746426D01*
X117092080Y-104869934D01*
X117116175Y-104991069D01*
X117163440Y-105105176D01*
X117232057Y-105207869D01*
X117319391Y-105295203D01*
X117422084Y-105363820D01*
X117536191Y-105411085D01*
X117657326Y-105435180D01*
X117722953Y-105435180D01*
X117720695Y-105440631D01*
X117696600Y-105561766D01*
X117696600Y-105611296D01*
X116688740Y-106619157D01*
X116671481Y-106633321D01*
X116614997Y-106702148D01*
X116581060Y-106765640D01*
X116573026Y-106780671D01*
X116547180Y-106865873D01*
X116538453Y-106954480D01*
X116291480Y-106954480D01*
X116291480Y-106446852D01*
X116326503Y-106411829D01*
X116395120Y-106309136D01*
X116442385Y-106195029D01*
X116466480Y-106073894D01*
X116466480Y-105950386D01*
X116442385Y-105829251D01*
X116395120Y-105715144D01*
X116326503Y-105612451D01*
X116239169Y-105525117D01*
X116136476Y-105456500D01*
X116022369Y-105409235D01*
X115901234Y-105385140D01*
X115777726Y-105385140D01*
X115656591Y-105409235D01*
X115570120Y-105445053D01*
X115570120Y-105014760D01*
X115590744Y-105028540D01*
X115704851Y-105075805D01*
X115825986Y-105099900D01*
X115949494Y-105099900D01*
X116070629Y-105075805D01*
X116184736Y-105028540D01*
X116287429Y-104959923D01*
X116374763Y-104872589D01*
X116443380Y-104769896D01*
X116490645Y-104655789D01*
X116514740Y-104534654D01*
X116514740Y-104411146D01*
X116490645Y-104290011D01*
X116443380Y-104175904D01*
X116374763Y-104073211D01*
X116287429Y-103985877D01*
X116184736Y-103917260D01*
X116070629Y-103869995D01*
X115949494Y-103845900D01*
X115825986Y-103845900D01*
X115704851Y-103869995D01*
X115590744Y-103917260D01*
X115488051Y-103985877D01*
X115453028Y-104020900D01*
X115419386Y-104020900D01*
X115397181Y-104018713D01*
X115308574Y-104027440D01*
X115288744Y-104033456D01*
X115223372Y-104053286D01*
X115144849Y-104095257D01*
X115076023Y-104151741D01*
X115061863Y-104168995D01*
X114814220Y-104416639D01*
X114796961Y-104430803D01*
X114740477Y-104499630D01*
X114707403Y-104561507D01*
X114698506Y-104578153D01*
X114672660Y-104663355D01*
X114663933Y-104751962D01*
X114666120Y-104774167D01*
X114666121Y-114435905D01*
X114663933Y-114458120D01*
X114672660Y-114546727D01*
X114698506Y-114631929D01*
X114737834Y-114705506D01*
X114740478Y-114710453D01*
X114796962Y-114779279D01*
X114814215Y-114793438D01*
X114980568Y-114959792D01*
X114980573Y-114959796D01*
X115533800Y-115513024D01*
X115738529Y-115717753D01*
X115738534Y-115717757D01*
X118873000Y-118852225D01*
X118873000Y-118901754D01*
X118897095Y-119022889D01*
X118944360Y-119136996D01*
X119012977Y-119239689D01*
X119100311Y-119327023D01*
X119124791Y-119343380D01*
X118325990Y-119343380D01*
X113923000Y-114940391D01*
X113923000Y-113486859D01*
X113951640Y-113443996D01*
X113998905Y-113329889D01*
X114023000Y-113208754D01*
X114023000Y-113085246D01*
X113998905Y-112964111D01*
X113951640Y-112850004D01*
X113923000Y-112807141D01*
X113923000Y-110442879D01*
X113925549Y-110416998D01*
X113915374Y-110313688D01*
X113903225Y-110273640D01*
X113885239Y-110214348D01*
X113836304Y-110122796D01*
X113770448Y-110042550D01*
X113750345Y-110026052D01*
X108769957Y-105045666D01*
X108753450Y-105025552D01*
X108673204Y-104959696D01*
X108581652Y-104910761D01*
X108482312Y-104880626D01*
X108404883Y-104873000D01*
X108379002Y-104870451D01*
X108353121Y-104873000D01*
X107766859Y-104873000D01*
X107723996Y-104844360D01*
X107609889Y-104797095D01*
X107488754Y-104773000D01*
X107365246Y-104773000D01*
X107244111Y-104797095D01*
X107181571Y-104823000D01*
X106833356Y-104823000D01*
X106818570Y-104774257D01*
X106788206Y-104717450D01*
X106747343Y-104667657D01*
X106697550Y-104626794D01*
X106640743Y-104596430D01*
X106579103Y-104577732D01*
X106515000Y-104571418D01*
X104005000Y-104571418D01*
X103940897Y-104577732D01*
X103879257Y-104596430D01*
X103822450Y-104626794D01*
X103772657Y-104667657D01*
X103731794Y-104717450D01*
X103701430Y-104774257D01*
X103682732Y-104835897D01*
X103676418Y-104900000D01*
X103676418Y-105900000D01*
X103682732Y-105964103D01*
X103701430Y-106025743D01*
X103731794Y-106082550D01*
X103772657Y-106132343D01*
X103822450Y-106173206D01*
X103879257Y-106203570D01*
X103940897Y-106222268D01*
X104005000Y-106228582D01*
X106515000Y-106228582D01*
X106579103Y-106222268D01*
X106640743Y-106203570D01*
X106697550Y-106173206D01*
X106747343Y-106132343D01*
X106788206Y-106082550D01*
X106818570Y-106025743D01*
X106833356Y-105977000D01*
X107181571Y-105977000D01*
X107244111Y-106002905D01*
X107365246Y-106027000D01*
X107488754Y-106027000D01*
X107609889Y-106002905D01*
X107723996Y-105955640D01*
X107766859Y-105927000D01*
X108160713Y-105927000D01*
X109345130Y-107111418D01*
X107315000Y-107111418D01*
X107250897Y-107117732D01*
X107189257Y-107136430D01*
X107132450Y-107166794D01*
X107082657Y-107207657D01*
X107041794Y-107257450D01*
X107011430Y-107314257D01*
X106992732Y-107375897D01*
X106986418Y-107440000D01*
X106986418Y-107671834D01*
X106951095Y-107757111D01*
X106927000Y-107878246D01*
X106927000Y-108001754D01*
X106951095Y-108122889D01*
X106986418Y-108208166D01*
X106986418Y-108440000D01*
X106992732Y-108504103D01*
X107011430Y-108565743D01*
X107041794Y-108622550D01*
X107082657Y-108672343D01*
X107132450Y-108713206D01*
X107189257Y-108743570D01*
X107250897Y-108762268D01*
X107315000Y-108768582D01*
X109825000Y-108768582D01*
X109889103Y-108762268D01*
X109950743Y-108743570D01*
X110007550Y-108713206D01*
X110057343Y-108672343D01*
X110098206Y-108622550D01*
X110128570Y-108565743D01*
X110147268Y-108504103D01*
X110153582Y-108440000D01*
X110153582Y-107919870D01*
X112869001Y-110635290D01*
X112869000Y-112807141D01*
X112840360Y-112850004D01*
X112793095Y-112964111D01*
X112769000Y-113085246D01*
X112769000Y-113208754D01*
X112793095Y-113329889D01*
X112840360Y-113443996D01*
X112869000Y-113486859D01*
X112869001Y-115132790D01*
X112866451Y-115158680D01*
X112876626Y-115261989D01*
X112906761Y-115361329D01*
X112938879Y-115421418D01*
X112955697Y-115452882D01*
X113021553Y-115533128D01*
X113041662Y-115549631D01*
X117716749Y-120224719D01*
X117733252Y-120244828D01*
X117779217Y-120282550D01*
X117813498Y-120310684D01*
X117905050Y-120359619D01*
X117949160Y-120373000D01*
X103127000Y-120373000D01*
X103127000Y-117527000D01*
X104481711Y-117527000D01*
X105409049Y-118454339D01*
X105425552Y-118474448D01*
X105505798Y-118540304D01*
X105597350Y-118589239D01*
X105632824Y-118600000D01*
X105696690Y-118619374D01*
X105800000Y-118629549D01*
X105825881Y-118627000D01*
X106989077Y-118627000D01*
X106992732Y-118664103D01*
X107011430Y-118725743D01*
X107041794Y-118782550D01*
X107082657Y-118832343D01*
X107132450Y-118873206D01*
X107189257Y-118903570D01*
X107250897Y-118922268D01*
X107315000Y-118928582D01*
X109825000Y-118928582D01*
X109889103Y-118922268D01*
X109950743Y-118903570D01*
X110007550Y-118873206D01*
X110057343Y-118832343D01*
X110098206Y-118782550D01*
X110128570Y-118725743D01*
X110147268Y-118664103D01*
X110153582Y-118600000D01*
X110153582Y-117600000D01*
X110147268Y-117535897D01*
X110128570Y-117474257D01*
X110098206Y-117417450D01*
X110057343Y-117367657D01*
X110007550Y-117326794D01*
X109950743Y-117296430D01*
X109889103Y-117277732D01*
X109825000Y-117271418D01*
X107315000Y-117271418D01*
X107250897Y-117277732D01*
X107189257Y-117296430D01*
X107132450Y-117326794D01*
X107082657Y-117367657D01*
X107041794Y-117417450D01*
X107011430Y-117474257D01*
X106992732Y-117535897D01*
X106989077Y-117573000D01*
X106018290Y-117573000D01*
X105090955Y-116645666D01*
X105074448Y-116625552D01*
X105057559Y-116611691D01*
X105133000Y-116536250D01*
X105133000Y-115687000D01*
X105387000Y-115687000D01*
X105387000Y-116536250D01*
X105545750Y-116695000D01*
X106515000Y-116698072D01*
X106639482Y-116685812D01*
X106759180Y-116649502D01*
X106869494Y-116590537D01*
X106966185Y-116511185D01*
X107045537Y-116414494D01*
X107104502Y-116304180D01*
X107140812Y-116184482D01*
X107153072Y-116060000D01*
X107150000Y-115845750D01*
X106991250Y-115687000D01*
X105387000Y-115687000D01*
X105133000Y-115687000D01*
X103528750Y-115687000D01*
X103370000Y-115845750D01*
X103366928Y-116060000D01*
X103379188Y-116184482D01*
X103415498Y-116304180D01*
X103474463Y-116414494D01*
X103522477Y-116473000D01*
X103127000Y-116473000D01*
X103127000Y-115060000D01*
X103366928Y-115060000D01*
X103370000Y-115274250D01*
X103528750Y-115433000D01*
X105133000Y-115433000D01*
X105133000Y-114583750D01*
X105387000Y-114583750D01*
X105387000Y-115433000D01*
X106991250Y-115433000D01*
X107150000Y-115274250D01*
X107153072Y-115060000D01*
X107140812Y-114935518D01*
X107104502Y-114815820D01*
X107045537Y-114705506D01*
X106966185Y-114608815D01*
X106869494Y-114529463D01*
X106759180Y-114470498D01*
X106639482Y-114434188D01*
X106515000Y-114421928D01*
X105545750Y-114425000D01*
X105387000Y-114583750D01*
X105133000Y-114583750D01*
X104974250Y-114425000D01*
X104005000Y-114421928D01*
X103880518Y-114434188D01*
X103760820Y-114470498D01*
X103650506Y-114529463D01*
X103553815Y-114608815D01*
X103474463Y-114705506D01*
X103415498Y-114815820D01*
X103379188Y-114935518D01*
X103366928Y-115060000D01*
X103127000Y-115060000D01*
X103127000Y-112560000D01*
X106986418Y-112560000D01*
X106986418Y-113560000D01*
X106992732Y-113624103D01*
X107011430Y-113685743D01*
X107041794Y-113742550D01*
X107082657Y-113792343D01*
X107132450Y-113833206D01*
X107189257Y-113863570D01*
X107250897Y-113882268D01*
X107315000Y-113888582D01*
X109825000Y-113888582D01*
X109889103Y-113882268D01*
X109950743Y-113863570D01*
X110007550Y-113833206D01*
X110057343Y-113792343D01*
X110098206Y-113742550D01*
X110128570Y-113685743D01*
X110147268Y-113624103D01*
X110153582Y-113560000D01*
X110153582Y-112560000D01*
X110147268Y-112495897D01*
X110128570Y-112434257D01*
X110098206Y-112377450D01*
X110057343Y-112327657D01*
X110007550Y-112286794D01*
X109950743Y-112256430D01*
X109889103Y-112237732D01*
X109825000Y-112231418D01*
X107315000Y-112231418D01*
X107250897Y-112237732D01*
X107189257Y-112256430D01*
X107132450Y-112286794D01*
X107082657Y-112327657D01*
X107041794Y-112377450D01*
X107011430Y-112434257D01*
X106992732Y-112495897D01*
X106986418Y-112560000D01*
X103127000Y-112560000D01*
X103127000Y-111500000D01*
X103124560Y-111475224D01*
X103117333Y-111451399D01*
X103105597Y-111429443D01*
X103089803Y-111410197D01*
X103070557Y-111394403D01*
X103048601Y-111382667D01*
X103024776Y-111375440D01*
X103000000Y-111373000D01*
X102912067Y-111373000D01*
X102851185Y-111298815D01*
X102754494Y-111219463D01*
X102644180Y-111160498D01*
X102524482Y-111124188D01*
X102400000Y-111111928D01*
X101785750Y-111115000D01*
X101627000Y-111273750D01*
X101627000Y-111373000D01*
X101373000Y-111373000D01*
X101373000Y-111273750D01*
X101214250Y-111115000D01*
X100600000Y-111111928D01*
X100475518Y-111124188D01*
X100355820Y-111160498D01*
X100245506Y-111219463D01*
X100148815Y-111298815D01*
X100087933Y-111373000D01*
X90352000Y-111373000D01*
X90352000Y-109433925D01*
X94883000Y-109433925D01*
X94883000Y-109646075D01*
X94924389Y-109854149D01*
X95005575Y-110050151D01*
X95123440Y-110226547D01*
X95273453Y-110376560D01*
X95449849Y-110494425D01*
X95645851Y-110575611D01*
X95853925Y-110617000D01*
X96066075Y-110617000D01*
X96274149Y-110575611D01*
X96470151Y-110494425D01*
X96646547Y-110376560D01*
X96796560Y-110226547D01*
X96914425Y-110050151D01*
X96943482Y-109980000D01*
X103676418Y-109980000D01*
X103676418Y-110980000D01*
X103682732Y-111044103D01*
X103701430Y-111105743D01*
X103731794Y-111162550D01*
X103772657Y-111212343D01*
X103822450Y-111253206D01*
X103879257Y-111283570D01*
X103940897Y-111302268D01*
X104005000Y-111308582D01*
X106515000Y-111308582D01*
X106579103Y-111302268D01*
X106640743Y-111283570D01*
X106697550Y-111253206D01*
X106747343Y-111212343D01*
X106788206Y-111162550D01*
X106818570Y-111105743D01*
X106837268Y-111044103D01*
X106843582Y-110980000D01*
X106843582Y-110957000D01*
X108831065Y-110957000D01*
X108854480Y-110959306D01*
X108877895Y-110957000D01*
X108877903Y-110957000D01*
X108947988Y-110950097D01*
X109037903Y-110922822D01*
X109120769Y-110878529D01*
X109193401Y-110818921D01*
X109208335Y-110800724D01*
X109664060Y-110345000D01*
X109678234Y-110345000D01*
X109799369Y-110320905D01*
X109913476Y-110273640D01*
X110016169Y-110205023D01*
X110103503Y-110117689D01*
X110172120Y-110014996D01*
X110219385Y-109900889D01*
X110243480Y-109779754D01*
X110243480Y-109656246D01*
X110219385Y-109535111D01*
X110172120Y-109421004D01*
X110103503Y-109318311D01*
X110016169Y-109230977D01*
X109913476Y-109162360D01*
X109799369Y-109115095D01*
X109678234Y-109091000D01*
X109554726Y-109091000D01*
X109433591Y-109115095D01*
X109319484Y-109162360D01*
X109216791Y-109230977D01*
X109129457Y-109318311D01*
X109060840Y-109421004D01*
X109013575Y-109535111D01*
X108989480Y-109656246D01*
X108989480Y-109670420D01*
X108656901Y-110003000D01*
X106843582Y-110003000D01*
X106843582Y-109980000D01*
X106837268Y-109915897D01*
X106818570Y-109854257D01*
X106788206Y-109797450D01*
X106747343Y-109747657D01*
X106697550Y-109706794D01*
X106640743Y-109676430D01*
X106579103Y-109657732D01*
X106515000Y-109651418D01*
X104005000Y-109651418D01*
X103940897Y-109657732D01*
X103879257Y-109676430D01*
X103822450Y-109706794D01*
X103772657Y-109747657D01*
X103731794Y-109797450D01*
X103701430Y-109854257D01*
X103682732Y-109915897D01*
X103676418Y-109980000D01*
X96943482Y-109980000D01*
X96995611Y-109854149D01*
X97037000Y-109646075D01*
X97037000Y-109433925D01*
X96995611Y-109225851D01*
X96914425Y-109029849D01*
X96796560Y-108853453D01*
X96646547Y-108703440D01*
X96470151Y-108585575D01*
X96274149Y-108504389D01*
X96066075Y-108463000D01*
X95853925Y-108463000D01*
X95645851Y-108504389D01*
X95449849Y-108585575D01*
X95273453Y-108703440D01*
X95123440Y-108853453D01*
X95005575Y-109029849D01*
X94924389Y-109225851D01*
X94883000Y-109433925D01*
X90352000Y-109433925D01*
X90352000Y-106893925D01*
X92343000Y-106893925D01*
X92343000Y-107106075D01*
X92384389Y-107314149D01*
X92465575Y-107510151D01*
X92583440Y-107686547D01*
X92733453Y-107836560D01*
X92909849Y-107954425D01*
X93105851Y-108035611D01*
X93313925Y-108077000D01*
X93526075Y-108077000D01*
X93734149Y-108035611D01*
X93930151Y-107954425D01*
X94106547Y-107836560D01*
X94193107Y-107750000D01*
X97111928Y-107750000D01*
X97124188Y-107874482D01*
X97160498Y-107994180D01*
X97219463Y-108104494D01*
X97298815Y-108201185D01*
X97395506Y-108280537D01*
X97505820Y-108339502D01*
X97625518Y-108375812D01*
X97750000Y-108388072D01*
X98214250Y-108385000D01*
X98373000Y-108226250D01*
X98373000Y-107127000D01*
X98627000Y-107127000D01*
X98627000Y-108226250D01*
X98785750Y-108385000D01*
X99250000Y-108388072D01*
X99374482Y-108375812D01*
X99494180Y-108339502D01*
X99604494Y-108280537D01*
X99701185Y-108201185D01*
X99780537Y-108104494D01*
X99839502Y-107994180D01*
X99875812Y-107874482D01*
X99888072Y-107750000D01*
X99885000Y-107285750D01*
X99726250Y-107127000D01*
X98627000Y-107127000D01*
X98373000Y-107127000D01*
X97273750Y-107127000D01*
X97115000Y-107285750D01*
X97111928Y-107750000D01*
X94193107Y-107750000D01*
X94256560Y-107686547D01*
X94374425Y-107510151D01*
X94455611Y-107314149D01*
X94497000Y-107106075D01*
X94497000Y-106893925D01*
X94455611Y-106685851D01*
X94374425Y-106489849D01*
X94256560Y-106313453D01*
X94193107Y-106250000D01*
X97111928Y-106250000D01*
X97115000Y-106714250D01*
X97273750Y-106873000D01*
X98373000Y-106873000D01*
X98373000Y-105773750D01*
X98627000Y-105773750D01*
X98627000Y-106873000D01*
X99726250Y-106873000D01*
X99885000Y-106714250D01*
X99888072Y-106250000D01*
X99875812Y-106125518D01*
X99839502Y-106005820D01*
X99780537Y-105895506D01*
X99701185Y-105798815D01*
X99604494Y-105719463D01*
X99494180Y-105660498D01*
X99374482Y-105624188D01*
X99250000Y-105611928D01*
X98785750Y-105615000D01*
X98627000Y-105773750D01*
X98373000Y-105773750D01*
X98214250Y-105615000D01*
X97750000Y-105611928D01*
X97625518Y-105624188D01*
X97505820Y-105660498D01*
X97395506Y-105719463D01*
X97298815Y-105798815D01*
X97219463Y-105895506D01*
X97160498Y-106005820D01*
X97124188Y-106125518D01*
X97111928Y-106250000D01*
X94193107Y-106250000D01*
X94106547Y-106163440D01*
X93930151Y-106045575D01*
X93734149Y-105964389D01*
X93526075Y-105923000D01*
X93313925Y-105923000D01*
X93105851Y-105964389D01*
X92909849Y-106045575D01*
X92733453Y-106163440D01*
X92583440Y-106313453D01*
X92465575Y-106489849D01*
X92384389Y-106685851D01*
X92343000Y-106893925D01*
X90352000Y-106893925D01*
X90352000Y-106145802D01*
X94137803Y-102360000D01*
X106986418Y-102360000D01*
X106986418Y-103360000D01*
X106992732Y-103424103D01*
X107011430Y-103485743D01*
X107041794Y-103542550D01*
X107082657Y-103592343D01*
X107132450Y-103633206D01*
X107189257Y-103663570D01*
X107250897Y-103682268D01*
X107315000Y-103688582D01*
X109825000Y-103688582D01*
X109889103Y-103682268D01*
X109950743Y-103663570D01*
X110007550Y-103633206D01*
X110057343Y-103592343D01*
X110098206Y-103542550D01*
X110128570Y-103485743D01*
X110147268Y-103424103D01*
X110153582Y-103360000D01*
X110153582Y-102360000D01*
X110147268Y-102295897D01*
X110128570Y-102234257D01*
X110098206Y-102177450D01*
X110057343Y-102127657D01*
X110007550Y-102086794D01*
X109950743Y-102056430D01*
X109889103Y-102037732D01*
X109825000Y-102031418D01*
X107315000Y-102031418D01*
X107250897Y-102037732D01*
X107189257Y-102056430D01*
X107132450Y-102086794D01*
X107082657Y-102127657D01*
X107041794Y-102177450D01*
X107011430Y-102234257D01*
X106992732Y-102295897D01*
X106986418Y-102360000D01*
X94137803Y-102360000D01*
X95145804Y-101352000D01*
X116574856Y-101352000D01*
X116565060Y-101401246D01*
X116565060Y-101401246D01*
G37*
X116565060Y-101401246D02*
X116565060Y-101524754D01*
X116589155Y-101645889D01*
X116636420Y-101759996D01*
X116705037Y-101862689D01*
X116792371Y-101950023D01*
X116895064Y-102018640D01*
X117009171Y-102065905D01*
X117130306Y-102090000D01*
X117253814Y-102090000D01*
X117374949Y-102065905D01*
X117489056Y-102018640D01*
X117591749Y-101950023D01*
X117601772Y-101940000D01*
X123485421Y-101940000D01*
X124730001Y-103184581D01*
X124730000Y-104410776D01*
X123929000Y-103609777D01*
X123929000Y-103560246D01*
X123904905Y-103439111D01*
X123857640Y-103325004D01*
X123789023Y-103222311D01*
X123701689Y-103134977D01*
X123598996Y-103066360D01*
X123484889Y-103019095D01*
X123363754Y-102995000D01*
X123240246Y-102995000D01*
X123119111Y-103019095D01*
X123005004Y-103066360D01*
X122902311Y-103134977D01*
X122814977Y-103222311D01*
X122746360Y-103325004D01*
X122699095Y-103439111D01*
X122675000Y-103560246D01*
X122675000Y-103683754D01*
X122699095Y-103804889D01*
X122746360Y-103918996D01*
X122814977Y-104021689D01*
X122902311Y-104109023D01*
X123005004Y-104177640D01*
X123119111Y-104224905D01*
X123240246Y-104249000D01*
X123289777Y-104249000D01*
X124244461Y-105203686D01*
X124244460Y-113711341D01*
X124229602Y-113662360D01*
X124170637Y-113552046D01*
X124091285Y-113455355D01*
X123994594Y-113376003D01*
X123884280Y-113317038D01*
X123764582Y-113280728D01*
X123640100Y-113268468D01*
X123625850Y-113271540D01*
X123467100Y-113430290D01*
X123467100Y-114554540D01*
X123487100Y-114554540D01*
X123487100Y-114808540D01*
X123467100Y-114808540D01*
X123467100Y-115932790D01*
X123625850Y-116091540D01*
X123640100Y-116094612D01*
X123764582Y-116082352D01*
X123884280Y-116046042D01*
X123994594Y-115987077D01*
X124091285Y-115907725D01*
X124170637Y-115811034D01*
X124229602Y-115700720D01*
X124265912Y-115581022D01*
X124278172Y-115456540D01*
X124275100Y-114967290D01*
X124116352Y-114808542D01*
X124266615Y-114808542D01*
X124276846Y-114842269D01*
X124318817Y-114920792D01*
X124375301Y-114989619D01*
X124444127Y-115046103D01*
X124500213Y-115076081D01*
X124631236Y-115207105D01*
X124644605Y-115223395D01*
X124660895Y-115236764D01*
X124660899Y-115236768D01*
X124709623Y-115276755D01*
X124741573Y-115293832D01*
X124783804Y-115316405D01*
X124864293Y-115340822D01*
X124927022Y-115347000D01*
X124927034Y-115347000D01*
X124947999Y-115349065D01*
X124968964Y-115347000D01*
X125600512Y-115347000D01*
X125619048Y-115381679D01*
X125722394Y-115507606D01*
X125848321Y-115610952D01*
X125883000Y-115629489D01*
X125883001Y-118065023D01*
X125880935Y-118086000D01*
X125883001Y-118106977D01*
X125883001Y-118106978D01*
X125889179Y-118169707D01*
X125899373Y-118203310D01*
X125913596Y-118250196D01*
X125953245Y-118324376D01*
X125993232Y-118373100D01*
X125993237Y-118373105D01*
X126006606Y-118389395D01*
X126022895Y-118402764D01*
X126718132Y-119098000D01*
X124502582Y-119098000D01*
X124502582Y-119050000D01*
X124496268Y-118985897D01*
X124477570Y-118924257D01*
X124447206Y-118867450D01*
X124406343Y-118817657D01*
X124356550Y-118776794D01*
X124299743Y-118746430D01*
X124238103Y-118727732D01*
X124174000Y-118721418D01*
X122574000Y-118721418D01*
X122509897Y-118727732D01*
X122448257Y-118746430D01*
X122391450Y-118776794D01*
X122341657Y-118817657D01*
X122300794Y-118867450D01*
X122270430Y-118924257D01*
X122251732Y-118985897D01*
X122245418Y-119050000D01*
X122245418Y-120100000D01*
X122251732Y-120164103D01*
X122270430Y-120225743D01*
X122300794Y-120282550D01*
X122341657Y-120332343D01*
X122391199Y-120373000D01*
X119858820Y-120373000D01*
X119902930Y-120359619D01*
X119994482Y-120310684D01*
X120074728Y-120244828D01*
X120091235Y-120224714D01*
X120707399Y-119608551D01*
X120727508Y-119592048D01*
X120793364Y-119511802D01*
X120842299Y-119420250D01*
X120872434Y-119320910D01*
X120880060Y-119243481D01*
X120880060Y-119243479D01*
X120882609Y-119217601D01*
X120880060Y-119191723D01*
X120880060Y-117583472D01*
X120898815Y-117606325D01*
X120995506Y-117685677D01*
X121105820Y-117744642D01*
X121225518Y-117780952D01*
X121350000Y-117793212D01*
X121501750Y-117790140D01*
X121660500Y-117631390D01*
X121660500Y-116807140D01*
X121640500Y-116807140D01*
X121640500Y-116553140D01*
X121660500Y-116553140D01*
X121660500Y-116533140D01*
X121914500Y-116533140D01*
X121914500Y-116553140D01*
X121934500Y-116553140D01*
X121934500Y-116807140D01*
X121914500Y-116807140D01*
X121914500Y-117631390D01*
X121966430Y-117683320D01*
X121939000Y-117710750D01*
X121935928Y-117950000D01*
X121948188Y-118074482D01*
X121984498Y-118194180D01*
X122043463Y-118304494D01*
X122122815Y-118401185D01*
X122219506Y-118480537D01*
X122329820Y-118539502D01*
X122449518Y-118575812D01*
X122574000Y-118588072D01*
X123088250Y-118585000D01*
X123247000Y-118426250D01*
X123247000Y-117552000D01*
X123501000Y-117552000D01*
X123501000Y-118426250D01*
X123659750Y-118585000D01*
X124174000Y-118588072D01*
X124298482Y-118575812D01*
X124418180Y-118539502D01*
X124528494Y-118480537D01*
X124625185Y-118401185D01*
X124704537Y-118304494D01*
X124763502Y-118194180D01*
X124799812Y-118074482D01*
X124812072Y-117950000D01*
X124809000Y-117710750D01*
X124650250Y-117552000D01*
X123501000Y-117552000D01*
X123247000Y-117552000D01*
X123227000Y-117552000D01*
X123227000Y-117298000D01*
X123247000Y-117298000D01*
X123247000Y-116423750D01*
X123501000Y-116423750D01*
X123501000Y-117298000D01*
X124650250Y-117298000D01*
X124809000Y-117139250D01*
X124812072Y-116900000D01*
X124799812Y-116775518D01*
X124763502Y-116655820D01*
X124704537Y-116545506D01*
X124625185Y-116448815D01*
X124528494Y-116369463D01*
X124418180Y-116310498D01*
X124298482Y-116274188D01*
X124174000Y-116261928D01*
X123659750Y-116265000D01*
X123501000Y-116423750D01*
X123247000Y-116423750D01*
X123088250Y-116265000D01*
X122862122Y-116263649D01*
X122863072Y-116205140D01*
X122850812Y-116080658D01*
X122844810Y-116060873D01*
X122915618Y-116082352D01*
X123040100Y-116094612D01*
X123054350Y-116091540D01*
X123213100Y-115932790D01*
X123213100Y-114808540D01*
X123193100Y-114808540D01*
X123193100Y-114554540D01*
X123213100Y-114554540D01*
X123213100Y-113430290D01*
X123054350Y-113271540D01*
X123040100Y-113268468D01*
X122915618Y-113280728D01*
X122795920Y-113317038D01*
X122685606Y-113376003D01*
X122604720Y-113442384D01*
X122604720Y-113110939D01*
X122633360Y-113068076D01*
X122680625Y-112953969D01*
X122704720Y-112832834D01*
X122704720Y-112709326D01*
X122680625Y-112588191D01*
X122633360Y-112474084D01*
X122564743Y-112371391D01*
X122477409Y-112284057D01*
X122374716Y-112215440D01*
X122260609Y-112168175D01*
X122139474Y-112144080D01*
X122015966Y-112144080D01*
X121894831Y-112168175D01*
X121780724Y-112215440D01*
X121752757Y-112234127D01*
X122054384Y-111932500D01*
X122103914Y-111932500D01*
X122225049Y-111908405D01*
X122339156Y-111861140D01*
X122441849Y-111792523D01*
X122529183Y-111705189D01*
X122597800Y-111602496D01*
X122645065Y-111488389D01*
X122669160Y-111367254D01*
X122669160Y-111243746D01*
X122645065Y-111122611D01*
X122597800Y-111008504D01*
X122529183Y-110905811D01*
X122441849Y-110818477D01*
X122339156Y-110749860D01*
X122225049Y-110702595D01*
X122103914Y-110678500D01*
X121980406Y-110678500D01*
X121859271Y-110702595D01*
X121745164Y-110749860D01*
X121642471Y-110818477D01*
X121555137Y-110905811D01*
X121486520Y-111008504D01*
X121439255Y-111122611D01*
X121415160Y-111243746D01*
X121415160Y-111293276D01*
X120496196Y-112212241D01*
X120478942Y-112226401D01*
X120433444Y-112281841D01*
X120422458Y-112295227D01*
X120380486Y-112373751D01*
X120354640Y-112458953D01*
X120345913Y-112547560D01*
X120348101Y-112569775D01*
X120348100Y-113688251D01*
X120311691Y-113718131D01*
X120252174Y-113790654D01*
X120207948Y-113873395D01*
X120180714Y-113963173D01*
X120171518Y-114056540D01*
X120171518Y-115306540D01*
X120180714Y-115399907D01*
X120207948Y-115489685D01*
X120252174Y-115572426D01*
X120311691Y-115644949D01*
X120384214Y-115704466D01*
X120466955Y-115748692D01*
X120524272Y-115766079D01*
X120413792Y-115876558D01*
X119993750Y-115876558D01*
X119886971Y-115887075D01*
X119784295Y-115918221D01*
X119689669Y-115968800D01*
X119606728Y-116036868D01*
X119538660Y-116119809D01*
X119488081Y-116214435D01*
X119456935Y-116317111D01*
X119446418Y-116423890D01*
X119446418Y-116877194D01*
X116291480Y-113722257D01*
X116291480Y-106954480D01*
X116538453Y-106954480D01*
X116540640Y-106976685D01*
X116540641Y-109368125D01*
X116538453Y-109390340D01*
X116547180Y-109478947D01*
X116573026Y-109564149D01*
X116591750Y-109599179D01*
X116614998Y-109642673D01*
X116671482Y-109711499D01*
X116688736Y-109725659D01*
X119078100Y-112115025D01*
X119078101Y-113688251D01*
X119041691Y-113718131D01*
X118982174Y-113790654D01*
X118937948Y-113873395D01*
X118910714Y-113963173D01*
X118901518Y-114056540D01*
X118901518Y-115306540D01*
X118910714Y-115399907D01*
X118937948Y-115489685D01*
X118982174Y-115572426D01*
X119041691Y-115644949D01*
X119114214Y-115704466D01*
X119196955Y-115748692D01*
X119286733Y-115775926D01*
X119380100Y-115785122D01*
X119680100Y-115785122D01*
X119773467Y-115775926D01*
X119863245Y-115748692D01*
X119945986Y-115704466D01*
X120018509Y-115644949D01*
X120078026Y-115572426D01*
X120122252Y-115489685D01*
X120149486Y-115399907D01*
X120158682Y-115306540D01*
X120158682Y-114056540D01*
X120149486Y-113963173D01*
X120122252Y-113873395D01*
X120078026Y-113790654D01*
X120018509Y-113718131D01*
X119982100Y-113688251D01*
X119982100Y-111950004D01*
X119984287Y-111927799D01*
X119975560Y-111839192D01*
X119969544Y-111819362D01*
X119949714Y-111753990D01*
X119924828Y-111707431D01*
X119981323Y-111707431D01*
X120102458Y-111683336D01*
X120216565Y-111636071D01*
X120319258Y-111567454D01*
X120406592Y-111480120D01*
X120475209Y-111377427D01*
X120522474Y-111263320D01*
X120546569Y-111142185D01*
X120546569Y-111018677D01*
X120522474Y-110897542D01*
X120475209Y-110783435D01*
X120406592Y-110680742D01*
X120319258Y-110593408D01*
X120216565Y-110524791D01*
X120102458Y-110477526D01*
X120057100Y-110468504D01*
X120057100Y-110247925D01*
X120078026Y-110222426D01*
X120122252Y-110139685D01*
X120149486Y-110049907D01*
X120158682Y-109956540D01*
X120158682Y-109858540D01*
X120171518Y-109858540D01*
X120171518Y-109956540D01*
X120180714Y-110049907D01*
X120207948Y-110139685D01*
X120252174Y-110222426D01*
X120311691Y-110294949D01*
X120384214Y-110354466D01*
X120466955Y-110398692D01*
X120556733Y-110425926D01*
X120650100Y-110435122D01*
X120950100Y-110435122D01*
X121043467Y-110425926D01*
X121133245Y-110398692D01*
X121215986Y-110354466D01*
X121288509Y-110294949D01*
X121348026Y-110222426D01*
X121392252Y-110139685D01*
X121419486Y-110049907D01*
X121428682Y-109956540D01*
X121428682Y-108706540D01*
X121419486Y-108613173D01*
X121392252Y-108523395D01*
X121348026Y-108440654D01*
X121288509Y-108368131D01*
X121215986Y-108308614D01*
X121133245Y-108264388D01*
X121043467Y-108237154D01*
X120950100Y-108227958D01*
X120650100Y-108227958D01*
X120556733Y-108237154D01*
X120466955Y-108264388D01*
X120384214Y-108308614D01*
X120311691Y-108368131D01*
X120252174Y-108440654D01*
X120207948Y-108523395D01*
X120180714Y-108613173D01*
X120171518Y-108706540D01*
X120171518Y-108804540D01*
X120158682Y-108804540D01*
X120158682Y-108706540D01*
X120149486Y-108613173D01*
X120122252Y-108523395D01*
X120078026Y-108440654D01*
X120018509Y-108368131D01*
X119945986Y-108308614D01*
X119863245Y-108264388D01*
X119773467Y-108237154D01*
X119680100Y-108227958D01*
X119380100Y-108227958D01*
X119286733Y-108237154D01*
X119196955Y-108264388D01*
X119114214Y-108308614D01*
X119041691Y-108368131D01*
X118982174Y-108440654D01*
X118937948Y-108523395D01*
X118910714Y-108613173D01*
X118901518Y-108706540D01*
X118901518Y-109956540D01*
X118910714Y-110049907D01*
X118937948Y-110139685D01*
X118982174Y-110222426D01*
X119003101Y-110247926D01*
X119003101Y-110665072D01*
X119000551Y-110690962D01*
X119007987Y-110766463D01*
X117444640Y-109203117D01*
X117444640Y-107141703D01*
X118335824Y-106250520D01*
X118385354Y-106250520D01*
X118506489Y-106226425D01*
X118620596Y-106179160D01*
X118723289Y-106110543D01*
X118810623Y-106023209D01*
X118879240Y-105920516D01*
X118926505Y-105806409D01*
X118950600Y-105685274D01*
X118950600Y-105561766D01*
X118928766Y-105452000D01*
X119128297Y-105452000D01*
X121618101Y-107941806D01*
X121618101Y-108338251D01*
X121581691Y-108368131D01*
X121522174Y-108440654D01*
X121477948Y-108523395D01*
X121450714Y-108613173D01*
X121441518Y-108706540D01*
X121441518Y-109956540D01*
X121450714Y-110049907D01*
X121477948Y-110139685D01*
X121522174Y-110222426D01*
X121581691Y-110294949D01*
X121654214Y-110354466D01*
X121736955Y-110398692D01*
X121826733Y-110425926D01*
X121920100Y-110435122D01*
X122220100Y-110435122D01*
X122313467Y-110425926D01*
X122403245Y-110398692D01*
X122485986Y-110354466D01*
X122558509Y-110294949D01*
X122618026Y-110222426D01*
X122662252Y-110139685D01*
X122689486Y-110049907D01*
X122698682Y-109956540D01*
X122698682Y-108706540D01*
X122689486Y-108613173D01*
X122662252Y-108523395D01*
X122618026Y-108440654D01*
X122558509Y-108368131D01*
X122522100Y-108338251D01*
X122522100Y-107776784D01*
X122524287Y-107754579D01*
X122522971Y-107741220D01*
X122888100Y-108106349D01*
X122888100Y-108338251D01*
X122851691Y-108368131D01*
X122792174Y-108440654D01*
X122747948Y-108523395D01*
X122720714Y-108613173D01*
X122711518Y-108706540D01*
X122711518Y-109956540D01*
X122720714Y-110049907D01*
X122747948Y-110139685D01*
X122792174Y-110222426D01*
X122851691Y-110294949D01*
X122924214Y-110354466D01*
X123006955Y-110398692D01*
X123096733Y-110425926D01*
X123190100Y-110435122D01*
X123490100Y-110435122D01*
X123583467Y-110425926D01*
X123673245Y-110398692D01*
X123755986Y-110354466D01*
X123828509Y-110294949D01*
X123888026Y-110222426D01*
X123932252Y-110139685D01*
X123959486Y-110049907D01*
X123968682Y-109956540D01*
X123968682Y-108706540D01*
X123959486Y-108613173D01*
X123932252Y-108523395D01*
X123888026Y-108440654D01*
X123828509Y-108368131D01*
X123792100Y-108338251D01*
X123792100Y-107941330D01*
X123794287Y-107919125D01*
X123785560Y-107830517D01*
X123759714Y-107745315D01*
X123728302Y-107686547D01*
X123717743Y-107666792D01*
X123661259Y-107597966D01*
X123644006Y-107583807D01*
X120061558Y-104001360D01*
X120047394Y-103984101D01*
X119978568Y-103927617D01*
X119900045Y-103885646D01*
X119814842Y-103859800D01*
X119748440Y-103853260D01*
X119726235Y-103851073D01*
X119704030Y-103853260D01*
X118991992Y-103853260D01*
X118956969Y-103818237D01*
X118854276Y-103749620D01*
X118740169Y-103702355D01*
X118619034Y-103678260D01*
X118495526Y-103678260D01*
X118374391Y-103702355D01*
X118260284Y-103749620D01*
X118157591Y-103818237D01*
X118070257Y-103905571D01*
X118001640Y-104008264D01*
X117954375Y-104122371D01*
X117935151Y-104219019D01*
X117901969Y-104205275D01*
X117780834Y-104181180D01*
X117657326Y-104181180D01*
X117536191Y-104205275D01*
X117422084Y-104252540D01*
X117319391Y-104321157D01*
X117232057Y-104408491D01*
X117163440Y-104511184D01*
X117116175Y-104625291D01*
X117092080Y-104746426D01*
X117092080Y-104869934D01*
X117116175Y-104991069D01*
X117163440Y-105105176D01*
X117232057Y-105207869D01*
X117319391Y-105295203D01*
X117422084Y-105363820D01*
X117536191Y-105411085D01*
X117657326Y-105435180D01*
X117722953Y-105435180D01*
X117720695Y-105440631D01*
X117696600Y-105561766D01*
X117696600Y-105611296D01*
X116688740Y-106619157D01*
X116671481Y-106633321D01*
X116614997Y-106702148D01*
X116581060Y-106765640D01*
X116573026Y-106780671D01*
X116547180Y-106865873D01*
X116538453Y-106954480D01*
X116291480Y-106954480D01*
X116291480Y-106446852D01*
X116326503Y-106411829D01*
X116395120Y-106309136D01*
X116442385Y-106195029D01*
X116466480Y-106073894D01*
X116466480Y-105950386D01*
X116442385Y-105829251D01*
X116395120Y-105715144D01*
X116326503Y-105612451D01*
X116239169Y-105525117D01*
X116136476Y-105456500D01*
X116022369Y-105409235D01*
X115901234Y-105385140D01*
X115777726Y-105385140D01*
X115656591Y-105409235D01*
X115570120Y-105445053D01*
X115570120Y-105014760D01*
X115590744Y-105028540D01*
X115704851Y-105075805D01*
X115825986Y-105099900D01*
X115949494Y-105099900D01*
X116070629Y-105075805D01*
X116184736Y-105028540D01*
X116287429Y-104959923D01*
X116374763Y-104872589D01*
X116443380Y-104769896D01*
X116490645Y-104655789D01*
X116514740Y-104534654D01*
X116514740Y-104411146D01*
X116490645Y-104290011D01*
X116443380Y-104175904D01*
X116374763Y-104073211D01*
X116287429Y-103985877D01*
X116184736Y-103917260D01*
X116070629Y-103869995D01*
X115949494Y-103845900D01*
X115825986Y-103845900D01*
X115704851Y-103869995D01*
X115590744Y-103917260D01*
X115488051Y-103985877D01*
X115453028Y-104020900D01*
X115419386Y-104020900D01*
X115397181Y-104018713D01*
X115308574Y-104027440D01*
X115288744Y-104033456D01*
X115223372Y-104053286D01*
X115144849Y-104095257D01*
X115076023Y-104151741D01*
X115061863Y-104168995D01*
X114814220Y-104416639D01*
X114796961Y-104430803D01*
X114740477Y-104499630D01*
X114707403Y-104561507D01*
X114698506Y-104578153D01*
X114672660Y-104663355D01*
X114663933Y-104751962D01*
X114666120Y-104774167D01*
X114666121Y-114435905D01*
X114663933Y-114458120D01*
X114672660Y-114546727D01*
X114698506Y-114631929D01*
X114737834Y-114705506D01*
X114740478Y-114710453D01*
X114796962Y-114779279D01*
X114814215Y-114793438D01*
X114980568Y-114959792D01*
X114980573Y-114959796D01*
X115533800Y-115513024D01*
X115738529Y-115717753D01*
X115738534Y-115717757D01*
X118873000Y-118852225D01*
X118873000Y-118901754D01*
X118897095Y-119022889D01*
X118944360Y-119136996D01*
X119012977Y-119239689D01*
X119100311Y-119327023D01*
X119124791Y-119343380D01*
X118325990Y-119343380D01*
X113923000Y-114940391D01*
X113923000Y-113486859D01*
X113951640Y-113443996D01*
X113998905Y-113329889D01*
X114023000Y-113208754D01*
X114023000Y-113085246D01*
X113998905Y-112964111D01*
X113951640Y-112850004D01*
X113923000Y-112807141D01*
X113923000Y-110442879D01*
X113925549Y-110416998D01*
X113915374Y-110313688D01*
X113903225Y-110273640D01*
X113885239Y-110214348D01*
X113836304Y-110122796D01*
X113770448Y-110042550D01*
X113750345Y-110026052D01*
X108769957Y-105045666D01*
X108753450Y-105025552D01*
X108673204Y-104959696D01*
X108581652Y-104910761D01*
X108482312Y-104880626D01*
X108404883Y-104873000D01*
X108379002Y-104870451D01*
X108353121Y-104873000D01*
X107766859Y-104873000D01*
X107723996Y-104844360D01*
X107609889Y-104797095D01*
X107488754Y-104773000D01*
X107365246Y-104773000D01*
X107244111Y-104797095D01*
X107181571Y-104823000D01*
X106833356Y-104823000D01*
X106818570Y-104774257D01*
X106788206Y-104717450D01*
X106747343Y-104667657D01*
X106697550Y-104626794D01*
X106640743Y-104596430D01*
X106579103Y-104577732D01*
X106515000Y-104571418D01*
X104005000Y-104571418D01*
X103940897Y-104577732D01*
X103879257Y-104596430D01*
X103822450Y-104626794D01*
X103772657Y-104667657D01*
X103731794Y-104717450D01*
X103701430Y-104774257D01*
X103682732Y-104835897D01*
X103676418Y-104900000D01*
X103676418Y-105900000D01*
X103682732Y-105964103D01*
X103701430Y-106025743D01*
X103731794Y-106082550D01*
X103772657Y-106132343D01*
X103822450Y-106173206D01*
X103879257Y-106203570D01*
X103940897Y-106222268D01*
X104005000Y-106228582D01*
X106515000Y-106228582D01*
X106579103Y-106222268D01*
X106640743Y-106203570D01*
X106697550Y-106173206D01*
X106747343Y-106132343D01*
X106788206Y-106082550D01*
X106818570Y-106025743D01*
X106833356Y-105977000D01*
X107181571Y-105977000D01*
X107244111Y-106002905D01*
X107365246Y-106027000D01*
X107488754Y-106027000D01*
X107609889Y-106002905D01*
X107723996Y-105955640D01*
X107766859Y-105927000D01*
X108160713Y-105927000D01*
X109345130Y-107111418D01*
X107315000Y-107111418D01*
X107250897Y-107117732D01*
X107189257Y-107136430D01*
X107132450Y-107166794D01*
X107082657Y-107207657D01*
X107041794Y-107257450D01*
X107011430Y-107314257D01*
X106992732Y-107375897D01*
X106986418Y-107440000D01*
X106986418Y-107671834D01*
X106951095Y-107757111D01*
X106927000Y-107878246D01*
X106927000Y-108001754D01*
X106951095Y-108122889D01*
X106986418Y-108208166D01*
X106986418Y-108440000D01*
X106992732Y-108504103D01*
X107011430Y-108565743D01*
X107041794Y-108622550D01*
X107082657Y-108672343D01*
X107132450Y-108713206D01*
X107189257Y-108743570D01*
X107250897Y-108762268D01*
X107315000Y-108768582D01*
X109825000Y-108768582D01*
X109889103Y-108762268D01*
X109950743Y-108743570D01*
X110007550Y-108713206D01*
X110057343Y-108672343D01*
X110098206Y-108622550D01*
X110128570Y-108565743D01*
X110147268Y-108504103D01*
X110153582Y-108440000D01*
X110153582Y-107919870D01*
X112869001Y-110635290D01*
X112869000Y-112807141D01*
X112840360Y-112850004D01*
X112793095Y-112964111D01*
X112769000Y-113085246D01*
X112769000Y-113208754D01*
X112793095Y-113329889D01*
X112840360Y-113443996D01*
X112869000Y-113486859D01*
X112869001Y-115132790D01*
X112866451Y-115158680D01*
X112876626Y-115261989D01*
X112906761Y-115361329D01*
X112938879Y-115421418D01*
X112955697Y-115452882D01*
X113021553Y-115533128D01*
X113041662Y-115549631D01*
X117716749Y-120224719D01*
X117733252Y-120244828D01*
X117779217Y-120282550D01*
X117813498Y-120310684D01*
X117905050Y-120359619D01*
X117949160Y-120373000D01*
X103127000Y-120373000D01*
X103127000Y-117527000D01*
X104481711Y-117527000D01*
X105409049Y-118454339D01*
X105425552Y-118474448D01*
X105505798Y-118540304D01*
X105597350Y-118589239D01*
X105632824Y-118600000D01*
X105696690Y-118619374D01*
X105800000Y-118629549D01*
X105825881Y-118627000D01*
X106989077Y-118627000D01*
X106992732Y-118664103D01*
X107011430Y-118725743D01*
X107041794Y-118782550D01*
X107082657Y-118832343D01*
X107132450Y-118873206D01*
X107189257Y-118903570D01*
X107250897Y-118922268D01*
X107315000Y-118928582D01*
X109825000Y-118928582D01*
X109889103Y-118922268D01*
X109950743Y-118903570D01*
X110007550Y-118873206D01*
X110057343Y-118832343D01*
X110098206Y-118782550D01*
X110128570Y-118725743D01*
X110147268Y-118664103D01*
X110153582Y-118600000D01*
X110153582Y-117600000D01*
X110147268Y-117535897D01*
X110128570Y-117474257D01*
X110098206Y-117417450D01*
X110057343Y-117367657D01*
X110007550Y-117326794D01*
X109950743Y-117296430D01*
X109889103Y-117277732D01*
X109825000Y-117271418D01*
X107315000Y-117271418D01*
X107250897Y-117277732D01*
X107189257Y-117296430D01*
X107132450Y-117326794D01*
X107082657Y-117367657D01*
X107041794Y-117417450D01*
X107011430Y-117474257D01*
X106992732Y-117535897D01*
X106989077Y-117573000D01*
X106018290Y-117573000D01*
X105090955Y-116645666D01*
X105074448Y-116625552D01*
X105057559Y-116611691D01*
X105133000Y-116536250D01*
X105133000Y-115687000D01*
X105387000Y-115687000D01*
X105387000Y-116536250D01*
X105545750Y-116695000D01*
X106515000Y-116698072D01*
X106639482Y-116685812D01*
X106759180Y-116649502D01*
X106869494Y-116590537D01*
X106966185Y-116511185D01*
X107045537Y-116414494D01*
X107104502Y-116304180D01*
X107140812Y-116184482D01*
X107153072Y-116060000D01*
X107150000Y-115845750D01*
X106991250Y-115687000D01*
X105387000Y-115687000D01*
X105133000Y-115687000D01*
X103528750Y-115687000D01*
X103370000Y-115845750D01*
X103366928Y-116060000D01*
X103379188Y-116184482D01*
X103415498Y-116304180D01*
X103474463Y-116414494D01*
X103522477Y-116473000D01*
X103127000Y-116473000D01*
X103127000Y-115060000D01*
X103366928Y-115060000D01*
X103370000Y-115274250D01*
X103528750Y-115433000D01*
X105133000Y-115433000D01*
X105133000Y-114583750D01*
X105387000Y-114583750D01*
X105387000Y-115433000D01*
X106991250Y-115433000D01*
X107150000Y-115274250D01*
X107153072Y-115060000D01*
X107140812Y-114935518D01*
X107104502Y-114815820D01*
X107045537Y-114705506D01*
X106966185Y-114608815D01*
X106869494Y-114529463D01*
X106759180Y-114470498D01*
X106639482Y-114434188D01*
X106515000Y-114421928D01*
X105545750Y-114425000D01*
X105387000Y-114583750D01*
X105133000Y-114583750D01*
X104974250Y-114425000D01*
X104005000Y-114421928D01*
X103880518Y-114434188D01*
X103760820Y-114470498D01*
X103650506Y-114529463D01*
X103553815Y-114608815D01*
X103474463Y-114705506D01*
X103415498Y-114815820D01*
X103379188Y-114935518D01*
X103366928Y-115060000D01*
X103127000Y-115060000D01*
X103127000Y-112560000D01*
X106986418Y-112560000D01*
X106986418Y-113560000D01*
X106992732Y-113624103D01*
X107011430Y-113685743D01*
X107041794Y-113742550D01*
X107082657Y-113792343D01*
X107132450Y-113833206D01*
X107189257Y-113863570D01*
X107250897Y-113882268D01*
X107315000Y-113888582D01*
X109825000Y-113888582D01*
X109889103Y-113882268D01*
X109950743Y-113863570D01*
X110007550Y-113833206D01*
X110057343Y-113792343D01*
X110098206Y-113742550D01*
X110128570Y-113685743D01*
X110147268Y-113624103D01*
X110153582Y-113560000D01*
X110153582Y-112560000D01*
X110147268Y-112495897D01*
X110128570Y-112434257D01*
X110098206Y-112377450D01*
X110057343Y-112327657D01*
X110007550Y-112286794D01*
X109950743Y-112256430D01*
X109889103Y-112237732D01*
X109825000Y-112231418D01*
X107315000Y-112231418D01*
X107250897Y-112237732D01*
X107189257Y-112256430D01*
X107132450Y-112286794D01*
X107082657Y-112327657D01*
X107041794Y-112377450D01*
X107011430Y-112434257D01*
X106992732Y-112495897D01*
X106986418Y-112560000D01*
X103127000Y-112560000D01*
X103127000Y-111500000D01*
X103124560Y-111475224D01*
X103117333Y-111451399D01*
X103105597Y-111429443D01*
X103089803Y-111410197D01*
X103070557Y-111394403D01*
X103048601Y-111382667D01*
X103024776Y-111375440D01*
X103000000Y-111373000D01*
X102912067Y-111373000D01*
X102851185Y-111298815D01*
X102754494Y-111219463D01*
X102644180Y-111160498D01*
X102524482Y-111124188D01*
X102400000Y-111111928D01*
X101785750Y-111115000D01*
X101627000Y-111273750D01*
X101627000Y-111373000D01*
X101373000Y-111373000D01*
X101373000Y-111273750D01*
X101214250Y-111115000D01*
X100600000Y-111111928D01*
X100475518Y-111124188D01*
X100355820Y-111160498D01*
X100245506Y-111219463D01*
X100148815Y-111298815D01*
X100087933Y-111373000D01*
X90352000Y-111373000D01*
X90352000Y-109433925D01*
X94883000Y-109433925D01*
X94883000Y-109646075D01*
X94924389Y-109854149D01*
X95005575Y-110050151D01*
X95123440Y-110226547D01*
X95273453Y-110376560D01*
X95449849Y-110494425D01*
X95645851Y-110575611D01*
X95853925Y-110617000D01*
X96066075Y-110617000D01*
X96274149Y-110575611D01*
X96470151Y-110494425D01*
X96646547Y-110376560D01*
X96796560Y-110226547D01*
X96914425Y-110050151D01*
X96943482Y-109980000D01*
X103676418Y-109980000D01*
X103676418Y-110980000D01*
X103682732Y-111044103D01*
X103701430Y-111105743D01*
X103731794Y-111162550D01*
X103772657Y-111212343D01*
X103822450Y-111253206D01*
X103879257Y-111283570D01*
X103940897Y-111302268D01*
X104005000Y-111308582D01*
X106515000Y-111308582D01*
X106579103Y-111302268D01*
X106640743Y-111283570D01*
X106697550Y-111253206D01*
X106747343Y-111212343D01*
X106788206Y-111162550D01*
X106818570Y-111105743D01*
X106837268Y-111044103D01*
X106843582Y-110980000D01*
X106843582Y-110957000D01*
X108831065Y-110957000D01*
X108854480Y-110959306D01*
X108877895Y-110957000D01*
X108877903Y-110957000D01*
X108947988Y-110950097D01*
X109037903Y-110922822D01*
X109120769Y-110878529D01*
X109193401Y-110818921D01*
X109208335Y-110800724D01*
X109664060Y-110345000D01*
X109678234Y-110345000D01*
X109799369Y-110320905D01*
X109913476Y-110273640D01*
X110016169Y-110205023D01*
X110103503Y-110117689D01*
X110172120Y-110014996D01*
X110219385Y-109900889D01*
X110243480Y-109779754D01*
X110243480Y-109656246D01*
X110219385Y-109535111D01*
X110172120Y-109421004D01*
X110103503Y-109318311D01*
X110016169Y-109230977D01*
X109913476Y-109162360D01*
X109799369Y-109115095D01*
X109678234Y-109091000D01*
X109554726Y-109091000D01*
X109433591Y-109115095D01*
X109319484Y-109162360D01*
X109216791Y-109230977D01*
X109129457Y-109318311D01*
X109060840Y-109421004D01*
X109013575Y-109535111D01*
X108989480Y-109656246D01*
X108989480Y-109670420D01*
X108656901Y-110003000D01*
X106843582Y-110003000D01*
X106843582Y-109980000D01*
X106837268Y-109915897D01*
X106818570Y-109854257D01*
X106788206Y-109797450D01*
X106747343Y-109747657D01*
X106697550Y-109706794D01*
X106640743Y-109676430D01*
X106579103Y-109657732D01*
X106515000Y-109651418D01*
X104005000Y-109651418D01*
X103940897Y-109657732D01*
X103879257Y-109676430D01*
X103822450Y-109706794D01*
X103772657Y-109747657D01*
X103731794Y-109797450D01*
X103701430Y-109854257D01*
X103682732Y-109915897D01*
X103676418Y-109980000D01*
X96943482Y-109980000D01*
X96995611Y-109854149D01*
X97037000Y-109646075D01*
X97037000Y-109433925D01*
X96995611Y-109225851D01*
X96914425Y-109029849D01*
X96796560Y-108853453D01*
X96646547Y-108703440D01*
X96470151Y-108585575D01*
X96274149Y-108504389D01*
X96066075Y-108463000D01*
X95853925Y-108463000D01*
X95645851Y-108504389D01*
X95449849Y-108585575D01*
X95273453Y-108703440D01*
X95123440Y-108853453D01*
X95005575Y-109029849D01*
X94924389Y-109225851D01*
X94883000Y-109433925D01*
X90352000Y-109433925D01*
X90352000Y-106893925D01*
X92343000Y-106893925D01*
X92343000Y-107106075D01*
X92384389Y-107314149D01*
X92465575Y-107510151D01*
X92583440Y-107686547D01*
X92733453Y-107836560D01*
X92909849Y-107954425D01*
X93105851Y-108035611D01*
X93313925Y-108077000D01*
X93526075Y-108077000D01*
X93734149Y-108035611D01*
X93930151Y-107954425D01*
X94106547Y-107836560D01*
X94193107Y-107750000D01*
X97111928Y-107750000D01*
X97124188Y-107874482D01*
X97160498Y-107994180D01*
X97219463Y-108104494D01*
X97298815Y-108201185D01*
X97395506Y-108280537D01*
X97505820Y-108339502D01*
X97625518Y-108375812D01*
X97750000Y-108388072D01*
X98214250Y-108385000D01*
X98373000Y-108226250D01*
X98373000Y-107127000D01*
X98627000Y-107127000D01*
X98627000Y-108226250D01*
X98785750Y-108385000D01*
X99250000Y-108388072D01*
X99374482Y-108375812D01*
X99494180Y-108339502D01*
X99604494Y-108280537D01*
X99701185Y-108201185D01*
X99780537Y-108104494D01*
X99839502Y-107994180D01*
X99875812Y-107874482D01*
X99888072Y-107750000D01*
X99885000Y-107285750D01*
X99726250Y-107127000D01*
X98627000Y-107127000D01*
X98373000Y-107127000D01*
X97273750Y-107127000D01*
X97115000Y-107285750D01*
X97111928Y-107750000D01*
X94193107Y-107750000D01*
X94256560Y-107686547D01*
X94374425Y-107510151D01*
X94455611Y-107314149D01*
X94497000Y-107106075D01*
X94497000Y-106893925D01*
X94455611Y-106685851D01*
X94374425Y-106489849D01*
X94256560Y-106313453D01*
X94193107Y-106250000D01*
X97111928Y-106250000D01*
X97115000Y-106714250D01*
X97273750Y-106873000D01*
X98373000Y-106873000D01*
X98373000Y-105773750D01*
X98627000Y-105773750D01*
X98627000Y-106873000D01*
X99726250Y-106873000D01*
X99885000Y-106714250D01*
X99888072Y-106250000D01*
X99875812Y-106125518D01*
X99839502Y-106005820D01*
X99780537Y-105895506D01*
X99701185Y-105798815D01*
X99604494Y-105719463D01*
X99494180Y-105660498D01*
X99374482Y-105624188D01*
X99250000Y-105611928D01*
X98785750Y-105615000D01*
X98627000Y-105773750D01*
X98373000Y-105773750D01*
X98214250Y-105615000D01*
X97750000Y-105611928D01*
X97625518Y-105624188D01*
X97505820Y-105660498D01*
X97395506Y-105719463D01*
X97298815Y-105798815D01*
X97219463Y-105895506D01*
X97160498Y-106005820D01*
X97124188Y-106125518D01*
X97111928Y-106250000D01*
X94193107Y-106250000D01*
X94106547Y-106163440D01*
X93930151Y-106045575D01*
X93734149Y-105964389D01*
X93526075Y-105923000D01*
X93313925Y-105923000D01*
X93105851Y-105964389D01*
X92909849Y-106045575D01*
X92733453Y-106163440D01*
X92583440Y-106313453D01*
X92465575Y-106489849D01*
X92384389Y-106685851D01*
X92343000Y-106893925D01*
X90352000Y-106893925D01*
X90352000Y-106145802D01*
X94137803Y-102360000D01*
X106986418Y-102360000D01*
X106986418Y-103360000D01*
X106992732Y-103424103D01*
X107011430Y-103485743D01*
X107041794Y-103542550D01*
X107082657Y-103592343D01*
X107132450Y-103633206D01*
X107189257Y-103663570D01*
X107250897Y-103682268D01*
X107315000Y-103688582D01*
X109825000Y-103688582D01*
X109889103Y-103682268D01*
X109950743Y-103663570D01*
X110007550Y-103633206D01*
X110057343Y-103592343D01*
X110098206Y-103542550D01*
X110128570Y-103485743D01*
X110147268Y-103424103D01*
X110153582Y-103360000D01*
X110153582Y-102360000D01*
X110147268Y-102295897D01*
X110128570Y-102234257D01*
X110098206Y-102177450D01*
X110057343Y-102127657D01*
X110007550Y-102086794D01*
X109950743Y-102056430D01*
X109889103Y-102037732D01*
X109825000Y-102031418D01*
X107315000Y-102031418D01*
X107250897Y-102037732D01*
X107189257Y-102056430D01*
X107132450Y-102086794D01*
X107082657Y-102127657D01*
X107041794Y-102177450D01*
X107011430Y-102234257D01*
X106992732Y-102295897D01*
X106986418Y-102360000D01*
X94137803Y-102360000D01*
X95145804Y-101352000D01*
X116574856Y-101352000D01*
X116565060Y-101401246D01*
G36*
X128648000Y-106145804D02*
G01*
X128648000Y-116263278D01*
X128359750Y-116265000D01*
X128201000Y-116423750D01*
X128201000Y-117298000D01*
X128221000Y-117298000D01*
X128221000Y-117552000D01*
X128201000Y-117552000D01*
X128201000Y-118426250D01*
X128359750Y-118585000D01*
X128648000Y-118586722D01*
X128648000Y-118721418D01*
X127549287Y-118721418D01*
X127415098Y-118587229D01*
X127788250Y-118585000D01*
X127947000Y-118426250D01*
X127947000Y-117552000D01*
X127927000Y-117552000D01*
X127927000Y-117298000D01*
X127947000Y-117298000D01*
X127947000Y-116423750D01*
X127788250Y-116265000D01*
X127274000Y-116261928D01*
X127149518Y-116274188D01*
X127029820Y-116310498D01*
X126919506Y-116369463D01*
X126822815Y-116448815D01*
X126743463Y-116545506D01*
X126737000Y-116557597D01*
X126737000Y-115629488D01*
X126771679Y-115610952D01*
X126897606Y-115507606D01*
X127000952Y-115381679D01*
X127077745Y-115238010D01*
X127125034Y-115082120D01*
X127141001Y-114920000D01*
X127125034Y-114757880D01*
X127077745Y-114601990D01*
X127000952Y-114458321D01*
X126897606Y-114332394D01*
X126839856Y-114285000D01*
X126897606Y-114237606D01*
X127000952Y-114111679D01*
X127077745Y-113968010D01*
X127125034Y-113812120D01*
X127141001Y-113650000D01*
X127125034Y-113487880D01*
X127077745Y-113331990D01*
X127000952Y-113188321D01*
X126897606Y-113062394D01*
X126839856Y-113015000D01*
X126897606Y-112967606D01*
X127000952Y-112841679D01*
X127077745Y-112698010D01*
X127125034Y-112542120D01*
X127141001Y-112380000D01*
X127125034Y-112217880D01*
X127077745Y-112061990D01*
X127000952Y-111918321D01*
X126897606Y-111792394D01*
X126839856Y-111745000D01*
X126897606Y-111697606D01*
X127000952Y-111571679D01*
X127077745Y-111428010D01*
X127125034Y-111272120D01*
X127141001Y-111110000D01*
X127125034Y-110947880D01*
X127113619Y-110910250D01*
X127687105Y-110336764D01*
X127703395Y-110323395D01*
X127716764Y-110307105D01*
X127716768Y-110307101D01*
X127756756Y-110258377D01*
X127796404Y-110184197D01*
X127796405Y-110184196D01*
X127820822Y-110103707D01*
X127827000Y-110040978D01*
X127827000Y-110040967D01*
X127829065Y-110020000D01*
X127827000Y-109999033D01*
X127827000Y-106910966D01*
X127829065Y-106889999D01*
X127827000Y-106869032D01*
X127827000Y-106869022D01*
X127820822Y-106806293D01*
X127796405Y-106725804D01*
X127756756Y-106651625D01*
X127756755Y-106651623D01*
X127716768Y-106602898D01*
X127716759Y-106602889D01*
X127703395Y-106586605D01*
X127687112Y-106573242D01*
X127347000Y-106233131D01*
X127347000Y-106148246D01*
X127322905Y-106027111D01*
X127275640Y-105913004D01*
X127207023Y-105810311D01*
X127119689Y-105722977D01*
X127016996Y-105654360D01*
X126902889Y-105607095D01*
X126781754Y-105583000D01*
X126658246Y-105583000D01*
X126537111Y-105607095D01*
X126423004Y-105654360D01*
X126320311Y-105722977D01*
X126232977Y-105810311D01*
X126164360Y-105913004D01*
X126117095Y-106027111D01*
X126093000Y-106148246D01*
X126093000Y-106233750D01*
X126024250Y-106165000D01*
X125810000Y-106161928D01*
X125685518Y-106174188D01*
X125659000Y-106182232D01*
X125659000Y-104916167D01*
X125677097Y-104856508D01*
X125684000Y-104786423D01*
X125684000Y-103181803D01*
X128648000Y-106145804D01*
X128648000Y-106145804D01*
G37*
X128648000Y-106145804D02*
X128648000Y-116263278D01*
X128359750Y-116265000D01*
X128201000Y-116423750D01*
X128201000Y-117298000D01*
X128221000Y-117298000D01*
X128221000Y-117552000D01*
X128201000Y-117552000D01*
X128201000Y-118426250D01*
X128359750Y-118585000D01*
X128648000Y-118586722D01*
X128648000Y-118721418D01*
X127549287Y-118721418D01*
X127415098Y-118587229D01*
X127788250Y-118585000D01*
X127947000Y-118426250D01*
X127947000Y-117552000D01*
X127927000Y-117552000D01*
X127927000Y-117298000D01*
X127947000Y-117298000D01*
X127947000Y-116423750D01*
X127788250Y-116265000D01*
X127274000Y-116261928D01*
X127149518Y-116274188D01*
X127029820Y-116310498D01*
X126919506Y-116369463D01*
X126822815Y-116448815D01*
X126743463Y-116545506D01*
X126737000Y-116557597D01*
X126737000Y-115629488D01*
X126771679Y-115610952D01*
X126897606Y-115507606D01*
X127000952Y-115381679D01*
X127077745Y-115238010D01*
X127125034Y-115082120D01*
X127141001Y-114920000D01*
X127125034Y-114757880D01*
X127077745Y-114601990D01*
X127000952Y-114458321D01*
X126897606Y-114332394D01*
X126839856Y-114285000D01*
X126897606Y-114237606D01*
X127000952Y-114111679D01*
X127077745Y-113968010D01*
X127125034Y-113812120D01*
X127141001Y-113650000D01*
X127125034Y-113487880D01*
X127077745Y-113331990D01*
X127000952Y-113188321D01*
X126897606Y-113062394D01*
X126839856Y-113015000D01*
X126897606Y-112967606D01*
X127000952Y-112841679D01*
X127077745Y-112698010D01*
X127125034Y-112542120D01*
X127141001Y-112380000D01*
X127125034Y-112217880D01*
X127077745Y-112061990D01*
X127000952Y-111918321D01*
X126897606Y-111792394D01*
X126839856Y-111745000D01*
X126897606Y-111697606D01*
X127000952Y-111571679D01*
X127077745Y-111428010D01*
X127125034Y-111272120D01*
X127141001Y-111110000D01*
X127125034Y-110947880D01*
X127113619Y-110910250D01*
X127687105Y-110336764D01*
X127703395Y-110323395D01*
X127716764Y-110307105D01*
X127716768Y-110307101D01*
X127756756Y-110258377D01*
X127796404Y-110184197D01*
X127796405Y-110184196D01*
X127820822Y-110103707D01*
X127827000Y-110040978D01*
X127827000Y-110040967D01*
X127829065Y-110020000D01*
X127827000Y-109999033D01*
X127827000Y-106910966D01*
X127829065Y-106889999D01*
X127827000Y-106869032D01*
X127827000Y-106869022D01*
X127820822Y-106806293D01*
X127796405Y-106725804D01*
X127756756Y-106651625D01*
X127756755Y-106651623D01*
X127716768Y-106602898D01*
X127716759Y-106602889D01*
X127703395Y-106586605D01*
X127687112Y-106573242D01*
X127347000Y-106233131D01*
X127347000Y-106148246D01*
X127322905Y-106027111D01*
X127275640Y-105913004D01*
X127207023Y-105810311D01*
X127119689Y-105722977D01*
X127016996Y-105654360D01*
X126902889Y-105607095D01*
X126781754Y-105583000D01*
X126658246Y-105583000D01*
X126537111Y-105607095D01*
X126423004Y-105654360D01*
X126320311Y-105722977D01*
X126232977Y-105810311D01*
X126164360Y-105913004D01*
X126117095Y-106027111D01*
X126093000Y-106148246D01*
X126093000Y-106233750D01*
X126024250Y-106165000D01*
X125810000Y-106161928D01*
X125685518Y-106174188D01*
X125659000Y-106182232D01*
X125659000Y-104916167D01*
X125677097Y-104856508D01*
X125684000Y-104786423D01*
X125684000Y-103181803D01*
X128648000Y-106145804D01*
G36*
X126437000Y-107173000D02*
G01*
X126457000Y-107173000D01*
X126457000Y-107427000D01*
X126437000Y-107427000D01*
X126437000Y-107447000D01*
X126183000Y-107447000D01*
X126183000Y-107427000D01*
X126163000Y-107427000D01*
X126163000Y-107173000D01*
X126183000Y-107173000D01*
X126183000Y-107153000D01*
X126437000Y-107153000D01*
X126437000Y-107173000D01*
X126437000Y-107173000D01*
G37*
X126437000Y-107173000D02*
X126457000Y-107173000D01*
X126457000Y-107427000D01*
X126437000Y-107427000D01*
X126437000Y-107447000D01*
X126183000Y-107447000D01*
X126183000Y-107427000D01*
X126163000Y-107427000D01*
X126163000Y-107173000D01*
X126183000Y-107173000D01*
X126183000Y-107153000D01*
X126437000Y-107153000D01*
X126437000Y-107173000D01*
G36*
X122127000Y-131953000D02*
G01*
X122147000Y-131953000D01*
X122147000Y-132207000D01*
X122127000Y-132207000D01*
X122127000Y-133411354D01*
X122359048Y-133538344D01*
X122637450Y-133448323D01*
X122892941Y-133305718D01*
X123115702Y-133116010D01*
X123212999Y-132992949D01*
X123213000Y-134910339D01*
X122378616Y-135744723D01*
X122221823Y-135660916D01*
X121990533Y-135590755D01*
X121750000Y-135567064D01*
X121509466Y-135590755D01*
X121278176Y-135660916D01*
X121065017Y-135774851D01*
X120878183Y-135928183D01*
X120724851Y-136115018D01*
X120610916Y-136328177D01*
X120540755Y-136559467D01*
X120523000Y-136739733D01*
X120523000Y-137180519D01*
X120518081Y-137189722D01*
X120442201Y-137439863D01*
X120416580Y-137700000D01*
X120442201Y-137960137D01*
X120518081Y-138210278D01*
X120523000Y-138219481D01*
X120523000Y-138660268D01*
X120540756Y-138840534D01*
X120610917Y-139071824D01*
X120724852Y-139284983D01*
X120878184Y-139471817D01*
X121065018Y-139625149D01*
X121107770Y-139648000D01*
X118892231Y-139648000D01*
X118934983Y-139625149D01*
X119121817Y-139471817D01*
X119275149Y-139284983D01*
X119389084Y-139071824D01*
X119459245Y-138840534D01*
X119477000Y-138660268D01*
X119477000Y-138219481D01*
X119481919Y-138210278D01*
X119557799Y-137960137D01*
X119577000Y-137765184D01*
X119577000Y-134449660D01*
X119952245Y-134074415D01*
X120002880Y-134032860D01*
X120097374Y-133917719D01*
X120168708Y-133830799D01*
X120291929Y-133600268D01*
X120298986Y-133577005D01*
X120367809Y-133350127D01*
X120387010Y-133155173D01*
X120387010Y-133155165D01*
X120393429Y-133089991D01*
X120387010Y-133024817D01*
X120387010Y-132673443D01*
X120536467Y-132523986D01*
X120569622Y-132625973D01*
X120702828Y-132886488D01*
X120884298Y-133116010D01*
X121107059Y-133305718D01*
X121362550Y-133448323D01*
X121640952Y-133538344D01*
X121873000Y-133411354D01*
X121873000Y-132207000D01*
X121853000Y-132207000D01*
X121853000Y-131953000D01*
X121873000Y-131953000D01*
X121873000Y-131933000D01*
X122127000Y-131933000D01*
X122127000Y-131953000D01*
X122127000Y-131953000D01*
G37*
X122127000Y-131953000D02*
X122147000Y-131953000D01*
X122147000Y-132207000D01*
X122127000Y-132207000D01*
X122127000Y-133411354D01*
X122359048Y-133538344D01*
X122637450Y-133448323D01*
X122892941Y-133305718D01*
X123115702Y-133116010D01*
X123212999Y-132992949D01*
X123213000Y-134910339D01*
X122378616Y-135744723D01*
X122221823Y-135660916D01*
X121990533Y-135590755D01*
X121750000Y-135567064D01*
X121509466Y-135590755D01*
X121278176Y-135660916D01*
X121065017Y-135774851D01*
X120878183Y-135928183D01*
X120724851Y-136115018D01*
X120610916Y-136328177D01*
X120540755Y-136559467D01*
X120523000Y-136739733D01*
X120523000Y-137180519D01*
X120518081Y-137189722D01*
X120442201Y-137439863D01*
X120416580Y-137700000D01*
X120442201Y-137960137D01*
X120518081Y-138210278D01*
X120523000Y-138219481D01*
X120523000Y-138660268D01*
X120540756Y-138840534D01*
X120610917Y-139071824D01*
X120724852Y-139284983D01*
X120878184Y-139471817D01*
X121065018Y-139625149D01*
X121107770Y-139648000D01*
X118892231Y-139648000D01*
X118934983Y-139625149D01*
X119121817Y-139471817D01*
X119275149Y-139284983D01*
X119389084Y-139071824D01*
X119459245Y-138840534D01*
X119477000Y-138660268D01*
X119477000Y-138219481D01*
X119481919Y-138210278D01*
X119557799Y-137960137D01*
X119577000Y-137765184D01*
X119577000Y-134449660D01*
X119952245Y-134074415D01*
X120002880Y-134032860D01*
X120097374Y-133917719D01*
X120168708Y-133830799D01*
X120291929Y-133600268D01*
X120298986Y-133577005D01*
X120367809Y-133350127D01*
X120387010Y-133155173D01*
X120387010Y-133155165D01*
X120393429Y-133089991D01*
X120387010Y-133024817D01*
X120387010Y-132673443D01*
X120536467Y-132523986D01*
X120569622Y-132625973D01*
X120702828Y-132886488D01*
X120884298Y-133116010D01*
X121107059Y-133305718D01*
X121362550Y-133448323D01*
X121640952Y-133538344D01*
X121873000Y-133411354D01*
X121873000Y-132207000D01*
X121853000Y-132207000D01*
X121853000Y-131953000D01*
X121873000Y-131953000D01*
X121873000Y-131933000D01*
X122127000Y-131933000D01*
X122127000Y-131953000D01*
G36*
X112127000Y-131953000D02*
G01*
X112147000Y-131953000D01*
X112147000Y-132207000D01*
X112127000Y-132207000D01*
X112127000Y-133411354D01*
X112359048Y-133538344D01*
X112637450Y-133448323D01*
X112892941Y-133305718D01*
X113115702Y-133116010D01*
X113297172Y-132886488D01*
X113423000Y-132640401D01*
X113423001Y-133834807D01*
X113423000Y-133834817D01*
X113423001Y-137765184D01*
X113442202Y-137960137D01*
X113518082Y-138210278D01*
X113523000Y-138219479D01*
X113523000Y-138660268D01*
X113540756Y-138840534D01*
X113610917Y-139071824D01*
X113724852Y-139284983D01*
X113878184Y-139471817D01*
X114065018Y-139625149D01*
X114107770Y-139648000D01*
X111892231Y-139648000D01*
X111934983Y-139625149D01*
X112121817Y-139471817D01*
X112275149Y-139284983D01*
X112389084Y-139071824D01*
X112459245Y-138840534D01*
X112477000Y-138660268D01*
X112477000Y-138219480D01*
X112481919Y-138210277D01*
X112557798Y-137960137D01*
X112583419Y-137700000D01*
X112557798Y-137439862D01*
X112481919Y-137189722D01*
X112477000Y-137180519D01*
X112477000Y-136739732D01*
X112459245Y-136559466D01*
X112389084Y-136328176D01*
X112275149Y-136115017D01*
X112121817Y-135928183D01*
X111934982Y-135774851D01*
X111721823Y-135660916D01*
X111490533Y-135590755D01*
X111266990Y-135568737D01*
X111266990Y-133394985D01*
X111362550Y-133448323D01*
X111640952Y-133538344D01*
X111873000Y-133411354D01*
X111873000Y-132207000D01*
X111853000Y-132207000D01*
X111853000Y-131953000D01*
X111873000Y-131953000D01*
X111873000Y-131933000D01*
X112127000Y-131933000D01*
X112127000Y-131953000D01*
X112127000Y-131953000D01*
G37*
X112127000Y-131953000D02*
X112147000Y-131953000D01*
X112147000Y-132207000D01*
X112127000Y-132207000D01*
X112127000Y-133411354D01*
X112359048Y-133538344D01*
X112637450Y-133448323D01*
X112892941Y-133305718D01*
X113115702Y-133116010D01*
X113297172Y-132886488D01*
X113423000Y-132640401D01*
X113423001Y-133834807D01*
X113423000Y-133834817D01*
X113423001Y-137765184D01*
X113442202Y-137960137D01*
X113518082Y-138210278D01*
X113523000Y-138219479D01*
X113523000Y-138660268D01*
X113540756Y-138840534D01*
X113610917Y-139071824D01*
X113724852Y-139284983D01*
X113878184Y-139471817D01*
X114065018Y-139625149D01*
X114107770Y-139648000D01*
X111892231Y-139648000D01*
X111934983Y-139625149D01*
X112121817Y-139471817D01*
X112275149Y-139284983D01*
X112389084Y-139071824D01*
X112459245Y-138840534D01*
X112477000Y-138660268D01*
X112477000Y-138219480D01*
X112481919Y-138210277D01*
X112557798Y-137960137D01*
X112583419Y-137700000D01*
X112557798Y-137439862D01*
X112481919Y-137189722D01*
X112477000Y-137180519D01*
X112477000Y-136739732D01*
X112459245Y-136559466D01*
X112389084Y-136328176D01*
X112275149Y-136115017D01*
X112121817Y-135928183D01*
X111934982Y-135774851D01*
X111721823Y-135660916D01*
X111490533Y-135590755D01*
X111266990Y-135568737D01*
X111266990Y-133394985D01*
X111362550Y-133448323D01*
X111640952Y-133538344D01*
X111873000Y-133411354D01*
X111873000Y-132207000D01*
X111853000Y-132207000D01*
X111853000Y-131953000D01*
X111873000Y-131953000D01*
X111873000Y-131933000D01*
X112127000Y-131933000D01*
X112127000Y-131953000D01*
G36*
X110023000Y-138349661D02*
G01*
X110023000Y-138660268D01*
X110040756Y-138840534D01*
X110110917Y-139071824D01*
X110224852Y-139284983D01*
X110378184Y-139471817D01*
X110565018Y-139625149D01*
X110607770Y-139648000D01*
X108392231Y-139648000D01*
X108434983Y-139625149D01*
X108621817Y-139471817D01*
X108775149Y-139284983D01*
X108889084Y-139071824D01*
X108959245Y-138840534D01*
X108977000Y-138660268D01*
X108977000Y-138219481D01*
X108981919Y-138210278D01*
X109057799Y-137960137D01*
X109077000Y-137765183D01*
X109077000Y-137403660D01*
X110023000Y-138349661D01*
X110023000Y-138349661D01*
G37*
X110023000Y-138349661D02*
X110023000Y-138660268D01*
X110040756Y-138840534D01*
X110110917Y-139071824D01*
X110224852Y-139284983D01*
X110378184Y-139471817D01*
X110565018Y-139625149D01*
X110607770Y-139648000D01*
X108392231Y-139648000D01*
X108434983Y-139625149D01*
X108621817Y-139471817D01*
X108775149Y-139284983D01*
X108889084Y-139071824D01*
X108959245Y-138840534D01*
X108977000Y-138660268D01*
X108977000Y-138219481D01*
X108981919Y-138210278D01*
X109057799Y-137960137D01*
X109077000Y-137765183D01*
X109077000Y-137403660D01*
X110023000Y-138349661D01*
G36*
X110139422Y-122982497D02*
G01*
X110230138Y-123438555D01*
X110408083Y-123868153D01*
X110666419Y-124254781D01*
X110995219Y-124583581D01*
X111381847Y-124841917D01*
X111811445Y-125019862D01*
X112267503Y-125110578D01*
X112732497Y-125110578D01*
X113188555Y-125019862D01*
X113618153Y-124841917D01*
X114004781Y-124583581D01*
X114333581Y-124254781D01*
X114591917Y-123868153D01*
X114769862Y-123438555D01*
X114860578Y-122982497D01*
X114860578Y-122627000D01*
X128648001Y-122627000D01*
X128648001Y-134854195D01*
X123854198Y-139648000D01*
X122392231Y-139648000D01*
X122434983Y-139625149D01*
X122621817Y-139471817D01*
X122775149Y-139284983D01*
X122889084Y-139071824D01*
X122954987Y-138854570D01*
X123040808Y-138808698D01*
X123242870Y-138642870D01*
X123284425Y-138592235D01*
X125432239Y-136444422D01*
X125482869Y-136402871D01*
X125546323Y-136325552D01*
X125648697Y-136200810D01*
X125771918Y-135970279D01*
X125847798Y-135720138D01*
X125866999Y-135525185D01*
X125866999Y-135525175D01*
X125873418Y-135460001D01*
X125866999Y-135394827D01*
X125866999Y-133094130D01*
X125884298Y-133116010D01*
X126107059Y-133305718D01*
X126362550Y-133448323D01*
X126640952Y-133538344D01*
X126873000Y-133411354D01*
X126873000Y-132207000D01*
X127127000Y-132207000D01*
X127127000Y-133411354D01*
X127359048Y-133538344D01*
X127637450Y-133448323D01*
X127892941Y-133305718D01*
X128115702Y-133116010D01*
X128297172Y-132886488D01*
X128430378Y-132625973D01*
X128491400Y-132438264D01*
X128370195Y-132207000D01*
X127127000Y-132207000D01*
X126873000Y-132207000D01*
X126853000Y-132207000D01*
X126853000Y-131953000D01*
X126873000Y-131953000D01*
X126873000Y-131933000D01*
X127127000Y-131933000D01*
X127127000Y-131953000D01*
X128370195Y-131953000D01*
X128491400Y-131721736D01*
X128430378Y-131534027D01*
X128297172Y-131273512D01*
X128115702Y-131043990D01*
X127892941Y-130854282D01*
X127834605Y-130821721D01*
X127942870Y-130732870D01*
X128108698Y-130530808D01*
X128231919Y-130300278D01*
X128307799Y-130050137D01*
X128333420Y-129790000D01*
X128307799Y-129529863D01*
X128231919Y-129279722D01*
X128108698Y-129049192D01*
X127942870Y-128847130D01*
X127748156Y-128687332D01*
X127900000Y-128687332D01*
X127964103Y-128681018D01*
X128025743Y-128662320D01*
X128082550Y-128631956D01*
X128132343Y-128591093D01*
X128173206Y-128541300D01*
X128203570Y-128484493D01*
X128222268Y-128422853D01*
X128228582Y-128358750D01*
X128228582Y-126641250D01*
X128222268Y-126577147D01*
X128203570Y-126515507D01*
X128173206Y-126458700D01*
X128132343Y-126408907D01*
X128082550Y-126368044D01*
X128025743Y-126337680D01*
X127964103Y-126318982D01*
X127900000Y-126312668D01*
X126100000Y-126312668D01*
X126035897Y-126318982D01*
X125974257Y-126337680D01*
X125917450Y-126368044D01*
X125867657Y-126408907D01*
X125826794Y-126458700D01*
X125796430Y-126515507D01*
X125777732Y-126577147D01*
X125771418Y-126641250D01*
X125771418Y-128358750D01*
X125777732Y-128422853D01*
X125796430Y-128484493D01*
X125826794Y-128541300D01*
X125853661Y-128574038D01*
X125768250Y-128619691D01*
X125652984Y-128681302D01*
X125501554Y-128805577D01*
X125501547Y-128805584D01*
X125450923Y-128847130D01*
X125409376Y-128897755D01*
X123647764Y-130659369D01*
X123597129Y-130700924D01*
X123535311Y-130776250D01*
X123431301Y-130902986D01*
X123308081Y-131133516D01*
X123308080Y-131133517D01*
X123274364Y-131244664D01*
X123115702Y-131043990D01*
X122965123Y-130915754D01*
X123051265Y-130810790D01*
X123108697Y-130740809D01*
X123231919Y-130510277D01*
X123237790Y-130490923D01*
X123307799Y-130260136D01*
X123327000Y-130065183D01*
X123327000Y-130065172D01*
X123333419Y-130000001D01*
X123327000Y-129934829D01*
X123327000Y-129724816D01*
X123307799Y-129529863D01*
X123231919Y-129279722D01*
X123108698Y-129049192D01*
X122942870Y-128847130D01*
X122748155Y-128687332D01*
X122900000Y-128687332D01*
X122964103Y-128681018D01*
X123025743Y-128662320D01*
X123082550Y-128631956D01*
X123132343Y-128591093D01*
X123173206Y-128541300D01*
X123203570Y-128484493D01*
X123222268Y-128422853D01*
X123228582Y-128358750D01*
X123228582Y-126641250D01*
X123222268Y-126577147D01*
X123203570Y-126515507D01*
X123173206Y-126458700D01*
X123132343Y-126408907D01*
X123082550Y-126368044D01*
X123025743Y-126337680D01*
X122964103Y-126318982D01*
X122900000Y-126312668D01*
X121100000Y-126312668D01*
X121035897Y-126318982D01*
X120974257Y-126337680D01*
X120917450Y-126368044D01*
X120867657Y-126408907D01*
X120826794Y-126458700D01*
X120796430Y-126515507D01*
X120777732Y-126577147D01*
X120771418Y-126641250D01*
X120771418Y-128358750D01*
X120777732Y-128422853D01*
X120796430Y-128484493D01*
X120826794Y-128541300D01*
X120867657Y-128591093D01*
X120917450Y-128631956D01*
X120974257Y-128662320D01*
X121035897Y-128681018D01*
X121100000Y-128687332D01*
X121251844Y-128687332D01*
X121194687Y-128734240D01*
X121187726Y-128734240D01*
X121122552Y-128727821D01*
X121057378Y-128734240D01*
X121057369Y-128734240D01*
X120862416Y-128753441D01*
X120690545Y-128805578D01*
X120612275Y-128829321D01*
X120381743Y-128952543D01*
X120263975Y-129049193D01*
X120179683Y-129118370D01*
X120138132Y-129169000D01*
X118180803Y-131126330D01*
X118115702Y-131043990D01*
X117892941Y-130854282D01*
X117834605Y-130821721D01*
X117942870Y-130732870D01*
X118108698Y-130530808D01*
X118231919Y-130300278D01*
X118307799Y-130050137D01*
X118333420Y-129790000D01*
X118307799Y-129529863D01*
X118231919Y-129279722D01*
X118108698Y-129049192D01*
X117942870Y-128847130D01*
X117748156Y-128687332D01*
X117900000Y-128687332D01*
X117964103Y-128681018D01*
X118025743Y-128662320D01*
X118082550Y-128631956D01*
X118132343Y-128591093D01*
X118173206Y-128541300D01*
X118203570Y-128484493D01*
X118222268Y-128422853D01*
X118228582Y-128358750D01*
X118228582Y-126641250D01*
X118222268Y-126577147D01*
X118203570Y-126515507D01*
X118173206Y-126458700D01*
X118132343Y-126408907D01*
X118082550Y-126368044D01*
X118025743Y-126337680D01*
X117964103Y-126318982D01*
X117900000Y-126312668D01*
X116100000Y-126312668D01*
X116035897Y-126318982D01*
X115974257Y-126337680D01*
X115917450Y-126368044D01*
X115867657Y-126408907D01*
X115826794Y-126458700D01*
X115796430Y-126515507D01*
X115777732Y-126577147D01*
X115771418Y-126641250D01*
X115771418Y-128358750D01*
X115777732Y-128422853D01*
X115796430Y-128484493D01*
X115826794Y-128541300D01*
X115853661Y-128574038D01*
X115652983Y-128681303D01*
X115501555Y-128805577D01*
X115450923Y-128847130D01*
X115409372Y-128897760D01*
X113857765Y-130449368D01*
X113807130Y-130490923D01*
X113756588Y-130552509D01*
X113641302Y-130692985D01*
X113520295Y-130919374D01*
X113518081Y-130923516D01*
X113442201Y-131173657D01*
X113423000Y-131368610D01*
X113423000Y-131368619D01*
X113416581Y-131433793D01*
X113423000Y-131498967D01*
X113423000Y-131519598D01*
X113297172Y-131273512D01*
X113115702Y-131043990D01*
X112965123Y-130915754D01*
X113051265Y-130810790D01*
X113108697Y-130740809D01*
X113231919Y-130510277D01*
X113237790Y-130490923D01*
X113307799Y-130260136D01*
X113327000Y-130065183D01*
X113327000Y-130065172D01*
X113333419Y-130000001D01*
X113327000Y-129934829D01*
X113327000Y-129724816D01*
X113307799Y-129529863D01*
X113231919Y-129279722D01*
X113108698Y-129049192D01*
X112942870Y-128847130D01*
X112748155Y-128687332D01*
X112900000Y-128687332D01*
X112964103Y-128681018D01*
X113025743Y-128662320D01*
X113082550Y-128631956D01*
X113132343Y-128591093D01*
X113173206Y-128541300D01*
X113203570Y-128484493D01*
X113222268Y-128422853D01*
X113228582Y-128358750D01*
X113228582Y-126641250D01*
X113222268Y-126577147D01*
X113203570Y-126515507D01*
X113173206Y-126458700D01*
X113132343Y-126408907D01*
X113082550Y-126368044D01*
X113025743Y-126337680D01*
X112964103Y-126318982D01*
X112900000Y-126312668D01*
X111100000Y-126312668D01*
X111035897Y-126318982D01*
X110974257Y-126337680D01*
X110917450Y-126368044D01*
X110867657Y-126408907D01*
X110826794Y-126458700D01*
X110796430Y-126515507D01*
X110777732Y-126577147D01*
X110771418Y-126641250D01*
X110771418Y-128358750D01*
X110777732Y-128422853D01*
X110796430Y-128484493D01*
X110826794Y-128541300D01*
X110867657Y-128591093D01*
X110917450Y-128631956D01*
X110974257Y-128662320D01*
X111035897Y-128681018D01*
X111100000Y-128687332D01*
X111251844Y-128687332D01*
X111194687Y-128734240D01*
X111187727Y-128734240D01*
X111122553Y-128727821D01*
X111057379Y-128734240D01*
X111057369Y-128734240D01*
X110862416Y-128753441D01*
X110612275Y-128829321D01*
X110497010Y-128890932D01*
X110381744Y-128952542D01*
X110230314Y-129076817D01*
X110230307Y-129076824D01*
X110179683Y-129118370D01*
X110138136Y-129168995D01*
X109047755Y-130259378D01*
X108997120Y-130300933D01*
X108915817Y-130400001D01*
X108831292Y-130502995D01*
X108708422Y-130732870D01*
X108708071Y-130733526D01*
X108632191Y-130983667D01*
X108612990Y-131178620D01*
X108612990Y-131178629D01*
X108606571Y-131243803D01*
X108612990Y-131308977D01*
X108612991Y-135786330D01*
X106177000Y-133350340D01*
X106177000Y-133344756D01*
X106362550Y-133448323D01*
X106640952Y-133538344D01*
X106873000Y-133411354D01*
X106873000Y-132207000D01*
X107127000Y-132207000D01*
X107127000Y-133411354D01*
X107359048Y-133538344D01*
X107637450Y-133448323D01*
X107892941Y-133305718D01*
X108115702Y-133116010D01*
X108297172Y-132886488D01*
X108430378Y-132625973D01*
X108491400Y-132438264D01*
X108370195Y-132207000D01*
X107127000Y-132207000D01*
X106873000Y-132207000D01*
X106853000Y-132207000D01*
X106853000Y-131953000D01*
X106873000Y-131953000D01*
X106873000Y-131933000D01*
X107127000Y-131933000D01*
X107127000Y-131953000D01*
X108370195Y-131953000D01*
X108491400Y-131721736D01*
X108430378Y-131534027D01*
X108297172Y-131273512D01*
X108115702Y-131043990D01*
X107892941Y-130854282D01*
X107834605Y-130821721D01*
X107942870Y-130732870D01*
X108108698Y-130530808D01*
X108231919Y-130300278D01*
X108307799Y-130050137D01*
X108333420Y-129790000D01*
X108307799Y-129529863D01*
X108231919Y-129279722D01*
X108108698Y-129049192D01*
X107942870Y-128847130D01*
X107748156Y-128687332D01*
X107900000Y-128687332D01*
X107964103Y-128681018D01*
X108025743Y-128662320D01*
X108082550Y-128631956D01*
X108132343Y-128591093D01*
X108173206Y-128541300D01*
X108203570Y-128484493D01*
X108222268Y-128422853D01*
X108228582Y-128358750D01*
X108228582Y-126641250D01*
X108222268Y-126577147D01*
X108203570Y-126515507D01*
X108173206Y-126458700D01*
X108132343Y-126408907D01*
X108082550Y-126368044D01*
X108025743Y-126337680D01*
X107964103Y-126318982D01*
X107900000Y-126312668D01*
X106100000Y-126312668D01*
X106035897Y-126318982D01*
X105974257Y-126337680D01*
X105917450Y-126368044D01*
X105867657Y-126408907D01*
X105826794Y-126458700D01*
X105796430Y-126515507D01*
X105777732Y-126577147D01*
X105771418Y-126641250D01*
X105771418Y-128358750D01*
X105777732Y-128422853D01*
X105796430Y-128484493D01*
X105826794Y-128541300D01*
X105853661Y-128574038D01*
X105652984Y-128681302D01*
X105501555Y-128805577D01*
X105450923Y-128847130D01*
X105409372Y-128897760D01*
X103957765Y-130349368D01*
X103907130Y-130390923D01*
X103825063Y-130490923D01*
X103741302Y-130592985D01*
X103643345Y-130776250D01*
X103618081Y-130823516D01*
X103542201Y-131073657D01*
X103523000Y-131268610D01*
X103523000Y-131268619D01*
X103516581Y-131333793D01*
X103523000Y-131398967D01*
X103523000Y-131872998D01*
X103370196Y-131872998D01*
X103491400Y-131641736D01*
X103430378Y-131454027D01*
X103297172Y-131193512D01*
X103115702Y-130963990D01*
X102892941Y-130774282D01*
X102834605Y-130741721D01*
X102942870Y-130652870D01*
X103108698Y-130450808D01*
X103231919Y-130220278D01*
X103307799Y-129970137D01*
X103333420Y-129710000D01*
X103307799Y-129449863D01*
X103231919Y-129199722D01*
X103108698Y-128969192D01*
X102942870Y-128767130D01*
X102748156Y-128607332D01*
X102900000Y-128607332D01*
X102964103Y-128601018D01*
X103025743Y-128582320D01*
X103082550Y-128551956D01*
X103132343Y-128511093D01*
X103173206Y-128461300D01*
X103203570Y-128404493D01*
X103222268Y-128342853D01*
X103228582Y-128278750D01*
X103228582Y-126561250D01*
X103222268Y-126497147D01*
X103203570Y-126435507D01*
X103173206Y-126378700D01*
X103132343Y-126328907D01*
X103082550Y-126288044D01*
X103025743Y-126257680D01*
X102964103Y-126238982D01*
X102900000Y-126232668D01*
X101100000Y-126232668D01*
X101035897Y-126238982D01*
X100974257Y-126257680D01*
X100917450Y-126288044D01*
X100867657Y-126328907D01*
X100826794Y-126378700D01*
X100796430Y-126435507D01*
X100777732Y-126497147D01*
X100771418Y-126561250D01*
X100771418Y-128278750D01*
X100777732Y-128342853D01*
X100796430Y-128404493D01*
X100826794Y-128461300D01*
X100853661Y-128494038D01*
X100652984Y-128601302D01*
X100501554Y-128725578D01*
X100450923Y-128767130D01*
X100409372Y-128817760D01*
X99047755Y-130179378D01*
X98997120Y-130220933D01*
X98932004Y-130300278D01*
X98831292Y-130422995D01*
X98719305Y-130632509D01*
X98708071Y-130653526D01*
X98632191Y-130903667D01*
X98612990Y-131098620D01*
X98612990Y-131098629D01*
X98606571Y-131163803D01*
X98612990Y-131228977D01*
X98612990Y-132771023D01*
X98606571Y-132836197D01*
X98612990Y-132901371D01*
X98612990Y-132901381D01*
X98629269Y-133066653D01*
X98632192Y-133096334D01*
X98708071Y-133346474D01*
X98831292Y-133577005D01*
X98955568Y-133728435D01*
X98997121Y-133779067D01*
X99047751Y-133820618D01*
X100622998Y-135395866D01*
X100622998Y-135429621D01*
X100385260Y-135308964D01*
X100279913Y-135333245D01*
X100002796Y-135453138D01*
X99754394Y-135624790D01*
X99544252Y-135841604D01*
X99380446Y-136095249D01*
X99269271Y-136375977D01*
X99215000Y-136673000D01*
X99215000Y-137573000D01*
X100623000Y-137573000D01*
X100623000Y-137553000D01*
X100877000Y-137553000D01*
X100877000Y-137573000D01*
X102285000Y-137573000D01*
X102285000Y-137057869D01*
X102923000Y-137695869D01*
X102923000Y-137765184D01*
X102942201Y-137960137D01*
X103018081Y-138210278D01*
X103023000Y-138219481D01*
X103023000Y-138660268D01*
X103040756Y-138840534D01*
X103110917Y-139071824D01*
X103224852Y-139284983D01*
X103378184Y-139471817D01*
X103565018Y-139625149D01*
X103607770Y-139648000D01*
X101868901Y-139648000D01*
X101955748Y-139558396D01*
X102119554Y-139304751D01*
X102230729Y-139024023D01*
X102285000Y-138727000D01*
X102285000Y-137827000D01*
X100877000Y-137827000D01*
X100877000Y-137847000D01*
X100623000Y-137847000D01*
X100623000Y-137827000D01*
X99215000Y-137827000D01*
X99215000Y-138727000D01*
X99269271Y-139024023D01*
X99380446Y-139304751D01*
X99544252Y-139558396D01*
X99631099Y-139648000D01*
X98318244Y-139648000D01*
X98381073Y-139571443D01*
X98434540Y-139471414D01*
X98467465Y-139362876D01*
X98478582Y-139250000D01*
X98478582Y-136150000D01*
X98467465Y-136037124D01*
X98434540Y-135928586D01*
X98381073Y-135828557D01*
X98309119Y-135740881D01*
X98221443Y-135668927D01*
X98121414Y-135615460D01*
X98012876Y-135582535D01*
X97900000Y-135571418D01*
X96600000Y-135571418D01*
X96487124Y-135582535D01*
X96378586Y-135615460D01*
X96278557Y-135668927D01*
X96190881Y-135740881D01*
X96118927Y-135828557D01*
X96065460Y-135928586D01*
X96032535Y-136037124D01*
X96021418Y-136150000D01*
X96021418Y-136173000D01*
X94418290Y-136173000D01*
X92726700Y-134481411D01*
X92726700Y-130628582D01*
X93450000Y-130628582D01*
X93562876Y-130617465D01*
X93671414Y-130584540D01*
X93771443Y-130531073D01*
X93859119Y-130459119D01*
X93931073Y-130371443D01*
X93969260Y-130300000D01*
X94461928Y-130300000D01*
X94474188Y-130424482D01*
X94510498Y-130544180D01*
X94569463Y-130654494D01*
X94648815Y-130751185D01*
X94745506Y-130830537D01*
X94855820Y-130889502D01*
X94975518Y-130925812D01*
X95100000Y-130938072D01*
X96314250Y-130935000D01*
X96473000Y-130776250D01*
X96473000Y-129627000D01*
X96727000Y-129627000D01*
X96727000Y-130776250D01*
X96885750Y-130935000D01*
X98100000Y-130938072D01*
X98224482Y-130925812D01*
X98344180Y-130889502D01*
X98454494Y-130830537D01*
X98551185Y-130751185D01*
X98630537Y-130654494D01*
X98689502Y-130544180D01*
X98725812Y-130424482D01*
X98738072Y-130300000D01*
X98735000Y-129785750D01*
X98576250Y-129627000D01*
X96727000Y-129627000D01*
X96473000Y-129627000D01*
X94623750Y-129627000D01*
X94465000Y-129785750D01*
X94461928Y-130300000D01*
X93969260Y-130300000D01*
X93984540Y-130271414D01*
X94017465Y-130162876D01*
X94028582Y-130050000D01*
X94028582Y-128950000D01*
X94017465Y-128837124D01*
X93984540Y-128728586D01*
X93969261Y-128700000D01*
X94461928Y-128700000D01*
X94465000Y-129214250D01*
X94623750Y-129373000D01*
X96473000Y-129373000D01*
X96473000Y-128223750D01*
X96727000Y-128223750D01*
X96727000Y-129373000D01*
X98576250Y-129373000D01*
X98735000Y-129214250D01*
X98738072Y-128700000D01*
X98725812Y-128575518D01*
X98689502Y-128455820D01*
X98630537Y-128345506D01*
X98551185Y-128248815D01*
X98454494Y-128169463D01*
X98344180Y-128110498D01*
X98224482Y-128074188D01*
X98100000Y-128061928D01*
X96885750Y-128065000D01*
X96727000Y-128223750D01*
X96473000Y-128223750D01*
X96314250Y-128065000D01*
X95100000Y-128061928D01*
X94975518Y-128074188D01*
X94855820Y-128110498D01*
X94745506Y-128169463D01*
X94648815Y-128248815D01*
X94569463Y-128345506D01*
X94510498Y-128455820D01*
X94474188Y-128575518D01*
X94461928Y-128700000D01*
X93969261Y-128700000D01*
X93931073Y-128628557D01*
X93859119Y-128540881D01*
X93771443Y-128468927D01*
X93671414Y-128415460D01*
X93562876Y-128382535D01*
X93450000Y-128371418D01*
X90950000Y-128371418D01*
X90837124Y-128382535D01*
X90728586Y-128415460D01*
X90628557Y-128468927D01*
X90540881Y-128540881D01*
X90468927Y-128628557D01*
X90415460Y-128728586D01*
X90382535Y-128837124D01*
X90371418Y-128950000D01*
X90371418Y-130050000D01*
X90382535Y-130162876D01*
X90415460Y-130271414D01*
X90468927Y-130371443D01*
X90540881Y-130459119D01*
X90628557Y-130531073D01*
X90728586Y-130584540D01*
X90837124Y-130617465D01*
X90950000Y-130628582D01*
X91672700Y-130628582D01*
X91672701Y-134673809D01*
X91670151Y-134699700D01*
X91680326Y-134803009D01*
X91710461Y-134902349D01*
X91759396Y-134993901D01*
X91759397Y-134993902D01*
X91825253Y-135074148D01*
X91845362Y-135090651D01*
X93809049Y-137054339D01*
X93825552Y-137074448D01*
X93905798Y-137140304D01*
X93997350Y-137189239D01*
X94096690Y-137219374D01*
X94174119Y-137227000D01*
X94174121Y-137227000D01*
X94199999Y-137229549D01*
X94225877Y-137227000D01*
X96021418Y-137227000D01*
X96021418Y-139250000D01*
X96032535Y-139362876D01*
X96065460Y-139471414D01*
X96118927Y-139571443D01*
X96181756Y-139648000D01*
X95145804Y-139648000D01*
X90352000Y-134854198D01*
X90352000Y-124127000D01*
X99000000Y-124127000D01*
X99024776Y-124124560D01*
X99048601Y-124117333D01*
X99070557Y-124105597D01*
X99089803Y-124089803D01*
X99105597Y-124070557D01*
X99117333Y-124048601D01*
X99124560Y-124024776D01*
X99127000Y-124000000D01*
X99127000Y-122627000D01*
X110139422Y-122627000D01*
X110139422Y-122982497D01*
X110139422Y-122982497D01*
G37*
X110139422Y-122982497D02*
X110230138Y-123438555D01*
X110408083Y-123868153D01*
X110666419Y-124254781D01*
X110995219Y-124583581D01*
X111381847Y-124841917D01*
X111811445Y-125019862D01*
X112267503Y-125110578D01*
X112732497Y-125110578D01*
X113188555Y-125019862D01*
X113618153Y-124841917D01*
X114004781Y-124583581D01*
X114333581Y-124254781D01*
X114591917Y-123868153D01*
X114769862Y-123438555D01*
X114860578Y-122982497D01*
X114860578Y-122627000D01*
X128648001Y-122627000D01*
X128648001Y-134854195D01*
X123854198Y-139648000D01*
X122392231Y-139648000D01*
X122434983Y-139625149D01*
X122621817Y-139471817D01*
X122775149Y-139284983D01*
X122889084Y-139071824D01*
X122954987Y-138854570D01*
X123040808Y-138808698D01*
X123242870Y-138642870D01*
X123284425Y-138592235D01*
X125432239Y-136444422D01*
X125482869Y-136402871D01*
X125546323Y-136325552D01*
X125648697Y-136200810D01*
X125771918Y-135970279D01*
X125847798Y-135720138D01*
X125866999Y-135525185D01*
X125866999Y-135525175D01*
X125873418Y-135460001D01*
X125866999Y-135394827D01*
X125866999Y-133094130D01*
X125884298Y-133116010D01*
X126107059Y-133305718D01*
X126362550Y-133448323D01*
X126640952Y-133538344D01*
X126873000Y-133411354D01*
X126873000Y-132207000D01*
X127127000Y-132207000D01*
X127127000Y-133411354D01*
X127359048Y-133538344D01*
X127637450Y-133448323D01*
X127892941Y-133305718D01*
X128115702Y-133116010D01*
X128297172Y-132886488D01*
X128430378Y-132625973D01*
X128491400Y-132438264D01*
X128370195Y-132207000D01*
X127127000Y-132207000D01*
X126873000Y-132207000D01*
X126853000Y-132207000D01*
X126853000Y-131953000D01*
X126873000Y-131953000D01*
X126873000Y-131933000D01*
X127127000Y-131933000D01*
X127127000Y-131953000D01*
X128370195Y-131953000D01*
X128491400Y-131721736D01*
X128430378Y-131534027D01*
X128297172Y-131273512D01*
X128115702Y-131043990D01*
X127892941Y-130854282D01*
X127834605Y-130821721D01*
X127942870Y-130732870D01*
X128108698Y-130530808D01*
X128231919Y-130300278D01*
X128307799Y-130050137D01*
X128333420Y-129790000D01*
X128307799Y-129529863D01*
X128231919Y-129279722D01*
X128108698Y-129049192D01*
X127942870Y-128847130D01*
X127748156Y-128687332D01*
X127900000Y-128687332D01*
X127964103Y-128681018D01*
X128025743Y-128662320D01*
X128082550Y-128631956D01*
X128132343Y-128591093D01*
X128173206Y-128541300D01*
X128203570Y-128484493D01*
X128222268Y-128422853D01*
X128228582Y-128358750D01*
X128228582Y-126641250D01*
X128222268Y-126577147D01*
X128203570Y-126515507D01*
X128173206Y-126458700D01*
X128132343Y-126408907D01*
X128082550Y-126368044D01*
X128025743Y-126337680D01*
X127964103Y-126318982D01*
X127900000Y-126312668D01*
X126100000Y-126312668D01*
X126035897Y-126318982D01*
X125974257Y-126337680D01*
X125917450Y-126368044D01*
X125867657Y-126408907D01*
X125826794Y-126458700D01*
X125796430Y-126515507D01*
X125777732Y-126577147D01*
X125771418Y-126641250D01*
X125771418Y-128358750D01*
X125777732Y-128422853D01*
X125796430Y-128484493D01*
X125826794Y-128541300D01*
X125853661Y-128574038D01*
X125768250Y-128619691D01*
X125652984Y-128681302D01*
X125501554Y-128805577D01*
X125501547Y-128805584D01*
X125450923Y-128847130D01*
X125409376Y-128897755D01*
X123647764Y-130659369D01*
X123597129Y-130700924D01*
X123535311Y-130776250D01*
X123431301Y-130902986D01*
X123308081Y-131133516D01*
X123308080Y-131133517D01*
X123274364Y-131244664D01*
X123115702Y-131043990D01*
X122965123Y-130915754D01*
X123051265Y-130810790D01*
X123108697Y-130740809D01*
X123231919Y-130510277D01*
X123237790Y-130490923D01*
X123307799Y-130260136D01*
X123327000Y-130065183D01*
X123327000Y-130065172D01*
X123333419Y-130000001D01*
X123327000Y-129934829D01*
X123327000Y-129724816D01*
X123307799Y-129529863D01*
X123231919Y-129279722D01*
X123108698Y-129049192D01*
X122942870Y-128847130D01*
X122748155Y-128687332D01*
X122900000Y-128687332D01*
X122964103Y-128681018D01*
X123025743Y-128662320D01*
X123082550Y-128631956D01*
X123132343Y-128591093D01*
X123173206Y-128541300D01*
X123203570Y-128484493D01*
X123222268Y-128422853D01*
X123228582Y-128358750D01*
X123228582Y-126641250D01*
X123222268Y-126577147D01*
X123203570Y-126515507D01*
X123173206Y-126458700D01*
X123132343Y-126408907D01*
X123082550Y-126368044D01*
X123025743Y-126337680D01*
X122964103Y-126318982D01*
X122900000Y-126312668D01*
X121100000Y-126312668D01*
X121035897Y-126318982D01*
X120974257Y-126337680D01*
X120917450Y-126368044D01*
X120867657Y-126408907D01*
X120826794Y-126458700D01*
X120796430Y-126515507D01*
X120777732Y-126577147D01*
X120771418Y-126641250D01*
X120771418Y-128358750D01*
X120777732Y-128422853D01*
X120796430Y-128484493D01*
X120826794Y-128541300D01*
X120867657Y-128591093D01*
X120917450Y-128631956D01*
X120974257Y-128662320D01*
X121035897Y-128681018D01*
X121100000Y-128687332D01*
X121251844Y-128687332D01*
X121194687Y-128734240D01*
X121187726Y-128734240D01*
X121122552Y-128727821D01*
X121057378Y-128734240D01*
X121057369Y-128734240D01*
X120862416Y-128753441D01*
X120690545Y-128805578D01*
X120612275Y-128829321D01*
X120381743Y-128952543D01*
X120263975Y-129049193D01*
X120179683Y-129118370D01*
X120138132Y-129169000D01*
X118180803Y-131126330D01*
X118115702Y-131043990D01*
X117892941Y-130854282D01*
X117834605Y-130821721D01*
X117942870Y-130732870D01*
X118108698Y-130530808D01*
X118231919Y-130300278D01*
X118307799Y-130050137D01*
X118333420Y-129790000D01*
X118307799Y-129529863D01*
X118231919Y-129279722D01*
X118108698Y-129049192D01*
X117942870Y-128847130D01*
X117748156Y-128687332D01*
X117900000Y-128687332D01*
X117964103Y-128681018D01*
X118025743Y-128662320D01*
X118082550Y-128631956D01*
X118132343Y-128591093D01*
X118173206Y-128541300D01*
X118203570Y-128484493D01*
X118222268Y-128422853D01*
X118228582Y-128358750D01*
X118228582Y-126641250D01*
X118222268Y-126577147D01*
X118203570Y-126515507D01*
X118173206Y-126458700D01*
X118132343Y-126408907D01*
X118082550Y-126368044D01*
X118025743Y-126337680D01*
X117964103Y-126318982D01*
X117900000Y-126312668D01*
X116100000Y-126312668D01*
X116035897Y-126318982D01*
X115974257Y-126337680D01*
X115917450Y-126368044D01*
X115867657Y-126408907D01*
X115826794Y-126458700D01*
X115796430Y-126515507D01*
X115777732Y-126577147D01*
X115771418Y-126641250D01*
X115771418Y-128358750D01*
X115777732Y-128422853D01*
X115796430Y-128484493D01*
X115826794Y-128541300D01*
X115853661Y-128574038D01*
X115652983Y-128681303D01*
X115501555Y-128805577D01*
X115450923Y-128847130D01*
X115409372Y-128897760D01*
X113857765Y-130449368D01*
X113807130Y-130490923D01*
X113756588Y-130552509D01*
X113641302Y-130692985D01*
X113520295Y-130919374D01*
X113518081Y-130923516D01*
X113442201Y-131173657D01*
X113423000Y-131368610D01*
X113423000Y-131368619D01*
X113416581Y-131433793D01*
X113423000Y-131498967D01*
X113423000Y-131519598D01*
X113297172Y-131273512D01*
X113115702Y-131043990D01*
X112965123Y-130915754D01*
X113051265Y-130810790D01*
X113108697Y-130740809D01*
X113231919Y-130510277D01*
X113237790Y-130490923D01*
X113307799Y-130260136D01*
X113327000Y-130065183D01*
X113327000Y-130065172D01*
X113333419Y-130000001D01*
X113327000Y-129934829D01*
X113327000Y-129724816D01*
X113307799Y-129529863D01*
X113231919Y-129279722D01*
X113108698Y-129049192D01*
X112942870Y-128847130D01*
X112748155Y-128687332D01*
X112900000Y-128687332D01*
X112964103Y-128681018D01*
X113025743Y-128662320D01*
X113082550Y-128631956D01*
X113132343Y-128591093D01*
X113173206Y-128541300D01*
X113203570Y-128484493D01*
X113222268Y-128422853D01*
X113228582Y-128358750D01*
X113228582Y-126641250D01*
X113222268Y-126577147D01*
X113203570Y-126515507D01*
X113173206Y-126458700D01*
X113132343Y-126408907D01*
X113082550Y-126368044D01*
X113025743Y-126337680D01*
X112964103Y-126318982D01*
X112900000Y-126312668D01*
X111100000Y-126312668D01*
X111035897Y-126318982D01*
X110974257Y-126337680D01*
X110917450Y-126368044D01*
X110867657Y-126408907D01*
X110826794Y-126458700D01*
X110796430Y-126515507D01*
X110777732Y-126577147D01*
X110771418Y-126641250D01*
X110771418Y-128358750D01*
X110777732Y-128422853D01*
X110796430Y-128484493D01*
X110826794Y-128541300D01*
X110867657Y-128591093D01*
X110917450Y-128631956D01*
X110974257Y-128662320D01*
X111035897Y-128681018D01*
X111100000Y-128687332D01*
X111251844Y-128687332D01*
X111194687Y-128734240D01*
X111187727Y-128734240D01*
X111122553Y-128727821D01*
X111057379Y-128734240D01*
X111057369Y-128734240D01*
X110862416Y-128753441D01*
X110612275Y-128829321D01*
X110497010Y-128890932D01*
X110381744Y-128952542D01*
X110230314Y-129076817D01*
X110230307Y-129076824D01*
X110179683Y-129118370D01*
X110138136Y-129168995D01*
X109047755Y-130259378D01*
X108997120Y-130300933D01*
X108915817Y-130400001D01*
X108831292Y-130502995D01*
X108708422Y-130732870D01*
X108708071Y-130733526D01*
X108632191Y-130983667D01*
X108612990Y-131178620D01*
X108612990Y-131178629D01*
X108606571Y-131243803D01*
X108612990Y-131308977D01*
X108612991Y-135786330D01*
X106177000Y-133350340D01*
X106177000Y-133344756D01*
X106362550Y-133448323D01*
X106640952Y-133538344D01*
X106873000Y-133411354D01*
X106873000Y-132207000D01*
X107127000Y-132207000D01*
X107127000Y-133411354D01*
X107359048Y-133538344D01*
X107637450Y-133448323D01*
X107892941Y-133305718D01*
X108115702Y-133116010D01*
X108297172Y-132886488D01*
X108430378Y-132625973D01*
X108491400Y-132438264D01*
X108370195Y-132207000D01*
X107127000Y-132207000D01*
X106873000Y-132207000D01*
X106853000Y-132207000D01*
X106853000Y-131953000D01*
X106873000Y-131953000D01*
X106873000Y-131933000D01*
X107127000Y-131933000D01*
X107127000Y-131953000D01*
X108370195Y-131953000D01*
X108491400Y-131721736D01*
X108430378Y-131534027D01*
X108297172Y-131273512D01*
X108115702Y-131043990D01*
X107892941Y-130854282D01*
X107834605Y-130821721D01*
X107942870Y-130732870D01*
X108108698Y-130530808D01*
X108231919Y-130300278D01*
X108307799Y-130050137D01*
X108333420Y-129790000D01*
X108307799Y-129529863D01*
X108231919Y-129279722D01*
X108108698Y-129049192D01*
X107942870Y-128847130D01*
X107748156Y-128687332D01*
X107900000Y-128687332D01*
X107964103Y-128681018D01*
X108025743Y-128662320D01*
X108082550Y-128631956D01*
X108132343Y-128591093D01*
X108173206Y-128541300D01*
X108203570Y-128484493D01*
X108222268Y-128422853D01*
X108228582Y-128358750D01*
X108228582Y-126641250D01*
X108222268Y-126577147D01*
X108203570Y-126515507D01*
X108173206Y-126458700D01*
X108132343Y-126408907D01*
X108082550Y-126368044D01*
X108025743Y-126337680D01*
X107964103Y-126318982D01*
X107900000Y-126312668D01*
X106100000Y-126312668D01*
X106035897Y-126318982D01*
X105974257Y-126337680D01*
X105917450Y-126368044D01*
X105867657Y-126408907D01*
X105826794Y-126458700D01*
X105796430Y-126515507D01*
X105777732Y-126577147D01*
X105771418Y-126641250D01*
X105771418Y-128358750D01*
X105777732Y-128422853D01*
X105796430Y-128484493D01*
X105826794Y-128541300D01*
X105853661Y-128574038D01*
X105652984Y-128681302D01*
X105501555Y-128805577D01*
X105450923Y-128847130D01*
X105409372Y-128897760D01*
X103957765Y-130349368D01*
X103907130Y-130390923D01*
X103825063Y-130490923D01*
X103741302Y-130592985D01*
X103643345Y-130776250D01*
X103618081Y-130823516D01*
X103542201Y-131073657D01*
X103523000Y-131268610D01*
X103523000Y-131268619D01*
X103516581Y-131333793D01*
X103523000Y-131398967D01*
X103523000Y-131872998D01*
X103370196Y-131872998D01*
X103491400Y-131641736D01*
X103430378Y-131454027D01*
X103297172Y-131193512D01*
X103115702Y-130963990D01*
X102892941Y-130774282D01*
X102834605Y-130741721D01*
X102942870Y-130652870D01*
X103108698Y-130450808D01*
X103231919Y-130220278D01*
X103307799Y-129970137D01*
X103333420Y-129710000D01*
X103307799Y-129449863D01*
X103231919Y-129199722D01*
X103108698Y-128969192D01*
X102942870Y-128767130D01*
X102748156Y-128607332D01*
X102900000Y-128607332D01*
X102964103Y-128601018D01*
X103025743Y-128582320D01*
X103082550Y-128551956D01*
X103132343Y-128511093D01*
X103173206Y-128461300D01*
X103203570Y-128404493D01*
X103222268Y-128342853D01*
X103228582Y-128278750D01*
X103228582Y-126561250D01*
X103222268Y-126497147D01*
X103203570Y-126435507D01*
X103173206Y-126378700D01*
X103132343Y-126328907D01*
X103082550Y-126288044D01*
X103025743Y-126257680D01*
X102964103Y-126238982D01*
X102900000Y-126232668D01*
X101100000Y-126232668D01*
X101035897Y-126238982D01*
X100974257Y-126257680D01*
X100917450Y-126288044D01*
X100867657Y-126328907D01*
X100826794Y-126378700D01*
X100796430Y-126435507D01*
X100777732Y-126497147D01*
X100771418Y-126561250D01*
X100771418Y-128278750D01*
X100777732Y-128342853D01*
X100796430Y-128404493D01*
X100826794Y-128461300D01*
X100853661Y-128494038D01*
X100652984Y-128601302D01*
X100501554Y-128725578D01*
X100450923Y-128767130D01*
X100409372Y-128817760D01*
X99047755Y-130179378D01*
X98997120Y-130220933D01*
X98932004Y-130300278D01*
X98831292Y-130422995D01*
X98719305Y-130632509D01*
X98708071Y-130653526D01*
X98632191Y-130903667D01*
X98612990Y-131098620D01*
X98612990Y-131098629D01*
X98606571Y-131163803D01*
X98612990Y-131228977D01*
X98612990Y-132771023D01*
X98606571Y-132836197D01*
X98612990Y-132901371D01*
X98612990Y-132901381D01*
X98629269Y-133066653D01*
X98632192Y-133096334D01*
X98708071Y-133346474D01*
X98831292Y-133577005D01*
X98955568Y-133728435D01*
X98997121Y-133779067D01*
X99047751Y-133820618D01*
X100622998Y-135395866D01*
X100622998Y-135429621D01*
X100385260Y-135308964D01*
X100279913Y-135333245D01*
X100002796Y-135453138D01*
X99754394Y-135624790D01*
X99544252Y-135841604D01*
X99380446Y-136095249D01*
X99269271Y-136375977D01*
X99215000Y-136673000D01*
X99215000Y-137573000D01*
X100623000Y-137573000D01*
X100623000Y-137553000D01*
X100877000Y-137553000D01*
X100877000Y-137573000D01*
X102285000Y-137573000D01*
X102285000Y-137057869D01*
X102923000Y-137695869D01*
X102923000Y-137765184D01*
X102942201Y-137960137D01*
X103018081Y-138210278D01*
X103023000Y-138219481D01*
X103023000Y-138660268D01*
X103040756Y-138840534D01*
X103110917Y-139071824D01*
X103224852Y-139284983D01*
X103378184Y-139471817D01*
X103565018Y-139625149D01*
X103607770Y-139648000D01*
X101868901Y-139648000D01*
X101955748Y-139558396D01*
X102119554Y-139304751D01*
X102230729Y-139024023D01*
X102285000Y-138727000D01*
X102285000Y-137827000D01*
X100877000Y-137827000D01*
X100877000Y-137847000D01*
X100623000Y-137847000D01*
X100623000Y-137827000D01*
X99215000Y-137827000D01*
X99215000Y-138727000D01*
X99269271Y-139024023D01*
X99380446Y-139304751D01*
X99544252Y-139558396D01*
X99631099Y-139648000D01*
X98318244Y-139648000D01*
X98381073Y-139571443D01*
X98434540Y-139471414D01*
X98467465Y-139362876D01*
X98478582Y-139250000D01*
X98478582Y-136150000D01*
X98467465Y-136037124D01*
X98434540Y-135928586D01*
X98381073Y-135828557D01*
X98309119Y-135740881D01*
X98221443Y-135668927D01*
X98121414Y-135615460D01*
X98012876Y-135582535D01*
X97900000Y-135571418D01*
X96600000Y-135571418D01*
X96487124Y-135582535D01*
X96378586Y-135615460D01*
X96278557Y-135668927D01*
X96190881Y-135740881D01*
X96118927Y-135828557D01*
X96065460Y-135928586D01*
X96032535Y-136037124D01*
X96021418Y-136150000D01*
X96021418Y-136173000D01*
X94418290Y-136173000D01*
X92726700Y-134481411D01*
X92726700Y-130628582D01*
X93450000Y-130628582D01*
X93562876Y-130617465D01*
X93671414Y-130584540D01*
X93771443Y-130531073D01*
X93859119Y-130459119D01*
X93931073Y-130371443D01*
X93969260Y-130300000D01*
X94461928Y-130300000D01*
X94474188Y-130424482D01*
X94510498Y-130544180D01*
X94569463Y-130654494D01*
X94648815Y-130751185D01*
X94745506Y-130830537D01*
X94855820Y-130889502D01*
X94975518Y-130925812D01*
X95100000Y-130938072D01*
X96314250Y-130935000D01*
X96473000Y-130776250D01*
X96473000Y-129627000D01*
X96727000Y-129627000D01*
X96727000Y-130776250D01*
X96885750Y-130935000D01*
X98100000Y-130938072D01*
X98224482Y-130925812D01*
X98344180Y-130889502D01*
X98454494Y-130830537D01*
X98551185Y-130751185D01*
X98630537Y-130654494D01*
X98689502Y-130544180D01*
X98725812Y-130424482D01*
X98738072Y-130300000D01*
X98735000Y-129785750D01*
X98576250Y-129627000D01*
X96727000Y-129627000D01*
X96473000Y-129627000D01*
X94623750Y-129627000D01*
X94465000Y-129785750D01*
X94461928Y-130300000D01*
X93969260Y-130300000D01*
X93984540Y-130271414D01*
X94017465Y-130162876D01*
X94028582Y-130050000D01*
X94028582Y-128950000D01*
X94017465Y-128837124D01*
X93984540Y-128728586D01*
X93969261Y-128700000D01*
X94461928Y-128700000D01*
X94465000Y-129214250D01*
X94623750Y-129373000D01*
X96473000Y-129373000D01*
X96473000Y-128223750D01*
X96727000Y-128223750D01*
X96727000Y-129373000D01*
X98576250Y-129373000D01*
X98735000Y-129214250D01*
X98738072Y-128700000D01*
X98725812Y-128575518D01*
X98689502Y-128455820D01*
X98630537Y-128345506D01*
X98551185Y-128248815D01*
X98454494Y-128169463D01*
X98344180Y-128110498D01*
X98224482Y-128074188D01*
X98100000Y-128061928D01*
X96885750Y-128065000D01*
X96727000Y-128223750D01*
X96473000Y-128223750D01*
X96314250Y-128065000D01*
X95100000Y-128061928D01*
X94975518Y-128074188D01*
X94855820Y-128110498D01*
X94745506Y-128169463D01*
X94648815Y-128248815D01*
X94569463Y-128345506D01*
X94510498Y-128455820D01*
X94474188Y-128575518D01*
X94461928Y-128700000D01*
X93969261Y-128700000D01*
X93931073Y-128628557D01*
X93859119Y-128540881D01*
X93771443Y-128468927D01*
X93671414Y-128415460D01*
X93562876Y-128382535D01*
X93450000Y-128371418D01*
X90950000Y-128371418D01*
X90837124Y-128382535D01*
X90728586Y-128415460D01*
X90628557Y-128468927D01*
X90540881Y-128540881D01*
X90468927Y-128628557D01*
X90415460Y-128728586D01*
X90382535Y-128837124D01*
X90371418Y-128950000D01*
X90371418Y-130050000D01*
X90382535Y-130162876D01*
X90415460Y-130271414D01*
X90468927Y-130371443D01*
X90540881Y-130459119D01*
X90628557Y-130531073D01*
X90728586Y-130584540D01*
X90837124Y-130617465D01*
X90950000Y-130628582D01*
X91672700Y-130628582D01*
X91672701Y-134673809D01*
X91670151Y-134699700D01*
X91680326Y-134803009D01*
X91710461Y-134902349D01*
X91759396Y-134993901D01*
X91759397Y-134993902D01*
X91825253Y-135074148D01*
X91845362Y-135090651D01*
X93809049Y-137054339D01*
X93825552Y-137074448D01*
X93905798Y-137140304D01*
X93997350Y-137189239D01*
X94096690Y-137219374D01*
X94174119Y-137227000D01*
X94174121Y-137227000D01*
X94199999Y-137229549D01*
X94225877Y-137227000D01*
X96021418Y-137227000D01*
X96021418Y-139250000D01*
X96032535Y-139362876D01*
X96065460Y-139471414D01*
X96118927Y-139571443D01*
X96181756Y-139648000D01*
X95145804Y-139648000D01*
X90352000Y-134854198D01*
X90352000Y-124127000D01*
X99000000Y-124127000D01*
X99024776Y-124124560D01*
X99048601Y-124117333D01*
X99070557Y-124105597D01*
X99089803Y-124089803D01*
X99105597Y-124070557D01*
X99117333Y-124048601D01*
X99124560Y-124024776D01*
X99127000Y-124000000D01*
X99127000Y-122627000D01*
X110139422Y-122627000D01*
X110139422Y-122982497D01*
G36*
X117127000Y-131953000D02*
G01*
X117147000Y-131953000D01*
X117147000Y-132207000D01*
X117127000Y-132207000D01*
X117127000Y-132227000D01*
X116873000Y-132227000D01*
X116873000Y-132207000D01*
X116853000Y-132207000D01*
X116853000Y-131953000D01*
X116873000Y-131953000D01*
X116873000Y-131933000D01*
X117127000Y-131933000D01*
X117127000Y-131953000D01*
X117127000Y-131953000D01*
G37*
X117127000Y-131953000D02*
X117147000Y-131953000D01*
X117147000Y-132207000D01*
X117127000Y-132207000D01*
X117127000Y-132227000D01*
X116873000Y-132227000D01*
X116873000Y-132207000D01*
X116853000Y-132207000D01*
X116853000Y-131953000D01*
X116873000Y-131953000D01*
X116873000Y-131933000D01*
X117127000Y-131933000D01*
X117127000Y-131953000D01*
G36*
X102127000Y-131873000D02*
G01*
X102147000Y-131873000D01*
X102147000Y-132127000D01*
X102127000Y-132127000D01*
X102127000Y-132147000D01*
X101873000Y-132147000D01*
X101873000Y-132127000D01*
X101853000Y-132127000D01*
X101853000Y-131873000D01*
X101873000Y-131873000D01*
X101873000Y-131853000D01*
X102127000Y-131853000D01*
X102127000Y-131873000D01*
X102127000Y-131873000D01*
G37*
X102127000Y-131873000D02*
X102147000Y-131873000D01*
X102147000Y-132127000D01*
X102127000Y-132127000D01*
X102127000Y-132147000D01*
X101873000Y-132147000D01*
X101873000Y-132127000D01*
X101853000Y-132127000D01*
X101853000Y-131873000D01*
X101873000Y-131873000D01*
X101873000Y-131853000D01*
X102127000Y-131853000D01*
X102127000Y-131873000D01*
M02*
