G04 #@! TF.GenerationSoftware,KiCad,Pcbnew,(5.1.4)-1*
G04 #@! TF.CreationDate,2021-04-18T18:25:46+02:00*
G04 #@! TF.ProjectId,KUPS-DIM-6CVLED,4b555053-2d44-4494-9d2d-3643564c4544,V00.03*
G04 #@! TF.SameCoordinates,Original*
G04 #@! TF.FileFunction,Legend,Bot*
G04 #@! TF.FilePolarity,Positive*
%FSLAX46Y46*%
G04 Gerber Fmt 4.6, Leading zero omitted, Abs format (unit mm)*
G04 Created by KiCad (PCBNEW (5.1.4)-1) date 2021-04-18 18:25:46*
%MOMM*%
%LPD*%
G04 APERTURE LIST*
%ADD10C,0.150000*%
%ADD11C,0.120000*%
G04 APERTURE END LIST*
D10*
X91480571Y-106598666D02*
X91528190Y-106741523D01*
X91575809Y-106789142D01*
X91671047Y-106836761D01*
X91813904Y-106836761D01*
X91909142Y-106789142D01*
X91956761Y-106741523D01*
X92004380Y-106646285D01*
X92004380Y-106265333D01*
X91004380Y-106265333D01*
X91004380Y-106598666D01*
X91052000Y-106693904D01*
X91099619Y-106741523D01*
X91194857Y-106789142D01*
X91290095Y-106789142D01*
X91385333Y-106741523D01*
X91432952Y-106693904D01*
X91480571Y-106598666D01*
X91480571Y-106265333D01*
X91004380Y-107455809D02*
X91004380Y-107646285D01*
X91052000Y-107741523D01*
X91147238Y-107836761D01*
X91337714Y-107884380D01*
X91671047Y-107884380D01*
X91861523Y-107836761D01*
X91956761Y-107741523D01*
X92004380Y-107646285D01*
X92004380Y-107455809D01*
X91956761Y-107360571D01*
X91861523Y-107265333D01*
X91671047Y-107217714D01*
X91337714Y-107217714D01*
X91147238Y-107265333D01*
X91052000Y-107360571D01*
X91004380Y-107455809D01*
X91004380Y-108170095D02*
X91004380Y-108741523D01*
X92004380Y-108455809D02*
X91004380Y-108455809D01*
D11*
X112890000Y-118386252D02*
X112890000Y-117863748D01*
X114310000Y-118386252D02*
X114310000Y-117863748D01*
X104390000Y-131171267D02*
X104390000Y-130828733D01*
X105410000Y-131171267D02*
X105410000Y-130828733D01*
X99390000Y-131171267D02*
X99390000Y-130828733D01*
X100410000Y-131171267D02*
X100410000Y-130828733D01*
X99500000Y-104350000D02*
X99500000Y-102950000D01*
X95100000Y-104350000D02*
X95100000Y-102950000D01*
X95300000Y-101950000D02*
X99300000Y-101950000D01*
X95300000Y-105350000D02*
X99300000Y-105350000D01*
X118475000Y-115570000D02*
X121925000Y-115570000D01*
X118475000Y-115570000D02*
X116525000Y-115570000D01*
X118475000Y-120840000D02*
X120425000Y-120840000D01*
X118475000Y-120840000D02*
X116525000Y-120840000D01*
D10*
X108050000Y-119611000D02*
X108050000Y-120686000D01*
X98325000Y-119611000D02*
X98325000Y-114961000D01*
X108275000Y-119611000D02*
X108275000Y-114961000D01*
X98325000Y-119611000D02*
X98650000Y-119611000D01*
X98325000Y-114961000D02*
X98650000Y-114961000D01*
X108275000Y-114961000D02*
X107950000Y-114961000D01*
X108275000Y-119611000D02*
X108050000Y-119611000D01*
D11*
X106883593Y-111859760D02*
X107226127Y-111859760D01*
X106883593Y-112879760D02*
X107226127Y-112879760D01*
X104010000Y-108203733D02*
X104010000Y-108546267D01*
X102990000Y-108203733D02*
X102990000Y-108546267D01*
X99390000Y-127671267D02*
X99390000Y-127328733D01*
X100410000Y-127671267D02*
X100410000Y-127328733D01*
X104390000Y-127671267D02*
X104390000Y-127328733D01*
X105410000Y-127671267D02*
X105410000Y-127328733D01*
X124010000Y-117913748D02*
X124010000Y-118436252D01*
X122590000Y-117913748D02*
X122590000Y-118436252D01*
X91490000Y-128430000D02*
X91490000Y-126000000D01*
X91500000Y-128450000D02*
X92500000Y-128450000D01*
X94550000Y-128450000D02*
X94550000Y-126600000D01*
X93500000Y-128450000D02*
X94550000Y-128450000D01*
X110310000Y-117753733D02*
X110310000Y-118096267D01*
X109290000Y-117753733D02*
X109290000Y-118096267D01*
X112010000Y-117753733D02*
X112010000Y-118096267D01*
X110990000Y-117753733D02*
X110990000Y-118096267D01*
X123890000Y-131171267D02*
X123890000Y-130828733D01*
X124910000Y-131171267D02*
X124910000Y-130828733D01*
X119390000Y-131171267D02*
X119390000Y-130828733D01*
X120410000Y-131171267D02*
X120410000Y-130828733D01*
X114390000Y-131171267D02*
X114390000Y-130828733D01*
X115410000Y-131171267D02*
X115410000Y-130828733D01*
X109390000Y-131171267D02*
X109390000Y-130828733D01*
X110410000Y-131171267D02*
X110410000Y-130828733D01*
X123890000Y-127671267D02*
X123890000Y-127328733D01*
X124910000Y-127671267D02*
X124910000Y-127328733D01*
X114390000Y-127671267D02*
X114390000Y-127328733D01*
X115410000Y-127671267D02*
X115410000Y-127328733D01*
X103107000Y-103680267D02*
X103107000Y-103337733D01*
X104127000Y-103680267D02*
X104127000Y-103337733D01*
X109390000Y-127671267D02*
X109390000Y-127328733D01*
X110410000Y-127671267D02*
X110410000Y-127328733D01*
X127410000Y-118053733D02*
X127410000Y-118396267D01*
X126390000Y-118053733D02*
X126390000Y-118396267D01*
X125710000Y-118053733D02*
X125710000Y-118396267D01*
X124690000Y-118053733D02*
X124690000Y-118396267D01*
X103528313Y-111864840D02*
X103870847Y-111864840D01*
X103528313Y-112884840D02*
X103870847Y-112884840D01*
X119390000Y-127671267D02*
X119390000Y-127328733D01*
X120410000Y-127671267D02*
X120410000Y-127328733D01*
X97010000Y-126953733D02*
X97010000Y-127296267D01*
X95990000Y-126953733D02*
X95990000Y-127296267D01*
X116131361Y-112730980D02*
X116456919Y-112730980D01*
X116131361Y-113750980D02*
X116456919Y-113750980D01*
X122926620Y-109027439D02*
X122926620Y-108701881D01*
X123946620Y-109027439D02*
X123946620Y-108701881D01*
X121742559Y-102470840D02*
X121417001Y-102470840D01*
X121742559Y-101450840D02*
X121417001Y-101450840D01*
X108397820Y-107632879D02*
X108397820Y-107307321D01*
X109417820Y-107632879D02*
X109417820Y-107307321D01*
D10*
X118856600Y-110673460D02*
X118856600Y-112048460D01*
X119281600Y-103423460D02*
X119281600Y-103948460D01*
X112031600Y-103423460D02*
X112031600Y-103948460D01*
X112031600Y-110673460D02*
X112031600Y-110148460D01*
X119281600Y-110673460D02*
X119281600Y-110148460D01*
X112031600Y-110673460D02*
X112556600Y-110673460D01*
X112031600Y-103423460D02*
X112556600Y-103423460D01*
X119281600Y-103423460D02*
X118756600Y-103423460D01*
X119281600Y-110673460D02*
X118856600Y-110673460D01*
D11*
X100977000Y-104954500D02*
X100977000Y-102669500D01*
X102447000Y-104954500D02*
X100977000Y-104954500D01*
X102447000Y-102669500D02*
X102447000Y-104954500D01*
X123946620Y-105691981D02*
X123946620Y-106017539D01*
X122926620Y-105691981D02*
X122926620Y-106017539D01*
D10*
X114007142Y-113857142D02*
X114054761Y-113809523D01*
X114102380Y-113666666D01*
X114102380Y-113571428D01*
X114054761Y-113428571D01*
X113959523Y-113333333D01*
X113864285Y-113285714D01*
X113673809Y-113238095D01*
X113530952Y-113238095D01*
X113340476Y-113285714D01*
X113245238Y-113333333D01*
X113150000Y-113428571D01*
X113102380Y-113571428D01*
X113102380Y-113666666D01*
X113150000Y-113809523D01*
X113197619Y-113857142D01*
X114102380Y-114809523D02*
X114102380Y-114238095D01*
X114102380Y-114523809D02*
X113102380Y-114523809D01*
X113245238Y-114428571D01*
X113340476Y-114333333D01*
X113388095Y-114238095D01*
X113102380Y-115142857D02*
X113102380Y-115761904D01*
X113483333Y-115428571D01*
X113483333Y-115571428D01*
X113530952Y-115666666D01*
X113578571Y-115714285D01*
X113673809Y-115761904D01*
X113911904Y-115761904D01*
X114007142Y-115714285D01*
X114054761Y-115666666D01*
X114102380Y-115571428D01*
X114102380Y-115285714D01*
X114054761Y-115190476D01*
X114007142Y-115142857D01*
X105466380Y-133427142D02*
X104990190Y-133093809D01*
X105466380Y-132855714D02*
X104466380Y-132855714D01*
X104466380Y-133236666D01*
X104514000Y-133331904D01*
X104561619Y-133379523D01*
X104656857Y-133427142D01*
X104799714Y-133427142D01*
X104894952Y-133379523D01*
X104942571Y-133331904D01*
X104990190Y-133236666D01*
X104990190Y-132855714D01*
X104466380Y-133760476D02*
X104466380Y-134379523D01*
X104847333Y-134046190D01*
X104847333Y-134189047D01*
X104894952Y-134284285D01*
X104942571Y-134331904D01*
X105037809Y-134379523D01*
X105275904Y-134379523D01*
X105371142Y-134331904D01*
X105418761Y-134284285D01*
X105466380Y-134189047D01*
X105466380Y-133903333D01*
X105418761Y-133808095D01*
X105371142Y-133760476D01*
X104561619Y-134760476D02*
X104514000Y-134808095D01*
X104466380Y-134903333D01*
X104466380Y-135141428D01*
X104514000Y-135236666D01*
X104561619Y-135284285D01*
X104656857Y-135331904D01*
X104752095Y-135331904D01*
X104894952Y-135284285D01*
X105466380Y-134712857D01*
X105466380Y-135331904D01*
X100386380Y-133427142D02*
X99910190Y-133093809D01*
X100386380Y-132855714D02*
X99386380Y-132855714D01*
X99386380Y-133236666D01*
X99434000Y-133331904D01*
X99481619Y-133379523D01*
X99576857Y-133427142D01*
X99719714Y-133427142D01*
X99814952Y-133379523D01*
X99862571Y-133331904D01*
X99910190Y-133236666D01*
X99910190Y-132855714D01*
X99386380Y-133760476D02*
X99386380Y-134379523D01*
X99767333Y-134046190D01*
X99767333Y-134189047D01*
X99814952Y-134284285D01*
X99862571Y-134331904D01*
X99957809Y-134379523D01*
X100195904Y-134379523D01*
X100291142Y-134331904D01*
X100338761Y-134284285D01*
X100386380Y-134189047D01*
X100386380Y-133903333D01*
X100338761Y-133808095D01*
X100291142Y-133760476D01*
X100386380Y-135331904D02*
X100386380Y-134760476D01*
X100386380Y-135046190D02*
X99386380Y-135046190D01*
X99529238Y-134950952D01*
X99624476Y-134855714D01*
X99672095Y-134760476D01*
X98983333Y-106704761D02*
X98840476Y-106752380D01*
X98602380Y-106752380D01*
X98507142Y-106704761D01*
X98459523Y-106657142D01*
X98411904Y-106561904D01*
X98411904Y-106466666D01*
X98459523Y-106371428D01*
X98507142Y-106323809D01*
X98602380Y-106276190D01*
X98792857Y-106228571D01*
X98888095Y-106180952D01*
X98935714Y-106133333D01*
X98983333Y-106038095D01*
X98983333Y-105942857D01*
X98935714Y-105847619D01*
X98888095Y-105800000D01*
X98792857Y-105752380D01*
X98554761Y-105752380D01*
X98411904Y-105800000D01*
X98078571Y-105752380D02*
X97840476Y-106752380D01*
X97650000Y-106038095D01*
X97459523Y-106752380D01*
X97221428Y-105752380D01*
X96316666Y-106752380D02*
X96888095Y-106752380D01*
X96602380Y-106752380D02*
X96602380Y-105752380D01*
X96697619Y-105895238D01*
X96792857Y-105990476D01*
X96888095Y-106038095D01*
X119236904Y-114177380D02*
X119236904Y-114986904D01*
X119189285Y-115082142D01*
X119141666Y-115129761D01*
X119046428Y-115177380D01*
X118855952Y-115177380D01*
X118760714Y-115129761D01*
X118713095Y-115082142D01*
X118665476Y-114986904D01*
X118665476Y-114177380D01*
X117713095Y-114177380D02*
X118189285Y-114177380D01*
X118236904Y-114653571D01*
X118189285Y-114605952D01*
X118094047Y-114558333D01*
X117855952Y-114558333D01*
X117760714Y-114605952D01*
X117713095Y-114653571D01*
X117665476Y-114748809D01*
X117665476Y-114986904D01*
X117713095Y-115082142D01*
X117760714Y-115129761D01*
X117855952Y-115177380D01*
X118094047Y-115177380D01*
X118189285Y-115129761D01*
X118236904Y-115082142D01*
X97100380Y-115306095D02*
X97909904Y-115306095D01*
X98005142Y-115353714D01*
X98052761Y-115401333D01*
X98100380Y-115496571D01*
X98100380Y-115687047D01*
X98052761Y-115782285D01*
X98005142Y-115829904D01*
X97909904Y-115877523D01*
X97100380Y-115877523D01*
X97433714Y-116782285D02*
X98100380Y-116782285D01*
X97052761Y-116544190D02*
X97767047Y-116306095D01*
X97767047Y-116925142D01*
X107688857Y-111599142D02*
X107736476Y-111646761D01*
X107879333Y-111694380D01*
X107974571Y-111694380D01*
X108117428Y-111646761D01*
X108212666Y-111551523D01*
X108260285Y-111456285D01*
X108307904Y-111265809D01*
X108307904Y-111122952D01*
X108260285Y-110932476D01*
X108212666Y-110837238D01*
X108117428Y-110742000D01*
X107974571Y-110694380D01*
X107879333Y-110694380D01*
X107736476Y-110742000D01*
X107688857Y-110789619D01*
X106736476Y-111694380D02*
X107307904Y-111694380D01*
X107022190Y-111694380D02*
X107022190Y-110694380D01*
X107117428Y-110837238D01*
X107212666Y-110932476D01*
X107307904Y-110980095D01*
X105879333Y-111027714D02*
X105879333Y-111694380D01*
X106117428Y-110646761D02*
X106355523Y-111361047D01*
X105736476Y-111361047D01*
X102522380Y-107732142D02*
X102046190Y-107398809D01*
X102522380Y-107160714D02*
X101522380Y-107160714D01*
X101522380Y-107541666D01*
X101570000Y-107636904D01*
X101617619Y-107684523D01*
X101712857Y-107732142D01*
X101855714Y-107732142D01*
X101950952Y-107684523D01*
X101998571Y-107636904D01*
X102046190Y-107541666D01*
X102046190Y-107160714D01*
X102522380Y-108684523D02*
X102522380Y-108113095D01*
X102522380Y-108398809D02*
X101522380Y-108398809D01*
X101665238Y-108303571D01*
X101760476Y-108208333D01*
X101808095Y-108113095D01*
X102522380Y-109160714D02*
X102522380Y-109351190D01*
X102474761Y-109446428D01*
X102427142Y-109494047D01*
X102284285Y-109589285D01*
X102093809Y-109636904D01*
X101712857Y-109636904D01*
X101617619Y-109589285D01*
X101570000Y-109541666D01*
X101522380Y-109446428D01*
X101522380Y-109255952D01*
X101570000Y-109160714D01*
X101617619Y-109113095D01*
X101712857Y-109065476D01*
X101950952Y-109065476D01*
X102046190Y-109113095D01*
X102093809Y-109160714D01*
X102141428Y-109255952D01*
X102141428Y-109446428D01*
X102093809Y-109541666D01*
X102046190Y-109589285D01*
X101950952Y-109636904D01*
X98290857Y-126802380D02*
X98624190Y-126326190D01*
X98862285Y-126802380D02*
X98862285Y-125802380D01*
X98481333Y-125802380D01*
X98386095Y-125850000D01*
X98338476Y-125897619D01*
X98290857Y-125992857D01*
X98290857Y-126135714D01*
X98338476Y-126230952D01*
X98386095Y-126278571D01*
X98481333Y-126326190D01*
X98862285Y-126326190D01*
X97909904Y-125897619D02*
X97862285Y-125850000D01*
X97767047Y-125802380D01*
X97528952Y-125802380D01*
X97433714Y-125850000D01*
X97386095Y-125897619D01*
X97338476Y-125992857D01*
X97338476Y-126088095D01*
X97386095Y-126230952D01*
X97957523Y-126802380D01*
X97338476Y-126802380D01*
X96386095Y-126802380D02*
X96957523Y-126802380D01*
X96671809Y-126802380D02*
X96671809Y-125802380D01*
X96767047Y-125945238D01*
X96862285Y-126040476D01*
X96957523Y-126088095D01*
X103370857Y-126802380D02*
X103704190Y-126326190D01*
X103942285Y-126802380D02*
X103942285Y-125802380D01*
X103561333Y-125802380D01*
X103466095Y-125850000D01*
X103418476Y-125897619D01*
X103370857Y-125992857D01*
X103370857Y-126135714D01*
X103418476Y-126230952D01*
X103466095Y-126278571D01*
X103561333Y-126326190D01*
X103942285Y-126326190D01*
X102989904Y-125897619D02*
X102942285Y-125850000D01*
X102847047Y-125802380D01*
X102608952Y-125802380D01*
X102513714Y-125850000D01*
X102466095Y-125897619D01*
X102418476Y-125992857D01*
X102418476Y-126088095D01*
X102466095Y-126230952D01*
X103037523Y-126802380D01*
X102418476Y-126802380D01*
X102037523Y-125897619D02*
X101989904Y-125850000D01*
X101894666Y-125802380D01*
X101656571Y-125802380D01*
X101561333Y-125850000D01*
X101513714Y-125897619D01*
X101466095Y-125992857D01*
X101466095Y-126088095D01*
X101513714Y-126230952D01*
X102085142Y-126802380D01*
X101466095Y-126802380D01*
X123532142Y-121267142D02*
X123579761Y-121219523D01*
X123627380Y-121076666D01*
X123627380Y-120981428D01*
X123579761Y-120838571D01*
X123484523Y-120743333D01*
X123389285Y-120695714D01*
X123198809Y-120648095D01*
X123055952Y-120648095D01*
X122865476Y-120695714D01*
X122770238Y-120743333D01*
X122675000Y-120838571D01*
X122627380Y-120981428D01*
X122627380Y-121076666D01*
X122675000Y-121219523D01*
X122722619Y-121267142D01*
X123627380Y-122219523D02*
X123627380Y-121648095D01*
X123627380Y-121933809D02*
X122627380Y-121933809D01*
X122770238Y-121838571D01*
X122865476Y-121743333D01*
X122913095Y-121648095D01*
X122722619Y-122600476D02*
X122675000Y-122648095D01*
X122627380Y-122743333D01*
X122627380Y-122981428D01*
X122675000Y-123076666D01*
X122722619Y-123124285D01*
X122817857Y-123171904D01*
X122913095Y-123171904D01*
X123055952Y-123124285D01*
X123627380Y-122552857D01*
X123627380Y-123171904D01*
X90002380Y-126738095D02*
X90811904Y-126738095D01*
X90907142Y-126785714D01*
X90954761Y-126833333D01*
X91002380Y-126928571D01*
X91002380Y-127119047D01*
X90954761Y-127214285D01*
X90907142Y-127261904D01*
X90811904Y-127309523D01*
X90002380Y-127309523D01*
X90002380Y-127690476D02*
X90002380Y-128309523D01*
X90383333Y-127976190D01*
X90383333Y-128119047D01*
X90430952Y-128214285D01*
X90478571Y-128261904D01*
X90573809Y-128309523D01*
X90811904Y-128309523D01*
X90907142Y-128261904D01*
X90954761Y-128214285D01*
X91002380Y-128119047D01*
X91002380Y-127833333D01*
X90954761Y-127738095D01*
X90907142Y-127690476D01*
X110292380Y-113857142D02*
X109816190Y-113523809D01*
X110292380Y-113285714D02*
X109292380Y-113285714D01*
X109292380Y-113666666D01*
X109340000Y-113761904D01*
X109387619Y-113809523D01*
X109482857Y-113857142D01*
X109625714Y-113857142D01*
X109720952Y-113809523D01*
X109768571Y-113761904D01*
X109816190Y-113666666D01*
X109816190Y-113285714D01*
X110292380Y-114809523D02*
X110292380Y-114238095D01*
X110292380Y-114523809D02*
X109292380Y-114523809D01*
X109435238Y-114428571D01*
X109530476Y-114333333D01*
X109578095Y-114238095D01*
X109292380Y-115142857D02*
X109292380Y-115761904D01*
X109673333Y-115428571D01*
X109673333Y-115571428D01*
X109720952Y-115666666D01*
X109768571Y-115714285D01*
X109863809Y-115761904D01*
X110101904Y-115761904D01*
X110197142Y-115714285D01*
X110244761Y-115666666D01*
X110292380Y-115571428D01*
X110292380Y-115285714D01*
X110244761Y-115190476D01*
X110197142Y-115142857D01*
X111952380Y-113857142D02*
X111476190Y-113523809D01*
X111952380Y-113285714D02*
X110952380Y-113285714D01*
X110952380Y-113666666D01*
X111000000Y-113761904D01*
X111047619Y-113809523D01*
X111142857Y-113857142D01*
X111285714Y-113857142D01*
X111380952Y-113809523D01*
X111428571Y-113761904D01*
X111476190Y-113666666D01*
X111476190Y-113285714D01*
X111952380Y-114809523D02*
X111952380Y-114238095D01*
X111952380Y-114523809D02*
X110952380Y-114523809D01*
X111095238Y-114428571D01*
X111190476Y-114333333D01*
X111238095Y-114238095D01*
X111047619Y-115190476D02*
X111000000Y-115238095D01*
X110952380Y-115333333D01*
X110952380Y-115571428D01*
X111000000Y-115666666D01*
X111047619Y-115714285D01*
X111142857Y-115761904D01*
X111238095Y-115761904D01*
X111380952Y-115714285D01*
X111952380Y-115142857D01*
X111952380Y-115761904D01*
X125024380Y-133427142D02*
X124548190Y-133093809D01*
X125024380Y-132855714D02*
X124024380Y-132855714D01*
X124024380Y-133236666D01*
X124072000Y-133331904D01*
X124119619Y-133379523D01*
X124214857Y-133427142D01*
X124357714Y-133427142D01*
X124452952Y-133379523D01*
X124500571Y-133331904D01*
X124548190Y-133236666D01*
X124548190Y-132855714D01*
X124024380Y-133760476D02*
X124024380Y-134379523D01*
X124405333Y-134046190D01*
X124405333Y-134189047D01*
X124452952Y-134284285D01*
X124500571Y-134331904D01*
X124595809Y-134379523D01*
X124833904Y-134379523D01*
X124929142Y-134331904D01*
X124976761Y-134284285D01*
X125024380Y-134189047D01*
X125024380Y-133903333D01*
X124976761Y-133808095D01*
X124929142Y-133760476D01*
X124024380Y-135236666D02*
X124024380Y-135046190D01*
X124072000Y-134950952D01*
X124119619Y-134903333D01*
X124262476Y-134808095D01*
X124452952Y-134760476D01*
X124833904Y-134760476D01*
X124929142Y-134808095D01*
X124976761Y-134855714D01*
X125024380Y-134950952D01*
X125024380Y-135141428D01*
X124976761Y-135236666D01*
X124929142Y-135284285D01*
X124833904Y-135331904D01*
X124595809Y-135331904D01*
X124500571Y-135284285D01*
X124452952Y-135236666D01*
X124405333Y-135141428D01*
X124405333Y-134950952D01*
X124452952Y-134855714D01*
X124500571Y-134808095D01*
X124595809Y-134760476D01*
X120452380Y-133427142D02*
X119976190Y-133093809D01*
X120452380Y-132855714D02*
X119452380Y-132855714D01*
X119452380Y-133236666D01*
X119500000Y-133331904D01*
X119547619Y-133379523D01*
X119642857Y-133427142D01*
X119785714Y-133427142D01*
X119880952Y-133379523D01*
X119928571Y-133331904D01*
X119976190Y-133236666D01*
X119976190Y-132855714D01*
X119452380Y-133760476D02*
X119452380Y-134379523D01*
X119833333Y-134046190D01*
X119833333Y-134189047D01*
X119880952Y-134284285D01*
X119928571Y-134331904D01*
X120023809Y-134379523D01*
X120261904Y-134379523D01*
X120357142Y-134331904D01*
X120404761Y-134284285D01*
X120452380Y-134189047D01*
X120452380Y-133903333D01*
X120404761Y-133808095D01*
X120357142Y-133760476D01*
X119452380Y-135284285D02*
X119452380Y-134808095D01*
X119928571Y-134760476D01*
X119880952Y-134808095D01*
X119833333Y-134903333D01*
X119833333Y-135141428D01*
X119880952Y-135236666D01*
X119928571Y-135284285D01*
X120023809Y-135331904D01*
X120261904Y-135331904D01*
X120357142Y-135284285D01*
X120404761Y-135236666D01*
X120452380Y-135141428D01*
X120452380Y-134903333D01*
X120404761Y-134808095D01*
X120357142Y-134760476D01*
X115372380Y-133427142D02*
X114896190Y-133093809D01*
X115372380Y-132855714D02*
X114372380Y-132855714D01*
X114372380Y-133236666D01*
X114420000Y-133331904D01*
X114467619Y-133379523D01*
X114562857Y-133427142D01*
X114705714Y-133427142D01*
X114800952Y-133379523D01*
X114848571Y-133331904D01*
X114896190Y-133236666D01*
X114896190Y-132855714D01*
X114372380Y-133760476D02*
X114372380Y-134379523D01*
X114753333Y-134046190D01*
X114753333Y-134189047D01*
X114800952Y-134284285D01*
X114848571Y-134331904D01*
X114943809Y-134379523D01*
X115181904Y-134379523D01*
X115277142Y-134331904D01*
X115324761Y-134284285D01*
X115372380Y-134189047D01*
X115372380Y-133903333D01*
X115324761Y-133808095D01*
X115277142Y-133760476D01*
X114705714Y-135236666D02*
X115372380Y-135236666D01*
X114324761Y-134998571D02*
X115039047Y-134760476D01*
X115039047Y-135379523D01*
X110292380Y-133427142D02*
X109816190Y-133093809D01*
X110292380Y-132855714D02*
X109292380Y-132855714D01*
X109292380Y-133236666D01*
X109340000Y-133331904D01*
X109387619Y-133379523D01*
X109482857Y-133427142D01*
X109625714Y-133427142D01*
X109720952Y-133379523D01*
X109768571Y-133331904D01*
X109816190Y-133236666D01*
X109816190Y-132855714D01*
X109292380Y-133760476D02*
X109292380Y-134379523D01*
X109673333Y-134046190D01*
X109673333Y-134189047D01*
X109720952Y-134284285D01*
X109768571Y-134331904D01*
X109863809Y-134379523D01*
X110101904Y-134379523D01*
X110197142Y-134331904D01*
X110244761Y-134284285D01*
X110292380Y-134189047D01*
X110292380Y-133903333D01*
X110244761Y-133808095D01*
X110197142Y-133760476D01*
X109292380Y-134712857D02*
X109292380Y-135331904D01*
X109673333Y-134998571D01*
X109673333Y-135141428D01*
X109720952Y-135236666D01*
X109768571Y-135284285D01*
X109863809Y-135331904D01*
X110101904Y-135331904D01*
X110197142Y-135284285D01*
X110244761Y-135236666D01*
X110292380Y-135141428D01*
X110292380Y-134855714D01*
X110244761Y-134760476D01*
X110197142Y-134712857D01*
X122674857Y-126777380D02*
X123008190Y-126301190D01*
X123246285Y-126777380D02*
X123246285Y-125777380D01*
X122865333Y-125777380D01*
X122770095Y-125825000D01*
X122722476Y-125872619D01*
X122674857Y-125967857D01*
X122674857Y-126110714D01*
X122722476Y-126205952D01*
X122770095Y-126253571D01*
X122865333Y-126301190D01*
X123246285Y-126301190D01*
X122293904Y-125872619D02*
X122246285Y-125825000D01*
X122151047Y-125777380D01*
X121912952Y-125777380D01*
X121817714Y-125825000D01*
X121770095Y-125872619D01*
X121722476Y-125967857D01*
X121722476Y-126063095D01*
X121770095Y-126205952D01*
X122341523Y-126777380D01*
X121722476Y-126777380D01*
X120865333Y-125777380D02*
X121055809Y-125777380D01*
X121151047Y-125825000D01*
X121198666Y-125872619D01*
X121293904Y-126015476D01*
X121341523Y-126205952D01*
X121341523Y-126586904D01*
X121293904Y-126682142D01*
X121246285Y-126729761D01*
X121151047Y-126777380D01*
X120960571Y-126777380D01*
X120865333Y-126729761D01*
X120817714Y-126682142D01*
X120770095Y-126586904D01*
X120770095Y-126348809D01*
X120817714Y-126253571D01*
X120865333Y-126205952D01*
X120960571Y-126158333D01*
X121151047Y-126158333D01*
X121246285Y-126205952D01*
X121293904Y-126253571D01*
X121341523Y-126348809D01*
X113276857Y-126802380D02*
X113610190Y-126326190D01*
X113848285Y-126802380D02*
X113848285Y-125802380D01*
X113467333Y-125802380D01*
X113372095Y-125850000D01*
X113324476Y-125897619D01*
X113276857Y-125992857D01*
X113276857Y-126135714D01*
X113324476Y-126230952D01*
X113372095Y-126278571D01*
X113467333Y-126326190D01*
X113848285Y-126326190D01*
X112895904Y-125897619D02*
X112848285Y-125850000D01*
X112753047Y-125802380D01*
X112514952Y-125802380D01*
X112419714Y-125850000D01*
X112372095Y-125897619D01*
X112324476Y-125992857D01*
X112324476Y-126088095D01*
X112372095Y-126230952D01*
X112943523Y-126802380D01*
X112324476Y-126802380D01*
X111467333Y-126135714D02*
X111467333Y-126802380D01*
X111705428Y-125754761D02*
X111943523Y-126469047D01*
X111324476Y-126469047D01*
X105466380Y-103342333D02*
X104990190Y-103009000D01*
X105466380Y-102770904D02*
X104466380Y-102770904D01*
X104466380Y-103151857D01*
X104514000Y-103247095D01*
X104561619Y-103294714D01*
X104656857Y-103342333D01*
X104799714Y-103342333D01*
X104894952Y-103294714D01*
X104942571Y-103247095D01*
X104990190Y-103151857D01*
X104990190Y-102770904D01*
X105466380Y-104294714D02*
X105466380Y-103723285D01*
X105466380Y-104009000D02*
X104466380Y-104009000D01*
X104609238Y-103913761D01*
X104704476Y-103818523D01*
X104752095Y-103723285D01*
X108450857Y-126802380D02*
X108784190Y-126326190D01*
X109022285Y-126802380D02*
X109022285Y-125802380D01*
X108641333Y-125802380D01*
X108546095Y-125850000D01*
X108498476Y-125897619D01*
X108450857Y-125992857D01*
X108450857Y-126135714D01*
X108498476Y-126230952D01*
X108546095Y-126278571D01*
X108641333Y-126326190D01*
X109022285Y-126326190D01*
X108069904Y-125897619D02*
X108022285Y-125850000D01*
X107927047Y-125802380D01*
X107688952Y-125802380D01*
X107593714Y-125850000D01*
X107546095Y-125897619D01*
X107498476Y-125992857D01*
X107498476Y-126088095D01*
X107546095Y-126230952D01*
X108117523Y-126802380D01*
X107498476Y-126802380D01*
X107165142Y-125802380D02*
X106546095Y-125802380D01*
X106879428Y-126183333D01*
X106736571Y-126183333D01*
X106641333Y-126230952D01*
X106593714Y-126278571D01*
X106546095Y-126373809D01*
X106546095Y-126611904D01*
X106593714Y-126707142D01*
X106641333Y-126754761D01*
X106736571Y-126802380D01*
X107022285Y-126802380D01*
X107117523Y-126754761D01*
X107165142Y-126707142D01*
X127437380Y-121267142D02*
X126961190Y-120933809D01*
X127437380Y-120695714D02*
X126437380Y-120695714D01*
X126437380Y-121076666D01*
X126485000Y-121171904D01*
X126532619Y-121219523D01*
X126627857Y-121267142D01*
X126770714Y-121267142D01*
X126865952Y-121219523D01*
X126913571Y-121171904D01*
X126961190Y-121076666D01*
X126961190Y-120695714D01*
X127437380Y-122219523D02*
X127437380Y-121648095D01*
X127437380Y-121933809D02*
X126437380Y-121933809D01*
X126580238Y-121838571D01*
X126675476Y-121743333D01*
X126723095Y-121648095D01*
X127437380Y-123171904D02*
X127437380Y-122600476D01*
X127437380Y-122886190D02*
X126437380Y-122886190D01*
X126580238Y-122790952D01*
X126675476Y-122695714D01*
X126723095Y-122600476D01*
X125532380Y-121267142D02*
X125056190Y-120933809D01*
X125532380Y-120695714D02*
X124532380Y-120695714D01*
X124532380Y-121076666D01*
X124580000Y-121171904D01*
X124627619Y-121219523D01*
X124722857Y-121267142D01*
X124865714Y-121267142D01*
X124960952Y-121219523D01*
X125008571Y-121171904D01*
X125056190Y-121076666D01*
X125056190Y-120695714D01*
X125532380Y-122219523D02*
X125532380Y-121648095D01*
X125532380Y-121933809D02*
X124532380Y-121933809D01*
X124675238Y-121838571D01*
X124770476Y-121743333D01*
X124818095Y-121648095D01*
X124532380Y-122838571D02*
X124532380Y-122933809D01*
X124580000Y-123029047D01*
X124627619Y-123076666D01*
X124722857Y-123124285D01*
X124913333Y-123171904D01*
X125151428Y-123171904D01*
X125341904Y-123124285D01*
X125437142Y-123076666D01*
X125484761Y-123029047D01*
X125532380Y-122933809D01*
X125532380Y-122838571D01*
X125484761Y-122743333D01*
X125437142Y-122695714D01*
X125341904Y-122648095D01*
X125151428Y-122600476D01*
X124913333Y-122600476D01*
X124722857Y-122648095D01*
X124627619Y-122695714D01*
X124580000Y-122743333D01*
X124532380Y-122838571D01*
X104132857Y-111694380D02*
X104466190Y-111218190D01*
X104704285Y-111694380D02*
X104704285Y-110694380D01*
X104323333Y-110694380D01*
X104228095Y-110742000D01*
X104180476Y-110789619D01*
X104132857Y-110884857D01*
X104132857Y-111027714D01*
X104180476Y-111122952D01*
X104228095Y-111170571D01*
X104323333Y-111218190D01*
X104704285Y-111218190D01*
X103180476Y-111694380D02*
X103751904Y-111694380D01*
X103466190Y-111694380D02*
X103466190Y-110694380D01*
X103561428Y-110837238D01*
X103656666Y-110932476D01*
X103751904Y-110980095D01*
X102323333Y-111027714D02*
X102323333Y-111694380D01*
X102561428Y-110646761D02*
X102799523Y-111361047D01*
X102180476Y-111361047D01*
X118356857Y-126802380D02*
X118690190Y-126326190D01*
X118928285Y-126802380D02*
X118928285Y-125802380D01*
X118547333Y-125802380D01*
X118452095Y-125850000D01*
X118404476Y-125897619D01*
X118356857Y-125992857D01*
X118356857Y-126135714D01*
X118404476Y-126230952D01*
X118452095Y-126278571D01*
X118547333Y-126326190D01*
X118928285Y-126326190D01*
X117975904Y-125897619D02*
X117928285Y-125850000D01*
X117833047Y-125802380D01*
X117594952Y-125802380D01*
X117499714Y-125850000D01*
X117452095Y-125897619D01*
X117404476Y-125992857D01*
X117404476Y-126088095D01*
X117452095Y-126230952D01*
X118023523Y-126802380D01*
X117404476Y-126802380D01*
X116499714Y-125802380D02*
X116975904Y-125802380D01*
X117023523Y-126278571D01*
X116975904Y-126230952D01*
X116880666Y-126183333D01*
X116642571Y-126183333D01*
X116547333Y-126230952D01*
X116499714Y-126278571D01*
X116452095Y-126373809D01*
X116452095Y-126611904D01*
X116499714Y-126707142D01*
X116547333Y-126754761D01*
X116642571Y-126802380D01*
X116880666Y-126802380D01*
X116975904Y-126754761D01*
X117023523Y-126707142D01*
X96312857Y-125027142D02*
X96360476Y-125074761D01*
X96503333Y-125122380D01*
X96598571Y-125122380D01*
X96741428Y-125074761D01*
X96836666Y-124979523D01*
X96884285Y-124884285D01*
X96931904Y-124693809D01*
X96931904Y-124550952D01*
X96884285Y-124360476D01*
X96836666Y-124265238D01*
X96741428Y-124170000D01*
X96598571Y-124122380D01*
X96503333Y-124122380D01*
X96360476Y-124170000D01*
X96312857Y-124217619D01*
X95360476Y-125122380D02*
X95931904Y-125122380D01*
X95646190Y-125122380D02*
X95646190Y-124122380D01*
X95741428Y-124265238D01*
X95836666Y-124360476D01*
X95931904Y-124408095D01*
X94408095Y-125122380D02*
X94979523Y-125122380D01*
X94693809Y-125122380D02*
X94693809Y-124122380D01*
X94789047Y-124265238D01*
X94884285Y-124360476D01*
X94979523Y-124408095D01*
X119166666Y-113857142D02*
X119214285Y-113904761D01*
X119357142Y-113952380D01*
X119452380Y-113952380D01*
X119595238Y-113904761D01*
X119690476Y-113809523D01*
X119738095Y-113714285D01*
X119785714Y-113523809D01*
X119785714Y-113380952D01*
X119738095Y-113190476D01*
X119690476Y-113095238D01*
X119595238Y-113000000D01*
X119452380Y-112952380D01*
X119357142Y-112952380D01*
X119214285Y-113000000D01*
X119166666Y-113047619D01*
X118261904Y-112952380D02*
X118738095Y-112952380D01*
X118785714Y-113428571D01*
X118738095Y-113380952D01*
X118642857Y-113333333D01*
X118404761Y-113333333D01*
X118309523Y-113380952D01*
X118261904Y-113428571D01*
X118214285Y-113523809D01*
X118214285Y-113761904D01*
X118261904Y-113857142D01*
X118309523Y-113904761D01*
X118404761Y-113952380D01*
X118642857Y-113952380D01*
X118738095Y-113904761D01*
X118785714Y-113857142D01*
X125223762Y-108697993D02*
X125271381Y-108650374D01*
X125319000Y-108507517D01*
X125319000Y-108412279D01*
X125271381Y-108269421D01*
X125176143Y-108174183D01*
X125080905Y-108126564D01*
X124890429Y-108078945D01*
X124747572Y-108078945D01*
X124557096Y-108126564D01*
X124461858Y-108174183D01*
X124366620Y-108269421D01*
X124319000Y-108412279D01*
X124319000Y-108507517D01*
X124366620Y-108650374D01*
X124414239Y-108697993D01*
X124652334Y-109555136D02*
X125319000Y-109555136D01*
X124271381Y-109317040D02*
X124985667Y-109078945D01*
X124985667Y-109697993D01*
X123849666Y-103852142D02*
X123897285Y-103899761D01*
X124040142Y-103947380D01*
X124135380Y-103947380D01*
X124278238Y-103899761D01*
X124373476Y-103804523D01*
X124421095Y-103709285D01*
X124468714Y-103518809D01*
X124468714Y-103375952D01*
X124421095Y-103185476D01*
X124373476Y-103090238D01*
X124278238Y-102995000D01*
X124135380Y-102947380D01*
X124040142Y-102947380D01*
X123897285Y-102995000D01*
X123849666Y-103042619D01*
X123516333Y-102947380D02*
X122897285Y-102947380D01*
X123230619Y-103328333D01*
X123087761Y-103328333D01*
X122992523Y-103375952D01*
X122944904Y-103423571D01*
X122897285Y-103518809D01*
X122897285Y-103756904D01*
X122944904Y-103852142D01*
X122992523Y-103899761D01*
X123087761Y-103947380D01*
X123373476Y-103947380D01*
X123468714Y-103899761D01*
X123516333Y-103852142D01*
X109262422Y-109802793D02*
X109310041Y-109755174D01*
X109357660Y-109612317D01*
X109357660Y-109517079D01*
X109310041Y-109374221D01*
X109214803Y-109278983D01*
X109119565Y-109231364D01*
X108929089Y-109183745D01*
X108786232Y-109183745D01*
X108595756Y-109231364D01*
X108500518Y-109278983D01*
X108405280Y-109374221D01*
X108357660Y-109517079D01*
X108357660Y-109612317D01*
X108405280Y-109755174D01*
X108452899Y-109802793D01*
X108452899Y-110183745D02*
X108405280Y-110231364D01*
X108357660Y-110326602D01*
X108357660Y-110564698D01*
X108405280Y-110659936D01*
X108452899Y-110707555D01*
X108548137Y-110755174D01*
X108643375Y-110755174D01*
X108786232Y-110707555D01*
X109357660Y-110136126D01*
X109357660Y-110755174D01*
X120761904Y-111202380D02*
X120761904Y-112011904D01*
X120714285Y-112107142D01*
X120666666Y-112154761D01*
X120571428Y-112202380D01*
X120380952Y-112202380D01*
X120285714Y-112154761D01*
X120238095Y-112107142D01*
X120190476Y-112011904D01*
X120190476Y-111202380D01*
X119190476Y-112202380D02*
X119761904Y-112202380D01*
X119476190Y-112202380D02*
X119476190Y-111202380D01*
X119571428Y-111345238D01*
X119666666Y-111440476D01*
X119761904Y-111488095D01*
X102831047Y-102296380D02*
X103307238Y-102296380D01*
X103307238Y-101296380D01*
X102497714Y-101772571D02*
X102164380Y-101772571D01*
X102021523Y-102296380D02*
X102497714Y-102296380D01*
X102497714Y-101296380D01*
X102021523Y-101296380D01*
X101592952Y-102296380D02*
X101592952Y-101296380D01*
X101354857Y-101296380D01*
X101212000Y-101344000D01*
X101116761Y-101439238D01*
X101069142Y-101534476D01*
X101021523Y-101724952D01*
X101021523Y-101867809D01*
X101069142Y-102058285D01*
X101116761Y-102153523D01*
X101212000Y-102248761D01*
X101354857Y-102296380D01*
X101592952Y-102296380D01*
X100069142Y-102296380D02*
X100640571Y-102296380D01*
X100354857Y-102296380D02*
X100354857Y-101296380D01*
X100450095Y-101439238D01*
X100545333Y-101534476D01*
X100640571Y-101582095D01*
X125310142Y-105614333D02*
X125357761Y-105566714D01*
X125405380Y-105423857D01*
X125405380Y-105328619D01*
X125357761Y-105185761D01*
X125262523Y-105090523D01*
X125167285Y-105042904D01*
X124976809Y-104995285D01*
X124833952Y-104995285D01*
X124643476Y-105042904D01*
X124548238Y-105090523D01*
X124453000Y-105185761D01*
X124405380Y-105328619D01*
X124405380Y-105423857D01*
X124453000Y-105566714D01*
X124500619Y-105614333D01*
X125405380Y-106566714D02*
X125405380Y-105995285D01*
X125405380Y-106281000D02*
X124405380Y-106281000D01*
X124548238Y-106185761D01*
X124643476Y-106090523D01*
X124691095Y-105995285D01*
M02*
