G04 #@! TF.GenerationSoftware,KiCad,Pcbnew,(5.1.4)-1*
G04 #@! TF.CreationDate,2021-04-18T18:25:46+02:00*
G04 #@! TF.ProjectId,KUPS-DIM-6CVLED,4b555053-2d44-4494-9d2d-3643564c4544,V00.03*
G04 #@! TF.SameCoordinates,Original*
G04 #@! TF.FileFunction,Paste,Top*
G04 #@! TF.FilePolarity,Positive*
%FSLAX46Y46*%
G04 Gerber Fmt 4.6, Leading zero omitted, Abs format (unit mm)*
G04 Created by KiCad (PCBNEW (5.1.4)-1) date 2021-04-18 18:25:46*
%MOMM*%
%LPD*%
G04 APERTURE LIST*
%ADD10R,2.510000X1.000000*%
%ADD11R,1.600000X1.050000*%
%ADD12C,0.100000*%
%ADD13C,0.600000*%
%ADD14C,1.600000*%
%ADD15R,1.800000X2.500000*%
%ADD16C,0.875000*%
G04 APERTURE END LIST*
D10*
X105260000Y-105400000D03*
X105260000Y-110480000D03*
X105260000Y-115560000D03*
X108570000Y-102860000D03*
X108570000Y-107940000D03*
X108570000Y-113060000D03*
X108570000Y-118100000D03*
D11*
X123374000Y-119575000D03*
X123374000Y-117425000D03*
X128074000Y-119575000D03*
X128074000Y-117425000D03*
D12*
G36*
X119694803Y-108557262D02*
G01*
X119709364Y-108559422D01*
X119723643Y-108562999D01*
X119737503Y-108567958D01*
X119750810Y-108574252D01*
X119763436Y-108581820D01*
X119775259Y-108590588D01*
X119786166Y-108600474D01*
X119796052Y-108611381D01*
X119804820Y-108623204D01*
X119812388Y-108635830D01*
X119818682Y-108649137D01*
X119823641Y-108662997D01*
X119827218Y-108677276D01*
X119829378Y-108691837D01*
X119830100Y-108706540D01*
X119830100Y-109956540D01*
X119829378Y-109971243D01*
X119827218Y-109985804D01*
X119823641Y-110000083D01*
X119818682Y-110013943D01*
X119812388Y-110027250D01*
X119804820Y-110039876D01*
X119796052Y-110051699D01*
X119786166Y-110062606D01*
X119775259Y-110072492D01*
X119763436Y-110081260D01*
X119750810Y-110088828D01*
X119737503Y-110095122D01*
X119723643Y-110100081D01*
X119709364Y-110103658D01*
X119694803Y-110105818D01*
X119680100Y-110106540D01*
X119380100Y-110106540D01*
X119365397Y-110105818D01*
X119350836Y-110103658D01*
X119336557Y-110100081D01*
X119322697Y-110095122D01*
X119309390Y-110088828D01*
X119296764Y-110081260D01*
X119284941Y-110072492D01*
X119274034Y-110062606D01*
X119264148Y-110051699D01*
X119255380Y-110039876D01*
X119247812Y-110027250D01*
X119241518Y-110013943D01*
X119236559Y-110000083D01*
X119232982Y-109985804D01*
X119230822Y-109971243D01*
X119230100Y-109956540D01*
X119230100Y-108706540D01*
X119230822Y-108691837D01*
X119232982Y-108677276D01*
X119236559Y-108662997D01*
X119241518Y-108649137D01*
X119247812Y-108635830D01*
X119255380Y-108623204D01*
X119264148Y-108611381D01*
X119274034Y-108600474D01*
X119284941Y-108590588D01*
X119296764Y-108581820D01*
X119309390Y-108574252D01*
X119322697Y-108567958D01*
X119336557Y-108562999D01*
X119350836Y-108559422D01*
X119365397Y-108557262D01*
X119380100Y-108556540D01*
X119680100Y-108556540D01*
X119694803Y-108557262D01*
X119694803Y-108557262D01*
G37*
D13*
X119530100Y-109331540D03*
D12*
G36*
X120964803Y-108557262D02*
G01*
X120979364Y-108559422D01*
X120993643Y-108562999D01*
X121007503Y-108567958D01*
X121020810Y-108574252D01*
X121033436Y-108581820D01*
X121045259Y-108590588D01*
X121056166Y-108600474D01*
X121066052Y-108611381D01*
X121074820Y-108623204D01*
X121082388Y-108635830D01*
X121088682Y-108649137D01*
X121093641Y-108662997D01*
X121097218Y-108677276D01*
X121099378Y-108691837D01*
X121100100Y-108706540D01*
X121100100Y-109956540D01*
X121099378Y-109971243D01*
X121097218Y-109985804D01*
X121093641Y-110000083D01*
X121088682Y-110013943D01*
X121082388Y-110027250D01*
X121074820Y-110039876D01*
X121066052Y-110051699D01*
X121056166Y-110062606D01*
X121045259Y-110072492D01*
X121033436Y-110081260D01*
X121020810Y-110088828D01*
X121007503Y-110095122D01*
X120993643Y-110100081D01*
X120979364Y-110103658D01*
X120964803Y-110105818D01*
X120950100Y-110106540D01*
X120650100Y-110106540D01*
X120635397Y-110105818D01*
X120620836Y-110103658D01*
X120606557Y-110100081D01*
X120592697Y-110095122D01*
X120579390Y-110088828D01*
X120566764Y-110081260D01*
X120554941Y-110072492D01*
X120544034Y-110062606D01*
X120534148Y-110051699D01*
X120525380Y-110039876D01*
X120517812Y-110027250D01*
X120511518Y-110013943D01*
X120506559Y-110000083D01*
X120502982Y-109985804D01*
X120500822Y-109971243D01*
X120500100Y-109956540D01*
X120500100Y-108706540D01*
X120500822Y-108691837D01*
X120502982Y-108677276D01*
X120506559Y-108662997D01*
X120511518Y-108649137D01*
X120517812Y-108635830D01*
X120525380Y-108623204D01*
X120534148Y-108611381D01*
X120544034Y-108600474D01*
X120554941Y-108590588D01*
X120566764Y-108581820D01*
X120579390Y-108574252D01*
X120592697Y-108567958D01*
X120606557Y-108562999D01*
X120620836Y-108559422D01*
X120635397Y-108557262D01*
X120650100Y-108556540D01*
X120950100Y-108556540D01*
X120964803Y-108557262D01*
X120964803Y-108557262D01*
G37*
D13*
X120800100Y-109331540D03*
D12*
G36*
X122234803Y-108557262D02*
G01*
X122249364Y-108559422D01*
X122263643Y-108562999D01*
X122277503Y-108567958D01*
X122290810Y-108574252D01*
X122303436Y-108581820D01*
X122315259Y-108590588D01*
X122326166Y-108600474D01*
X122336052Y-108611381D01*
X122344820Y-108623204D01*
X122352388Y-108635830D01*
X122358682Y-108649137D01*
X122363641Y-108662997D01*
X122367218Y-108677276D01*
X122369378Y-108691837D01*
X122370100Y-108706540D01*
X122370100Y-109956540D01*
X122369378Y-109971243D01*
X122367218Y-109985804D01*
X122363641Y-110000083D01*
X122358682Y-110013943D01*
X122352388Y-110027250D01*
X122344820Y-110039876D01*
X122336052Y-110051699D01*
X122326166Y-110062606D01*
X122315259Y-110072492D01*
X122303436Y-110081260D01*
X122290810Y-110088828D01*
X122277503Y-110095122D01*
X122263643Y-110100081D01*
X122249364Y-110103658D01*
X122234803Y-110105818D01*
X122220100Y-110106540D01*
X121920100Y-110106540D01*
X121905397Y-110105818D01*
X121890836Y-110103658D01*
X121876557Y-110100081D01*
X121862697Y-110095122D01*
X121849390Y-110088828D01*
X121836764Y-110081260D01*
X121824941Y-110072492D01*
X121814034Y-110062606D01*
X121804148Y-110051699D01*
X121795380Y-110039876D01*
X121787812Y-110027250D01*
X121781518Y-110013943D01*
X121776559Y-110000083D01*
X121772982Y-109985804D01*
X121770822Y-109971243D01*
X121770100Y-109956540D01*
X121770100Y-108706540D01*
X121770822Y-108691837D01*
X121772982Y-108677276D01*
X121776559Y-108662997D01*
X121781518Y-108649137D01*
X121787812Y-108635830D01*
X121795380Y-108623204D01*
X121804148Y-108611381D01*
X121814034Y-108600474D01*
X121824941Y-108590588D01*
X121836764Y-108581820D01*
X121849390Y-108574252D01*
X121862697Y-108567958D01*
X121876557Y-108562999D01*
X121890836Y-108559422D01*
X121905397Y-108557262D01*
X121920100Y-108556540D01*
X122220100Y-108556540D01*
X122234803Y-108557262D01*
X122234803Y-108557262D01*
G37*
D13*
X122070100Y-109331540D03*
D12*
G36*
X123504803Y-108557262D02*
G01*
X123519364Y-108559422D01*
X123533643Y-108562999D01*
X123547503Y-108567958D01*
X123560810Y-108574252D01*
X123573436Y-108581820D01*
X123585259Y-108590588D01*
X123596166Y-108600474D01*
X123606052Y-108611381D01*
X123614820Y-108623204D01*
X123622388Y-108635830D01*
X123628682Y-108649137D01*
X123633641Y-108662997D01*
X123637218Y-108677276D01*
X123639378Y-108691837D01*
X123640100Y-108706540D01*
X123640100Y-109956540D01*
X123639378Y-109971243D01*
X123637218Y-109985804D01*
X123633641Y-110000083D01*
X123628682Y-110013943D01*
X123622388Y-110027250D01*
X123614820Y-110039876D01*
X123606052Y-110051699D01*
X123596166Y-110062606D01*
X123585259Y-110072492D01*
X123573436Y-110081260D01*
X123560810Y-110088828D01*
X123547503Y-110095122D01*
X123533643Y-110100081D01*
X123519364Y-110103658D01*
X123504803Y-110105818D01*
X123490100Y-110106540D01*
X123190100Y-110106540D01*
X123175397Y-110105818D01*
X123160836Y-110103658D01*
X123146557Y-110100081D01*
X123132697Y-110095122D01*
X123119390Y-110088828D01*
X123106764Y-110081260D01*
X123094941Y-110072492D01*
X123084034Y-110062606D01*
X123074148Y-110051699D01*
X123065380Y-110039876D01*
X123057812Y-110027250D01*
X123051518Y-110013943D01*
X123046559Y-110000083D01*
X123042982Y-109985804D01*
X123040822Y-109971243D01*
X123040100Y-109956540D01*
X123040100Y-108706540D01*
X123040822Y-108691837D01*
X123042982Y-108677276D01*
X123046559Y-108662997D01*
X123051518Y-108649137D01*
X123057812Y-108635830D01*
X123065380Y-108623204D01*
X123074148Y-108611381D01*
X123084034Y-108600474D01*
X123094941Y-108590588D01*
X123106764Y-108581820D01*
X123119390Y-108574252D01*
X123132697Y-108567958D01*
X123146557Y-108562999D01*
X123160836Y-108559422D01*
X123175397Y-108557262D01*
X123190100Y-108556540D01*
X123490100Y-108556540D01*
X123504803Y-108557262D01*
X123504803Y-108557262D01*
G37*
D13*
X123340100Y-109331540D03*
D12*
G36*
X123504803Y-113907262D02*
G01*
X123519364Y-113909422D01*
X123533643Y-113912999D01*
X123547503Y-113917958D01*
X123560810Y-113924252D01*
X123573436Y-113931820D01*
X123585259Y-113940588D01*
X123596166Y-113950474D01*
X123606052Y-113961381D01*
X123614820Y-113973204D01*
X123622388Y-113985830D01*
X123628682Y-113999137D01*
X123633641Y-114012997D01*
X123637218Y-114027276D01*
X123639378Y-114041837D01*
X123640100Y-114056540D01*
X123640100Y-115306540D01*
X123639378Y-115321243D01*
X123637218Y-115335804D01*
X123633641Y-115350083D01*
X123628682Y-115363943D01*
X123622388Y-115377250D01*
X123614820Y-115389876D01*
X123606052Y-115401699D01*
X123596166Y-115412606D01*
X123585259Y-115422492D01*
X123573436Y-115431260D01*
X123560810Y-115438828D01*
X123547503Y-115445122D01*
X123533643Y-115450081D01*
X123519364Y-115453658D01*
X123504803Y-115455818D01*
X123490100Y-115456540D01*
X123190100Y-115456540D01*
X123175397Y-115455818D01*
X123160836Y-115453658D01*
X123146557Y-115450081D01*
X123132697Y-115445122D01*
X123119390Y-115438828D01*
X123106764Y-115431260D01*
X123094941Y-115422492D01*
X123084034Y-115412606D01*
X123074148Y-115401699D01*
X123065380Y-115389876D01*
X123057812Y-115377250D01*
X123051518Y-115363943D01*
X123046559Y-115350083D01*
X123042982Y-115335804D01*
X123040822Y-115321243D01*
X123040100Y-115306540D01*
X123040100Y-114056540D01*
X123040822Y-114041837D01*
X123042982Y-114027276D01*
X123046559Y-114012997D01*
X123051518Y-113999137D01*
X123057812Y-113985830D01*
X123065380Y-113973204D01*
X123074148Y-113961381D01*
X123084034Y-113950474D01*
X123094941Y-113940588D01*
X123106764Y-113931820D01*
X123119390Y-113924252D01*
X123132697Y-113917958D01*
X123146557Y-113912999D01*
X123160836Y-113909422D01*
X123175397Y-113907262D01*
X123190100Y-113906540D01*
X123490100Y-113906540D01*
X123504803Y-113907262D01*
X123504803Y-113907262D01*
G37*
D13*
X123340100Y-114681540D03*
D12*
G36*
X122234803Y-113907262D02*
G01*
X122249364Y-113909422D01*
X122263643Y-113912999D01*
X122277503Y-113917958D01*
X122290810Y-113924252D01*
X122303436Y-113931820D01*
X122315259Y-113940588D01*
X122326166Y-113950474D01*
X122336052Y-113961381D01*
X122344820Y-113973204D01*
X122352388Y-113985830D01*
X122358682Y-113999137D01*
X122363641Y-114012997D01*
X122367218Y-114027276D01*
X122369378Y-114041837D01*
X122370100Y-114056540D01*
X122370100Y-115306540D01*
X122369378Y-115321243D01*
X122367218Y-115335804D01*
X122363641Y-115350083D01*
X122358682Y-115363943D01*
X122352388Y-115377250D01*
X122344820Y-115389876D01*
X122336052Y-115401699D01*
X122326166Y-115412606D01*
X122315259Y-115422492D01*
X122303436Y-115431260D01*
X122290810Y-115438828D01*
X122277503Y-115445122D01*
X122263643Y-115450081D01*
X122249364Y-115453658D01*
X122234803Y-115455818D01*
X122220100Y-115456540D01*
X121920100Y-115456540D01*
X121905397Y-115455818D01*
X121890836Y-115453658D01*
X121876557Y-115450081D01*
X121862697Y-115445122D01*
X121849390Y-115438828D01*
X121836764Y-115431260D01*
X121824941Y-115422492D01*
X121814034Y-115412606D01*
X121804148Y-115401699D01*
X121795380Y-115389876D01*
X121787812Y-115377250D01*
X121781518Y-115363943D01*
X121776559Y-115350083D01*
X121772982Y-115335804D01*
X121770822Y-115321243D01*
X121770100Y-115306540D01*
X121770100Y-114056540D01*
X121770822Y-114041837D01*
X121772982Y-114027276D01*
X121776559Y-114012997D01*
X121781518Y-113999137D01*
X121787812Y-113985830D01*
X121795380Y-113973204D01*
X121804148Y-113961381D01*
X121814034Y-113950474D01*
X121824941Y-113940588D01*
X121836764Y-113931820D01*
X121849390Y-113924252D01*
X121862697Y-113917958D01*
X121876557Y-113912999D01*
X121890836Y-113909422D01*
X121905397Y-113907262D01*
X121920100Y-113906540D01*
X122220100Y-113906540D01*
X122234803Y-113907262D01*
X122234803Y-113907262D01*
G37*
D13*
X122070100Y-114681540D03*
D12*
G36*
X120964803Y-113907262D02*
G01*
X120979364Y-113909422D01*
X120993643Y-113912999D01*
X121007503Y-113917958D01*
X121020810Y-113924252D01*
X121033436Y-113931820D01*
X121045259Y-113940588D01*
X121056166Y-113950474D01*
X121066052Y-113961381D01*
X121074820Y-113973204D01*
X121082388Y-113985830D01*
X121088682Y-113999137D01*
X121093641Y-114012997D01*
X121097218Y-114027276D01*
X121099378Y-114041837D01*
X121100100Y-114056540D01*
X121100100Y-115306540D01*
X121099378Y-115321243D01*
X121097218Y-115335804D01*
X121093641Y-115350083D01*
X121088682Y-115363943D01*
X121082388Y-115377250D01*
X121074820Y-115389876D01*
X121066052Y-115401699D01*
X121056166Y-115412606D01*
X121045259Y-115422492D01*
X121033436Y-115431260D01*
X121020810Y-115438828D01*
X121007503Y-115445122D01*
X120993643Y-115450081D01*
X120979364Y-115453658D01*
X120964803Y-115455818D01*
X120950100Y-115456540D01*
X120650100Y-115456540D01*
X120635397Y-115455818D01*
X120620836Y-115453658D01*
X120606557Y-115450081D01*
X120592697Y-115445122D01*
X120579390Y-115438828D01*
X120566764Y-115431260D01*
X120554941Y-115422492D01*
X120544034Y-115412606D01*
X120534148Y-115401699D01*
X120525380Y-115389876D01*
X120517812Y-115377250D01*
X120511518Y-115363943D01*
X120506559Y-115350083D01*
X120502982Y-115335804D01*
X120500822Y-115321243D01*
X120500100Y-115306540D01*
X120500100Y-114056540D01*
X120500822Y-114041837D01*
X120502982Y-114027276D01*
X120506559Y-114012997D01*
X120511518Y-113999137D01*
X120517812Y-113985830D01*
X120525380Y-113973204D01*
X120534148Y-113961381D01*
X120544034Y-113950474D01*
X120554941Y-113940588D01*
X120566764Y-113931820D01*
X120579390Y-113924252D01*
X120592697Y-113917958D01*
X120606557Y-113912999D01*
X120620836Y-113909422D01*
X120635397Y-113907262D01*
X120650100Y-113906540D01*
X120950100Y-113906540D01*
X120964803Y-113907262D01*
X120964803Y-113907262D01*
G37*
D13*
X120800100Y-114681540D03*
D12*
G36*
X119694803Y-113907262D02*
G01*
X119709364Y-113909422D01*
X119723643Y-113912999D01*
X119737503Y-113917958D01*
X119750810Y-113924252D01*
X119763436Y-113931820D01*
X119775259Y-113940588D01*
X119786166Y-113950474D01*
X119796052Y-113961381D01*
X119804820Y-113973204D01*
X119812388Y-113985830D01*
X119818682Y-113999137D01*
X119823641Y-114012997D01*
X119827218Y-114027276D01*
X119829378Y-114041837D01*
X119830100Y-114056540D01*
X119830100Y-115306540D01*
X119829378Y-115321243D01*
X119827218Y-115335804D01*
X119823641Y-115350083D01*
X119818682Y-115363943D01*
X119812388Y-115377250D01*
X119804820Y-115389876D01*
X119796052Y-115401699D01*
X119786166Y-115412606D01*
X119775259Y-115422492D01*
X119763436Y-115431260D01*
X119750810Y-115438828D01*
X119737503Y-115445122D01*
X119723643Y-115450081D01*
X119709364Y-115453658D01*
X119694803Y-115455818D01*
X119680100Y-115456540D01*
X119380100Y-115456540D01*
X119365397Y-115455818D01*
X119350836Y-115453658D01*
X119336557Y-115450081D01*
X119322697Y-115445122D01*
X119309390Y-115438828D01*
X119296764Y-115431260D01*
X119284941Y-115422492D01*
X119274034Y-115412606D01*
X119264148Y-115401699D01*
X119255380Y-115389876D01*
X119247812Y-115377250D01*
X119241518Y-115363943D01*
X119236559Y-115350083D01*
X119232982Y-115335804D01*
X119230822Y-115321243D01*
X119230100Y-115306540D01*
X119230100Y-114056540D01*
X119230822Y-114041837D01*
X119232982Y-114027276D01*
X119236559Y-114012997D01*
X119241518Y-113999137D01*
X119247812Y-113985830D01*
X119255380Y-113973204D01*
X119264148Y-113961381D01*
X119274034Y-113950474D01*
X119284941Y-113940588D01*
X119296764Y-113931820D01*
X119309390Y-113924252D01*
X119322697Y-113917958D01*
X119336557Y-113912999D01*
X119350836Y-113909422D01*
X119365397Y-113907262D01*
X119380100Y-113906540D01*
X119680100Y-113906540D01*
X119694803Y-113907262D01*
X119694803Y-113907262D01*
G37*
D13*
X119530100Y-114681540D03*
D12*
G36*
X97874504Y-128701204D02*
G01*
X97898773Y-128704804D01*
X97922571Y-128710765D01*
X97945671Y-128719030D01*
X97967849Y-128729520D01*
X97988893Y-128742133D01*
X98008598Y-128756747D01*
X98026777Y-128773223D01*
X98043253Y-128791402D01*
X98057867Y-128811107D01*
X98070480Y-128832151D01*
X98080970Y-128854329D01*
X98089235Y-128877429D01*
X98095196Y-128901227D01*
X98098796Y-128925496D01*
X98100000Y-128950000D01*
X98100000Y-130050000D01*
X98098796Y-130074504D01*
X98095196Y-130098773D01*
X98089235Y-130122571D01*
X98080970Y-130145671D01*
X98070480Y-130167849D01*
X98057867Y-130188893D01*
X98043253Y-130208598D01*
X98026777Y-130226777D01*
X98008598Y-130243253D01*
X97988893Y-130257867D01*
X97967849Y-130270480D01*
X97945671Y-130280970D01*
X97922571Y-130289235D01*
X97898773Y-130295196D01*
X97874504Y-130298796D01*
X97850000Y-130300000D01*
X95350000Y-130300000D01*
X95325496Y-130298796D01*
X95301227Y-130295196D01*
X95277429Y-130289235D01*
X95254329Y-130280970D01*
X95232151Y-130270480D01*
X95211107Y-130257867D01*
X95191402Y-130243253D01*
X95173223Y-130226777D01*
X95156747Y-130208598D01*
X95142133Y-130188893D01*
X95129520Y-130167849D01*
X95119030Y-130145671D01*
X95110765Y-130122571D01*
X95104804Y-130098773D01*
X95101204Y-130074504D01*
X95100000Y-130050000D01*
X95100000Y-128950000D01*
X95101204Y-128925496D01*
X95104804Y-128901227D01*
X95110765Y-128877429D01*
X95119030Y-128854329D01*
X95129520Y-128832151D01*
X95142133Y-128811107D01*
X95156747Y-128791402D01*
X95173223Y-128773223D01*
X95191402Y-128756747D01*
X95211107Y-128742133D01*
X95232151Y-128729520D01*
X95254329Y-128719030D01*
X95277429Y-128710765D01*
X95301227Y-128704804D01*
X95325496Y-128701204D01*
X95350000Y-128700000D01*
X97850000Y-128700000D01*
X97874504Y-128701204D01*
X97874504Y-128701204D01*
G37*
D14*
X96600000Y-129500000D03*
D12*
G36*
X93474504Y-128701204D02*
G01*
X93498773Y-128704804D01*
X93522571Y-128710765D01*
X93545671Y-128719030D01*
X93567849Y-128729520D01*
X93588893Y-128742133D01*
X93608598Y-128756747D01*
X93626777Y-128773223D01*
X93643253Y-128791402D01*
X93657867Y-128811107D01*
X93670480Y-128832151D01*
X93680970Y-128854329D01*
X93689235Y-128877429D01*
X93695196Y-128901227D01*
X93698796Y-128925496D01*
X93700000Y-128950000D01*
X93700000Y-130050000D01*
X93698796Y-130074504D01*
X93695196Y-130098773D01*
X93689235Y-130122571D01*
X93680970Y-130145671D01*
X93670480Y-130167849D01*
X93657867Y-130188893D01*
X93643253Y-130208598D01*
X93626777Y-130226777D01*
X93608598Y-130243253D01*
X93588893Y-130257867D01*
X93567849Y-130270480D01*
X93545671Y-130280970D01*
X93522571Y-130289235D01*
X93498773Y-130295196D01*
X93474504Y-130298796D01*
X93450000Y-130300000D01*
X90950000Y-130300000D01*
X90925496Y-130298796D01*
X90901227Y-130295196D01*
X90877429Y-130289235D01*
X90854329Y-130280970D01*
X90832151Y-130270480D01*
X90811107Y-130257867D01*
X90791402Y-130243253D01*
X90773223Y-130226777D01*
X90756747Y-130208598D01*
X90742133Y-130188893D01*
X90729520Y-130167849D01*
X90719030Y-130145671D01*
X90710765Y-130122571D01*
X90704804Y-130098773D01*
X90701204Y-130074504D01*
X90700000Y-130050000D01*
X90700000Y-128950000D01*
X90701204Y-128925496D01*
X90704804Y-128901227D01*
X90710765Y-128877429D01*
X90719030Y-128854329D01*
X90729520Y-128832151D01*
X90742133Y-128811107D01*
X90756747Y-128791402D01*
X90773223Y-128773223D01*
X90791402Y-128756747D01*
X90811107Y-128742133D01*
X90832151Y-128729520D01*
X90854329Y-128719030D01*
X90877429Y-128710765D01*
X90901227Y-128704804D01*
X90925496Y-128701204D01*
X90950000Y-128700000D01*
X93450000Y-128700000D01*
X93474504Y-128701204D01*
X93474504Y-128701204D01*
G37*
D14*
X92200000Y-129500000D03*
D15*
X101500000Y-117000000D03*
X101500000Y-113000000D03*
D12*
G36*
X122027691Y-116206193D02*
G01*
X122048926Y-116209343D01*
X122069750Y-116214559D01*
X122089962Y-116221791D01*
X122109368Y-116230970D01*
X122127781Y-116242006D01*
X122145024Y-116254794D01*
X122160930Y-116269210D01*
X122175346Y-116285116D01*
X122188134Y-116302359D01*
X122199170Y-116320772D01*
X122208349Y-116340178D01*
X122215581Y-116360390D01*
X122220797Y-116381214D01*
X122223947Y-116402449D01*
X122225000Y-116423890D01*
X122225000Y-116936390D01*
X122223947Y-116957831D01*
X122220797Y-116979066D01*
X122215581Y-116999890D01*
X122208349Y-117020102D01*
X122199170Y-117039508D01*
X122188134Y-117057921D01*
X122175346Y-117075164D01*
X122160930Y-117091070D01*
X122145024Y-117105486D01*
X122127781Y-117118274D01*
X122109368Y-117129310D01*
X122089962Y-117138489D01*
X122069750Y-117145721D01*
X122048926Y-117150937D01*
X122027691Y-117154087D01*
X122006250Y-117155140D01*
X121568750Y-117155140D01*
X121547309Y-117154087D01*
X121526074Y-117150937D01*
X121505250Y-117145721D01*
X121485038Y-117138489D01*
X121465632Y-117129310D01*
X121447219Y-117118274D01*
X121429976Y-117105486D01*
X121414070Y-117091070D01*
X121399654Y-117075164D01*
X121386866Y-117057921D01*
X121375830Y-117039508D01*
X121366651Y-117020102D01*
X121359419Y-116999890D01*
X121354203Y-116979066D01*
X121351053Y-116957831D01*
X121350000Y-116936390D01*
X121350000Y-116423890D01*
X121351053Y-116402449D01*
X121354203Y-116381214D01*
X121359419Y-116360390D01*
X121366651Y-116340178D01*
X121375830Y-116320772D01*
X121386866Y-116302359D01*
X121399654Y-116285116D01*
X121414070Y-116269210D01*
X121429976Y-116254794D01*
X121447219Y-116242006D01*
X121465632Y-116230970D01*
X121485038Y-116221791D01*
X121505250Y-116214559D01*
X121526074Y-116209343D01*
X121547309Y-116206193D01*
X121568750Y-116205140D01*
X122006250Y-116205140D01*
X122027691Y-116206193D01*
X122027691Y-116206193D01*
G37*
D16*
X121787500Y-116680140D03*
D12*
G36*
X120452691Y-116206193D02*
G01*
X120473926Y-116209343D01*
X120494750Y-116214559D01*
X120514962Y-116221791D01*
X120534368Y-116230970D01*
X120552781Y-116242006D01*
X120570024Y-116254794D01*
X120585930Y-116269210D01*
X120600346Y-116285116D01*
X120613134Y-116302359D01*
X120624170Y-116320772D01*
X120633349Y-116340178D01*
X120640581Y-116360390D01*
X120645797Y-116381214D01*
X120648947Y-116402449D01*
X120650000Y-116423890D01*
X120650000Y-116936390D01*
X120648947Y-116957831D01*
X120645797Y-116979066D01*
X120640581Y-116999890D01*
X120633349Y-117020102D01*
X120624170Y-117039508D01*
X120613134Y-117057921D01*
X120600346Y-117075164D01*
X120585930Y-117091070D01*
X120570024Y-117105486D01*
X120552781Y-117118274D01*
X120534368Y-117129310D01*
X120514962Y-117138489D01*
X120494750Y-117145721D01*
X120473926Y-117150937D01*
X120452691Y-117154087D01*
X120431250Y-117155140D01*
X119993750Y-117155140D01*
X119972309Y-117154087D01*
X119951074Y-117150937D01*
X119930250Y-117145721D01*
X119910038Y-117138489D01*
X119890632Y-117129310D01*
X119872219Y-117118274D01*
X119854976Y-117105486D01*
X119839070Y-117091070D01*
X119824654Y-117075164D01*
X119811866Y-117057921D01*
X119800830Y-117039508D01*
X119791651Y-117020102D01*
X119784419Y-116999890D01*
X119779203Y-116979066D01*
X119776053Y-116957831D01*
X119775000Y-116936390D01*
X119775000Y-116423890D01*
X119776053Y-116402449D01*
X119779203Y-116381214D01*
X119784419Y-116360390D01*
X119791651Y-116340178D01*
X119800830Y-116320772D01*
X119811866Y-116302359D01*
X119824654Y-116285116D01*
X119839070Y-116269210D01*
X119854976Y-116254794D01*
X119872219Y-116242006D01*
X119890632Y-116230970D01*
X119910038Y-116221791D01*
X119930250Y-116214559D01*
X119951074Y-116209343D01*
X119972309Y-116206193D01*
X119993750Y-116205140D01*
X120431250Y-116205140D01*
X120452691Y-116206193D01*
X120452691Y-116206193D01*
G37*
D16*
X120212500Y-116680140D03*
M02*
